<?xml version="1.0" encoding="UTF-8"?>
<svg width="160px" height="160px" viewBox="0 0 160 160" version="1.1" xmlns="http://www.w3.org/2000/svg" xmlns:xlink="http://www.w3.org/1999/xlink">
    <title>Icon</title>
    <g id="Icon" stroke="none" stroke-width="1" fill="none" fill-rule="evenodd">
        <g id="Shield">
            <polygon id="Path" points="0 0 160 0 160 160 0 160"></polygon>
            <path d="M32,31.2732091 L32,91.9935602 C32,100.83423 36.4874288,109.089997 43.9581429,113.994358 L79,137 L114.041857,113.994358 C121.510592,109.091296 125.997602,100.838498 126,92.000171 L126,31.2732091 L79,21 L32,31.2732091 Z M24.22,20.118 L79,8 L133.78,20.118 C136.82961,20.7928376 139,23.4852398 139,26.5950909 L139,92.8724545 C139,106.185334 132.314531,118.616971 121.186667,126.001182 L79,154 L36.8133333,126.001182 C25.687434,118.618276 19.0032002,106.189619 19,92.8790909 L19,26.5950909 C19,23.4852398 21.1703898,20.7928376 24.22,20.118 Z" id="Shape" fill="#FFFFFF" fill-rule="nonzero"></path>
        </g>
        <g id="WPB" transform="translate(44.000000, 51.000000)" fill="#FFFFFF">
            <path d="M54.0807236,9.62070904 C49.3577772,9.23870484 47.3702214,10.4155757 45.1182902,10.7262866 C47.4028734,11.9340158 50.5163947,12.9597875 54.2903281,12.7373951 C50.8144754,14.116441 45.172008,13.6450541 41.2769464,11.2413007 C40.2626294,10.6145584 39.1967013,9.62496536 38.3983084,8.83435498 C35.2416023,5.94112535 32.9117277,0.427070215 22.8380747,0.0195281235 C10.2028237,-0.485909197 0.489395408,8.88223852 0.0164687885,20.9041981 C-0.458564407,32.9261578 9.40127096,43.0827877 22.0375753,43.5882251 C22.2039949,43.5967377 22.3704145,43.5946095 22.5347276,43.5946095 C25.8388942,43.3988191 30.1921363,42.0665927 33.471024,40.0246259 C31.748897,42.4932882 25.3122498,45.1056011 21.9617385,45.9334542 C22.2977376,48.6223808 23.7217839,49.8726731 24.8898811,50.7186155 C27.4799179,52.5913938 30.5544676,49.9418382 37.645207,50.0737839 C41.5908264,50.1472054 45.6607339,51.1389266 48.9512078,53 L52.4333801,40.7205333 C61.2831117,40.8588635 68.6540259,34.269025 68.9868651,25.8042799 C69.3249708,17.1980125 63.1031945,10.3464106 54.0807236,9.62070904 L54.0807236,9.62070904 Z" id="Fill-41"></path>
        </g>
    </g>
</svg>