<svg height="32" viewBox="0 0 1024 1024" width="32" xmlns="http://www.w3.org/2000/svg"><path d="m702.432 715.872h51.872v212.832h-51.872zm-455.488-13.312h-68.192c-74.912 0-136.192 57.504-136.192 127.712v95.776c0 17.6 15.328 31.936 34.08 31.936h272.384c18.752 0 34.08-14.336 34.08-31.936v-95.776c.032-70.208-61.248-127.712-136.16-127.712zm93.632 212.864h-255.424v-85.152c0-46.944 41.984-85.12 93.632-85.12h68.192c51.616 0 93.632 38.176 93.632 85.12v85.152zm-127.776-759.168c-91.168 0-212.8 121.6-212.8 121.6v298.752h425.728v-298.752s-121.664-121.6-212.928-121.6zm170.336 377.792h-340.544v-237.984c45.28-41.824 121.728-97.248 170.24-97.248 48.608 0 125.056 55.392 170.336 97.248v237.984zm127.712-470.048v383.136h383.136v-383.136zm340.576 340.576h-297.984v-297.984h297.984zm42.592 129.056h43.488v424.384h-43.488zm-426.656 0h43.488v424.384h-43.488zm2.24 380.864h437.28v43.488h-437.28zm-85.12-637.632h159.68v43.488h-159.68zm477.536 0h159.68v43.488h-159.68zm44.864 256.768h114.848v43.488h-114.848zm-510.848 0h114.816v43.488h-114.816zm582.176-242.144h43.488v282.048h-43.488zm-593.728 0h43.488v285.632h-43.488z"/></svg>