<svg xmlns="http://www.w3.org/2000/svg" width="32" height="32" viewBox="0 0 1024 1024"><path d="M512.002 1024C229.682 1024 0 794.318 0 512S229.682 0 512.002 0C794.324 0 1024 229.682 1024 512s-229.676 512-511.998 512zm431.796-441.914c-14.962-4.72-135.364-40.632-272.41-18.698 57.204 157.186 80.478 285.208 84.958 311.808 98.114-66.336 167.958-171.426 187.452-293.11zM682.832 915.238c-6.506-38.37-31.898-172.09-93.298-331.64-.96.328-1.922.64-2.88.972-246.67 85.958-335.216 257.016-343.086 273.104 74.15 57.824 167.336 92.32 268.436 92.32 60.58 0 118.318-12.39 170.828-34.756zm-495.734-110.16c9.908-16.96 129.93-215.684 355.476-288.594a479.555 479.555 0 0 1 17.236-5.2c-10.98-24.844-22.94-49.714-35.456-74.216-218.398 65.36-430.324 62.63-449.46 62.236-.132 4.442-.222 8.89-.222 13.366 0 112.32 42.58 214.874 112.426 292.408zM83.912 423.096c19.558.26 199.736 1.042 404.302-53.282-72.46-128.812-150.612-237.11-162.142-252.92C203.724 174.602 112.27 287.39 83.912 423.096zM409.518 87.5c12.088 16.184 91.518 124.348 163.18 256.014 155.508-58.284 221.34-146.77 229.208-157.974-77.23-68.518-178.782-110.2-289.902-110.2-35.29 0-69.6 4.232-102.486 12.16zm441.004 148.612c-9.216 12.474-82.504 106.418-244.202 172.434 10.178 20.832 19.934 42.018 29.016 63.344 3.216 7.56 6.354 15.084 9.418 22.57 145.518-18.298 290.104 11.028 304.526 14.078-.968-103.224-37.85-198.01-98.758-272.426z"/></svg>