<svg height="32" viewBox="0 0 1024 1024" width="32" xmlns="http://www.w3.org/2000/svg"><path d="m304.448 36.832-304.448 189.664 208.576 174.848 303.36-197.056zm391.584 804.8c-5.472 0-10.848-1.856-15.232-5.536l-168.864-140.032-168.864 140.096c-4.384 3.616-9.792 5.536-15.2 5.536-4.544 0-9.088-1.248-13.024-3.84l-125.12-81.92v48.384l322.176 202.848 322.176-202.912v-48.384l-125.088 81.92c-3.904 2.592-8.416 3.84-12.96 3.84zm327.808-615.136-304.384-189.632-207.52 167.424 303.328 196.992zm-511.904 364.384 188.064 156.16 300.864-196.704-185.6-148.96zm-188.064 156.096 188.064-156.16-303.328-189.536-185.568 149.024z"/></svg>