<svg xmlns="http://www.w3.org/2000/svg" width="32" height="32" viewBox="0 0 1024 1024"><path d="M957.888 991.104L534.24 14.112C530.528 5.536 522.048 0 512.704 0S494.88 5.536 491.2 14.08L66.112 991.072a23.534 23.534 0 0 0 1.92 22.304c4.352 6.592 11.712 10.624 19.616 10.624H448V810.624l-127.968-42.656c-17.696 0-32-14.304-32-32s14.304-32 32-32L448 746.624V544c0-17.696 14.304-32 32-32h64c17.696 0 32 14.304 32 32v48l95.968-48c17.696 0 32 14.304 32 32s-14.304 32-32 32L576 655.968v112l159.968-96c17.696 0 32 14.304 32 32s-14.304 32-32 32l-159.968 96V1024h360.352c7.936 0 15.296-4 19.616-10.624 4.352-6.592 5.024-15.008 1.92-22.272z"/></svg>