<svg xmlns="http://www.w3.org/2000/svg" width="32" height="32" viewBox="0 0 1024 1024"><path d="M512 92.2c136.8 0 153 .6 206.8 3 50 2.2 77 10.6 95 17.6 23.8 9.2 41 20.4 58.8 38.2 18 18 29 35 38.4 58.8 7 18 15.4 45.2 17.6 95 2.4 54 3 70.2 3 206.8s-.6 153-3 206.8c-2.2 50-10.6 77-17.6 95-9.2 23.8-20.4 41-38.2 58.8-18 18-35 29-58.8 38.4-18 7-45.2 15.4-95 17.6-54 2.4-70.2 3-206.8 3s-153-.6-206.8-3c-50-2.2-77-10.6-95-17.6-23.8-9.2-41-20.4-58.8-38.2-18-18-29-35-38.4-58.8-7-18-15.4-45.2-17.6-95-2.4-54-3-70.2-3-206.8s.6-153 3-206.8c2.2-50 10.6-77 17.6-95 9.2-23.8 20.4-41 38.2-58.8 18-18 35-29 58.8-38.4 18-7 45.2-15.4 95-17.6 53.8-2.4 70-3 206.8-3zM512 0C373 0 355.6.6 301 3c-54.4 2.4-91.8 11.2-124.2 23.8C143 40 114.4 57.4 86 86c-28.6 28.4-46 57-59.2 90.6C14.2 209.2 5.4 246.4 3 300.8.6 355.6 0 373 0 512s.6 156.4 3 211c2.4 54.4 11.2 91.8 23.8 124.2C40 881 57.4 909.6 86 938c28.4 28.4 57 46 90.6 59 32.6 12.6 69.8 21.4 124.2 23.8 54.6 2.4 72 3 211 3s156.4-.6 211-3c54.4-2.4 91.8-11.2 124.2-23.8 33.6-13 62.2-30.6 90.6-59s46-57 59-90.6c12.6-32.6 21.4-69.8 23.8-124.2 2.4-54.6 3-72 3-211s-.6-156.4-3-211c-2.4-54.4-11.2-91.8-23.8-124.2-12.6-34-30-62.6-58.6-91-28.4-28.4-57-46-90.6-59-32.6-12.6-69.8-21.4-124.2-23.8C668.4.6 651 0 512 0z"/><path d="M512 249c-145.2 0-263 117.8-263 263s117.8 263 263 263 263-117.8 263-263-117.8-263-263-263zm0 433.6c-94.2 0-170.6-76.4-170.6-170.6S417.8 341.4 512 341.4c94.2 0 170.6 76.4 170.6 170.6S606.2 682.6 512 682.6zm334.8-444c0 33.91-27.49 61.4-61.4 61.4S724 272.51 724 238.6s27.49-61.4 61.4-61.4 61.4 27.49 61.4 61.4z"/></svg>