<svg xmlns="http://www.w3.org/2000/svg" width="32" height="32" viewBox="0 0 1024 1024"><path d="M451.6 766.2l-37.6-102s-61 68-152.4 68c-81 0-138.4-70.4-138.4-183 0-144.2 72.8-195.8 144.2-195.8 103.2 0 136 66.8 164.2 152.4L469.2 623c37.6 113.8 108 205.2 310.8 205.2 145.4 0 244-44.6 244-161.8 0-95-54-144.2-154.8-167.8l-75-16.4c-51.6-11.8-66.8-32.8-66.8-68 0-39.8 31.6-63.4 83.2-63.4 56.4 0 86.8 21.2 91.4 71.6l117.2-14c-9.4-105.6-82.2-149-201.8-149-105.6 0-208.8 39.8-208.8 167.8 0 79.8 38.8 130.2 136 153.6l79.8 18.8c59.8 14 79.8 38.8 79.8 72.8 0 43.4-42.2 61-122 61-118.4 0-167.8-62.2-195.8-147.8l-38.8-117.2C498.6 315.8 420 259.6 264 259.6 91.6 259.6 0 368.6 0 554c0 178.2 91.4 274.4 255.8 274.4 132.4 0 195.8-62.2 195.8-62.2z"/></svg>