<svg xmlns="http://www.w3.org/2000/svg" width="32" height="32" viewBox="0 0 1024 1024"><path d="M231.744 116.864c0 60.448-44.64 109.344-118.048 109.344C44.64 226.208 0 177.28 0 116.864 0 55.008 46.112 7.488 116.608 7.488S230.336 55.04 231.744 116.864zM5.824 1016.448V312.64h218.752v703.808H5.824zm349.664-479.264c0-87.776-2.912-161.216-5.792-224.512H539.68l10.144 97.888h4.288c28.8-46.112 99.328-113.696 217.344-113.696 143.936 0 251.84 96.448 251.84 303.712v415.936h-218.72V626.496c0-90.752-31.712-152.608-110.88-152.608-60.448 0-96.352 41.696-112.224 81.984-5.792 14.432-7.2 34.56-7.2 54.688v405.952H355.52l-.032-479.328z"/></svg>