<svg xmlns="http://www.w3.org/2000/svg" width="32" height="32" viewBox="0 0 1024 1024"><path d="M1023.04 840.512c0 50.24-41.152 91.328-91.392 91.328H91.296C41.024 931.808 0 890.752 0 840.512V219.36C0 169.12 41.024 128 91.296 128h840.32c50.24 0 91.392 41.12 91.392 91.36v621.152zm-91.424-639.456H91.296c-9.76 0-18.24 8.576-18.24 18.304 0 65.088 32.448 121.536 83.904 162.112 76.48 59.968 152.992 120.448 228.832 180.96 30.304 24.512 85.088 77.12 125.024 77.12H512c40 0 94.848-52.64 124.992-77.12 75.936-60.512 152.512-120.992 229.024-180.96 37.088-29.12 83.936-92.512 83.936-140.96 0-14.336 3.36-39.456-18.336-39.456zm18.336 200.928a299.16 299.16 0 0 1-39.456 37.696c-81.6 62.816-163.744 126.816-243.2 193.024C624.544 668.672 571.392 712.64 512 712.64h-1.152c-59.296 0-112.448-43.936-155.296-79.936-79.328-66.176-161.44-130.208-243.2-193.024-14.208-11.36-27.296-23.968-39.296-37.696v438.528c0 9.632 8.48 18.24 18.24 18.24h840.32c9.696 0 18.304-8.64 18.304-18.24V401.984z"/></svg>