<svg xmlns="http://www.w3.org/2000/svg" width="32" height="32" viewBox="0 0 1024 1024"><path d="M104.789 58.667c-27.166.087-51.889 10.477-70.481 27.465l.081-.073C-5.718 123.051-8.96 185.515 23.594 229.547L233.386 510.72 22.357 794.453c-32.512 44.032-29.952 106.496 10.837 143.488 18.521 16.972 43.307 27.372 70.522 27.372 34.185 0 64.537-16.409 83.61-41.781l.193-.269L482.09 527.316c3.299-4.507 5.279-10.161 5.279-16.277s-1.98-11.77-5.334-16.356l.055.078-293.376-394.027c-19.113-25.643-49.354-42.071-83.433-42.071l-.519.001h.027zm814.464 0l-.535-.001c-34.078 0-64.32 16.428-83.237 41.796l-.196.274-292.693 393.387c-3.29 4.503-5.264 10.149-5.264 16.256s1.974 11.753 5.319 16.335l-.055-.079 293.973 396.629c19.266 25.64 49.618 42.049 83.803 42.049 27.215 0 52.001-10.4 70.6-27.443l-.078.071c40.789-36.992 43.349-99.456 10.837-143.488L790.655 510.72l209.792-281.173c32.512-44.032 29.312-106.496-10.837-143.488-18.512-16.906-43.238-27.284-70.387-27.349h-.013z"/></svg>