<svg xmlns="http://www.w3.org/2000/svg" width="32" height="32" viewBox="0 0 1024 1024"><path d="M708.896 4.608C765.088-8.736 827.488 7.424 868.128 48.64c50.72 47.872 65.12 128.064 36.256 190.944-22.24 47.904-67.328 85.76-119.168 96.352-33.472 5.568-69.088 5.024-100.8-8.864-51.744-21.184-90.784-69.632-102.464-124.224-2.208-22.848-2.208-46.24 1.024-69.056C596.48 71.424 647.136 19.68 708.896 4.608zM408.192 65.856c74.592-22.272 159.2 43.456 154.272 121.44 2.784 57.92-44.032 111.392-100.224 121.408-51.264 10.592-107.488-15.552-131.968-61.856-13.376-22.784-16.736-50.08-14.56-76.288 4.512-50.144 44.576-93.024 92.48-104.704zM174.336 94.272c58.432-11.168 118.624 38.976 116.896 98.56 3.904 61.28-58.976 114.72-118.624 101.888-57.856-7.744-96.832-72.416-80.128-127.52 10.528-37.344 43.424-67.392 81.856-72.928zm-89.664 272.32c34.496-43.968 97.952-60.672 150.336-42.336 33.44 10.656 59.008 36.224 78.496 64.64 35.136-33.92 82.464-56.8 132-52.928 63.488 0 117.984 42.304 148.16 95.2 32.224-24.512 67.904-46.208 108.608-54.016 74.016-15.552 155.904 7.84 209.408 62.432 43.968 42.816 70.688 103.552 68.928 165.44 1.664 139.712 1.184 279.008 1.184 418.688H516.8c0-70.752.48-140.896 0-211.04-82.944-.576-165.44 0-248.32-.576 0-35.072 0-70.176-.64-105.184H50.176v-259.52c4.992-29.536 13.952-59.008 34.528-80.736v-.064z"/></svg>