<svg xmlns="http://www.w3.org/2000/svg" width="32" height="32" viewBox="0 0 1024 1024"><path d="M880.634 130.774c25.698 12.576 48.094 30.486 64.502 52.482 34.536 46.3 44.236 109.372 28.836 187.466-15.56 79.026-50.416 145.734-101.166 194.044a286.85 286.85 0 0 1-29.804 27.08c-54.356 42.802-122.998 65.428-198.508 65.428h-240.06L339.87 960H207.446l10.086-46.3h46.128l64.564-302.726h188.27c180.25 0 330.938-111.078 371.258-299.936C933.474 97.204 780.154 0 648.342 0H199.064L0 913.7h152.032L128 1024h263.66l64.564-302.726h188.27c180.25 0 330.938-111.078 371.258-299.936 33.716-157.68-40.804-251.932-135.118-290.564zm-458.29 55.308h129.132c64.592 0 107.602 55.538 88.786 124.956-16.136 69.44-83.386 124.976-150.64 124.976H365.864l56.48-249.932z"/></svg>