<svg height="32" viewBox="0 0 1024 1024" width="32" xmlns="http://www.w3.org/2000/svg"><path d="m212 577.408-104.416 317.952 139.552-140.064c-9.6-24.224-7.232-65.6 12.384-85.184 26.272-26.304 69.536-25.696 95.808.608 26.304 26.304 27.712 70.336 1.44 96.64-20 20-63.936 21.152-88.448 10.784l-138.336 138.72 310.432-109.056 113.056-203.648-137.728-135.872zm523.392-470.24s-192.352 192.32-222.016 222.016c-29.728 29.696-45.248 141.408-45.248 141.408l86.24 86.272s108.896-15.552 140-46.688c31.136-31.104 222.016-222.016 222.016-222.016l-180.992-180.992z"/></svg>