<svg xmlns="http://www.w3.org/2000/svg" width="32" height="32" viewBox="0 0 1024 1024"><path d="M447.808 677.28c-26.88 140.96-59.712 276.128-156.992 346.72-30.016-213.088 44.096-373.088 78.496-542.976-58.688-98.816 7.072-297.568 130.88-248.576 152.352 60.256-131.904 367.264 58.912 405.6 199.232 40 280.512-345.6 156.992-470.976-178.496-181.152-519.584-4.192-477.6 255.04 10.176 63.392 75.68 82.656 26.176 170.08-114.24-25.28-148.32-115.36-143.936-235.52 7.072-196.544 176.64-334.176 346.72-353.216C682.592-20.672 884.48 82.4 912.288 284.736c31.392 228.352-96.992 475.712-327.104 457.888-62.304-4.736-88.48-35.648-137.376-65.344z"/></svg>