<svg xmlns="http://www.w3.org/2000/svg" width="32" height="32" viewBox="0 0 1024 1024"><path d="M256 640c0-35.346 28.654-64 64-64s64 28.654 64 64c0 35.346-28.654 64-64 64s-64-28.654-64-64zm384 0c0-35.346 28.654-64 64-64s64 28.654 64 64c0 35.346-28.654 64-64 64s-64-28.654-64-64zm3.112 136.778c16.482-12.986 40.376-10.154 53.364 6.332s10.152 40.378-6.334 53.366C644.246 872.634 574.32 896 512 896c-62.322 0-132.248-23.366-178.144-59.522-16.486-12.99-19.32-36.882-6.332-53.368 12.99-16.482 36.882-19.318 53.366-6.332C407.312 797.596 459.612 820 512 820s104.688-22.404 131.112-43.222zM1024 512c0-70.692-57.308-128-128-128-48.116 0-89.992 26.57-111.852 65.82-65.792-35.994-145.952-59.246-233.28-64.608l76.382-171.526 146.194 42.2C786.596 293.228 822.162 320 864 320c53.02 0 96-42.98 96-96s-42.98-96-96-96c-36.56 0-68.342 20.442-84.554 50.514L616.54 131.49c-18.224-5.258-37.538 3.722-45.252 21.052l-103.77 233.026c-85.138 5.996-163.262 29.022-227.636 64.236C218.018 410.554 176.116 384 128 384 57.308 384 0 441.308 0 512c0 52.312 31.402 97.254 76.372 117.102C68.302 653.13 64 678.206 64 704c0 176.73 200.576 320 448 320 247.422 0 448-143.27 448-320 0-25.792-4.3-50.862-12.368-74.886C992.602 609.264 1024 564.312 1024 512zM864 188c19.882 0 36 16.118 36 36s-16.118 36-36 36-36-16.118-36-36 16.118-36 36-36zM64 512c0-35.29 28.71-64 64-64 25.508 0 47.572 15.004 57.846 36.646-33.448 25.366-61.166 54.626-81.666 86.738C80.656 561.914 64 538.872 64 512zm448 436c-205.45 0-372-109.242-372-244s166.55-244 372-244 372 109.242 372 244-166.55 244-372 244zm407.82-376.616c-20.5-32.112-48.218-61.372-81.666-86.738C848.43 463.004 870.492 448 896 448c35.29 0 64 28.71 64 64 0 26.872-16.656 49.914-40.18 59.384z"/></svg>