<svg xmlns="http://www.w3.org/2000/svg" width="32" height="32" viewBox="0 0 1024 1024"><path d="M136.294 750.93C61.098 750.93.002 812.264.002 887.006c0 75.154 61.1 135.802 136.292 135.802 75.466 0 136.494-60.648 136.494-135.802-.002-74.742-61.024-136.076-136.494-136.076zM.156 347.93v196.258c127.784 0 247.958 49.972 338.458 140.512 90.384 90.318 140.282 211.036 140.282 339.3h197.122C676.016 651.18 372.736 347.93.156 347.93zM.388 0v196.356c455.782 0 826.756 371.334 826.756 827.644H1024C1024 459.53 564.746 0 .388 0z"/></svg>