<svg width="100" height="100" xmlns="http://www.w3.org/2000/svg" viewBox="0 0 100 100"><g transform="translate(2 22)"><path d="M58.036.724a74.762 74.762 0 0 1 7.866 1.783 48.564 48.564 0 0 1 12.604 5.795 2.14 2.14 0 0 0 1.04.295h15.122v.147c-.23.328-.429.676-.594 1.04a24.787 24.787 0 0 0-3.71 7.726.7.7 0 0 0 .148.885 23.086 23.086 0 0 1 3.71 19.615 22.596 22.596 0 0 1-10.528 14.412 23.815 23.815 0 0 1-12.597 3.572 23.428 23.428 0 0 1-5.64-.738 24.093 24.093 0 0 1-11.715-6.834 13.386 13.386 0 0 1-1.335-1.485c-1.633 2.526-3.414 5.051-5.047 7.577-1.78-2.526-3.413-5.05-5.046-7.428-.148 0-.148 0-.148.147l-.149.148a23.104 23.104 0 0 1-14.68 8.32 21.886 21.886 0 0 1-9.787-.59 22.747 22.747 0 0 1-11.566-7.28 23.214 23.214 0 0 1-5.64-12.035 20.449 20.449 0 0 1 .445-9.36 19.918 19.918 0 0 1 3.562-7.874c.134-.222.186-.482.149-.737a31.044 31.044 0 0 0-3.266-7.133A11.34 11.34 0 0 0 .047 9.058v-.147h14.694c.148 0 .445-.148.593-.148a50.65 50.65 0 0 1 10.678-5.2 75.78 75.78 0 0 1 8.311-2.228 50.761 50.761 0 0 1 8.312-1.04 61.278 61.278 0 0 1 15.401.43zM52.1 32.37c.065 7.64 4.76 14.486 11.893 17.339 7.132 2.853 15.291 1.149 20.664-4.315a18.773 18.773 0 0 0 3.864-20.628c-3.036-7.02-10.032-11.526-17.72-11.413-10.427.167-18.769 8.655-18.69 19.017h-.01zM23.64 13.353c-7.713-.035-14.687 4.552-17.67 11.62a18.857 18.857 0 0 0 4.046 20.665c5.43 5.442 13.626 7.096 20.763 4.192 7.138-2.905 11.81-9.796 11.84-17.46a18.677 18.677 0 0 0-5.466-13.474 18.92 18.92 0 0 0-13.514-5.543zm1.038-4.902a23.446 23.446 0 0 1 14.977 6.24 23.862 23.862 0 0 1 7.718 14.411A24.066 24.066 0 0 1 54.92 14.84 23.065 23.065 0 0 1 69.761 8.6a54.075 54.075 0 0 0-21.056-4.457 57.474 57.474 0 0 0-24.03 4.308h.002z"/><path d="M71.27 21.002c6.408.058 11.607 5.277 11.728 11.774.12 6.496-4.88 11.91-11.283 12.214-4.289.181-8.339-2.006-10.583-5.717a12.142 12.142 0 0 1-.226-12.155c2.105-3.793 6.07-6.134 10.363-6.116zM79 32.996c.053-2.788-1.374-5.392-3.738-6.817a7.56 7.56 0 0 0-7.693-.076c-2.392 1.379-3.868 3.954-3.867 6.743.004 4.335 3.453 7.858 7.73 7.895a7.399 7.399 0 0 0 5.403-2.241 7.61 7.61 0 0 0 2.15-5.504H79zM23.736 21.002c6.376.066 11.556 5.24 11.716 11.703.16 6.463-4.756 11.894-11.121 12.285a11.758 11.758 0 0 1-8.684-3.336 12.093 12.093 0 0 1-3.644-8.659 11.775 11.775 0 0 1 3.34-8.538 11.449 11.449 0 0 1 8.393-3.455zm7.581 11.994a7.644 7.644 0 0 0-2.223-5.556 7.431 7.431 0 0 0-5.507-2.187c-4.233.135-7.584 3.675-7.543 7.969.04 4.293 3.457 7.767 7.692 7.82 4.249-.179 7.596-3.734 7.574-8.046h.007z"/><path d="M70 29a4 4 0 0 1 2.843 1.17A3.942 3.942 0 0 1 74 33c-.03 2.185-1.8 3.954-4 4a4 4 0 0 1-2.843-1.17A3.942 3.942 0 0 1 66 33c.03-2.185 1.8-3.954 4-4zm-45.984 0c2.162-.019 3.937 1.73 3.984 3.924-.034 2.225-1.793 4.025-3.984 4.075a3.928 3.928 0 0 1-3.475-1.977 4.053 4.053 0 0 1 0-4.044A3.928 3.928 0 0 1 24.016 29z"/></g></svg>
