<svg xmlns="http://www.w3.org/2000/svg" width="32" height="32" viewBox="0 0 1024 1024"><path d="M128 511.992c0 148.026 88.322 275.968 216.43 336.578L161.252 359.786C139.944 406.294 128 457.768 128 511.992zm643.228-18.864c0-46.234-17.054-78.236-31.654-103.142-19.458-30.82-37.72-56.894-37.72-87.716 0-34.374 26.766-66.376 64.486-66.376 1.704 0 3.32.204 4.976.302C703 175.226 611.976 138 512.008 138c-134.16 0-252.186 67.046-320.844 168.568 9.01.282 17.506.454 24.712.454 40.154 0 102.34-4.752 102.34-4.752 20.69-1.182 23.132 28.434 2.458 30.822 0 0-20.81 2.368-43.952 3.55l139.834 405.106L500.6 496.292l-59.822-159.65c-20.688-1.184-40.278-3.55-40.278-3.55-20.702-1.192-18.272-32.002 2.438-30.822 0 0 63.4 4.752 101.134 4.752 40.146 0 102.35-4.752 102.35-4.752 20.702-1.182 23.14 28.434 2.446 30.822 0 0-20.834 2.372-43.948 3.55L703.7 738.66l38.312-124.632c16.58-51.75 29.216-88.9 29.216-120.9zm-252.486 51.576L403.516 870.762A393.374 393.374 0 0 0 512.004 886c44.716 0 87.604-7.518 127.518-21.2-1.018-1.602-1.974-3.304-2.75-5.154l-118.03-314.942zm330.22-212.132c1.652 11.91 2.588 24.686 2.588 38.458 0 37.93-7.292 80.596-29.202 133.95L705.062 835.252C819.224 770.424 896 649.964 896 511.994c0-65.03-17.06-126.16-47.038-179.422zM512 0C229.23 0 0 229.23 0 512s229.23 512 512 512 512-229.23 512-512S794.77 0 512 0zm0 960C264.576 960 64 759.424 64 512S264.576 64 512 64s448 200.576 448 448-200.576 448-448 448z"/></svg>