<svg xmlns="http://www.w3.org/2000/svg" width="32" height="32" viewBox="0 0 1024 1024"><path d="M512 0C229.23 0 0 229.23 0 512s229.23 512 512 512 512-229.23 512-512S794.77 0 512 0zM345.482 640.406h-92.534c-5.576 0-9.74-2.494-12.098-6.292-2.438-3.952-2.564-9.066 0-14.16l98.324-173.07c.104-.19.104-.316 0-.526L276.606 338.32c-2.588-5.138-2.966-10.212-.526-14.158 2.358-3.818 7.044-5.77 12.62-5.77h92.534c14.2 0 21.158 9.124 25.768 17.308 0 0 63.24 110.05 63.618 110.656-3.746 6.59-99.9 176.22-99.9 176.22-4.732 8.516-11.398 17.83-25.238 17.83zM783.05 212.138L578.168 573.482a.55.55 0 0 0 0 .612l130.458 237.75c2.59 5.116 2.652 10.32.192 14.264-2.356 3.794-6.708 5.892-12.282 5.892h-92.434c-14.176 0-21.266-9.398-25.848-17.58 0 0-131.152-239.992-131.488-240.614 6.56-11.582 205.916-364.226 205.916-364.226 4.96-8.896 10.954-17.58 24.774-17.58h93.484c5.578 0 9.954 2.098 12.304 5.894 2.44 3.948 2.374 9.146-.194 14.244z"/></svg>