<svg xmlns="http://www.w3.org/2000/svg" width="32" height="32" viewBox="0 0 1024 1024"><path d="M853.342 0H170.686C76.812 0 0 76.81 0 170.69v682.622C0 947.25 76.812 1024 170.686 1024h682.656C947.218 1024 1024 947.25 1024 853.31V170.69C1024 76.81 947.218 0 853.342 0zM311.778 666.788H200.514c-6.702 0-11.708-3.008-14.542-7.584-2.934-4.758-3.084-10.928 0-17.068l118.22-208.626c.126-.228.126-.38 0-.632l-75.23-130.232c-3.112-6.196-3.566-12.314-.632-17.068 2.834-4.602 8.47-6.954 15.172-6.954h111.264c17.07 0 25.44 10.998 30.978 20.862 0 0 76.04 132.66 76.498 133.392-4.504 7.94-120.118 212.42-120.118 212.42-5.688 10.262-13.704 21.49-30.346 21.49zm526.134-516.25L591.56 586.118c-.15.23-.15.51 0 .734l156.862 286.59c3.112 6.168 3.186 12.442.226 17.194-2.83 4.576-8.066 7.104-14.766 7.104h-111.14c-17.044 0-25.566-11.326-31.08-21.192 0 0-157.696-289.292-158.1-290.046 7.888-13.96 247.594-439.046 247.594-439.046 5.968-10.724 13.174-21.192 29.788-21.192H823.35c6.702 0 11.962 2.53 14.792 7.106 2.932 4.752 2.856 11.022-.23 17.168z"/></svg>