<svg height="32" viewBox="0 0 1024 1024" width="32" xmlns="http://www.w3.org/2000/svg"><path d="m824.992 308.352c5.696-1.152 14.144-3.008 23.68-5.088h73.888l11.456-16.992c.256-.096.672-.192.896-.192l28.608-41.28c-.384 0-1.088-.064-1.376-.064l3.008-4.448h-400.352l15.392 62.976h109.28l-183.84 165.952c-37.536-51.808-125.472-159.776-186.816-249.12h137.632v-47.968l1.568-10.592c-.416-.064-1.184-.192-1.568-.192v-4.32h-456.448v63.008h135.36c52.544 41.056 253.472 292 261.824 317.024 3.328 23.456 6.432 161.76-3.424 172.224-19.744 20.864-109.856 15.328-131.584 16.864l-7.488 42.88c39.68 1.184 168.896-3.232 209.024-3.232 79.136 0 217.728-.352 237.312 1.152l2.432-44.928c-20-3.424-129.088-.448-144.16-3.872-3.328-21.792-7.072-167.36-3.68-182.432 15.072-43.456 244.352-220.608 269.504-227.36zm66.464 344.192 61.312 4.832 71.456-275.936c-11.936-.416-120.352-10.656-134.432-13.376zm-10.592 44.224.352 67.328 31.008 2.72 33.568 2.464 9.856-65.952-35.36-1.696z"/></svg>