<svg xmlns="http://www.w3.org/2000/svg" width="32" height="32" viewBox="0 0 1024 1024"><path d="M608.876 653.468c-17.282 17.426-2.668 49.128-2.668 49.128l130.09 217.218s21.36 28.64 39.864 28.64c18.59 0 36.954-15.27 36.954-15.27L915.96 786.176s10.36-18.546 10.598-34.792c.372-23.106-34.454-29.434-34.454-29.434l-243.488-78.192c-.002.004-23.858-6.328-39.74 9.71zm-12.344-109.484c12.46 21.128 46.828 14.972 46.828 14.972l242.938-71.006s33.106-13.466 37.832-31.418c4.64-17.954-5.46-39.622-5.46-39.622L802.572 280.158s-10.062-17.292-30.938-19.032c-23.016-1.958-37.18 25.898-37.18 25.898l-137.27 216.01c0 .004-12.134 21.516-.652 40.95zm-114.778-84.216c28.608-7.044 33.148-48.604 33.148-48.604l-1.944-345.87s-4.314-42.666-23.486-54.232c-30.07-18.242-38.982-8.718-47.596-7.444L240.18 78.562s-19.754 6.536-30.042 23.018c-14.69 23.352 14.928 57.544 14.928 57.544L434.71 444.88s20.69 21.396 47.044 14.888zm-49.81 139.97c.722-26.676-32.03-42.7-32.03-42.7L183.118 447.514s-32.126-13.246-47.722-4.016c-11.95 7.06-22.536 19.84-23.572 31.134l-14.12 173.812s-2.116 30.114 5.69 43.82c11.054 19.442 47.428 5.902 47.428 5.902l253.096-55.942c9.832-6.61 27.074-7.204 28.026-42.486zm62.936 93.804c-21.726-11.156-47.724 11.95-47.724 11.95L277.688 892.058s-21.144 28.528-15.768 46.05c5.066 16.418 13.454 24.578 25.318 30.328l170.192 53.726s20.634 4.286 36.258-.242c22.18-6.43 18.094-41.152 18.094-41.152l3.848-252.602c-.002.002-.868-24.334-20.75-34.624z"/></svg>