<?xml version="1.0" encoding="UTF-8"?><svg id="a" xmlns="http://www.w3.org/2000/svg" width="109.05" height="75.91" viewBox="0 0 109.05 75.91"><path id="b" d="M18.81,62.21c13.45-3.34,15.13-13.38,15.13-20.07v-5.02h5.04l-10.08-15.05-10.08,15.05h5.04v6.69c0,5.02-1.68,6.69-1.68,6.69M89.4,62.21c-13.44-3.34-15.12-13.38-15.12-20.07v-5.02h-5.04l10.08-15.05,10.08,15.05h-5.04v6.69c0,5.02,1.68,6.69,1.68,6.69M103.69,66.39s-1.68-1.67-1.68-6.69v-6.69h5.04l-10.08-15.05-2.52,4.18M5.36,67.23s1.68-1.67,1.68-6.69v-6.69H2l10.09-15.05,1.83,3.35M91.08,73.91c-20.17-1.67-31.93-15.05-31.93-33.45v-15.05h6.72L54.11,2l-11.77,23.41h6.72v15.05c0,18.4-11.77,31.78-31.93,33.45" fill="none" stroke="#a5221a" stroke-linecap="round" stroke-linejoin="round" stroke-width="4"/></svg>