<?xml version="1.0" encoding="UTF-8"?><svg id="a" xmlns="http://www.w3.org/2000/svg" width="832" height="95.5" viewBox="0 0 832 95.5"><path d="M2.7,36.61c1.8-3.25,4.31-5.78,7.53-7.6,3.22-1.81,6.87-2.72,10.95-2.72,5,0,9.28,1.32,12.84,3.95,3.56,2.63,5.94,6.22,7.14,10.76h-11.28c-.84-1.75-2.03-3.09-3.57-4.01-1.54-.92-3.29-1.38-5.25-1.38-3.16,0-5.72,1.1-7.68,3.29-1.96,2.19-2.94,5.12-2.94,8.79s.98,6.6,2.94,8.79c1.96,2.19,4.52,3.29,7.68,3.29,1.96,0,3.71-.46,5.25-1.38,1.54-.92,2.73-2.25,3.57-4.01h11.28c-1.2,4.55-3.58,8.12-7.14,10.73-3.56,2.61-7.84,3.92-12.84,3.92-4.08,0-7.73-.91-10.95-2.72-3.22-1.81-5.73-4.34-7.53-7.57-1.8-3.23-2.7-6.92-2.7-11.07s.9-7.84,2.7-11.09Z" fill="#a5221a" stroke-width="0"/><path d="M73.7,61.34h-15.72l-2.52,7.42h-10.74l15.24-41.98h11.88l15.24,41.98h-10.86l-2.52-7.42ZM71.06,53.45l-5.22-15.37-5.16,15.37h10.38Z" fill="#a5221a" stroke-width="0"/><path d="M129.4,68.76h-10.26l-17.16-25.9v25.9h-10.26V26.77h10.26l17.16,26.02v-26.02h10.26v41.98Z" fill="#a5221a" stroke-width="0"/><path d="M139.18,26.77h10.5l-6.72,16.03h-6.9l3.12-16.03Z" fill="#a5221a" stroke-width="0"/><path d="M185.99,26.77v8.19h-11.16v33.79h-10.26v-33.79h-11.16v-8.19h32.59Z" fill="#a5221a" stroke-width="0"/><path d="M235.26,50.84c1.48,1.89,2.22,4.06,2.22,6.49,0,3.51-1.23,6.29-3.69,8.34s-5.89,3.08-10.29,3.08h-19.63V26.77h18.97c4.28,0,7.63.98,10.05,2.93,2.42,1.95,3.63,4.61,3.63,7.95,0,2.47-.65,4.53-1.95,6.16-1.3,1.64-3.03,2.77-5.19,3.41,2.44.52,4.4,1.73,5.88,3.62ZM214.14,43.76h6.72c1.68,0,2.97-.37,3.87-1.11.9-.74,1.35-1.82,1.35-3.26s-.45-2.53-1.35-3.29c-.9-.76-2.19-1.14-3.87-1.14h-6.72v8.79ZM225.69,59.34c.94-.78,1.41-1.9,1.41-3.38s-.49-2.63-1.47-3.47c-.98-.84-2.33-1.26-4.05-1.26h-7.44v9.27h7.56c1.72,0,3.05-.39,3.99-1.17Z" fill="#a5221a" stroke-width="0"/><path d="M253.69,34.97v8.49h13.74v7.89h-13.74v9.21h15.54v8.19h-25.81V26.77h25.81v8.19h-15.54Z" fill="#a5221a" stroke-width="0"/><path d="M318.93,26.77v8.19h-11.16v33.79h-10.26v-33.79h-11.16v-8.19h32.59Z" fill="#a5221a" stroke-width="0"/><path d="M360.58,26.77v41.98h-10.26v-17.28h-15.96v17.28h-10.26V26.77h10.26v16.45h15.96v-16.45h10.26Z" fill="#a5221a" stroke-width="0"/><path d="M378.22,34.97v8.49h13.74v7.89h-13.74v9.21h15.54v8.19h-25.81V26.77h25.81v8.19h-15.54Z" fill="#a5221a" stroke-width="0"/><path d="M410.69,26.77v41.98h-10.26V26.77h10.26Z" fill="#a5221a" stroke-width="0"/><path d="M439.62,68.78l-8.76-15.86h-2.46v15.86h-10.26V26.78h17.22c3.32,0,6.15.58,8.49,1.74,2.34,1.16,4.09,2.74,5.25,4.76,1.16,2.01,1.74,4.26,1.74,6.73,0,2.79-.79,5.29-2.37,7.48-1.58,2.19-3.91,3.75-6.99,4.67l9.72,16.63h-11.58ZM428.39,45.69h6.36c1.88,0,3.29-.46,4.23-1.38.94-.92,1.41-2.21,1.41-3.89s-.47-2.85-1.41-3.77c-.94-.92-2.35-1.38-4.23-1.38h-6.36v10.41Z" fill="#a5221a" stroke-width="0"/><path d="M501.37,50.84c1.48,1.89,2.22,4.06,2.22,6.49,0,3.51-1.23,6.29-3.69,8.34s-5.89,3.08-10.29,3.08h-19.62V26.77h18.97c4.28,0,7.63.98,10.05,2.93,2.42,1.95,3.63,4.61,3.63,7.95,0,2.47-.65,4.53-1.95,6.16s-3.03,2.77-5.19,3.41c2.44.52,4.4,1.73,5.88,3.62ZM480.25,43.76h6.72c1.68,0,2.97-.37,3.87-1.11.9-.74,1.35-1.82,1.35-3.26s-.45-2.53-1.35-3.29-2.19-1.14-3.87-1.14h-6.72v8.79ZM491.8,59.34c.94-.78,1.41-1.9,1.41-3.38s-.49-2.63-1.47-3.47c-.98-.84-2.33-1.26-4.05-1.26h-7.44v9.27h7.56c1.72,0,3.05-.39,3.99-1.17Z" fill="#a5221a" stroke-width="0"/><path d="M519.8,34.97v8.49h13.74v7.89h-13.74v9.21h15.54v8.19h-25.81V26.77h25.81v8.19h-15.54Z" fill="#a5221a" stroke-width="0"/><path d="M548.97,67.68c-2.44-1-4.39-2.47-5.85-4.43-1.46-1.95-2.23-4.31-2.31-7.06h10.92c.16,1.55.7,2.74,1.62,3.56.92.82,2.12,1.23,3.6,1.23s2.72-.35,3.6-1.05c.88-.7,1.32-1.66,1.32-2.9,0-1.04-.35-1.89-1.05-2.57-.7-.68-1.56-1.24-2.58-1.67-1.02-.44-2.47-.94-4.35-1.5-2.72-.84-4.94-1.68-6.66-2.51-1.72-.84-3.2-2.07-4.44-3.71-1.24-1.63-1.86-3.77-1.86-6.4,0-3.91,1.42-6.97,4.26-9.18,2.84-2.21,6.54-3.32,11.1-3.32s8.38,1.11,11.22,3.32c2.84,2.21,4.36,5.29,4.56,9.24h-11.1c-.08-1.35-.58-2.42-1.5-3.2-.92-.78-2.1-1.17-3.54-1.17-1.24,0-2.24.33-3,.99-.76.66-1.14,1.61-1.14,2.84,0,1.36.64,2.41,1.92,3.17,1.28.76,3.28,1.58,6,2.45,2.72.92,4.93,1.79,6.63,2.63s3.17,2.05,4.41,3.65c1.24,1.59,1.86,3.65,1.86,6.16s-.61,4.57-1.83,6.52c-1.22,1.95-2.99,3.51-5.31,4.66-2.32,1.16-5.06,1.73-8.22,1.73s-5.84-.5-8.28-1.5Z" fill="#a5221a" stroke-width="0"/><path d="M609.22,26.77v8.19h-11.16v33.79h-10.26v-33.79h-11.16v-8.19h32.59Z" fill="#a5221a" stroke-width="0"/><path d="M634.07,67.68c-2.44-1-4.39-2.47-5.85-4.43-1.46-1.95-2.23-4.31-2.31-7.06h10.92c.16,1.55.7,2.74,1.62,3.56.92.82,2.12,1.23,3.6,1.23s2.72-.35,3.6-1.05c.88-.7,1.32-1.66,1.32-2.9,0-1.04-.35-1.89-1.05-2.57-.7-.68-1.56-1.24-2.58-1.67-1.02-.44-2.47-.94-4.35-1.5-2.72-.84-4.94-1.68-6.66-2.51-1.72-.84-3.2-2.07-4.44-3.71-1.24-1.63-1.86-3.77-1.86-6.4,0-3.91,1.42-6.97,4.26-9.18,2.84-2.21,6.54-3.32,11.1-3.32s8.38,1.11,11.22,3.32c2.84,2.21,4.36,5.29,4.56,9.24h-11.1c-.08-1.35-.58-2.42-1.5-3.2-.92-.78-2.1-1.17-3.54-1.17-1.24,0-2.24.33-3,.99-.76.66-1.14,1.61-1.14,2.84,0,1.36.64,2.41,1.92,3.17,1.28.76,3.28,1.58,6,2.45,2.72.92,4.93,1.79,6.63,2.63s3.17,2.05,4.41,3.65c1.24,1.59,1.86,3.65,1.86,6.16s-.61,4.57-1.83,6.52c-1.22,1.95-2.99,3.51-5.31,4.66-2.32,1.16-5.06,1.73-8.22,1.73s-5.84-.5-8.28-1.5Z" fill="#a5221a" stroke-width="0"/><path d="M674.28,34.97v8.49h13.74v7.89h-13.74v9.21h15.54v8.19h-25.81V26.77h25.81v8.19h-15.54Z" fill="#a5221a" stroke-width="0"/><path d="M706.75,60.86h13.44v7.89h-23.71V26.77h10.26v34.09Z" fill="#a5221a" stroke-width="0"/><path d="M764.66,26.77l-14.94,41.98h-12.84l-14.94-41.98h10.92l10.44,31.7,10.5-31.7h10.86Z" fill="#a5221a" stroke-width="0"/><path d="M779.19,34.97v8.49h13.74v7.89h-13.74v9.21h15.54v8.19h-25.81V26.77h25.81v8.19h-15.54Z" fill="#a5221a" stroke-width="0"/><path d="M808.35,67.68c-2.44-1-4.39-2.47-5.85-4.43-1.46-1.95-2.23-4.31-2.31-7.06h10.92c.16,1.55.7,2.74,1.62,3.56.92.82,2.12,1.23,3.6,1.23s2.72-.35,3.6-1.05c.88-.7,1.32-1.66,1.32-2.9,0-1.04-.35-1.89-1.05-2.57s-1.56-1.24-2.58-1.67c-1.02-.44-2.47-.94-4.35-1.5-2.72-.84-4.94-1.68-6.66-2.51-1.72-.84-3.2-2.07-4.44-3.71-1.24-1.63-1.86-3.77-1.86-6.4,0-3.91,1.42-6.97,4.26-9.18,2.84-2.21,6.54-3.32,11.1-3.32s8.38,1.11,11.22,3.32c2.84,2.21,4.36,5.29,4.56,9.24h-11.1c-.08-1.35-.58-2.42-1.5-3.2-.92-.78-2.1-1.17-3.54-1.17-1.24,0-2.24.33-3,.99s-1.14,1.61-1.14,2.84c0,1.36.64,2.41,1.92,3.17,1.28.76,3.28,1.58,6,2.45,2.72.92,4.93,1.79,6.63,2.63,1.7.84,3.17,2.05,4.41,3.65,1.24,1.59,1.86,3.65,1.86,6.16s-.61,4.57-1.83,6.52c-1.22,1.95-2.99,3.51-5.31,4.66-2.32,1.16-5.06,1.73-8.22,1.73s-5.84-.5-8.28-1.5Z" fill="#a5221a" stroke-width="0"/><path id="b" d="M115.19,95.5c0-3.72,136.04-6.73,303.86-6.73s303.86,3.01,303.86,6.73" fill="#e9b73f" stroke-width="0"/><path id="c" d="M115.19,0c0,3.72,136.04,6.73,303.86,6.73S722.91,3.72,722.91,0" fill="#e9b73f" stroke-width="0"/></svg>