<?xml version="1.0" encoding="UTF-8"?><svg id="a" xmlns="http://www.w3.org/2000/svg" width="700" height="117" viewBox="0 0 700 117"><path d="M18.3,46.33c2.22,1.17,3.93,2.81,5.14,4.92,1.21,2.11,1.82,4.55,1.82,7.31s-.61,5.17-1.82,7.29c-1.21,2.13-2.94,3.77-5.16,4.94-2.23,1.17-4.81,1.75-7.75,1.75H0v-27.97h10.53c2.96,0,5.55.58,7.77,1.75ZM16.14,64.53c1.44-1.41,2.16-3.4,2.16-5.98s-.72-4.58-2.16-6.02c-1.44-1.43-3.46-2.15-6.05-2.15h-3.24v16.25h3.24c2.59,0,4.6-.7,6.05-2.11Z" fill="#fff" stroke-width="0"/><path d="M35.95,44.58v27.97h-6.85v-27.97h6.85Z" fill="#fff" stroke-width="0"/><path d="M45.56,71.83c-1.63-.66-2.93-1.65-3.9-2.95-.98-1.3-1.49-2.87-1.54-4.7h7.29c.11,1.04.47,1.83,1.08,2.37.61.54,1.41.82,2.4.82s1.81-.23,2.4-.7c.59-.46.88-1.11.88-1.93,0-.69-.23-1.26-.7-1.71-.47-.45-1.04-.82-1.72-1.12-.68-.29-1.65-.62-2.9-1-1.82-.56-3.3-1.12-4.44-1.67-1.15-.56-2.14-1.38-2.96-2.47-.83-1.09-1.24-2.51-1.24-4.26,0-2.6.95-4.64,2.84-6.11,1.89-1.47,4.36-2.21,7.41-2.21s5.59.74,7.49,2.21c1.89,1.47,2.91,3.53,3.04,6.15h-7.41c-.05-.9-.39-1.61-1-2.13-.61-.52-1.4-.78-2.36-.78-.83,0-1.5.22-2,.66-.51.44-.76,1.07-.76,1.89,0,.9.43,1.61,1.28,2.11.85.5,2.19,1.05,4,1.63,1.82.61,3.29,1.19,4.42,1.75,1.13.56,2.11,1.37,2.94,2.43.83,1.06,1.24,2.43,1.24,4.1s-.41,3.04-1.22,4.34c-.81,1.3-2,2.34-3.54,3.11-1.55.77-3.38,1.16-5.49,1.16s-3.9-.33-5.53-1Z" fill="#fff" stroke-width="0"/><path d="M66.18,51.13c1.2-2.16,2.88-3.85,5.02-5.06,2.15-1.21,4.58-1.81,7.31-1.81,3.34,0,6.19.88,8.57,2.63,2.38,1.75,3.96,4.14,4.76,7.17h-7.53c-.56-1.17-1.36-2.06-2.38-2.67-1.03-.61-2.2-.92-3.5-.92-2.11,0-3.82.73-5.12,2.19-1.31,1.46-1.96,3.41-1.96,5.86s.65,4.4,1.96,5.86c1.31,1.46,3.02,2.19,5.12,2.19,1.31,0,2.48-.31,3.5-.92,1.03-.61,1.82-1.5,2.38-2.67h7.53c-.8,3.03-2.39,5.41-4.76,7.15-2.38,1.74-5.23,2.61-8.57,2.61-2.72,0-5.16-.6-7.31-1.81-2.15-1.21-3.82-2.89-5.02-5.04-1.2-2.15-1.8-4.61-1.8-7.37s.6-5.22,1.8-7.39Z" fill="#fff" stroke-width="0"/><path d="M102.07,70.99c-2.2-1.22-3.95-2.93-5.25-5.12s-1.94-4.65-1.94-7.39.65-5.19,1.94-7.37,3.04-3.88,5.25-5.1,4.62-1.83,7.27-1.83,5.06.61,7.27,1.83,3.94,2.92,5.21,5.1c1.27,2.18,1.9,4.63,1.9,7.37s-.64,5.2-1.92,7.39c-1.28,2.19-3.02,3.9-5.21,5.12-2.19,1.22-4.6,1.83-7.25,1.83s-5.06-.61-7.27-1.83ZM114.73,64.38c1.35-1.49,2.02-3.45,2.02-5.9s-.67-4.44-2.02-5.92c-1.35-1.47-3.14-2.21-5.39-2.21s-4.08.73-5.42,2.19c-1.35,1.46-2.02,3.44-2.02,5.94s.67,4.44,2.02,5.92c1.35,1.47,3.16,2.21,5.42,2.21s4.04-.74,5.39-2.23Z" fill="#fff" stroke-width="0"/><path d="M153.9,44.58l-9.97,27.97h-8.57l-9.97-27.97h7.29l6.97,21.11,7.01-21.11h7.25Z" fill="#fff" stroke-width="0"/><path d="M163.59,50.03v5.66h9.17v5.26h-9.17v6.13h10.37v5.46h-17.22v-27.97h17.22v5.46h-10.37Z" fill="#fff" stroke-width="0"/><path d="M192.74,72.54l-5.85-10.56h-1.64v10.56h-6.85v-27.97h11.49c2.22,0,4.1.39,5.67,1.16s2.73,1.83,3.5,3.17c.77,1.34,1.16,2.84,1.16,4.48,0,1.86-.53,3.52-1.58,4.98-1.05,1.46-2.61,2.5-4.66,3.11l6.49,11.07h-7.73ZM185.25,57.16h4.24c1.25,0,2.19-.3,2.82-.92.63-.61.94-1.47.94-2.59s-.31-1.9-.94-2.51c-.63-.61-1.57-.92-2.82-.92h-4.24v6.93Z" fill="#fff" stroke-width="0"/><path d="M230.49,67.6h-10.49l-1.68,4.94h-7.17l10.17-27.97h7.93l10.17,27.97h-7.25l-1.68-4.94ZM228.73,62.34l-3.48-10.24-3.44,10.24h6.93Z" fill="#fff" stroke-width="0"/><path d="M289.67,44.58l-7.33,27.97h-8.29l-4.48-18.41-4.64,18.41h-8.29l-7.13-27.97h7.33l4.04,20.36,5-20.36h7.53l4.8,20.36,4.08-20.36h7.37Z" fill="#fff" stroke-width="0"/><path d="M299.13,70.99c-2.2-1.22-3.95-2.93-5.25-5.12s-1.94-4.65-1.94-7.39.65-5.19,1.94-7.37,3.04-3.88,5.25-5.1,4.62-1.83,7.27-1.83,5.06.61,7.27,1.83,3.94,2.92,5.21,5.1c1.27,2.18,1.9,4.63,1.9,7.37s-.64,5.2-1.92,7.39c-1.28,2.19-3.02,3.9-5.21,5.12-2.19,1.22-4.6,1.83-7.25,1.83s-5.06-.61-7.27-1.83ZM311.79,64.38c1.35-1.49,2.02-3.45,2.02-5.9s-.67-4.44-2.02-5.92c-1.35-1.47-3.14-2.21-5.39-2.21s-4.08.73-5.42,2.19c-1.35,1.46-2.02,3.44-2.02,5.94s.67,4.44,2.02,5.92c1.35,1.47,3.16,2.21,5.42,2.21s4.04-.74,5.39-2.23Z" fill="#fff" stroke-width="0"/><path d="M338.91,72.54l-5.85-10.56h-1.64v10.56h-6.85v-27.97h11.49c2.22,0,4.1.39,5.67,1.16s2.73,1.83,3.5,3.17c.77,1.34,1.16,2.84,1.16,4.48,0,1.86-.53,3.52-1.58,4.98-1.05,1.46-2.61,2.5-4.66,3.11l6.49,11.07h-7.73ZM331.42,57.16h4.24c1.25,0,2.19-.3,2.82-.92.63-.61.94-1.47.94-2.59s-.31-1.9-.94-2.51c-.63-.61-1.57-.92-2.82-.92h-4.24v6.93Z" fill="#fff" stroke-width="0"/><path d="M357.53,67.28h8.97v5.26h-15.81v-27.97h6.85v22.71Z" fill="#fff" stroke-width="0"/><path d="M388.08,46.33c2.22,1.17,3.93,2.81,5.14,4.92,1.21,2.11,1.82,4.55,1.82,7.31s-.61,5.17-1.82,7.29c-1.21,2.13-2.94,3.77-5.16,4.94-2.23,1.17-4.81,1.75-7.75,1.75h-10.53v-27.97h10.53c2.96,0,5.55.58,7.77,1.75ZM385.91,64.53c1.44-1.41,2.16-3.4,2.16-5.98s-.72-4.58-2.16-6.02c-1.44-1.43-3.46-2.15-6.05-2.15h-3.24v16.25h3.24c2.59,0,4.6-.7,6.05-2.11Z" fill="#fff" stroke-width="0"/><path d="M413.4,70.99c-2.2-1.22-3.95-2.93-5.25-5.12s-1.94-4.65-1.94-7.39.65-5.19,1.94-7.37,3.04-3.88,5.25-5.1,4.62-1.83,7.27-1.83,5.06.61,7.27,1.83,3.94,2.92,5.21,5.1c1.27,2.18,1.9,4.63,1.9,7.37s-.64,5.2-1.92,7.39c-1.28,2.19-3.02,3.9-5.21,5.12-2.19,1.22-4.6,1.83-7.25,1.83s-5.06-.61-7.27-1.83ZM426.05,64.38c1.35-1.49,2.02-3.45,2.02-5.9s-.67-4.44-2.02-5.92c-1.35-1.47-3.14-2.21-5.39-2.21s-4.08.73-5.42,2.19c-1.35,1.46-2.02,3.44-2.02,5.94s.67,4.44,2.02,5.92c1.35,1.47,3.16,2.21,5.42,2.21s4.04-.74,5.39-2.23Z" fill="#fff" stroke-width="0"/><path d="M457.14,44.58v5.46h-11.45v5.9h8.57v5.3h-8.57v11.31h-6.85v-27.97h18.3Z" fill="#fff" stroke-width="0"/><path d="M483.56,72.54l-5.85-10.56h-1.64v10.56h-6.85v-27.97h11.49c2.22,0,4.1.39,5.67,1.16s2.73,1.83,3.5,3.17c.77,1.34,1.16,2.84,1.16,4.48,0,1.86-.53,3.52-1.58,4.98-1.05,1.46-2.61,2.5-4.66,3.11l6.49,11.07h-7.73ZM476.08,57.16h4.24c1.25,0,2.19-.3,2.82-.92.63-.61.94-1.47.94-2.59s-.31-1.9-.94-2.51c-.63-.61-1.57-.92-2.82-.92h-4.24v6.93Z" fill="#fff" stroke-width="0"/><path d="M502.18,50.03v5.66h9.17v5.26h-9.17v6.13h10.37v5.46h-17.22v-27.97h17.22v5.46h-10.37Z" fill="#fff" stroke-width="0"/><path d="M521.64,71.83c-1.63-.66-2.93-1.65-3.9-2.95-.98-1.3-1.49-2.87-1.54-4.7h7.29c.11,1.04.47,1.83,1.08,2.37.61.54,1.41.82,2.4.82s1.81-.23,2.4-.7c.59-.46.88-1.11.88-1.93,0-.69-.23-1.26-.7-1.71-.47-.45-1.04-.82-1.72-1.12-.68-.29-1.65-.62-2.9-1-1.82-.56-3.3-1.12-4.44-1.67-1.15-.56-2.14-1.38-2.96-2.47-.83-1.09-1.24-2.51-1.24-4.26,0-2.6.95-4.64,2.84-6.11,1.89-1.47,4.36-2.21,7.41-2.21s5.59.74,7.49,2.21c1.89,1.47,2.91,3.53,3.04,6.15h-7.41c-.05-.9-.39-1.61-1-2.13-.61-.52-1.4-.78-2.36-.78-.83,0-1.5.22-2,.66-.51.44-.76,1.07-.76,1.89,0,.9.43,1.61,1.28,2.11.85.5,2.19,1.05,4,1.63,1.82.61,3.29,1.19,4.42,1.75,1.13.56,2.11,1.37,2.94,2.43.83,1.06,1.24,2.43,1.24,4.1s-.41,3.04-1.22,4.34c-.81,1.3-2,2.34-3.54,3.11-1.55.77-3.38,1.16-5.49,1.16s-3.9-.33-5.53-1Z" fill="#fff" stroke-width="0"/><path d="M547.64,70.99c-2.2-1.22-3.95-2.93-5.25-5.12s-1.94-4.65-1.94-7.39.65-5.19,1.94-7.37,3.04-3.88,5.25-5.1,4.62-1.83,7.27-1.83,5.06.61,7.27,1.83,3.94,2.92,5.21,5.1c1.27,2.18,1.9,4.63,1.9,7.37s-.64,5.2-1.92,7.39c-1.28,2.19-3.02,3.9-5.21,5.12-2.19,1.22-4.6,1.83-7.25,1.83s-5.06-.61-7.27-1.83ZM560.29,64.38c1.35-1.49,2.02-3.45,2.02-5.9s-.67-4.44-2.02-5.92c-1.35-1.47-3.14-2.21-5.39-2.21s-4.08.73-5.42,2.19c-1.35,1.46-2.02,3.44-2.02,5.94s.67,4.44,2.02,5.92c1.35,1.47,3.16,2.21,5.42,2.21s4.04-.74,5.39-2.23Z" fill="#fff" stroke-width="0"/><path d="M579.81,44.58v16.73c0,1.67.41,2.96,1.24,3.86.83.9,2.04,1.35,3.64,1.35s2.83-.45,3.68-1.35c.85-.9,1.28-2.19,1.28-3.86v-16.73h6.85v16.69c0,2.5-.53,4.61-1.6,6.33-1.07,1.73-2.5,3.03-4.3,3.9s-3.81,1.31-6.03,1.31-4.2-.43-5.95-1.29c-1.75-.86-3.13-2.16-4.14-3.9-1.01-1.74-1.52-3.86-1.52-6.35v-16.69h6.85Z" fill="#fff" stroke-width="0"/><path d="M615.64,72.54l-5.85-10.56h-1.64v10.56h-6.85v-27.97h11.49c2.22,0,4.1.39,5.67,1.16s2.73,1.83,3.5,3.17c.77,1.34,1.16,2.84,1.16,4.48,0,1.86-.53,3.52-1.58,4.98-1.05,1.46-2.61,2.5-4.66,3.11l6.49,11.07h-7.73ZM608.16,57.16h4.24c1.25,0,2.19-.3,2.82-.92.63-.61.94-1.47.94-2.59s-.31-1.9-.94-2.51c-.63-.61-1.57-.92-2.82-.92h-4.24v6.93Z" fill="#fff" stroke-width="0"/><path d="M628.05,51.13c1.2-2.16,2.88-3.85,5.02-5.06,2.15-1.21,4.58-1.81,7.31-1.81,3.34,0,6.19.88,8.57,2.63,2.38,1.75,3.96,4.14,4.76,7.17h-7.53c-.56-1.17-1.36-2.06-2.38-2.67-1.03-.61-2.2-.92-3.5-.92-2.11,0-3.82.73-5.12,2.19-1.31,1.46-1.96,3.41-1.96,5.86s.65,4.4,1.96,5.86c1.31,1.46,3.02,2.19,5.12,2.19,1.31,0,2.48-.31,3.5-.92,1.03-.61,1.82-1.5,2.38-2.67h7.53c-.8,3.03-2.39,5.41-4.76,7.15-2.38,1.74-5.23,2.61-8.57,2.61-2.72,0-5.16-.6-7.31-1.81-2.15-1.21-3.82-2.89-5.02-5.04-1.2-2.15-1.8-4.61-1.8-7.37s.6-5.22,1.8-7.39Z" fill="#fff" stroke-width="0"/><path d="M664.77,50.03v5.66h9.17v5.26h-9.17v6.13h10.37v5.46h-17.22v-27.97h17.22v5.46h-10.37Z" fill="#fff" stroke-width="0"/><path d="M684.23,71.83c-1.63-.66-2.93-1.65-3.9-2.95-.98-1.3-1.49-2.87-1.54-4.7h7.29c.11,1.04.47,1.83,1.08,2.37.61.54,1.41.82,2.4.82s1.81-.23,2.4-.7c.59-.46.88-1.11.88-1.93,0-.69-.23-1.26-.7-1.71-.47-.45-1.04-.82-1.72-1.12-.68-.29-1.65-.62-2.9-1-1.82-.56-3.3-1.12-4.44-1.67-1.15-.56-2.14-1.38-2.96-2.47-.83-1.09-1.24-2.51-1.24-4.26,0-2.6.95-4.64,2.84-6.11,1.89-1.47,4.36-2.21,7.41-2.21s5.59.74,7.49,2.21c1.89,1.47,2.91,3.53,3.04,6.15h-7.41c-.05-.9-.39-1.61-1-2.13-.61-.52-1.4-.78-2.36-.78-.83,0-1.5.22-2,.66-.51.44-.76,1.07-.76,1.89,0,.9.43,1.61,1.28,2.11.85.5,2.19,1.05,4,1.63,1.82.61,3.29,1.19,4.42,1.75,1.13.56,2.11,1.37,2.94,2.43.83,1.06,1.24,2.43,1.24,4.1s-.41,3.04-1.22,4.34c-.81,1.3-2,2.34-3.54,3.11-1.55.77-3.38,1.16-5.49,1.16s-3.9-.33-5.53-1Z" fill="#fff" stroke-width="0"/><path id="b" d="M38,0c0,4.57,139.69,8.27,312,8.27S662,4.57,662,0" fill="#29aae1" stroke-width="0"/><path id="c" d="M38,117c0-4.57,139.69-8.27,312-8.27s312,3.7,312,8.27" fill="#29aae1" stroke-width="0"/></svg>