<?xml version="1.0" encoding="UTF-8"?><svg id="a" xmlns="http://www.w3.org/2000/svg" width="912" height="107.32" viewBox="0 0 912 107.32"><path d="M81.54,39.69c2.49,1.32,4.42,3.17,5.78,5.56,1.36,2.39,2.05,5.14,2.05,8.26s-.68,5.84-2.05,8.24c-1.37,2.4-3.3,4.26-5.81,5.58-2.51,1.32-5.41,1.98-8.71,1.98h-11.84v-31.6h11.84c3.33,0,6.24.66,8.73,1.98ZM79.11,60.25c1.62-1.59,2.43-3.84,2.43-6.75s-.81-5.18-2.43-6.8c-1.62-1.62-3.89-2.43-6.8-2.43h-3.65v18.36h3.65c2.91,0,5.18-.79,6.8-2.39Z" fill="#fff" stroke-width="0"/><path d="M101.39,37.71v31.6h-7.7v-31.6h7.7Z" fill="#fff" stroke-width="0"/><path d="M112.19,68.49c-1.83-.75-3.29-1.86-4.39-3.33-1.1-1.47-1.67-3.24-1.73-5.31h8.19c.12,1.17.52,2.06,1.22,2.68.69.62,1.59.92,2.7.92s2.04-.26,2.7-.79c.66-.52.99-1.25.99-2.18,0-.78-.26-1.42-.79-1.93-.53-.51-1.17-.93-1.94-1.26s-1.85-.71-3.26-1.13c-2.04-.63-3.71-1.26-5-1.89-1.29-.63-2.4-1.56-3.33-2.79-.93-1.23-1.4-2.84-1.4-4.82,0-2.94,1.06-5.24,3.2-6.91,2.13-1.66,4.91-2.5,8.33-2.5s6.29.83,8.42,2.5c2.13,1.67,3.27,3.98,3.42,6.95h-8.33c-.06-1.02-.44-1.82-1.13-2.41-.69-.59-1.57-.88-2.66-.88-.93,0-1.68.25-2.25.74-.57.5-.86,1.21-.86,2.14,0,1.02.48,1.82,1.44,2.39.96.57,2.46,1.19,4.5,1.85,2.04.69,3.7,1.35,4.97,1.98,1.28.63,2.38,1.55,3.31,2.75.93,1.2,1.4,2.75,1.4,4.64s-.46,3.44-1.37,4.91c-.92,1.47-2.24,2.64-3.98,3.51-1.74.87-3.8,1.31-6.17,1.31s-4.38-.38-6.21-1.13Z" fill="#fff" stroke-width="0"/><path d="M135.37,45.11c1.35-2.44,3.23-4.35,5.65-5.72,2.41-1.37,5.15-2.05,8.21-2.05,3.75,0,6.96.99,9.63,2.97,2.67,1.98,4.46,4.68,5.36,8.1h-8.46c-.63-1.32-1.52-2.32-2.68-3.02s-2.47-1.04-3.94-1.04c-2.37,0-4.29.83-5.76,2.48-1.47,1.65-2.21,3.86-2.21,6.62s.73,4.97,2.21,6.62c1.47,1.65,3.39,2.48,5.76,2.48,1.47,0,2.78-.34,3.94-1.04,1.15-.69,2.05-1.69,2.68-3.02h8.46c-.9,3.42-2.69,6.11-5.36,8.08-2.67,1.97-5.88,2.95-9.63,2.95-3.06,0-5.8-.68-8.21-2.05-2.42-1.37-4.3-3.26-5.65-5.69-1.35-2.43-2.03-5.21-2.03-8.33s.68-5.9,2.03-8.35Z" fill="#fff" stroke-width="0"/><path d="M175.72,67.55c-2.48-1.38-4.44-3.31-5.9-5.78-1.46-2.48-2.18-5.26-2.18-8.35s.73-5.87,2.18-8.33c1.45-2.46,3.42-4.38,5.9-5.76s5.2-2.07,8.17-2.07,5.69.69,8.17,2.07,4.43,3.3,5.85,5.76c1.42,2.46,2.14,5.24,2.14,8.33s-.72,5.87-2.16,8.35c-1.44,2.48-3.39,4.4-5.85,5.78-2.46,1.38-5.18,2.07-8.15,2.07s-5.69-.69-8.17-2.07ZM189.94,60.08c1.51-1.68,2.27-3.9,2.27-6.66s-.76-5.02-2.27-6.68c-1.52-1.67-3.53-2.5-6.05-2.5s-4.58.83-6.1,2.48c-1.52,1.65-2.27,3.89-2.27,6.71s.76,5.02,2.27,6.68c1.51,1.67,3.55,2.5,6.1,2.5s4.54-.84,6.05-2.52Z" fill="#fff" stroke-width="0"/><path d="M233.98,37.71l-11.21,31.6h-9.63l-11.21-31.6h8.19l7.83,23.85,7.88-23.85h8.15Z" fill="#fff" stroke-width="0"/><path d="M244.87,43.87v6.39h10.31v5.94h-10.31v6.93h11.66v6.17h-19.35v-31.6h19.35v6.17h-11.66Z" fill="#fff" stroke-width="0"/><path d="M277.63,69.3l-6.57-11.93h-1.85v11.93h-7.7v-31.6h12.92c2.49,0,4.61.44,6.37,1.3,1.76.87,3.07,2.06,3.94,3.58s1.31,3.2,1.31,5.06c0,2.1-.59,3.98-1.78,5.63-1.19,1.65-2.93,2.82-5.24,3.51l7.29,12.51h-8.69ZM269.22,51.93h4.77c1.41,0,2.47-.34,3.17-1.04.7-.69,1.06-1.67,1.06-2.93s-.35-2.14-1.06-2.84c-.71-.69-1.76-1.04-3.17-1.04h-4.77v7.83Z" fill="#fff" stroke-width="0"/><path d="M320.08,63.72h-11.79l-1.89,5.58h-8.06l11.43-31.6h8.91l11.43,31.6h-8.15l-1.89-5.58ZM318.1,57.78l-3.92-11.57-3.87,11.57h7.79Z" fill="#fff" stroke-width="0"/><path d="M386.6,37.71l-8.24,31.6h-9.32l-5.04-20.79-5.22,20.79h-9.32l-8.01-31.6h8.24l4.55,23,5.63-23h8.46l5.4,23,4.59-23h8.28Z" fill="#fff" stroke-width="0"/><path d="M397.24,67.55c-2.48-1.38-4.44-3.31-5.9-5.78-1.46-2.48-2.18-5.26-2.18-8.35s.73-5.87,2.18-8.33c1.45-2.46,3.42-4.38,5.9-5.76s5.2-2.07,8.17-2.07,5.69.69,8.17,2.07,4.43,3.3,5.85,5.76c1.42,2.46,2.14,5.24,2.14,8.33s-.72,5.87-2.16,8.35c-1.44,2.48-3.39,4.4-5.85,5.78-2.46,1.38-5.18,2.07-8.15,2.07s-5.69-.69-8.17-2.07ZM411.46,60.08c1.51-1.68,2.27-3.9,2.27-6.66s-.76-5.02-2.27-6.68c-1.52-1.67-3.53-2.5-6.05-2.5s-4.58.83-6.1,2.48c-1.52,1.65-2.27,3.89-2.27,6.71s.76,5.02,2.27,6.68c1.51,1.67,3.55,2.5,6.1,2.5s4.54-.84,6.05-2.52Z" fill="#fff" stroke-width="0"/><path d="M441.96,69.3l-6.57-11.93h-1.85v11.93h-7.7v-31.6h12.92c2.49,0,4.61.44,6.37,1.3,1.76.87,3.07,2.06,3.94,3.58s1.31,3.2,1.31,5.06c0,2.1-.59,3.98-1.78,5.63-1.19,1.65-2.93,2.82-5.24,3.51l7.29,12.51h-8.69ZM433.54,51.93h4.77c1.41,0,2.47-.34,3.17-1.04.7-.69,1.06-1.67,1.06-2.93s-.35-2.14-1.06-2.84c-.71-.69-1.76-1.04-3.17-1.04h-4.77v7.83Z" fill="#fff" stroke-width="0"/><path d="M462.88,63.36h10.08v5.94h-17.78v-31.6h7.7v25.65Z" fill="#fff" stroke-width="0"/><path d="M497.22,39.69c2.49,1.32,4.42,3.17,5.78,5.56s2.05,5.14,2.05,8.26-.68,5.84-2.05,8.24-3.3,4.26-5.81,5.58c-2.51,1.32-5.41,1.98-8.71,1.98h-11.84v-31.6h11.84c3.33,0,6.24.66,8.73,1.98ZM494.79,60.25c1.62-1.59,2.43-3.84,2.43-6.75s-.81-5.18-2.43-6.8c-1.62-1.62-3.89-2.43-6.8-2.43h-3.65v18.36h3.65c2.91,0,5.18-.79,6.8-2.39Z" fill="#fff" stroke-width="0"/><path d="M525.69,67.55c-2.48-1.38-4.44-3.31-5.9-5.78-1.46-2.48-2.18-5.26-2.18-8.35s.73-5.87,2.18-8.33,3.42-4.38,5.9-5.76c2.48-1.38,5.2-2.07,8.17-2.07s5.69.69,8.17,2.07c2.48,1.38,4.43,3.3,5.85,5.76s2.14,5.24,2.14,8.33-.72,5.87-2.16,8.35c-1.44,2.48-3.39,4.4-5.85,5.78-2.46,1.38-5.18,2.07-8.15,2.07s-5.69-.69-8.17-2.07ZM539.91,60.08c1.51-1.68,2.27-3.9,2.27-6.66s-.76-5.02-2.27-6.68c-1.52-1.67-3.53-2.5-6.05-2.5s-4.58.83-6.1,2.48c-1.51,1.65-2.27,3.89-2.27,6.71s.76,5.02,2.27,6.68,3.55,2.5,6.1,2.5,4.54-.84,6.05-2.52Z" fill="#fff" stroke-width="0"/><path d="M574.86,37.71v6.17h-12.87v6.66h9.63v5.99h-9.63v12.78h-7.7v-31.6h20.57Z" fill="#fff" stroke-width="0"/><path d="M604.57,69.3l-6.57-11.93h-1.85v11.93h-7.7v-31.6h12.92c2.49,0,4.61.44,6.37,1.3,1.76.87,3.07,2.06,3.94,3.58s1.31,3.2,1.31,5.06c0,2.1-.59,3.98-1.78,5.63-1.19,1.65-2.93,2.82-5.24,3.51l7.29,12.51h-8.69ZM596.15,51.93h4.77c1.41,0,2.47-.34,3.17-1.04.7-.69,1.06-1.67,1.06-2.93s-.35-2.14-1.06-2.84c-.71-.69-1.76-1.04-3.17-1.04h-4.77v7.83Z" fill="#fff" stroke-width="0"/><path d="M625.49,43.87v6.39h10.31v5.94h-10.31v6.93h11.66v6.17h-19.35v-31.6h19.35v6.17h-11.66Z" fill="#fff" stroke-width="0"/><path d="M647.37,68.49c-1.83-.75-3.29-1.86-4.39-3.33-1.1-1.47-1.67-3.24-1.73-5.31h8.19c.12,1.17.52,2.06,1.22,2.68.69.62,1.59.92,2.7.92s2.04-.26,2.7-.79c.66-.52.99-1.25.99-2.18,0-.78-.26-1.42-.79-1.93-.53-.51-1.17-.93-1.94-1.26-.76-.33-1.85-.71-3.26-1.13-2.04-.63-3.71-1.26-5-1.89-1.29-.63-2.4-1.56-3.33-2.79-.93-1.23-1.4-2.84-1.4-4.82,0-2.94,1.06-5.24,3.2-6.91,2.13-1.66,4.91-2.5,8.33-2.5s6.29.83,8.42,2.5c2.13,1.67,3.27,3.98,3.42,6.95h-8.33c-.06-1.02-.44-1.82-1.13-2.41-.69-.59-1.58-.88-2.66-.88-.93,0-1.68.25-2.25.74-.57.5-.85,1.21-.85,2.14,0,1.02.48,1.82,1.44,2.39.96.57,2.46,1.19,4.5,1.85,2.04.69,3.7,1.35,4.97,1.98s2.38,1.55,3.31,2.75c.93,1.2,1.4,2.75,1.4,4.64s-.46,3.44-1.37,4.91c-.92,1.47-2.24,2.64-3.98,3.51-1.74.87-3.8,1.31-6.17,1.31s-4.38-.38-6.21-1.13Z" fill="#fff" stroke-width="0"/><path d="M676.6,67.55c-2.48-1.38-4.44-3.31-5.9-5.78-1.46-2.48-2.18-5.26-2.18-8.35s.73-5.87,2.18-8.33,3.42-4.38,5.9-5.76c2.48-1.38,5.2-2.07,8.17-2.07s5.69.69,8.17,2.07c2.48,1.38,4.43,3.3,5.85,5.76s2.14,5.24,2.14,8.33-.72,5.87-2.16,8.35c-1.44,2.48-3.39,4.4-5.85,5.78-2.46,1.38-5.18,2.07-8.15,2.07s-5.69-.69-8.17-2.07ZM690.82,60.08c1.51-1.68,2.27-3.9,2.27-6.66s-.76-5.02-2.27-6.68c-1.52-1.67-3.53-2.5-6.05-2.5s-4.58.83-6.1,2.48c-1.51,1.65-2.27,3.89-2.27,6.71s.76,5.02,2.27,6.68,3.55,2.5,6.1,2.5,4.54-.84,6.05-2.52Z" fill="#fff" stroke-width="0"/><path d="M712.76,37.71v18.9c0,1.89.46,3.35,1.39,4.37.93,1.02,2.3,1.53,4.1,1.53s3.18-.51,4.14-1.53c.96-1.02,1.44-2.48,1.44-4.37v-18.9h7.7v18.86c0,2.82-.6,5.21-1.8,7.16-1.2,1.95-2.81,3.42-4.84,4.41-2.02.99-4.28,1.49-6.77,1.49s-4.72-.49-6.68-1.46c-1.97-.97-3.52-2.44-4.66-4.41-1.14-1.97-1.71-4.36-1.71-7.18v-18.86h7.7Z" fill="#fff" stroke-width="0"/><path d="M753.04,69.3l-6.57-11.93h-1.85v11.93h-7.7v-31.6h12.92c2.49,0,4.61.44,6.37,1.3,1.76.87,3.07,2.06,3.94,3.58s1.3,3.2,1.3,5.06c0,2.1-.59,3.98-1.78,5.63-1.19,1.65-2.93,2.82-5.24,3.51l7.29,12.51h-8.69ZM744.63,51.93h4.77c1.41,0,2.47-.34,3.17-1.04.7-.69,1.06-1.67,1.06-2.93s-.35-2.14-1.06-2.84c-.71-.69-1.76-1.04-3.17-1.04h-4.77v7.83Z" fill="#fff" stroke-width="0"/><path d="M767,45.11c1.35-2.44,3.23-4.35,5.65-5.72s5.15-2.05,8.21-2.05c3.75,0,6.96.99,9.63,2.97,2.67,1.98,4.46,4.68,5.36,8.1h-8.46c-.63-1.32-1.52-2.32-2.68-3.02-1.15-.69-2.47-1.04-3.94-1.04-2.37,0-4.29.83-5.76,2.48-1.47,1.65-2.21,3.86-2.21,6.62s.74,4.97,2.21,6.62c1.47,1.65,3.39,2.48,5.76,2.48,1.47,0,2.78-.34,3.94-1.04,1.16-.69,2.05-1.69,2.68-3.02h8.46c-.9,3.42-2.69,6.11-5.36,8.08-2.67,1.97-5.88,2.95-9.63,2.95-3.06,0-5.8-.68-8.21-2.05s-4.3-3.26-5.65-5.69c-1.35-2.43-2.03-5.21-2.03-8.33s.68-5.9,2.03-8.35Z" fill="#fff" stroke-width="0"/><path d="M808.27,43.87v6.39h10.31v5.94h-10.31v6.93h11.66v6.17h-19.35v-31.6h19.35v6.17h-11.66Z" fill="#fff" stroke-width="0"/><path d="M830.14,68.49c-1.83-.75-3.29-1.86-4.39-3.33-1.1-1.47-1.67-3.24-1.73-5.31h8.19c.12,1.17.52,2.06,1.22,2.68.69.62,1.59.92,2.7.92s2.04-.26,2.7-.79c.66-.52.99-1.25.99-2.18,0-.78-.26-1.42-.79-1.93-.53-.51-1.17-.93-1.93-1.26-.77-.33-1.85-.71-3.26-1.13-2.04-.63-3.71-1.26-5-1.89s-2.4-1.56-3.33-2.79c-.93-1.23-1.39-2.84-1.39-4.82,0-2.94,1.06-5.24,3.19-6.91,2.13-1.66,4.91-2.5,8.33-2.5s6.29.83,8.42,2.5c2.13,1.67,3.27,3.98,3.42,6.95h-8.33c-.06-1.02-.43-1.82-1.13-2.41s-1.57-.88-2.65-.88c-.93,0-1.68.25-2.25.74-.57.5-.86,1.21-.86,2.14,0,1.02.48,1.82,1.44,2.39.96.57,2.46,1.19,4.5,1.85,2.04.69,3.7,1.35,4.97,1.98,1.27.63,2.38,1.55,3.31,2.75.93,1.2,1.39,2.75,1.39,4.64s-.46,3.44-1.37,4.91c-.92,1.47-2.24,2.64-3.98,3.51-1.74.87-3.8,1.31-6.17,1.31s-4.38-.38-6.21-1.13Z" fill="#fff" stroke-width="0"/><path id="b" d="M0,0c0,4.59,204.16,8.31,456,8.31S912,4.59,912,0" fill="#29aae1" stroke-width="0"/><path id="c" d="M0,107.32c0-4.59,204.16-8.31,456-8.31s456,3.72,456,8.31" fill="#29aae1" stroke-width="0"/></svg>