<?xml version="1.0" encoding="UTF-8"?><svg id="a" xmlns="http://www.w3.org/2000/svg" width="65.2" height="72.7" viewBox="0 0 65.2 72.7"><path id="b" d="M43.24,72.69c-.18.02-.35-.02-.5-.12-5.12-1.26-9.81-3.88-13.57-7.59-5.04-5-7.86-11.82-7.84-18.92.15-6.04,5.16-10.83,11.2-10.71,6.02-.17,11.03,4.58,11.2,10.59,0,.04,0,.07,0,.11.15,4.05,3.54,7.23,7.59,7.1,4.02.17,7.42-2.96,7.59-6.98,0-.04,0-.08,0-.12,0-13.69-11.83-24.77-26.27-24.77-10.33,0-19.79,5.73-24.02,14.69-1.44,3.21-2.16,6.69-2.11,10.2-.02,4.48.83,8.92,2.5,13.08.38.93-.07,1.99-.99,2.37-.93.38-1.99-.07-2.37-.99h0c-1.72-4.58-2.6-9.43-2.62-14.32-.06-4.04.79-8.04,2.49-11.71,5.17-10.3,15.74-16.77,27.26-16.68,16.56,0,30,12.7,30,28.38-.28,6.19-5.52,10.98-11.71,10.7-5.79-.26-10.43-4.9-10.7-10.7-.15-4.05-3.54-7.23-7.59-7.1-4.02-.17-7.42,2.96-7.59,6.98,0,.04,0,.08,0,.12-.05,6.18,2.42,12.12,6.85,16.43,3.24,3.3,7.34,5.63,11.83,6.72.95.25,1.52,1.23,1.27,2.18,0,.02-.01.05-.02.07-.48.54-1.14.9-1.86.99M50.59,65.22c-10.65.27-19.51-8.14-19.78-18.79,0-.13,0-.25,0-.38-.02-1.01.79-1.85,1.8-1.87.02,0,.04,0,.06,0,.97-.06,1.81.68,1.87,1.66,0,.07,0,.14,0,.21.04,5.23,2.71,10.09,7.09,12.94,2.73,1.79,5.95,2.7,9.21,2.62,1.25-.02,2.5-.15,3.74-.37,1-.16,1.94.51,2.1,1.51.16.99-.5,1.92-1.48,2.1-2.37.25-4.11.37-4.61.37M24.44,71.95c-.47.05-.94-.14-1.24-.5-2.93-2.79-5.41-6.03-7.34-9.58-2.6-4.86-3.93-10.3-3.86-15.81.12-10.83,9.33-19.67,20.66-19.67s20.54,8.84,20.54,19.54c0,1.03-.84,1.87-1.87,1.87s-1.87-.84-1.87-1.87c.12-8.71-7.47-15.81-16.8-15.81s-16.93,7.1-16.93,15.94c-.12,4.86,1.04,9.67,3.36,13.94,1.74,3.3,4.01,6.28,6.72,8.84.72.69.75,1.83.06,2.55-.02.02-.04.04-.06.06-.4.29-.87.46-1.37.49M1.79,28.13c-.37.01-.73-.12-1-.37-.81-.56-1.03-1.66-.5-2.49,3.49-4.99,8.15-9.05,13.57-11.82,11.79-5.91,25.68-5.91,37.46,0,5.44,2.75,10.11,6.81,13.57,11.83.55.83.33,1.94-.5,2.49-.83.55-1.94.33-2.49-.5h0c-3.15-4.54-7.38-8.22-12.32-10.7-10.74-5.35-23.37-5.35-34.1,0-4.91,2.52-9.14,6.19-12.32,10.7-.25.53-.78.87-1.37.87M53.69,8.96c-.3-.02-.6-.11-.87-.25-6.2-3.32-13.13-5.03-20.16-4.98-7.05-.04-13.98,1.71-20.16,5.1-.88.5-2,.2-2.51-.68-.5-.88-.2-2,.68-2.51.03-.01.05-.03.08-.04C17.48,1.95,25.01.02,32.66,0c7.64.01,15.16,1.89,21.91,5.48.89.49,1.22,1.59.75,2.49-.28.63-.92,1.03-1.62.99" fill="#29aae1" stroke-width="0"/></svg>