<?xml version="1.0" encoding="UTF-8"?><svg id="a" xmlns="http://www.w3.org/2000/svg" width="69.05" height="69.16" viewBox="0 0 69.05 69.16"><path id="b" d="M34.46,0c-6.8,0-13.45,2-19.11,5.77l.49-1.53c.45-1.4-.31-2.9-1.71-3.35-1.4-.45-2.9.31-3.35,1.71,0,0,0,.02,0,.03l-3.27,10.25c-.44,1.4.33,2.9,1.73,3.34.26.08.53.12.8.12.09,0,.18,0,.27-.01l10.7-1.08c1.46-.15,2.53-1.45,2.38-2.92-.15-1.46-1.45-2.53-2.92-2.38l-2.12.22c13.49-8.89,31.64-5.17,40.53,8.32,8.89,13.49,5.17,31.64-8.32,40.53-4.78,3.15-10.38,4.83-16.1,4.83-1.47,0-2.66,1.19-2.66,2.66s1.19,2.66,2.66,2.66c19.1,0,34.58-15.48,34.59-34.58C69.05,15.49,53.57,0,34.47,0c0,0,0,0,0,0" fill="#29aae1" stroke-width="0"/><path id="c" d="M24.12,61.96c-1.47-.56-2.89-1.23-4.26-2.02-1.26-.75-2.89-.33-3.64.94-.75,1.26-.33,2.89.94,3.64.02.01.04.02.05.03,1.61.93,3.29,1.73,5.03,2.39.3.11.62.17.94.17,1.47,0,2.66-1.19,2.66-2.66,0-1.11-.68-2.1-1.72-2.49" fill="#29aae1" stroke-width="0"/><path id="d" d="M9.75,50.26c-.78-1.25-2.42-1.63-3.66-.86-1.25.78-1.63,2.42-.86,3.66,0,.01.02.03.03.04,1,1.57,2.12,3.05,3.35,4.44.98,1.1,2.66,1.2,3.76.23,1.1-.98,1.2-2.66.23-3.76-1.04-1.18-1.99-2.43-2.84-3.76" fill="#29aae1" stroke-width="0"/><path id="e" d="M6.06,41.64c-.38-1.52-.63-3.08-.76-4.64-.18-1.46-1.51-2.5-2.97-2.32-1.38.17-2.39,1.36-2.33,2.75.15,1.85.45,3.69.9,5.49.3,1.18,1.36,2.01,2.58,2.02.22,0,.43-.03.64-.08,1.43-.35,2.3-1.8,1.94-3.22" fill="#29aae1" stroke-width="0"/><path id="f" d="M2.82,29.59c.21.05.42.08.63.08,1.22,0,2.29-.84,2.58-2.03.37-1.53.87-3.02,1.48-4.47.57-1.35-.06-2.91-1.41-3.49-1.35-.57-2.91.06-3.49,1.41h0c-.72,1.71-1.31,3.48-1.75,5.28-.35,1.43.53,2.87,1.95,3.22" fill="#29aae1" stroke-width="0"/><path id="g" d="M34.15,53.74c1.55,0,2.8-1.26,2.79-2.81s-1.26-2.8-2.81-2.79c-1.54,0-2.79,1.25-2.79,2.79,0,1.55,1.26,2.81,2.81,2.81h0" fill="#29aae1" stroke-width="0"/><path id="h" d="M34.19,45.51c-1.45,0-2.62-1.17-2.62-2.62h0v-3.49c.03-2.87,1.9-5.4,4.64-6.27,3-1,4.82-4.05,4.28-7.17-.61-3.48-3.92-5.8-7.4-5.2-1.3.23-2.49.85-3.42,1.78-1.02,1.02-2.68,1.02-3.7,0-1.02-1.02-1.02-2.68,0-3.7,4.54-4.54,11.9-4.54,16.44,0,4.54,4.54,4.54,11.9,0,16.44-1.28,1.28-2.84,2.24-4.55,2.81-.6.16-1.02.68-1.06,1.3v3.49c0,1.45-1.17,2.62-2.62,2.62h0" fill="#29aae1" stroke-width="0"/></svg>