<?xml version="1.0" encoding="UTF-8"?><svg id="a" xmlns="http://www.w3.org/2000/svg" width="70.3" height="57.65" viewBox="0 0 70.3 57.65"><path id="b" d="M26.69,56.63h0c-1.36-1.35-1.37-3.55-.02-4.91,0,0,.01-.01.02-.02l11.88-11.83c1.37-1.36,3.58-1.36,4.95,0,1.36,1.35,1.37,3.55.02,4.91,0,0-.01.01-.02.02l-11.88,11.83c-1.37,1.36-3.58,1.36-4.95,0" fill="#29aae1" stroke-width="0"/><path id="c" d="M38.57,56.63l-11.88-11.83c-1.36-1.35-1.37-3.55-.01-4.91,0,0,0,0,.01-.01,1.37-1.36,3.58-1.36,4.95,0l11.88,11.83c1.36,1.35,1.37,3.55.01,4.91,0,0,0,0-.01.01-1.37,1.36-3.58,1.36-4.95,0" fill="#29aae1" stroke-width="0"/><path id="d" d="M9.62,0C4.28.02-.02,4.37,0,9.71c.02,5.34,4.37,9.64,9.71,9.62,5.32-.02,9.62-4.34,9.62-9.66C19.32,4.32,14.97-.01,9.62,0h0M9.62,4.84c2.66.01,4.81,2.18,4.8,4.84-.01,2.66-2.18,4.81-4.84,4.8-2.65-.01-4.8-2.17-4.8-4.82,0-2.67,2.18-4.83,4.84-4.82" fill="#29aae1" stroke-width="0"/><path id="e" d="M60.59,0c-5.34.02-9.64,4.37-9.62,9.71.02,5.34,4.37,9.64,9.71,9.62,5.32-.02,9.62-4.34,9.62-9.66C70.29,4.32,65.94-.01,60.59,0h0M60.59,4.84c2.66.01,4.81,2.18,4.8,4.84-.01,2.66-2.18,4.81-4.84,4.8-2.65-.01-4.8-2.17-4.8-4.82,0-2.67,2.18-4.82,4.84-4.82" fill="#29aae1" stroke-width="0"/><path id="f" d="M18.92,50.75h-9.72c-1.1,0-2-.89-2.01-1.99,0,0,0,0,0,0v-19.12c0-1.1.9-2,2-2,0,0,0,0,0,0h.85c1.1,0,2,.89,2.01,1.99,0,0,0,0,0,0v14.28c0,1.1.9,2,2,2,0,0,0,0,0,0h4.86c1.1,0,2,.89,2.01,1.99,0,0,0,0,0,0v.85c0,1.1-.9,2-2,2,0,0,0,0,0,0" fill="#29aae1" stroke-width="0"/><path id="g" d="M13.97,33.78l-3.01-3c-.74-.74-1.94-.74-2.68,0l-3.01,3c-.74.74-1.94.74-2.68,0l-.76-.76c-.74-.73-.74-1.92,0-2.66,0,0,0,0,0,0l6.45-6.42c.74-.74,1.94-.74,2.68,0l6.45,6.42c.74.73.74,1.92.01,2.66,0,0,0,0-.01.01l-.76.76c-.74.74-1.94.74-2.68,0" fill="#29aae1" stroke-width="0"/><path id="h" d="M60.92,50.75h-9.51c-1.16,0-2.11-.94-2.11-2.1v-.64c0-1.16.95-2.1,2.11-2.1h4.65c1.16,0,2.11-.94,2.11-2.1v-14.08c0-1.16.95-2.1,2.11-2.1h.64c1.16,0,2.11.94,2.11,2.1v18.92c0,1.16-.95,2.1-2.11,2.1" fill="#29aae1" stroke-width="0"/><path id="i" d="M64.93,33.76l-2.99-2.97c-.75-.74-1.95-.74-2.7,0l-2.99,2.97c-.75.74-1.95.74-2.7,0l-.74-.74c-.74-.74-.74-1.94,0-2.69,0,0,0,0,0,0l6.43-6.4c.75-.74,1.95-.74,2.7,0l6.43,6.4c.74.74.74,1.94,0,2.69,0,0,0,0,0,0l-.74.74c-.75.74-1.95.74-2.7,0" fill="#29aae1" stroke-width="0"/></svg>