<?xml version="1.0" encoding="UTF-8"?><svg id="a" xmlns="http://www.w3.org/2000/svg" width="82.42" height="82.42" viewBox="0 0 82.42 82.42"><path id="b" d="M22.56,38.44c1.53,0,2.77,1.24,2.77,2.77s-1.24,2.77-2.77,2.77h-6.98c.62,5.85,3.23,11.3,7.39,15.46h0c4.16,4.17,9.61,6.78,15.46,7.4v-6.98c0-1.53,1.24-2.77,2.77-2.77s2.77,1.24,2.77,2.77v6.98c12.05-1.3,21.56-10.82,22.86-22.86h-6.98c-1.53,0-2.77-1.24-2.77-2.77s1.24-2.77,2.77-2.77h6.98c-1.29-12.05-10.81-21.57-22.86-22.86v6.98c0,1.53-1.24,2.77-2.77,2.77s-2.77-1.24-2.77-2.77h0v-6.98c-12.05,1.3-21.57,10.81-22.86,22.86h6.98ZM43.98,10.02c7.32.64,14.18,3.85,19.36,9.05h0c5.2,5.2,8.41,12.05,9.05,19.37h7.25c1.53,0,2.77,1.24,2.77,2.77s-1.24,2.77-2.77,2.77h-7.25c-1.35,15.1-13.32,27.08-28.42,28.42v7.25c0,1.53-1.24,2.77-2.77,2.77s-2.77-1.24-2.77-2.77v-7.25c-7.32-.65-14.17-3.85-19.36-9.05h-.01c-5.2-5.2-8.4-12.06-9.05-19.37H2.77c-1.53,0-2.77-1.24-2.77-2.77s1.24-2.77,2.77-2.77h7.25c1.35-15.11,13.32-27.08,28.42-28.42V2.77c0-1.53,1.24-2.77,2.77-2.77s2.77,1.24,2.77,2.77v7.25Z" fill="#29aae1" stroke-width="0"/></svg>