<?xml version="1.0" encoding="UTF-8"?><svg id="a" xmlns="http://www.w3.org/2000/svg" width="205" height="30" viewBox="0 0 205 30"><path id="b" d="M205,22.2c-.52,2.55-2.04,4.77-4.22,6.15-4.46,2.76-12.64,2.48-16.41-4.14-.31-.54-.6-1.1-.95-1.74,2.09-.83,4.1-1.62,6.14-2.43.6.91,1.27,1.76,2.01,2.56,1.38,1.37,3.45,1.72,5.2.89,2.02-1.03,2.15-3,.24-4.19-1.14-.68-2.37-1.18-3.65-1.5-2.47-.5-4.77-1.66-6.65-3.36-3.02-3.4-2.76-8.64.59-11.7.08-.07.16-.14.24-.21,4.25-3.38,12.87-3.38,16.57,3.26.14.26.26.53.44.93l-5.8,2.42c-.72-.91-1.54-1.74-2.42-2.49-1.3-.99-3.11-.96-4.37.09-.84.59-1.05,1.76-.47,2.61.2.3.49.53.82.67,1.17.62,2.41,1.08,3.7,1.37,3.09.86,5.98,2.03,7.8,4.94.49.98.88,2.01,1.16,3.07v2.84Z" fill="#fff" stroke-width="0"/><path id="c" d="M38.53.68v10.6h-8.14V.68h-6.54v28.91h6.63v-11.39h8.17v11.42h6.54V.68h-6.66Z" fill="#fff" stroke-width="0"/><path id="d" d="M113.93,29.6h-5.69c-3.41-9.59-6.81-19.17-10.26-28.9h7.89c1.69,5.27,3.41,10.62,5.26,16.37,1.81-5.72,3.5-11.08,5.2-16.44h7.94c-3.46,9.71-6.91,19.37-10.34,28.97" fill="#fff" stroke-width="0"/><path id="e" d="M173.84,29.57h6.73V12.78h-6.73v16.79Z" fill="#fff" stroke-width="0"/><path id="f" d="M88.86,10.21c.04,1.38-.95,2.58-2.3,2.78-1.35.16-2.72.2-4.08.1v-6.05c1.43-.14,2.88-.11,4.3.08,1.41.27,2.14,1.46,2.08,3.1M94.42,23.52c-.99-1.97-1.98-3.93-2.97-5.88,5.38-3.36,4.91-10.52,1.92-13.94-1.37-1.76-3.4-2.85-5.59-3.01-3.95-.15-7.91-.04-11.95-.04v28.94h6.65v-10.42h2.38c1.66,3.52,3.32,7.01,4.93,10.42h7.69c-1.06-2.11-2.05-4.08-3.05-6.05" fill="#fff" stroke-width="0"/><path id="g" d="M162.7,10.24c0,1.33-.92,2.49-2.21,2.74-1.4.18-2.82.22-4.22.1v-5.02c0-.29.04-.59.07-1.01,1.43-.16,2.88-.13,4.31.08,1.39.27,2.11,1.47,2.06,3.11M165.24,17.61c3.13-1.94,4.29-4.78,4.13-8.32-.17-4.24-3.22-7.78-7.33-8.52-2.58-.43-5.19-.1-7.79-.17-1.52-.04-3.05,0-4.61,0v28.98h6.64v-10.4h2.39c1.66,3.52,3.29,6.98,4.9,10.4h7.7l-6.02-11.96" fill="#fff" stroke-width="0"/><path id="h" d="M11.73,12.69c-1.54.44-3.12.1-4.82.22-.03-.44-.06-.69-.07-.94v-5.02c1.62-.14,3.25-.11,4.86.09,1.23.34,2.07,1.48,2.07,2.77.11,1.34-.76,2.57-2.05,2.88M12.95.77C8.71.29,4.43.63.17.63c-.07,0-.13.1-.17.13v28.8h6.88v-10.26c1.48,0,2.88,0,4.28,0,4.71.22,8.8-3.27,9.4-8.02.86-4.9-2.36-9.58-7.2-10.44-.14-.02-.27-.05-.41-.06" fill="#fff" stroke-width="0"/><path id="i" d="M131.73,19.32c.88-2.94,1.74-5.83,2.6-8.72l.24-.03c.82,2.88,1.64,5.76,2.49,8.75h-5.33ZM136.95.64h-5.3c-3.37,9.64-6.75,19.28-10.14,28.93h7.13c.46-1.43.91-2.8,1.36-4.21h8.65c.45,1.43.9,2.84,1.33,4.24h7.12c-3.4-9.71-6.78-19.33-10.15-28.96" fill="#fff" stroke-width="0"/><path id="j" d="M57.91,19.35c.88-2.96,1.74-5.85,2.59-8.75h.27c.81,2.88,1.63,5.77,2.47,8.75h-5.33ZM63.13.65h-5.3c-3.37,9.62-6.75,19.26-10.14,28.94h7.13c.47-1.44.92-2.85,1.36-4.2h8.68c.44,1.44.87,2.82,1.3,4.22h7.12c-3.42-9.76-6.78-19.34-10.15-28.96" fill="#fff" stroke-width="0"/><path id="k" d="M182.36,5.17c0,2.86-2.28,5.17-5.1,5.17s-5.1-2.32-5.1-5.17,2.28-5.17,5.1-5.17,5.1,2.32,5.1,5.17h0" fill="#fff" stroke-width="0"/></svg>