<?xml version="1.0" encoding="UTF-8"?><svg id="a" xmlns="http://www.w3.org/2000/svg" width="69.34" height="61.79" viewBox="0 0 69.34 61.79"><path id="b" d="M34.74,52.72c2.22.13,4.12-1.56,4.26-3.77,0-.06,0-.11,0-.17v-.46c-.04-2.22-1.87-3.99-4.09-3.95-.06,0-.11,0-.17,0-2.25-.11-4.15,1.62-4.26,3.87,0,.03,0,.05,0,.08v.46c.07,2.25,1.94,4.01,4.19,3.95.03,0,.05,0,.08,0" fill="#29aae1" stroke-width="0"/><path id="c" d="M32.3,40.3c.03,1.32,1.12,2.38,2.44,2.37,1.33,0,2.43-1.04,2.49-2.38l1.43-16.64c.15-2.15-1.47-4.01-3.62-4.16-2.15-.15-4.01,1.47-4.16,3.62-.01.18-.01.36,0,.54l1.43,16.64Z" fill="#29aae1" stroke-width="0"/><path id="d" d="M68.47,52.05L40.29,3.25c-1.79-3.1-5.76-4.17-8.87-2.38-.99.57-1.81,1.39-2.38,2.38L.87,52.05c-1.79,3.1-.73,7.07,2.37,8.87.99.57,2.11.87,3.25.87h56.36c3.58,0,6.49-2.91,6.49-6.49,0-1.14-.3-2.26-.87-3.25M32.96,5.5c.55-.94,1.75-1.27,2.7-.72.3.17.55.42.72.72l28.18,48.81c.55.94.22,2.15-.72,2.7-.3.17-.64.27-.99.26H6.49c-1.09,0-1.98-.88-1.98-1.97,0-.35.09-.69.26-.99L32.96,5.5Z" fill="#29aae1" stroke-width="0"/></svg>