<?xml version="1.0" encoding="UTF-8"?><svg id="a" xmlns="http://www.w3.org/2000/svg" width="102.06" height="58.41" viewBox="0 0 102.06 58.41"><path id="b" d="M95.3,44.27v-3.69c1.24,0,3.07-.59,3.07-1.85v-11.06c0-2.33-5.66-4.3-9.22-4.3-.33,0-.68.02-1.06.05l-.34-3.67c.5-.05.97-.07,1.4-.07,4.36,0,12.91,2.41,12.91,7.99v11.06c0,3.59-3.49,5.53-6.76,5.53" fill="#29aae1" stroke-width="0"/><rect id="c" x="93.46" y="30.13" width="3.69" height="28.28" fill="#29aae1" stroke-width="0"/><rect id="d" x="78.7" y="26.44" width="3.69" height="31.97" fill="#29aae1" stroke-width="0"/><path id="e" d="M80.54,41.81v-3.69c1.63-.14,2.93-1.44,3.07-3.07v-11.07c0-2.14-6.08-4.3-10.45-4.3s-10.45,2.17-10.45,4.3v11.07c.14,1.63,1.44,2.93,3.07,3.07v3.69c-3.68-.14-6.63-3.09-6.76-6.76v-11.07c0-5.65,9.21-7.99,14.14-7.99s14.14,2.35,14.14,7.99v11.07c-.14,3.68-3.09,6.63-6.76,6.76" fill="#29aae1" stroke-width="0"/><path id="f" d="M73.17,15.99c-3.61.12-6.64-2.7-6.76-6.31,0-.15,0-.3,0-.45v-2.46C66.4,3.03,69.43,0,73.17,0s6.76,3.03,6.76,6.76v2.46c.12,3.61-2.7,6.64-6.31,6.76-.15,0-.3,0-.45,0M73.17,3.69c-1.59-.11-2.96,1.09-3.07,2.67,0,.13,0,.27,0,.4v2.46c0,1.7,1.38,3.07,3.08,3.07,1.7,0,3.07-1.38,3.07-3.07v-2.46c.11-1.59-1.09-2.96-2.67-3.07-.13,0-.27,0-.4,0" fill="#29aae1" stroke-width="0"/><rect id="g" x="63.94" y="26.44" width="3.69" height="31.97" fill="#29aae1" stroke-width="0"/><rect id="h" x="71.32" y="38.74" width="3.69" height="19.67" fill="#29aae1" stroke-width="0"/><rect id="i" x="19.67" y="26.44" width="3.69" height="31.97" fill="#29aae1" stroke-width="0"/><path id="j" d="M21.52,41.81v-3.69c1.63-.14,2.93-1.44,3.07-3.07v-11.07c0-2.14-6.08-4.3-10.45-4.3s-10.45,2.17-10.45,4.3v11.07c.14,1.63,1.44,2.93,3.07,3.07v3.69c-3.68-.14-6.63-3.09-6.76-6.76v-11.07c0-5.65,9.21-7.99,14.14-7.99s14.14,2.35,14.14,7.99v11.07c-.14,3.68-3.09,6.63-6.76,6.76" fill="#29aae1" stroke-width="0"/><path id="k" d="M14.14,15.99c-3.61.12-6.64-2.7-6.76-6.31,0-.15,0-.3,0-.45v-2.46C7.25,3.16,10.08.13,13.69,0c.15,0,.3,0,.45,0,3.61-.12,6.64,2.7,6.76,6.31,0,.15,0,.3,0,.45v2.46c.12,3.61-2.7,6.64-6.31,6.76-.15,0-.3,0-.45,0M14.14,3.69c-1.59-.11-2.96,1.09-3.07,2.67,0,.13,0,.27,0,.41v2.46c-.11,1.59,1.08,2.96,2.67,3.08.13,0,.27,0,.41,0,1.59.11,2.96-1.09,3.07-2.67,0-.13,0-.27,0-.4v-2.46c.11-1.59-1.09-2.96-2.67-3.07-.13,0-.27,0-.4,0" fill="#29aae1" stroke-width="0"/><rect id="l" x="4.92" y="26.44" width="3.69" height="31.97" fill="#29aae1" stroke-width="0"/><rect id="m" x="12.3" y="38.74" width="3.69" height="19.67" fill="#29aae1" stroke-width="0"/><path id="n" d="M89.15,19.68c-3.61.12-6.64-2.7-6.76-6.31,0-.15,0-.3,0-.45v-2.46c0-3.74,3.03-6.76,6.76-6.76s6.76,3.03,6.76,6.76v2.46c.12,3.61-2.7,6.64-6.31,6.76-.15,0-.3,0-.45,0M89.15,7.38c-1.59-.11-2.96,1.09-3.07,2.67,0,.13,0,.27,0,.4v2.46c0,1.7,1.38,3.07,3.07,3.07s3.07-1.38,3.07-3.07v-2.46c.11-1.59-1.09-2.96-2.67-3.07-.13,0-.27,0-.4,0" fill="#29aae1" stroke-width="0"/><path id="o" d="M51.03,44.27c-3.28,0-6.76-1.94-6.76-5.53v-11.07c0-5.58,8.55-7.99,12.91-7.99.43,0,.9.02,1.4.07l-.34,3.67c-.37-.03-.73-.05-1.06-.05-3.56,0-9.22,1.97-9.22,4.3v11.07c0,1.26,1.83,1.85,3.07,1.85v3.69Z" fill="#29aae1" stroke-width="0"/><rect id="p" x="49.19" y="30.13" width="3.69" height="28.28" fill="#29aae1" stroke-width="0"/><path id="q" d="M57.18,19.68c-3.61.12-6.64-2.7-6.76-6.31,0-.15,0-.3,0-.45v-2.46c0-3.74,3.03-6.76,6.76-6.76s6.76,3.03,6.76,6.76v2.46c.12,3.61-2.7,6.64-6.31,6.76-.15,0-.3,0-.45,0M57.18,7.38c-1.59-.11-2.96,1.09-3.07,2.67,0,.13,0,.27,0,.4v2.46c0,1.7,1.37,3.07,3.07,3.08,1.7,0,3.07-1.37,3.08-3.07h0v-2.46c.11-1.59-1.09-2.96-2.67-3.07-.13,0-.27,0-.4,0" fill="#29aae1" stroke-width="0"/></svg>