<?xml version="1.0" encoding="utf-8"?>
<!-- Generator: Adobe Illustrator 28.1.0, SVG Export Plug-In . SVG Version: 6.00 Build 0)  -->
<svg version="1.1" id="a" xmlns="http://www.w3.org/2000/svg" xmlns:xlink="http://www.w3.org/1999/xlink" x="0px" y="0px"
	 width="69.3px" height="61.8px" viewBox="0 0 69.3 61.8" style="enable-background:new 0 0 69.3 61.8;" xml:space="preserve">
<style type="text/css">
	.st0{fill:#29AAE1;}
</style>
<path class="st0" d="M34.7,52.7c2.2,0.1,4.1-1.6,4.3-3.8c0-0.1,0-0.1,0-0.2v-0.5c0-2.2-1.9-4-4.1-4c-0.1,0-0.1,0-0.2,0
	c-2.2-0.1-4.1,1.6-4.3,3.9c0,0,0,0,0,0.1v0.5C30.6,51,32.4,52.8,34.7,52.7C34.7,52.7,34.7,52.7,34.7,52.7 M32.3,40.3
	c0,1.3,1.1,2.4,2.4,2.4c1.3,0,2.4-1,2.5-2.4l1.4-16.6c0.2-2.1-1.5-4-3.6-4.2c-2.2-0.1-4,1.5-4.2,3.6c0,0.2,0,0.4,0,0.5L32.3,40.3
	L32.3,40.3z M68.5,52L40.3,3.2c-1.8-3.1-5.8-4.2-8.9-2.4c-1,0.6-1.8,1.4-2.4,2.4L0.9,52c-1.8,3.1-0.7,7.1,2.4,8.9
	c1,0.6,2.1,0.9,3.2,0.9h56.4c3.6,0,6.5-2.9,6.5-6.5C69.3,54.2,69,53,68.5,52 M33,5.5c0.5-0.9,1.8-1.3,2.7-0.7
	c0.3,0.2,0.5,0.4,0.7,0.7l28.2,48.8c0.6,0.9,0.2,2.2-0.7,2.7c-0.3,0.2-0.6,0.3-1,0.3H6.5c-1.1,0-2-0.9-2-2c0-0.3,0.1-0.7,0.3-1
	L33,5.5z"/>
</svg>
