<?xml version="1.0" encoding="UTF-8"?><svg id="a" xmlns="http://www.w3.org/2000/svg" width="75.74" height="80.96" viewBox="0 0 75.74 80.96"><path id="b" d="M71.98,3.49c-5.16-4.66-13.01-4.66-18.18,0-1.24,1.14-2.22,2.53-2.89,4.09-1.72-1.29-3.75-2.1-5.88-2.36-.52-.07-1.05-.1-1.57-.1-2.53-.01-5,.76-7.08,2.21l-22.41,14.69c-2.42,1.6-4.1,4.1-4.65,6.95-.29,1.53-.25,3.1.11,4.62.38,1.74,1.15,3.38,2.26,4.78h0s.05.06.05.06l.5.63c-.02.09-.02.18-.03.28l-.41,9.96-10.02,15.28c-1.32,1.51-1.95,3.5-1.76,5.5.2,2.03,1.23,3.89,2.84,5.15,1.43,1.13,3.2,1.76,5.02,1.79h.17c2.35.02,4.6-.97,6.17-2.72.05-.06.1-.12.15-.19l11.42-16.89,1.33,16.66c.13,2.01,1.09,3.87,2.64,5.14,1.52,1.26,3.43,1.94,5.4,1.93h0c.14,0,.28,0,.42-.01h.18c2.07-.13,4.01-1.02,5.45-2.51,1.39-1.42,2.12-3.35,2.02-5.34v-.05l-1.6-20.44c-.11-1.62-.76-3.16-1.85-4.37l-9.73-11.24,10.57-7v14.23c.15,3.89,3.41,6.92,7.3,6.78,3.89.14,7.16-2.9,7.31-6.78v-22.71c2.24,1.54,4.91,2.36,7.64,2.34,3.36.03,6.61-1.22,9.09-3.49,4.66-4.17,5.05-11.33.87-15.99-.27-.31-.57-.6-.87-.87M62.89,19.14c-4.14.14-7.62-3.08-7.78-7.22.32-4.3,4.06-7.53,8.36-7.21,3.86.29,6.92,3.35,7.21,7.21-.17,4.14-3.64,7.37-7.78,7.22M43.17,19.89c-1.35-.05-2.48,1-2.53,2.35v1.97l-16.59,10.99c-.54.35-.91.9-1.03,1.53-.11.62.05,1.26.44,1.75.5.63,1.26.99,2.06.98.06,0,.12,0,.18,0l10.15,11.73.03.04c.41.45.66,1.03.69,1.64v.05l1.6,20.44c0,1.56-1.22,2.83-2.78,2.89h-.22c-.73,0-1.44-.25-2-.72-.58-.48-.94-1.17-.98-1.92v-.05l-1.5-18.75c-.04-.45-.21-.88-.49-1.23l-14.33-17.9c-1.31-1.63-1.87-3.74-1.57-5.81.28-1.64,1.22-3.09,2.6-4.01l22.45-14.71.08-.05c1.18-.84,2.59-1.28,4.04-1.28.3,0,.6.02.9.06,1.73.19,3.31,1.05,4.42,2.38.89.94,1.39,2.2,1.38,3.5v28.47c-.08,1.24-1.16,2.17-2.4,2.08-1.11-.08-2-.97-2.08-2.08v-21.98c-.04-1.35-1.18-2.4-2.52-2.35M10.28,71.28c-.58.6-1.38.94-2.22.94h-.07c-.68,0-1.33-.24-1.86-.67-1.2-.92-1.42-2.64-.5-3.84.04-.06.09-.11.14-.16.06-.07.11-.14.16-.21l10.49-15.94c.26-.36.41-.79.43-1.24l.22-5.11,5.72,7.15c-.04.61-.29,1.19-.7,1.65-.05.06-.1.12-.15.19l-11.65,17.24Z" fill="#29aae1" stroke-width="0"/></svg>