<?xml version="1.0" encoding="UTF-8"?><svg id="a" xmlns="http://www.w3.org/2000/svg" width="58.35" height="64.28" viewBox="0 0 58.35 64.28"><path id="b" d="M51.33,6.18h-3.7v-.38c0-3.2-2.6-5.79-5.8-5.8h-.08c-3.2,0-5.79,2.6-5.8,5.8v.38h-13.44v-.38c0-3.2-2.6-5.79-5.8-5.8h-.08c-3.2,0-5.79,2.6-5.8,5.8v.38h-3.82C3.14,6.18,0,9.33,0,13.2v44.06c0,3.87,3.14,7.01,7.01,7.01h44.32c3.87,0,7.01-3.14,7.01-7.01V13.2c0-3.87-3.14-7.01-7.01-7.01M38.98,6.61c0-1.53,1.24-2.78,2.77-2.78,0,0,0,0,0,0h.06c1.53,0,2.78,1.24,2.78,2.77h0v4.05c0,1.53-1.24,2.77-2.78,2.77h-.06c-1.53,0-2.78-1.24-2.78-2.77h0s0-4.05,0-4.05ZM13.86,6.61c0-1.53,1.24-2.77,2.77-2.78h.06c1.53,0,2.77,1.24,2.77,2.77v4.05c0,1.53-1.24,2.77-2.77,2.77h-.06c-1.53,0-2.77-1.24-2.77-2.78h0v-4.05ZM53.73,57.26c0,1.33-1.07,2.4-2.4,2.4H7.01c-1.33,0-2.4-1.07-2.4-2.4h0V24.67h49.12v32.6ZM53.73,20.05H4.61v-6.85c0-1.33,1.07-2.4,2.4-2.4h3.81v.66c0,3.2,2.6,5.79,5.8,5.8h.08c3.2,0,5.79-2.6,5.8-5.8v-.66h13.44v.66c0,3.2,2.6,5.79,5.8,5.8h.08c3.2,0,5.79-2.6,5.8-5.8v-.66h3.7c1.33,0,2.4,1.07,2.4,2.4h0s0,6.85,0,6.85Z" fill="#29aae1" stroke-width="0"/><path d="M23.65,50.49l-3.43-5.16-3.02,5.16h-4.66l5.4-8.57-5.52-8.28h4.78l3.38,5.09,2.98-5.09h4.66l-5.35,8.5,5.57,8.35h-4.78Z" fill="#29aae1" stroke-width="0"/><path d="M40.81,50.49l-3.43-5.16-3.02,5.16h-4.66l5.4-8.57-5.52-8.28h4.78l3.38,5.09,2.98-5.09h4.66l-5.35,8.5,5.57,8.35h-4.78Z" fill="#29aae1" stroke-width="0"/></svg>