<?xml version="1.0" encoding="UTF-8"?><svg id="a" xmlns="http://www.w3.org/2000/svg" width="99.27" height="55.77" viewBox="0 0 99.27 55.77"><path id="b" d="M49.62,20c-3.25,0-5.89,2.64-5.89,5.89s2.64,5.89,5.89,5.89c3.25,0,5.89-2.64,5.89-5.89h0c0-3.25-2.64-5.89-5.89-5.89" fill="#29aae1" stroke-width="0"/><path id="c" d="M65.31,25.89c0-8.67-7.03-15.7-15.7-15.7-8.67,0-15.7,7.03-15.7,15.7s7.03,15.7,15.7,15.7h0c8.67,0,15.69-7.03,15.7-15.7M49.61,36.34c-5.77,0-10.45-4.68-10.44-10.45,0-5.77,4.68-10.45,10.45-10.44,5.77,0,10.44,4.68,10.44,10.45,0,5.77-4.68,10.44-10.45,10.45" fill="#29aae1" stroke-width="0"/><path id="d" d="M23.17,34.9c4.42-4.59,6.89-10.72,6.88-17.1V2.54C30.05,1.14,28.91,0,27.51,0c-.04,0-.08,0-.13,0-1.37.1-2.42,1.24-2.41,2.61v15.19c.03,10.51-8.26,19.17-18.76,19.61-.92.04-1.9.12-3,.25l-.99.12c-1.39.17-2.38,1.44-2.21,2.83.17,1.37,1.41,2.36,2.79,2.21l.99-.12c.99-.12,1.85-.19,2.64-.22,6.35-.27,12.34-2.98,16.73-7.58" fill="#29aae1" stroke-width="0"/><path id="e" d="M97.01,37.77l-.99-.12c-1.1-.13-2.08-.21-3-.25-10.5-.44-18.78-9.09-18.76-19.6V2.62c.02-1.37-1.04-2.52-2.41-2.61-1.4-.07-2.59,1.01-2.66,2.41,0,.04,0,.08,0,.12v15.26c0,13.22,10.4,24.09,23.61,24.68.78.03,1.65.1,2.64.22l.99.12c1.39.17,2.66-.81,2.83-2.2.17-1.39-.81-2.66-2.2-2.83-.01,0-.03,0-.04,0" fill="#29aae1" stroke-width="0"/><path id="f" d="M82.11,46.06h-13.55c-3.08,0-6.12.8-8.81,2.31l-4.76,2.68c-1.21.71-1.62,2.26-.91,3.47.69,1.18,2.19,1.6,3.4.95l4.76-2.68c1.93-1.08,4.1-1.65,6.32-1.65h13.55c1.4,0,2.54-1.14,2.54-2.54s-1.14-2.54-2.54-2.54" fill="#29aae1" stroke-width="0"/><path id="g" d="M44.23,51.04l-4.76-2.68c-2.69-1.51-5.72-2.3-8.81-2.31h-13.55c-1.4,0-2.54,1.14-2.54,2.54s1.14,2.54,2.54,2.54h13.55c2.21,0,4.39.57,6.32,1.65l4.76,2.68c1.24.66,2.78.19,3.44-1.04.64-1.2.22-2.69-.95-3.38" fill="#29aae1" stroke-width="0"/></svg>