<?xml version="1.0" encoding="UTF-8"?><svg id="a" xmlns="http://www.w3.org/2000/svg" width="94.5" height="41.66" viewBox="0 0 94.5 41.66"><path id="b" d="M47.25,10.37c-2.21,0-4.01,1.79-4.01,4.01s1.79,4.01,4.01,4.01c2.21,0,4.01-1.79,4.01-4.01s-1.79-4.01-4.01-4.01h0" fill="#29aae1" stroke-width="0"/><path id="c" d="M57.93,14.37c0-5.9-4.78-10.68-10.68-10.68s-10.68,4.78-10.68,10.68,4.78,10.68,10.68,10.68c5.9,0,10.68-4.79,10.68-10.68M47.25,21.48c-3.93,0-7.11-3.18-7.11-7.11,0-3.93,3.18-7.11,7.11-7.11,3.93,0,7.11,3.18,7.11,7.11,0,3.92-3.18,7.1-7.11,7.11" fill="#29aae1" stroke-width="0"/><path id="d" d="M73.06,28.1h-12.92c-2.1,0-4.16.54-5.99,1.57l-3.24,1.82c-.82.48-1.1,1.54-.62,2.36.47.8,1.49,1.09,2.31.65l3.24-1.82c1.31-.74,2.79-1.13,4.3-1.13h12.92c.95.02,1.75-.73,1.77-1.69s-.73-1.75-1.69-1.77c-.03,0-.06,0-.08,0" fill="#29aae1" stroke-width="0"/><path id="e" d="M43.58,31.49l-3.24-1.82c-1.83-1.03-3.89-1.57-5.99-1.57h-12.92c-.95,0-1.73.78-1.72,1.73,0,.95.77,1.72,1.72,1.72h12.92c1.51,0,2.99.39,4.3,1.13l3.24,1.82c.83.47,1.88.17,2.35-.66.47-.83.17-1.88-.66-2.35h0" fill="#29aae1" stroke-width="0"/><path id="f" d="M82,21.96c-2.13-1.1-4.34-2.04-6.6-2.84-4.67-1.77-9.97-3.78-9.97-6.66V2.22c0-1.23-1-2.22-2.22-2.22s-2.22,1-2.22,2.22v10.24c0,2.73,1.42,4.99,4.36,6.93,2.68,1.59,5.53,2.89,8.48,3.89h.02c2.06.73,4.07,1.59,6.02,2.57,8.88,4.9,10.2,10.61,10.2,13.58,0,1.23.99,2.23,2.22,2.23,1.23,0,2.23-.99,2.23-2.22h0c0-3.96-1.62-11.48-12.5-17.48" fill="#29aae1" stroke-width="0"/><path id="g" d="M31.29,0c-1.23,0-2.22,1-2.22,2.22v10.24c0,2.88-5.3,4.89-9.97,6.66-2.26.79-4.47,1.74-6.6,2.84C1.62,27.97,0,35.49,0,39.43c0,1.23,1,2.22,2.22,2.22s2.22-1,2.22-2.22c0-2.97,1.33-8.68,10.2-13.58,1.95-.99,3.96-1.84,6.01-2.57h.01c2.96-1,5.8-2.3,8.48-3.89,2.93-1.93,4.35-4.2,4.35-6.93V2.22C33.51,1,32.52,0,31.29,0" fill="#29aae1" stroke-width="0"/></svg>