<?xml version="1.0" encoding="UTF-8"?><svg id="a" xmlns="http://www.w3.org/2000/svg" width="965" height="470" viewBox="0 0 965 470"><g isolation="isolate"><path d="M18.76,390.9c5.55,0,9.21-3.61,9.21-9.58v-24.06h9.32v24.06c0,10.94-7.14,17.74-18.53,17.74s-18.76-6.8-18.76-17.74v-24.06h9.32v24.06c0,5.97,3.89,9.58,9.44,9.58Z" stroke-width="0"/><path d="M59.95,364.82c-3.13,0-5.25,1.12-5.25,3.37,0,7.63,22.01,3.37,21.95,18.27,0,8.1-7.02,12.48-16.17,12.48-6.79,0-13.57-2.6-18.23-6.56l3.72-7.63c4.25,3.78,10.27,6.21,14.63,6.21,3.84,0,6.14-1.42,6.14-3.96,0-7.8-22.01-3.25-22.01-17.92,0-7.51,6.43-12.24,15.99-12.24,5.78,0,11.57,1.77,15.7,4.49l-3.6,7.75c-4.37-2.6-9.56-4.26-12.86-4.26Z" stroke-width="0"/><path d="M110.21,357.25v17.26h18.71v-17.26h9.32v41.39h-9.32v-16.32h-18.71v16.32h-9.32v-41.39h9.32Z" stroke-width="0"/><path d="M178.77,357.25v7.75h-22.13v8.99h19.89v7.75h-19.89v9.17h22.78v7.75h-32.1v-41.39h31.45Z" stroke-width="0"/><path d="M212.11,398.64l-6.55-11.82h-9.5v11.82h-9.32v-41.39h17.94c10.8,0,16.94,5.2,16.94,14.37,0,6.39-2.71,11-7.73,13.36l8.79,13.66h-10.56ZM196.06,379.01h8.61c5.13,0,8.08-2.37,8.08-7.1s-2.95-6.92-8.08-6.92h-8.61v14.01Z" stroke-width="0"/><path d="M260.9,357.25v7.75h-22.13v8.99h19.89v7.75h-19.89v9.17h22.78v7.75h-32.1v-41.39h31.45Z" stroke-width="0"/><path d="M308.1,377.95c0,12.18-9.03,20.69-22.07,20.69h-17.17v-41.39h17.53c12.8,0,21.71,8.45,21.71,20.69ZM298.6,378.01c0-7.63-5.31-12.89-12.39-12.89h-8.03v25.66h8.44c6.9,0,11.98-5.2,11.98-12.77Z" stroke-width="0"/><path d="M323.56,357.25v41.39h-9.32v-41.39h9.32Z" stroke-width="0"/></g><g isolation="isolate"><path d="M372.41,357.25v7.92h-12.63v33.47h-9.32v-33.47h-12.57v-7.92h34.52Z" stroke-width="0"/></g><g isolation="isolate"><path d="M403.09,390.6h-19.12l-3.25,8.04h-9.62l17.94-41.39h9.62l17.64,41.39h-9.97l-3.25-8.04ZM400.09,383.09l-6.49-16.08-6.55,16.08h13.04Z" stroke-width="0"/></g><g isolation="isolate"><path d="M445.81,398.64l-6.55-11.82h-9.5v11.82h-9.32v-41.39h17.94c10.8,0,16.94,5.2,16.94,14.37,0,6.39-2.71,11-7.73,13.36l8.79,13.66h-10.56ZM429.76,379.01h8.61c5.13,0,8.08-2.37,8.08-7.1s-2.95-6.92-8.08-6.92h-8.61v14.01Z" stroke-width="0"/></g><g isolation="isolate"><path d="M483.27,385.28v13.36h-9.32v-13.13l-15.28-28.26h9.38l10.56,18.57,10.33-18.57h9.38l-15.05,28.03Z" stroke-width="0"/><path d="M547.64,390.6h-19.12l-3.25,8.04h-9.62l17.94-41.39h9.62l17.64,41.39h-9.97l-3.25-8.04ZM544.63,383.09l-6.49-16.08-6.55,16.08h13.04Z" stroke-width="0"/><path d="M573.66,357.25l20.06,26.61v-26.61h8.85v41.39h-8.5l-20-26.55v26.55h-8.91v-41.39h8.5Z" stroke-width="0"/><path d="M639.38,377.77h8.08v15.91c-4.37,3.19-11.03,5.38-16.76,5.38-12.51,0-22.01-9.11-22.01-21.11s9.68-20.99,22.54-20.99c6.14,0,12.39,2.36,16.58,6.03l-5.25,6.68c-3.07-2.84-7.32-4.61-11.33-4.61-7.32,0-12.98,5.62-12.98,12.89s5.72,12.95,13.04,12.95c2.48,0,5.43-.89,8.08-2.25v-10.88Z" stroke-width="0"/><path d="M664.93,357.25v41.39h-9.32v-41.39h9.32Z" stroke-width="0"/><path d="M715.5,377.95c0,11.94-9.56,21.11-22.19,21.11s-22.19-9.11-22.19-21.11,9.56-20.99,22.19-20.99,22.19,8.99,22.19,20.99ZM680.68,377.95c0,7.27,5.84,12.95,12.75,12.95s12.51-5.68,12.51-12.95-5.61-12.83-12.51-12.83-12.75,5.56-12.75,12.83Z" stroke-width="0"/><path d="M753.08,357.25v7.75h-22.13v8.99h19.89v7.75h-19.89v9.17h22.78v7.75h-32.1v-41.39h31.45Z" stroke-width="0"/><path d="M800.28,377.95c0,12.18-9.03,20.69-22.07,20.69h-17.17v-41.39h17.53c12.8,0,21.71,8.45,21.71,20.69ZM790.78,378.01c0-7.63-5.31-12.89-12.39-12.89h-8.02v25.66h8.44c6.9,0,11.98-5.2,11.98-12.77Z" stroke-width="0"/><path d="M837.86,357.25v7.75h-22.13v8.99h19.89v7.75h-19.89v9.17h22.78v7.75h-32.1v-41.39h31.45Z" stroke-width="0"/><path d="M856.27,357.25l12.04,25.31,11.98-25.31h10.38v41.39h-8.38v-27.91l-10.97,23.71h-6.08l-10.98-23.71v27.91h-8.44v-41.39h10.44Z" stroke-width="0"/><path d="M927.07,390.6h-19.12l-3.25,8.04h-9.62l17.94-41.39h9.62l17.64,41.39h-9.97l-3.25-8.04ZM924.06,383.09l-6.49-16.08-6.55,16.08h13.04Z" stroke-width="0"/></g><g isolation="isolate"><path d="M300.84,461.55h-19.12l-3.25,8.04h-9.62l17.94-41.39h9.62l17.64,41.39h-9.97l-3.25-8.04ZM297.83,454.04l-6.49-16.08-6.55,16.08h13.04Z" stroke-width="0"/><path d="M332.47,435.77c-3.13,0-5.25,1.12-5.25,3.37,0,7.63,22.01,3.37,21.95,18.27,0,8.1-7.02,12.48-16.17,12.48-6.79,0-13.57-2.6-18.23-6.56l3.72-7.63c4.25,3.78,10.27,6.21,14.63,6.21,3.84,0,6.14-1.42,6.14-3.96,0-7.8-22.01-3.25-22.01-17.92,0-7.51,6.43-12.24,15.99-12.24,5.78,0,11.57,1.77,15.7,4.49l-3.6,7.75c-4.37-2.6-9.56-4.26-12.86-4.26Z" stroke-width="0"/><path d="M370.05,435.77c-3.13,0-5.25,1.12-5.25,3.37,0,7.63,22.01,3.37,21.95,18.27,0,8.1-7.02,12.48-16.17,12.48-6.79,0-13.57-2.6-18.23-6.56l3.72-7.63c4.25,3.78,10.27,6.21,14.63,6.21,3.84,0,6.14-1.42,6.14-3.96,0-7.8-22.01-3.25-22.01-17.92,0-7.51,6.43-12.24,15.99-12.24,5.78,0,11.57,1.77,15.7,4.49l-3.6,7.75c-4.37-2.6-9.56-4.26-12.86-4.26Z" stroke-width="0"/><path d="M434.72,448.89c0,11.94-9.56,21.11-22.19,21.11s-22.19-9.11-22.19-21.11,9.56-20.99,22.19-20.99,22.19,8.99,22.19,20.99ZM399.9,448.89c0,7.27,5.84,12.95,12.75,12.95s12.51-5.68,12.51-12.95-5.61-12.83-12.51-12.83-12.75,5.56-12.75,12.83Z" stroke-width="0"/><path d="M458.96,436c-7.08,0-12.57,5.5-12.57,12.71s5.49,12.77,12.57,12.77c3.72,0,7.79-1.89,10.74-4.85l5.49,5.97c-4.37,4.49-10.68,7.39-16.7,7.39-12.33,0-21.66-9.16-21.66-21.17s9.5-20.93,22.01-20.93c5.96,0,12.21,2.66,16.29,6.86l-5.43,6.62c-2.83-3.25-6.9-5.38-10.74-5.38Z" stroke-width="0"/><path d="M490.06,428.2v41.39h-9.32v-41.39h9.32Z" stroke-width="0"/></g><g isolation="isolate"><path d="M533.13,461.55h-19.12l-3.25,8.04h-9.62l17.94-41.39h9.62l17.64,41.39h-9.97l-3.25-8.04ZM530.12,454.04l-6.49-16.08-6.55,16.08h13.04Z" stroke-width="0"/></g><g isolation="isolate"><path d="M578.85,428.2v7.92h-12.63v33.47h-9.32v-33.47h-12.57v-7.92h34.52Z" stroke-width="0"/><path d="M593.19,428.2v41.39h-9.32v-41.39h9.32Z" stroke-width="0"/><path d="M643.76,448.89c0,11.94-9.56,21.11-22.19,21.11s-22.19-9.11-22.19-21.11,9.56-20.99,22.19-20.99,22.19,8.99,22.19,20.99ZM608.94,448.89c0,7.27,5.84,12.95,12.75,12.95s12.51-5.68,12.51-12.95-5.61-12.83-12.51-12.83-12.75,5.56-12.75,12.83Z" stroke-width="0"/><path d="M658.38,428.2l20.06,26.61v-26.61h8.85v41.39h-8.5l-20-26.55v26.55h-8.91v-41.39h8.5Z" stroke-width="0"/></g><path d="M637.81,163.93c0,10.52,1,20.8,2.89,30.76l71.44-168.15c-44.75,29.25-74.33,79.85-74.33,137.39Z" stroke-width="0"/><path d="M801.42,0c-30.54,0-59.12,8.4-83.59,23h62.91l106.91,251.64h-74.62l-18.3-44.93h-96.87l-17.69,44.3c29.93,33.08,73.16,53.86,121.23,53.86,90.35,0,163.6-73.4,163.6-163.93S891.75,0,801.4,0h.02Z" stroke-width="0"/><polygon points="631.94 215.33 606.74 274.64 632.17 215.33 631.94 215.33" stroke-width="0"/><path d="M497.27,215.33v-39.9h120.54v-55h-120.54v-38.11h133.1V23h-201.98v177.43L353.01,23h-67.09l-56.46,132.89V23h-69.6v94.19h-89.33V23H.92v251.64h69.6v-95.62h89.33v95.62h92.34l17.94-44.93h96.87l18.3,44.93h221.44l25.2-59.32h-134.68ZM290.58,175.42l28.34-71.54,27.98,71.54h-56.33,0Z" stroke-width="0"/><polygon points="718.32 175.42 774.65 175.42 746.67 103.88 718.32 175.42" stroke-width="0"/></svg>