<?xml version="1.0" encoding="UTF-8"?><svg id="a" xmlns="http://www.w3.org/2000/svg" width="136" height="79" xmlns:xlink="http://www.w3.org/1999/xlink" viewBox="0 0 136 79"><defs><radialGradient id="b" cx="3429.87" cy="3048.49" fx="3429.87" fy="3048.49" r="115.62" gradientTransform="translate(-930.42 -78.34) rotate(-34.7) scale(.21) skewX(.29)" gradientUnits="userSpaceOnUse"><stop offset="0" stop-color="#606060"/><stop offset="1" stop-color="#eee"/></radialGradient><radialGradient id="c" cx="509.72" cy="2263.24" fx="509.72" fy="2263.24" r="115.49" gradientTransform="translate(374.48 -332.47) rotate(55.02) scale(.21) skewX(-.29)" gradientUnits="userSpaceOnUse"><stop offset="0" stop-color="#757575"/><stop offset="1" stop-color="#eee"/></radialGradient></defs><path d="M136,45.06c0,.7-.6,1.29-1.3,1.29s-1.3-.6-1.3-1.29.6-1.29,1.3-1.29,1.3.6,1.3,1.29Z" fill="#1e181a" stroke-width="0"/><path d="M65.29,66.76c0,.7-.5,1.19-1.2,1.19h0c-.7,0-1.2-.6-1.2-1.19v-21.7c0-.7.6-1.19,1.2-1.19h0c.7,0,1.2.5,1.2,1.19v21.7Z" fill="#1e181a" stroke-width="0"/><path d="M14.28,41.08c.8-2.99,2.3-5.67,4.5-7.96-3.4.7-7-.6-9.1-3.58-2.8-3.98-1.8-9.55,2.2-12.34,4-2.79,9.6-1.79,12.4,2.19,2.9,4.18,1.6,9.65-2.2,12.34-7.7,5.28-9.6,15.83-4.2,23.39,5.3,7.66,15.9,9.55,23.5,4.18,7.6-5.37,9.5-15.83,4.2-23.39-2.7-3.88-6.8-6.27-11.2-6.97-.8,2.99-2.3,5.67-4.5,7.96,3.4-.7,7,.6,9.1,3.58,2.8,3.98,1.8,9.55-2.2,12.34s-9.6,1.79-12.4-2.19-1.8-9.55,2.2-12.34c7.7-5.28,9.6-15.83,4.2-23.39S14.88,5.35,7.27,10.72C-.33,16.1-2.33,26.45,2.97,34.01c2.8,3.98,6.9,6.37,11.3,7.07Z" fill="url(#b)" stroke-width="0"/><path d="M40.28,14.21c3,.8,5.7,2.29,8,4.48-.7-3.38.6-6.97,3.6-9.06,4-2.79,9.6-1.79,12.4,2.19,2.8,3.98,1.8,9.55-2.2,12.34-4.2,2.89-9.7,1.59-12.4-2.19-5.3-7.66-15.9-9.55-23.5-4.18s-9.6,15.63-4.2,23.29,15.9,9.46,23.5,4.18c3.9-2.69,6.3-6.77,7-11.15-3-.8-5.7-2.29-8-4.48.7,3.38-.6,6.97-3.6,9.06-4,2.79-9.6,1.79-12.4-2.19-2.8-3.98-1.8-9.55,2.2-12.34s9.6-1.79,12.4,2.29c5.3,7.66,15.9,9.55,23.5,4.18,7.6-5.37,9.6-15.83,4.2-23.39s-15.8-9.55-23.4-4.28c-4,2.79-6.4,6.87-7.1,11.25Z" fill="url(#c)" stroke-width="0"/><path d="M134.8,48.74c-.7,0-1.2.5-1.2,1.19v16.72c0,.7.6,1.19,1.2,1.19.7,0,1.2-.6,1.2-1.19v-16.72c0-.7-.5-1.19-1.2-1.19Z" fill="#1e181a" stroke-width="0"/><path d="M96.49,44.66c-.1-.2-.2-.3-.3-.5l-.1-.1c-.1-.1-.2-.1-.2-.2h-1c-.1,0-.1.1-.2.1s-.1.1-.2.1c-.1.1-.2.3-.3.5l-8.1,21.8c-.2.6.1,1.29.7,1.59s1.3-.1,1.5-.8l2.3-6.17h9.5l2.3,6.17c.2.6.9,1,1.5.7s.9-.9.7-1.59l-8.1-21.6ZM91.49,58.6l3.8-10.25,3.8,10.25h-7.6Z" fill="#1e181a" stroke-width="0"/><path d="M78.59,43.87c-.7,0-1.2.5-1.2,1.19v9.95h-12.5v2.49h12.4v9.26c0,.7.5,1.19,1.2,1.19s1.2-.6,1.2-1.19v-21.7c.1-.7-.4-1.19-1.1-1.19Z" fill="#1e181a" stroke-width="0"/><path d="M125.1,46.65c.7,0,1.3-.6,1.3-1.19,0-.7-.6-1.19-1.3-1.19h-13c-.7,0-1.2.6-1.2,1.29v20.9c0,.7.6,1.29,1.2,1.29h13c.7,0,1.3-.6,1.3-1.19s-.6-1.19-1.3-1.19h-11.8v-7.66h8.4c.7,0,1.3-.6,1.3-1.19s-.6-1.19-1.3-1.19h-8.4v-8.36c0-.3,11.8-.3,11.8-.3Z" fill="#1e181a" stroke-width="0"/><path d="M67.19,74.72v-3.18h.6v7.27h-.6v-3.58h-3.6v3.58h-.6v-7.27h.6v3.18s3.6,0,3.6,0Z" stroke-width="0"/><path d="M71.99,71.44l2.5,7.37h-.7l-.7-2.09h-2.8l-.7,2.09h-.7l2.5-7.37h.6ZM71.79,72.33l-1.2,3.78h2.4l-1.2-3.78Z" stroke-width="0"/><path d="M79.39,74.72v.6h-3v2.89h3.2v.6h-3.9v-7.27h3.8v.6h-3.2v2.69l3.1-.1h0Z" stroke-width="0"/><path d="M83.89,78.8v-7.27h.7v7.27h-.7Z" stroke-width="0"/><path d="M86.69,73.63c.1.3.1.4.1.8.3-.6.9-.9,1.6-.9.8,0,1.3.3,1.5.9.1.2.1.4.1.8v3.68h-.6v-3.18c0-.7,0-.9-.2-1.19-.2-.3-.5-.5-.9-.5-.5,0-1,.2-1.2.7-.2.3-.3.7-.3,1.19v2.99h-.6v-3.68q0-1.09-.1-1.59h.6Z" stroke-width="0"/><path d="M93.79,73.63v.5h-1.3v3.38c0,.4,0,.6.1.7.1.2.3.2.5.2s.5-.1.8-.2v.5c-.3.1-.6.1-.8.1-.8,0-1.1-.3-1.1-1v-1l.1-2.79h-.8v-.5h.8v-1.49h.6v1.49l1.1.1h0Z" stroke-width="0"/><path d="M95.09,76.21c0,1.39.6,2.19,1.6,2.19.6,0,.9-.2,1.3-.8l.6.1c-.3.8-.9,1.29-1.8,1.29-1.3,0-2.2-1-2.2-2.69s.8-2.79,2.2-2.79c1.2,0,2,1,2,2.59v.1h-3.7ZM97.99,75.82c-.1-1.09-.6-1.79-1.4-1.79s-1.4.6-1.5,1.79h2.9Z" stroke-width="0"/><path d="M100.39,73.63c.1.3.1.5.1.8v.3c.4-.9.8-1.29,1.3-1.29.2,0,.5.1.7.2v.6c-.3-.2-.5-.2-.7-.2-.4,0-.8.3-1,.9-.2.4-.2.8-.2,1.59v2.29h-.6v-3.28c0-1.19,0-1.29-.1-1.79l.5-.1h0Z" stroke-width="0"/><path d="M103.99,73.63c.1.3.1.4.1.8.3-.6.9-.9,1.6-.9.8,0,1.3.3,1.5.9.1.2.1.4.1.8v3.68h-.6v-3.18c0-.7,0-.9-.2-1.19-.2-.3-.5-.5-.9-.5-.5,0-1,.2-1.2.7-.2.3-.3.7-.3,1.19v2.99h-.6v-3.68q0-1.09-.1-1.59h.6Z" stroke-width="0"/><path d="M108.79,74.92c.1-.9.8-1.39,1.8-1.39.8,0,1.5.3,1.6.9.1.2.1.4.1.7v2.69c0,.4,0,.7.1,1h-.6c-.1-.3-.1-.4-.1-.7-.3.6-.8.9-1.5.9-1,0-1.6-.6-1.6-1.49,0-1.09.8-1.69,3.2-1.99v-.3c0-.8-.3-1.19-1.2-1.19-.7,0-1.1.3-1.2.9,0,0-.6,0-.6,0ZM111.8,75.82c-1.9.4-2.6.8-2.6,1.59,0,.6.4,1,1.1,1,.5,0,1-.3,1.2-.7.2-.3.2-.7.2-1.29v-.6h.1Z" stroke-width="0"/><path d="M116.1,73.63v.5h-1.3v3.38c0,.4,0,.6.1.7.1.2.3.2.5.2s.5-.1.8-.2v.5c-.3.1-.6.1-.8.1-.8,0-1.1-.3-1.1-1v-1l.1-2.79h-.8v-.5h.8v-1.49h.6v1.49l1.1.1h0Z" stroke-width="0"/><path d="M118.1,71.83c0,.3-.2.5-.5.5s-.5-.2-.5-.5.2-.5.5-.5c.3.1.5.3.5.5ZM117.9,73.63v5.18h-.6v-5.18h.6Z" stroke-width="0"/><path d="M123.6,76.21c0,1.59-.9,2.69-2.2,2.69s-2.2-1.09-2.2-2.69.9-2.69,2.2-2.69,2.2,1,2.2,2.69ZM119.9,76.21c0,1.29.6,2.19,1.6,2.19s1.6-.9,1.6-2.19-.6-2.19-1.6-2.19-1.6.8-1.6,2.19Z" stroke-width="0"/><path d="M125.4,73.63c.1.3.1.4.1.8.3-.6.9-.9,1.6-.9.8,0,1.3.3,1.5.9.1.2.1.4.1.8v3.68h-.6v-3.18c0-.7,0-.9-.1-1.19-.2-.3-.5-.5-.9-.5-.5,0-1,.2-1.2.7-.2.3-.3.7-.3,1.19v2.99h-.6v-3.68q0-1.09-.1-1.59h.5Z" stroke-width="0"/><path d="M130.2,74.92c.1-.9.8-1.39,1.8-1.39.9,0,1.5.3,1.6.9.1.2.1.4.1.7v2.69c0,.4,0,.7.1,1h-.6c-.1-.3-.1-.4-.1-.7-.3.6-.8.9-1.5.9-1,0-1.6-.6-1.6-1.49,0-1.09.8-1.69,3.1-1.99v-.3c0-.8-.3-1.19-1.2-1.19-.7,0-1.1.3-1.2.9.1,0-.5,0-.5,0ZM133.2,75.82c-1.9.4-2.6.8-2.6,1.59,0,.6.4,1,1.1,1,.5,0,1-.3,1.2-.7.1-.3.2-.7.2-1.29l.1-.6h0Z" stroke-width="0"/><path d="M136,71.44v7.27h-.6v-7.27h.6Z" stroke-width="0"/></svg>