<?xml version="1.0" encoding="UTF-8"?><svg id="a" xmlns="http://www.w3.org/2000/svg" width="235" height="63" viewBox="0 0 235 63"><path d="M24.39,28.68l-.98,4.56h4.21v5.37h-5.37l-1.16,5.33h-5.61l1.16-5.33h-5.82l-1.16,5.33h-5.61l1.16-5.33H0v-5.37h6.35l.98-4.56H2.25v-5.37h6.21l1.12-5.16h5.61l-1.12,5.16h5.82l1.12-5.16h5.61l-1.12,5.16h4.35v5.37h-5.47,0ZM18.77,28.68h-5.82l-.98,4.56h5.82s.98-4.56.98-4.56Z" fill="#fff" stroke-width="0"/><path d="M33.14,28.92c.76-1.51,1.79-2.67,3.1-3.48,1.31-.81,2.77-1.22,4.39-1.22,1.29,0,2.46.27,3.53.8,1.06.53,1.9,1.25,2.51,2.16v-9.03h6v25.79h-6v-2.79c-.56.93-1.36,1.67-2.4,2.23s-2.25.84-3.63.84c-1.61,0-3.08-.41-4.39-1.24-1.31-.82-2.35-2-3.1-3.52-.76-1.52-1.14-3.28-1.14-5.28s.38-3.75,1.14-5.26h0ZM45.42,30.7c-.83-.86-1.84-1.29-3.03-1.29s-2.2.42-3.03,1.27-1.25,2.02-1.25,3.5.42,2.67,1.25,3.54,1.84,1.31,3.03,1.31,2.2-.43,3.03-1.29c.83-.86,1.25-2.03,1.25-3.52s-.42-2.66-1.25-3.52Z" fill="#fff" stroke-width="0"/><path d="M75.37,35.64h-13.58c.09,1.21.49,2.13,1.18,2.77s1.54.96,2.54.96c1.5,0,2.54-.63,3.12-1.88h6.39c-.33,1.28-.92,2.43-1.77,3.45s-1.92,1.82-3.21,2.4-2.73.87-4.32.87c-1.92,0-3.63-.41-5.12-1.22-1.5-.81-2.67-1.97-3.51-3.48-.84-1.51-1.26-3.28-1.26-5.3s.41-3.79,1.25-5.3c.83-1.51,1.99-2.67,3.49-3.48s3.22-1.22,5.16-1.22,3.58.39,5.05,1.18,2.63,1.92,3.46,3.38,1.25,3.17,1.25,5.12c0,.56-.04,1.14-.11,1.74h-.01ZM69.33,32.33c0-1.02-.35-1.83-1.05-2.44-.7-.6-1.58-.91-2.63-.91s-1.85.29-2.54.87-1.12,1.41-1.28,2.47h7.51-.01Z" fill="#fff" stroke-width="0"/><path d="M88.45,29.44h-3.23v14.5h-6v-14.5h-2.18v-4.95h2.18v-.56c0-2.39.69-4.21,2.07-5.45,1.38-1.24,3.4-1.86,6.07-1.86.44,0,.77.01.98.04v5.05c-1.15-.07-1.95.09-2.42.49-.47.39-.7,1.1-.7,2.13v.17h3.23v4.95h0Z" fill="#fff" stroke-width="0"/><path d="M97.26,18.15v25.79h-6v-25.79s6,0,6,0Z" fill="#fff" stroke-width="0"/><path d="M101.56,28.92c.76-1.51,1.8-2.67,3.11-3.48s2.77-1.22,4.39-1.22c1.38,0,2.59.28,3.63.84s1.84,1.29,2.4,2.2v-2.75h6v19.44h-6v-2.75c-.59.91-1.4,1.64-2.44,2.2s-2.25.84-3.63.84c-1.59,0-3.04-.41-4.35-1.24-1.31-.82-2.35-2-3.11-3.52s-1.14-3.28-1.14-5.28.38-3.75,1.14-5.26v-.02ZM113.84,30.7c-.83-.86-1.84-1.29-3.03-1.29s-2.2.42-3.03,1.27-1.25,2.02-1.25,3.5.42,2.67,1.25,3.54,1.84,1.31,3.03,1.31,2.2-.43,3.03-1.29,1.25-2.03,1.25-3.52-.42-2.66-1.25-3.52Z" fill="#fff" stroke-width="0"/><path d="M136.35,38.89v5.05h-3.05c-2.18,0-3.87-.53-5.09-1.59s-1.82-2.78-1.82-5.17v-7.74h-2.39v-4.95h2.39v-4.74h6v4.74h3.93v4.95h-3.93v7.81c0,.58.14,1,.42,1.25.28.26.75.38,1.4.38h2.14Z" fill="#fff" stroke-width="0"/><path d="M158.03,35.64h-13.58c.09,1.21.49,2.13,1.18,2.77.69.64,1.54.96,2.54.96,1.5,0,2.54-.63,3.12-1.88h6.39c-.33,1.28-.92,2.43-1.77,3.45s-1.92,1.82-3.21,2.4c-1.29.58-2.73.87-4.32.87-1.92,0-3.63-.41-5.12-1.22-1.5-.81-2.67-1.97-3.51-3.48s-1.26-3.28-1.26-5.3.41-3.79,1.25-5.3c.83-1.51,1.99-2.67,3.49-3.48s3.22-1.22,5.16-1.22,3.58.39,5.05,1.18,2.63,1.92,3.46,3.38,1.25,3.17,1.25,5.12c0,.56-.04,1.14-.11,1.74h0ZM152,32.33c0-1.02-.35-1.83-1.05-2.44-.7-.6-1.58-.91-2.63-.91s-1.85.29-2.54.87-1.12,1.41-1.28,2.47h7.51,0Z" fill="#fff" stroke-width="0"/><path d="M187.89,19.48v24.46h-6v-10.07h-9.33v10.07h-6v-24.46h6v9.58h9.33v-9.58h6Z" fill="#29aae1" stroke-width="0"/><path d="M207.54,39.62h-9.19l-1.47,4.32h-6.28l8.91-24.46h6.95l8.91,24.46h-6.35l-1.47-4.32h0ZM206,35.02l-3.05-8.96-3.02,8.96h6.07Z" fill="#29aae1" stroke-width="0"/><path d="M224.07,24.25v4.95h8.03v4.6h-8.03v5.37h9.09v4.77h-15.09v-24.46h15.09v4.77h-9.09Z" fill="#29aae1" stroke-width="0"/><path id="b" d="M12.28,0c0,3.46,49.86,6.26,111.36,6.26S235,3.46,235,0" fill="#e9b73f" stroke-width="0"/><path id="c" d="M12.28,63c0-3.46,49.86-6.26,111.36-6.26s111.36,2.81,111.36,6.26" fill="#e9b73f" stroke-width="0"/></svg>