<?xml version="1.0" encoding="UTF-8"?><svg id="a" xmlns="http://www.w3.org/2000/svg" width="202.14" height="46.83" viewBox="0 0 202.14 46.83"><path id="b" d="M21.55,20.35l-.87,4.06h3.72v4.77h-4.75l-1.02,4.74h-4.96l1.02-4.74h-5.15l-1.02,4.74H3.56l1.02-4.74H0v-4.77h5.61l.87-4.06H1.98v-4.77h5.49l.99-4.59h4.96l-.99,4.59h5.15l.99-4.59h4.96l-.99,4.59h3.84v4.77h-4.83ZM16.59,20.35h-5.15l-.87,4.06h5.15l.87-4.06ZM28.27,25.25c-.04-1.62.31-3.22,1.01-4.68.61-1.27,1.56-2.34,2.74-3.1,1.16-.72,2.51-1.1,3.88-1.09,1.08-.01,2.15.23,3.12.71.89.44,1.66,1.1,2.22,1.92v-8.03h5.3v22.94h-5.3v-2.48c-.51.84-1.25,1.53-2.12,1.98-.99.51-2.09.77-3.21.74-1.37.02-2.72-.37-3.88-1.1-1.19-.77-2.14-1.85-2.74-3.13-.7-1.47-1.04-3.07-1.01-4.7h0ZM41.23,25.28c.06-1.15-.33-2.27-1.1-3.13-.69-.75-1.66-1.16-2.68-1.15-1.01-.02-1.99.39-2.68,1.12-.77.85-1.17,1.97-1.1,3.12-.06,1.15.33,2.28,1.1,3.15.69.75,1.66,1.18,2.68,1.16,1.02.02,1.99-.4,2.68-1.14.77-.86,1.16-1.98,1.1-3.13h0ZM66.68,25c0,.52-.03,1.04-.09,1.55h-12c.02.92.39,1.81,1.04,2.47.61.57,1.42.87,2.25.85,1.18.09,2.29-.59,2.76-1.67h5.65c-.28,1.13-.82,2.18-1.57,3.07-.77.92-1.74,1.65-2.83,2.14-1.2.53-2.5.79-3.81.77-1.58.03-3.14-.34-4.53-1.08-1.31-.71-2.39-1.79-3.1-3.1-.77-1.45-1.15-3.07-1.12-4.71-.04-1.64.34-3.26,1.1-4.71.7-1.31,1.78-2.39,3.08-3.1,1.4-.74,2.97-1.12,4.56-1.09,1.55-.03,3.09.33,4.46,1.05,1.29.69,2.35,1.73,3.05,3.01.76,1.4,1.14,2.97,1.1,4.56ZM61.26,23.6c.04-.83-.31-1.63-.93-2.17-.65-.55-1.48-.83-2.33-.81-.82-.02-1.62.25-2.25.77-.64.57-1.04,1.35-1.13,2.2h6.64ZM78.15,21.03h-2.85v12.9h-5.3v-12.9h-1.92v-4.4h1.92v-.5c-.13-1.81.54-3.58,1.83-4.85,1.52-1.2,3.43-1.79,5.36-1.65.39,0,.68.01.87.03v4.5c-.74-.12-1.5.03-2.14.43-.47.51-.7,1.2-.62,1.89v.16h2.85v4.39ZM85.93,10.99v22.94h-5.3V10.99h5.3ZM88.72,25.25c-.04-1.62.31-3.22,1.01-4.68.61-1.27,1.56-2.34,2.74-3.1,1.16-.72,2.51-1.1,3.88-1.09,1.11-.02,2.22.23,3.21.74.87.45,1.6,1.12,2.12,1.95v-2.45h5.3v17.3h-5.3v-2.45c-.54.82-1.28,1.5-2.15,1.95-.99.51-2.09.77-3.21.74-1.36.01-2.7-.37-3.84-1.1-1.19-.77-2.14-1.85-2.74-3.13-.7-1.46-1.04-3.07-1.01-4.69ZM101.68,25.28c.06-1.15-.33-2.27-1.1-3.13-.69-.75-1.67-1.16-2.68-1.15-1.01-.02-1.99.39-2.68,1.13-.77.85-1.17,1.97-1.1,3.12-.06,1.15.33,2.28,1.1,3.15.69.75,1.66,1.18,2.68,1.16,1.02.02,1.99-.4,2.68-1.14.77-.86,1.16-1.98,1.1-3.13ZM120.47,29.43v4.5h-2.7c-1.62.1-3.22-.4-4.5-1.41-1.07-.94-1.61-2.47-1.61-4.6v-6.89h-2.11v-4.4h2.11v-4.22h5.3v4.22h3.47v4.4h-3.47v6.94c-.04.41.1.81.37,1.12.36.26.8.38,1.24.34h1.89ZM139.72,24.99c0,.52-.03,1.04-.09,1.55h-12c.02.92.39,1.81,1.04,2.47.61.57,1.42.87,2.25.85,1.18.09,2.29-.59,2.76-1.67h5.64c-.28,1.13-.82,2.18-1.57,3.07-.77.92-1.74,1.65-2.84,2.14-1.2.53-2.5.79-3.81.77-1.58.03-3.13-.34-4.53-1.09-1.31-.71-2.39-1.79-3.1-3.1-.77-1.45-1.15-3.07-1.12-4.71-.04-1.64.34-3.26,1.1-4.71.7-1.31,1.78-2.39,3.08-3.1,1.4-.74,2.97-1.12,4.56-1.08,1.55-.03,3.09.33,4.46,1.05,1.29.69,2.35,1.73,3.05,3.01.76,1.4,1.14,2.97,1.11,4.56h0ZM134.29,23.6c.04-.83-.31-1.63-.93-2.17-.65-.55-1.48-.83-2.32-.81-.82-.02-1.62.25-2.25.77-.64.57-1.04,1.35-1.13,2.2h6.63Z" fill="#fff" stroke-width="0"/><path id="c" d="M162.15,12.16v21.76h-5.3v-8.96h-8.25v8.96h-5.3V12.16h5.3v8.52h8.25v-8.52h5.3ZM179.51,30.08h-8.12l-1.3,3.84h-5.55l7.87-21.76h6.14l7.87,21.76h-5.61l-1.3-3.84ZM178.15,25.99l-2.7-7.97-2.67,7.97h5.37ZM194.11,16.41v4.4h7.1v4.09h-7.1v4.77h8.03v4.25h-13.33V12.16h13.33v4.25h-8.03Z" fill="#29a9e1" stroke-width="0"/><path id="d" d="M17.33,0c0,2.84,40.66,5.14,90.82,5.14S198.97,2.84,198.97,0" fill="#e9b73f" stroke-width="0"/><path id="e" d="M17.33,46.83c0-2.84,40.66-5.14,90.82-5.14s90.82,2.3,90.82,5.14" fill="#e9b73f" stroke-width="0"/></svg>