<?xml version="1.0" encoding="UTF-8"?><svg id="a" xmlns="http://www.w3.org/2000/svg" width="500" height="116.33" viewBox="0 0 500 116.33"><path id="b" d="M0,116.33c0-3.49,111.93-6.33,250-6.33s250,2.83,250,6.33" fill="#29a9e1" stroke-width="0"/><path id="c" d="M379.04,27.36v56.64h-17.76v-22.08h-16.88v22.08h-17.76V27.36h17.76v20.4h16.88v-20.4h17.76ZM423.36,75.44h-18.88l-2.8,8.56h-18.64l20.72-56.64h20.48l20.64,56.64h-18.72l-2.8-8.56ZM419.04,62.08l-5.12-15.76-5.12,15.76h10.24ZM466.64,41.52v6.96h17.6v13.36h-17.6v8h20v14.16h-37.76V27.36h37.76v14.16h-20Z" fill="#29a9e1" stroke-width="0"/><path id="d" d="M12.2,61.44c-.1-4.25.73-8.47,2.44-12.36,1.42-3.25,3.74-6.02,6.68-8,2.83-1.84,6.14-2.8,9.52-2.76,2.63-.07,5.24.55,7.56,1.8,2.05,1.14,3.73,2.85,4.84,4.92v-20.24h17.76v59.2h-17.76v-6.16c-1.11,2.07-2.79,3.78-4.84,4.92-2.32,1.25-4.93,1.87-7.56,1.8-3.38.04-6.69-.92-9.52-2.76-2.94-1.98-5.26-4.75-6.68-8-1.71-3.89-2.54-8.11-2.44-12.36ZM43.32,61.44c.13-2.03-.53-4.04-1.84-5.6-2.52-2.61-6.68-2.67-9.29-.15-.05.05-.1.1-.15.15-1.31,1.56-1.97,3.57-1.84,5.6-.13,2.03.53,4.04,1.84,5.6,2.52,2.61,6.68,2.67,9.29.15.05-.05.1-.1.15-.15,1.31-1.56,1.97-3.57,1.84-5.6h0ZM112.68,61.04c0,1.18-.08,2.35-.24,3.52h-28.56c.27,3.89,1.89,5.84,4.88,5.84,1.8.08,3.46-.98,4.16-2.64h18.8c-.62,3.16-2.01,6.11-4.04,8.6-2.1,2.57-4.75,4.62-7.76,6-3.22,1.49-6.73,2.24-10.28,2.2-4.16.08-8.27-.89-11.96-2.8-3.45-1.82-6.29-4.62-8.16-8.04-2.02-3.77-3.02-8-2.92-12.28-.1-4.28.9-8.51,2.92-12.28,1.87-3.42,4.71-6.22,8.16-8.04,3.69-1.91,7.8-2.88,11.96-2.8,4.15-.08,8.26.87,11.96,2.76,3.43,1.78,6.26,4.52,8.16,7.88,2.02,3.7,3.03,7.87,2.92,12.08ZM94.68,56.8c.09-1.3-.45-2.56-1.44-3.4-1.03-.8-2.3-1.21-3.6-1.16-3.15,0-4.99,1.52-5.52,4.56h10.56ZM144.28,35.68c-.96-.11-1.63-.16-2-.16-1.07-.07-2.13.19-3.04.76-.78.66-1.3,1.59-1.44,2.6h6.48v14.8h-6.64v30.32h-17.76v-30.32h-4.8v-14.8h4.8c.11-5.87,1.96-10.41,5.56-13.64,3.6-3.23,8.65-4.84,15.16-4.84.75,0,1.97.05,3.68.16v15.12ZM166.84,24.8v59.2h-17.76V24.8h17.76ZM172.44,61.44c-.1-4.25.73-8.47,2.44-12.36,1.42-3.25,3.74-6.02,6.68-8,2.83-1.84,6.14-2.8,9.52-2.76,2.65-.07,5.27.55,7.6,1.8,2.07,1.13,3.76,2.84,4.88,4.92v-6.16h17.68v45.12h-17.68v-6.16c-1.12,2.08-2.81,3.79-4.88,4.92-2.33,1.25-4.95,1.87-7.6,1.8-3.38.04-6.69-.92-9.52-2.76-2.94-1.98-5.26-4.75-6.68-8-1.71-3.89-2.54-8.11-2.44-12.36ZM203.56,61.44c.13-2.03-.53-4.04-1.84-5.6-2.52-2.61-6.68-2.67-9.29-.15-.05.05-.1.1-.15.15-1.31,1.56-1.97,3.57-1.84,5.6-.13,2.03.53,4.04,1.84,5.6,2.52,2.61,6.68,2.67,9.29.15.05-.05.1-.1.15-.15,1.31-1.56,1.97-3.57,1.84-5.6ZM257.32,68.88v15.12h-6.72c-12.37,0-18.56-6.16-18.56-18.48v-11.84h-5.6v-14.8h5.6v-10.88h17.76v10.88h7.36v14.8h-7.36v12.16c-.08.85.2,1.68.76,2.32.72.55,1.62.81,2.52.72h4.24ZM307.8,61.04c0,1.18-.08,2.35-.24,3.52h-28.56c.27,3.89,1.89,5.84,4.88,5.84,1.8.08,3.46-.98,4.16-2.64h18.8c-.62,3.16-2.01,6.11-4.04,8.6-2.1,2.57-4.75,4.62-7.76,6-3.22,1.49-6.73,2.24-10.28,2.2-4.16.08-8.27-.89-11.96-2.8-3.45-1.82-6.29-4.62-8.16-8.04-2.02-3.77-3.02-8-2.92-12.28-.1-4.28.9-8.51,2.92-12.28,1.87-3.42,4.71-6.22,8.16-8.04,3.69-1.91,7.8-2.88,11.96-2.8,4.15-.08,8.26.87,11.96,2.76,3.43,1.78,6.26,4.52,8.16,7.88,2.02,3.7,3.03,7.87,2.92,12.08h0ZM289.8,56.8c.09-1.3-.45-2.56-1.44-3.4-1.03-.8-2.3-1.21-3.6-1.16-3.15,0-4.99,1.52-5.52,4.56h10.56Z" fill="#424143" stroke-width="0"/><path id="e" d="M0,0c0,3.49,111.93,6.33,250,6.33S500,3.49,500,0" fill="#29a9e1" stroke-width="0"/></svg>