<?xml version="1.0" encoding="UTF-8"?><svg id="a" xmlns="http://www.w3.org/2000/svg" width="477" height="150" viewBox="0 0 477 150"><path d="M3.61,68.29c1.68-3.47,3.99-6.14,6.92-8.01,2.93-1.87,6.19-2.8,9.76-2.8,2.88,0,5.45.6,7.72,1.8,2.27,1.2,4.04,2.84,5.32,4.92v-20.5h15.77v59.25h-15.77v-6.25c-1.23,2.08-2.96,3.74-5.2,4.96-2.24,1.23-4.88,1.84-7.92,1.84-3.57,0-6.82-.93-9.72-2.8-2.91-1.87-5.2-4.55-6.88-8.05-1.68-3.5-2.52-7.57-2.52-12.21s.84-8.7,2.52-12.17ZM31.06,73.65c-1.57-1.65-3.51-2.48-5.8-2.48s-4.3.81-5.84,2.44c-1.55,1.63-2.32,3.91-2.32,6.85s.77,5.16,2.32,6.85c1.55,1.68,3.49,2.52,5.84,2.52s4.23-.83,5.8-2.48c1.57-1.65,2.36-3.95,2.36-6.89s-.79-5.15-2.36-6.81Z" fill="#414143" stroke-width="0"/><path d="M100.72,83.66h-29.69c.16,2.46.84,4.28,2.04,5.49s2.73,1.8,4.6,1.8c2.61,0,4.48-1.17,5.6-3.52h16.73c-.69,3.1-2.04,5.86-4.04,8.29-2,2.43-4.52,4.34-7.56,5.73s-6.4,2.08-10.08,2.08c-4.43,0-8.36-.93-11.8-2.8-3.44-1.87-6.14-4.54-8.08-8.01-1.95-3.47-2.92-7.55-2.92-12.25s.96-8.77,2.88-12.21c1.92-3.44,4.6-6.1,8.04-7.97,3.44-1.87,7.4-2.8,11.88-2.8s8.35.91,11.76,2.72c3.41,1.82,6.08,4.42,8,7.81,1.92,3.39,2.88,7.38,2.88,11.97,0,1.23-.08,2.46-.24,3.68ZM84.96,76.06c0-1.92-.64-3.43-1.92-4.52-1.28-1.09-2.88-1.64-4.8-1.64s-3.49.52-4.72,1.56c-1.23,1.04-2.03,2.58-2.4,4.6h13.84Z" fill="#414143" stroke-width="0"/><path d="M131.61,71.09h-7.04v31.87h-15.77v-31.87h-4.88v-13.05h4.88v-.4c0-5.76,1.69-10.18,5.08-13.25,3.39-3.07,8.26-4.6,14.61-4.6,1.28,0,2.27.03,2.96.08v13.37c-.43-.05-1.01-.08-1.76-.08-1.71,0-2.96.39-3.76,1.16-.8.77-1.25,2.02-1.36,3.72h7.04v13.05Z" fill="#414143" stroke-width="0"/><path d="M152.9,43.71v59.25h-15.69v-59.25h15.69Z" fill="#414143" stroke-width="0"/><path d="M161.82,68.29c1.68-3.47,3.97-6.14,6.88-8.01,2.91-1.87,6.15-2.8,9.72-2.8,3.09,0,5.76.61,8,1.84,2.24,1.23,3.97,2.88,5.2,4.96v-6.25h15.69v44.92h-15.69v-6.25c-1.23,2.08-2.98,3.74-5.24,4.96-2.27,1.23-4.92,1.84-7.96,1.84-3.57,0-6.82-.93-9.72-2.8-2.91-1.87-5.2-4.55-6.88-8.05-1.68-3.5-2.52-7.57-2.52-12.21s.84-8.7,2.52-12.17ZM189.27,73.65c-1.57-1.65-3.51-2.48-5.8-2.48s-4.3.81-5.84,2.44c-1.55,1.63-2.32,3.91-2.32,6.85s.77,5.16,2.32,6.85c1.55,1.68,3.49,2.52,5.84,2.52s4.23-.83,5.8-2.48c1.57-1.65,2.36-3.95,2.36-6.89s-.79-5.15-2.36-6.81Z" fill="#414143" stroke-width="0"/><path d="M242.77,89.59v13.37h-6.8c-11.47,0-17.21-5.68-17.21-17.06v-14.81h-5.52v-13.05h5.52v-10.89h15.77v10.89h8.16v13.05h-8.16v15.05c0,1.23.28,2.11.84,2.64.56.53,1.51.8,2.84.8h4.56Z" fill="#414143" stroke-width="0"/><path d="M292.63,83.66h-29.69c.16,2.46.84,4.28,2.04,5.49s2.73,1.8,4.6,1.8c2.61,0,4.48-1.17,5.6-3.52h16.73c-.69,3.1-2.04,5.86-4.04,8.29-2,2.43-4.52,4.34-7.56,5.73s-6.4,2.08-10.08,2.08c-4.43,0-8.36-.93-11.8-2.8-3.44-1.87-6.14-4.54-8.08-8.01-1.95-3.47-2.92-7.55-2.92-12.25s.96-8.77,2.88-12.21c1.92-3.44,4.6-6.1,8.04-7.97,3.44-1.87,7.4-2.8,11.88-2.8s8.35.91,11.76,2.72c3.41,1.82,6.08,4.42,8,7.81,1.92,3.39,2.88,7.38,2.88,11.97,0,1.23-.08,2.46-.24,3.68ZM276.86,76.06c0-1.92-.64-3.43-1.92-4.52-1.28-1.09-2.88-1.64-4.8-1.64s-3.49.52-4.72,1.56c-1.23,1.04-2.03,2.58-2.4,4.6h13.84Z" fill="#414143" stroke-width="0"/><path d="M365.05,46.51v56.45h-15.69v-22.66h-19.13v22.66h-15.69v-56.45h15.69v21.22h19.13v-21.22h15.69Z" fill="#29aae1" stroke-width="0"/><path d="M409.71,93.75h-20.01l-3.04,9.21h-16.49l20.57-56.45h18.09l20.49,56.45h-16.57l-3.04-9.21ZM405.78,81.74l-6.08-18.26-6,18.26h12.08Z" fill="#29aae1" stroke-width="0"/><path d="M450.12,59.08v9.21h18.01v11.93h-18.01v10.17h20.41v12.57h-36.09v-56.45h36.09v12.57h-20.41Z" fill="#29aae1" stroke-width="0"/><path id="b" d="M.38,0C.38,4.87,107.08,8.82,238.69,8.82S477,4.87,477,0" fill="#29aae1" stroke-width="0"/><path id="c" d="M0,150c0-4.87,106.7-8.82,238.31-8.82s238.31,3.95,238.31,8.82" fill="#29aae1" stroke-width="0"/></svg>