<?xml version="1.0" encoding="UTF-8"?><svg id="a" xmlns="http://www.w3.org/2000/svg" width="92.01" height="32.05" viewBox="0 0 92.01 32.05"><path id="b" d="M16.17,32.05v-14.92H7.26c-.12-1.65.18-3.31.85-4.82,1.32-2.95,3.91-5.03,7.77-6.24V.16C10.7,1.18,6.76,3.34,4.06,6.63,1.35,9.92,0,14.4,0,20.08v11.97h16.17ZM36.97.16c-5.03,1.02-8.94,3.16-11.72,6.41-2.78,3.25-4.17,7.76-4.17,13.51v11.97h16.17v-14.92h-8.91c-.13-1.62.18-3.25.91-4.71,1.32-3.07,3.9-5.18,7.72-6.35V.16Z" fill="#a5221a" stroke-width="0"/><path id="c" d="M75.84,0v14.92h8.91c.12,1.65-.18,3.31-.85,4.82-1.32,2.95-3.91,5.03-7.77,6.24v5.9c5.18-1.02,9.13-3.18,11.83-6.47s4.06-7.77,4.06-13.45V0h-16.17ZM55.04,31.89c5.03-1.02,8.94-3.16,11.72-6.41s4.17-7.76,4.17-13.51V0h-16.17v14.92h8.91c.13,1.62-.18,3.25-.9,4.71-1.32,3.07-3.9,5.18-7.72,6.35v5.9Z" fill="#a5221a" stroke-width="0"/></svg>