<?xml version="1.0" encoding="UTF-8"?><svg id="a" xmlns="http://www.w3.org/2000/svg" width="912" height="94" viewBox="0 0 912 94"><path d="M158.29,54.88h10.08v5.96h-17.78v-31.72h7.7v25.76Z" fill="#fff" stroke-width="0"/><path d="M179.76,29.13v31.72h-7.7v-31.72h7.7Z" fill="#fff" stroke-width="0"/><path d="M205.91,29.13v6.19h-12.87v6.69h9.63v6.01h-9.63v12.83h-7.7v-31.72h20.57Z" fill="#fff" stroke-width="0"/><path d="M217.66,35.32v6.42h10.31v5.97h-10.31v6.96h11.66v6.19h-19.35v-31.72h19.35v6.19h-11.66Z" fill="#fff" stroke-width="0"/><path d="M251.55,29.13v31.72h-7.7v-31.72h7.7Z" fill="#fff" stroke-width="0"/><path d="M262.35,60.04c-1.83-.75-3.29-1.87-4.39-3.34s-1.67-3.25-1.73-5.33h8.19c.12,1.17.52,2.07,1.22,2.69.69.62,1.59.93,2.7.93s2.04-.26,2.7-.79c.66-.53.99-1.26.99-2.19,0-.78-.26-1.43-.79-1.94-.53-.51-1.17-.93-1.93-1.26-.77-.33-1.85-.71-3.26-1.13-2.04-.63-3.71-1.27-5-1.9-1.29-.63-2.4-1.57-3.33-2.8-.93-1.23-1.39-2.85-1.39-4.83,0-2.95,1.06-5.26,3.19-6.94,2.13-1.67,4.91-2.51,8.33-2.51s6.29.84,8.42,2.51c2.13,1.67,3.27,4,3.42,6.98h-8.33c-.06-1.02-.43-1.83-1.13-2.42s-1.58-.88-2.65-.88c-.93,0-1.68.25-2.25.75-.57.5-.86,1.21-.86,2.15,0,1.02.48,1.82,1.44,2.39.96.57,2.46,1.19,4.5,1.85,2.04.69,3.7,1.36,4.97,1.99s2.38,1.55,3.31,2.76c.93,1.21,1.4,2.76,1.4,4.65s-.46,3.45-1.37,4.93c-.92,1.48-2.24,2.65-3.98,3.52-1.74.87-3.8,1.31-6.17,1.31s-4.38-.38-6.21-1.13Z" fill="#fff" stroke-width="0"/><path d="M314.92,29.13v6.19h-12.87v6.69h9.63v6.01h-9.63v12.83h-7.7v-31.72h20.57Z" fill="#fff" stroke-width="0"/><path d="M326.66,29.13v31.72h-7.7v-31.72h7.7Z" fill="#fff" stroke-width="0"/><path d="M339.94,54.88h10.08v5.96h-17.78v-31.72h7.7v25.76Z" fill="#fff" stroke-width="0"/><path d="M361.41,54.88h10.08v5.96h-17.78v-31.72h7.7v25.76Z" fill="#fff" stroke-width="0"/><path d="M382.88,35.32v6.42h10.31v5.97h-10.31v6.96h11.66v6.19h-19.35v-31.72h19.35v6.19h-11.66Z" fill="#fff" stroke-width="0"/><path d="M420.1,31.12c2.49,1.33,4.42,3.19,5.78,5.58,1.36,2.39,2.05,5.16,2.05,8.29s-.68,5.86-2.05,8.27c-1.37,2.41-3.3,4.28-5.81,5.6-2.51,1.33-5.41,1.99-8.71,1.99h-11.84v-31.72h11.84c3.33,0,6.24.66,8.73,1.99ZM417.67,51.77c1.62-1.6,2.43-3.86,2.43-6.78s-.81-5.2-2.43-6.82-3.89-2.44-6.8-2.44h-3.65v18.44h3.65c2.91,0,5.18-.8,6.8-2.39Z" fill="#fff" stroke-width="0"/><path d="M485.27,29.13l-8.24,31.72h-9.32l-5.04-20.88-5.22,20.88h-9.32l-8.01-31.72h8.24l4.55,23.09,5.63-23.09h8.46l5.4,23.09,4.59-23.09h8.28Z" fill="#fff" stroke-width="0"/><path d="M496.83,29.13v31.72h-7.7v-31.72h7.7Z" fill="#fff" stroke-width="0"/><path d="M525.14,29.13v6.19h-8.37v25.53h-7.7v-25.53h-8.37v-6.19h24.44Z" fill="#fff" stroke-width="0"/><path d="M556.38,29.13v31.72h-7.7v-13.06h-11.97v13.06h-7.7v-31.72h7.7v12.43h11.97v-12.43h7.7Z" fill="#fff" stroke-width="0"/><path d="M594.99,47.32c1.11,1.43,1.67,3.07,1.67,4.9,0,2.65-.92,4.75-2.77,6.3s-4.42,2.33-7.72,2.33h-14.72v-31.72h14.22c3.21,0,5.72.74,7.54,2.21,1.81,1.48,2.72,3.48,2.72,6.01,0,1.87-.49,3.42-1.46,4.65-.98,1.24-2.27,2.09-3.89,2.57,1.83.39,3.3,1.3,4.41,2.73ZM579.15,41.96h5.04c1.26,0,2.23-.28,2.9-.84.67-.56,1.01-1.38,1.01-2.46s-.34-1.91-1.01-2.49c-.67-.57-1.64-.86-2.9-.86h-5.04v6.64ZM587.81,53.73c.7-.59,1.06-1.44,1.06-2.55s-.37-1.99-1.1-2.62c-.74-.63-1.75-.95-3.04-.95h-5.58v7h5.67c1.29,0,2.29-.29,2.99-.88Z" fill="#fff" stroke-width="0"/><path d="M608.68,29.13v18.98c0,1.9.46,3.36,1.4,4.38.93,1.02,2.3,1.54,4.1,1.54s3.18-.51,4.14-1.54c.96-1.02,1.44-2.48,1.44-4.38v-18.98h7.7v18.93c0,2.83-.6,5.23-1.8,7.18-1.2,1.96-2.81,3.43-4.84,4.43s-4.28,1.49-6.77,1.49-4.72-.49-6.68-1.47c-1.97-.98-3.52-2.45-4.66-4.43-1.14-1.97-1.71-4.38-1.71-7.21v-18.93h7.7Z" fill="#fff" stroke-width="0"/><path d="M648.96,60.85l-6.57-11.97h-1.85v11.97h-7.7v-31.72h12.92c2.49,0,4.61.44,6.37,1.31,1.76.87,3.07,2.07,3.94,3.59s1.31,3.22,1.31,5.08c0,2.11-.59,3.99-1.78,5.65-1.19,1.66-2.93,2.83-5.24,3.52l7.29,12.56h-8.69ZM640.54,43.41h4.77c1.41,0,2.47-.35,3.17-1.04.7-.69,1.06-1.67,1.06-2.94s-.35-2.15-1.06-2.85c-.71-.69-1.76-1.04-3.17-1.04h-4.77v7.86Z" fill="#fff" stroke-width="0"/><path d="M682.76,31.12c2.49,1.33,4.42,3.19,5.78,5.58,1.36,2.39,2.05,5.16,2.05,8.29s-.68,5.86-2.05,8.27c-1.37,2.41-3.3,4.28-5.81,5.6-2.51,1.33-5.41,1.99-8.71,1.99h-11.84v-31.72h11.84c3.33,0,6.24.66,8.73,1.99ZM680.33,51.77c1.62-1.6,2.43-3.86,2.43-6.78s-.81-5.2-2.43-6.82-3.89-2.44-6.8-2.44h-3.65v18.44h3.65c2.91,0,5.18-.8,6.8-2.39Z" fill="#fff" stroke-width="0"/><path d="M702.61,35.32v6.42h10.31v5.97h-10.31v6.96h11.66v6.19h-19.35v-31.72h19.35v6.19h-11.66Z" fill="#fff" stroke-width="0"/><path d="M747.52,60.85h-7.7l-12.87-19.57v19.57h-7.7v-31.72h7.7l12.87,19.66v-19.66h7.7v31.72Z" fill="#fff" stroke-width="0"/><text transform="translate(750.31 45.79)" fill="#fff" font-family="Poppins-Bold, Poppins" font-size="26.36" font-weight="700" isolation="isolate"><tspan x="0" y="0">1</tspan></text><path id="b" d="M0,0c0,4.61,204.16,8.34,456,8.34S912,4.61,912,0" fill="#29aae1" stroke-width="0"/><path id="c" d="M0,94c0-4.61,204.16-8.34,456-8.34s456,3.73,456,8.34" fill="#29aae1" stroke-width="0"/></svg>