<?xml version="1.0" encoding="UTF-8"?><svg id="a" xmlns="http://www.w3.org/2000/svg" width="623" height="106" viewBox="0 0 623 106"><path d="M48.48,61.73h8.95v5.29h-15.79v-28.13h6.84v22.84Z" fill="#fff" stroke-width="0"/><path d="M67.54,38.9v28.13h-6.84v-28.13h6.84Z" fill="#fff" stroke-width="0"/><path d="M90.77,38.9v5.49h-11.43v5.93h8.55v5.33h-8.55v11.38h-6.84v-28.13h18.27Z" fill="#fff" stroke-width="0"/><path d="M101.2,44.38v5.69h9.15v5.29h-9.15v6.17h10.35v5.49h-17.19v-28.13h17.19v5.49h-10.35Z" fill="#fff" stroke-width="0"/><path d="M131.3,38.9v28.13h-6.84v-28.13h6.84Z" fill="#fff" stroke-width="0"/><path d="M140.89,66.3c-1.63-.67-2.92-1.66-3.9-2.96s-1.49-2.88-1.54-4.73h7.28c.11,1.04.47,1.84,1.08,2.38.61.55,1.41.82,2.4.82s1.81-.23,2.4-.7c.59-.47.88-1.11.88-1.94,0-.69-.23-1.27-.7-1.72s-1.04-.83-1.72-1.12c-.68-.29-1.65-.63-2.9-1-1.81-.56-3.29-1.12-4.44-1.68-1.15-.56-2.13-1.39-2.96-2.48-.83-1.1-1.24-2.52-1.24-4.29,0-2.62.95-4.67,2.84-6.15,1.89-1.48,4.36-2.22,7.4-2.22s5.58.74,7.48,2.22c1.89,1.48,2.9,3.55,3.04,6.19h-7.39c-.05-.91-.39-1.62-1-2.14-.61-.52-1.4-.78-2.36-.78-.83,0-1.49.22-2,.66-.51.44-.76,1.07-.76,1.9,0,.91.43,1.62,1.28,2.12.85.51,2.18,1.06,4,1.64,1.81.61,3.28,1.2,4.42,1.76,1.13.56,2.11,1.38,2.94,2.44.83,1.07,1.24,2.44,1.24,4.13s-.41,3.06-1.22,4.37c-.81,1.31-1.99,2.35-3.54,3.13-1.55.77-3.37,1.16-5.48,1.16s-3.89-.33-5.52-1Z" fill="#fff" stroke-width="0"/><path d="M187.58,38.9v5.49h-11.43v5.93h8.55v5.33h-8.55v11.38h-6.84v-28.13h18.27Z" fill="#fff" stroke-width="0"/><path d="M198.01,38.9v28.13h-6.84v-28.13h6.84Z" fill="#fff" stroke-width="0"/><path d="M209.8,61.73h8.95v5.29h-15.79v-28.13h6.84v22.84Z" fill="#fff" stroke-width="0"/><path d="M228.87,61.73h8.95v5.29h-15.79v-28.13h6.84v22.84Z" fill="#fff" stroke-width="0"/><path d="M247.94,44.38v5.69h9.15v5.29h-9.15v6.17h10.35v5.49h-17.19v-28.13h17.19v5.49h-10.35Z" fill="#fff" stroke-width="0"/><path d="M280.99,40.66c2.21,1.18,3.92,2.82,5.14,4.95,1.21,2.12,1.82,4.57,1.82,7.35s-.61,5.19-1.82,7.33c-1.21,2.14-2.93,3.79-5.16,4.97-2.23,1.18-4.8,1.76-7.73,1.76h-10.51v-28.13h10.51c2.96,0,5.54.59,7.75,1.76ZM278.84,58.97c1.44-1.42,2.16-3.42,2.16-6.01s-.72-4.61-2.16-6.05-3.45-2.16-6.04-2.16h-3.24v16.35h3.24c2.59,0,4.6-.71,6.04-2.12Z" fill="#fff" stroke-width="0"/><path d="M338.87,38.9l-7.32,28.13h-8.27l-4.48-18.51-4.64,18.51h-8.27l-7.12-28.13h7.32l4.04,20.47,5-20.47h7.51l4.8,20.47,4.08-20.47h7.36Z" fill="#fff" stroke-width="0"/><path d="M349.15,38.9v28.13h-6.84v-28.13h6.84Z" fill="#fff" stroke-width="0"/><path d="M374.29,38.9v5.49h-7.43v22.64h-6.84v-22.64h-7.44v-5.49h21.7Z" fill="#fff" stroke-width="0"/><path d="M402.03,38.9v28.13h-6.84v-11.58h-10.63v11.58h-6.84v-28.13h6.84v11.02h10.63v-11.02h6.84Z" fill="#fff" stroke-width="0"/><path d="M436.33,55.02c.99,1.27,1.48,2.72,1.48,4.35,0,2.35-.82,4.21-2.46,5.59-1.64,1.38-3.92,2.06-6.86,2.06h-13.07v-28.13h12.63c2.85,0,5.08.66,6.7,1.96,1.61,1.31,2.42,3.09,2.42,5.33,0,1.66-.43,3.03-1.3,4.13-.87,1.1-2.02,1.86-3.46,2.28,1.62.35,2.93,1.16,3.92,2.42ZM422.26,50.27h4.48c1.12,0,1.98-.25,2.58-.74.6-.49.9-1.22.9-2.18s-.3-1.7-.9-2.2c-.6-.51-1.46-.76-2.58-.76h-4.48v5.89ZM429.95,60.71c.63-.52.94-1.28.94-2.26s-.33-1.76-.98-2.32c-.65-.56-1.55-.84-2.7-.84h-4.96v6.21h5.04c1.14,0,2.03-.26,2.66-.78Z" fill="#fff" stroke-width="0"/><path d="M448.48,38.9v16.83c0,1.68.41,2.98,1.24,3.89.83.91,2.04,1.36,3.64,1.36s2.82-.45,3.68-1.36c.85-.91,1.28-2.2,1.28-3.89v-16.83h6.84v16.79c0,2.51-.53,4.63-1.6,6.37-1.07,1.74-2.5,3.04-4.3,3.93-1.8.88-3.81,1.32-6.02,1.32s-4.19-.43-5.94-1.3c-1.74-.87-3.12-2.18-4.14-3.93-1.01-1.75-1.52-3.88-1.52-6.39v-16.79h6.84Z" fill="#fff" stroke-width="0"/><path d="M484.25,67.02l-5.84-10.62h-1.64v10.62h-6.84v-28.13h11.47c2.21,0,4.1.39,5.66,1.16,1.56.77,2.72,1.84,3.5,3.18.77,1.35,1.16,2.85,1.16,4.51,0,1.87-.53,3.54-1.58,5.01-1.05,1.47-2.61,2.51-4.66,3.13l6.48,11.14h-7.71ZM476.78,51.56h4.24c1.25,0,2.19-.31,2.82-.92.63-.61.94-1.48.94-2.6s-.31-1.91-.94-2.52c-.63-.61-1.57-.92-2.82-.92h-4.24v6.97Z" fill="#fff" stroke-width="0"/><path d="M514.27,40.66c2.21,1.18,3.92,2.82,5.14,4.95,1.21,2.12,1.82,4.57,1.82,7.35s-.61,5.19-1.82,7.33c-1.21,2.14-2.93,3.79-5.16,4.97-2.23,1.18-4.8,1.76-7.73,1.76h-10.51v-28.13h10.51c2.96,0,5.54.59,7.75,1.76ZM512.11,58.97c1.44-1.42,2.16-3.42,2.16-6.01s-.72-4.61-2.16-6.05-3.45-2.16-6.04-2.16h-3.24v16.35h3.24c2.59,0,4.6-.71,6.04-2.12Z" fill="#fff" stroke-width="0"/><path d="M531.9,44.38v5.69h9.15v5.29h-9.15v6.17h10.35v5.49h-17.19v-28.13h17.19v5.49h-10.35Z" fill="#fff" stroke-width="0"/><path d="M571.79,67.02h-6.84l-11.43-17.35v17.35h-6.84v-28.13h6.84l11.43,17.43v-17.43h6.84v28.13Z" fill="#fff" stroke-width="0"/><path d="M574.9,40.32v-3.72h6.46v17.06h-4.15v-13.34h-2.31Z" fill="#fff" stroke-width="0"/><path id="b" d="M0,0c0,4.59,139.46,8.32,311.5,8.32S623,4.59,623,0" fill="#29aae1" stroke-width="0"/><path id="c" d="M0,106c0-4.6,139.46-8.32,311.5-8.32s311.5,3.73,311.5,8.32" fill="#29aae1" stroke-width="0"/></svg>