<?xml version="1.0" encoding="UTF-8"?><svg id="a" xmlns="http://www.w3.org/2000/svg" width="501" height="109" viewBox="0 0 501 109"><path id="b" d="M3,0c0,3.49,111.48,6.33,249,6.33S501,3.49,501,0" fill="#29aae1" stroke-width="0"/><path id="c" d="M0,109c0-3.49,111.48-6.33,249-6.33s249,2.83,249,6.33" fill="#29aae1" stroke-width="0"/><path d="M20.54,64.38h7.84v4.62h-13.83v-24.57h5.98v19.95Z" fill="#fff" stroke-width="0"/><path d="M37.24,44.43v24.57h-5.98v-24.57h5.98Z" fill="#fff" stroke-width="0"/><path d="M57.57,44.43v4.8h-10.01v5.18h7.49v4.65h-7.49v9.94h-5.98v-24.57h16Z" fill="#fff" stroke-width="0"/><path d="M66.71,49.22v4.97h8.01v4.62h-8.01v5.39h9.06v4.8h-15.05v-24.57h15.05v4.8h-9.06Z" fill="#fff" stroke-width="0"/><path d="M93.06,44.43v24.57h-5.99v-24.57h5.99Z" fill="#fff" stroke-width="0"/><path d="M101.46,68.37c-1.42-.58-2.56-1.45-3.41-2.59s-1.3-2.52-1.35-4.13h6.37c.09.91.41,1.6.95,2.08.54.48,1.24.72,2.1.72s1.59-.2,2.1-.61c.51-.41.77-.97.77-1.7,0-.61-.2-1.11-.61-1.5-.41-.4-.91-.72-1.5-.98s-1.44-.55-2.54-.88c-1.59-.49-2.88-.98-3.88-1.47-1-.49-1.87-1.21-2.59-2.17-.72-.96-1.08-2.21-1.08-3.75,0-2.29.83-4.08,2.49-5.37,1.66-1.29,3.81-1.94,6.47-1.94s4.89.65,6.54,1.94c1.66,1.29,2.54,3.1,2.66,5.41h-6.47c-.05-.79-.34-1.42-.88-1.87-.54-.46-1.23-.68-2.07-.68-.72,0-1.31.19-1.75.58-.44.39-.67.94-.67,1.66,0,.79.37,1.41,1.12,1.85.75.44,1.91.92,3.5,1.44,1.59.54,2.88,1.05,3.87,1.54.99.49,1.85,1.2,2.57,2.13.72.93,1.08,2.13,1.08,3.6s-.36,2.67-1.07,3.82c-.71,1.14-1.74,2.05-3.1,2.73-1.35.68-2.95,1.01-4.8,1.01s-3.41-.29-4.83-.88Z" fill="#fff" stroke-width="0"/><path d="M142.34,44.43v4.8h-10.01v5.18h7.49v4.65h-7.49v9.94h-5.99v-24.57h16Z" fill="#fff" stroke-width="0"/><path d="M151.48,44.43v24.57h-5.99v-24.57h5.99Z" fill="#fff" stroke-width="0"/><path d="M161.8,64.38h7.84v4.62h-13.83v-24.57h5.99v19.95Z" fill="#fff" stroke-width="0"/><path d="M178.5,64.38h7.84v4.62h-13.83v-24.57h5.99v19.95Z" fill="#fff" stroke-width="0"/><path d="M195.19,49.22v4.97h8.01v4.62h-8.01v5.39h9.06v4.8h-15.05v-24.57h15.05v4.8h-9.06Z" fill="#fff" stroke-width="0"/><path d="M224.14,45.97c1.94,1.03,3.44,2.47,4.5,4.32,1.06,1.85,1.59,4,1.59,6.42s-.53,4.54-1.59,6.41c-1.06,1.87-2.57,3.31-4.51,4.34-1.95,1.03-4.21,1.54-6.77,1.54h-9.21v-24.57h9.21c2.59,0,4.85.51,6.79,1.54ZM222.25,61.96c1.26-1.24,1.89-2.99,1.89-5.25s-.63-4.02-1.89-5.29c-1.26-1.26-3.02-1.89-5.29-1.89h-2.83v14.28h2.83c2.26,0,4.02-.62,5.29-1.86Z" fill="#fff" stroke-width="0"/><path d="M274.81,44.43l-6.41,24.57h-7.25l-3.92-16.17-4.06,16.17h-7.24l-6.23-24.57h6.41l3.54,17.89,4.37-17.89h6.58l4.2,17.89,3.57-17.89h6.44Z" fill="#fff" stroke-width="0"/><path d="M283.81,44.43v24.57h-5.99v-24.57h5.99Z" fill="#fff" stroke-width="0"/><path d="M305.82,44.43v4.8h-6.51v19.78h-5.99v-19.78h-6.51v-4.8h19Z" fill="#fff" stroke-width="0"/><path d="M330.11,44.43v24.57h-5.99v-10.12h-9.31v10.12h-5.99v-24.57h5.99v9.63h9.31v-9.63h5.99Z" fill="#fff" stroke-width="0"/><path d="M360.14,58.52c.86,1.11,1.29,2.37,1.29,3.8,0,2.05-.72,3.68-2.15,4.88-1.43,1.2-3.44,1.8-6,1.8h-11.45v-24.57h11.06c2.5,0,4.45.57,5.86,1.71,1.41,1.14,2.12,2.7,2.12,4.66,0,1.45-.38,2.65-1.14,3.61s-1.77,1.62-3.03,2c1.42.3,2.57,1.01,3.43,2.12ZM347.82,54.37h3.92c.98,0,1.73-.22,2.26-.65.53-.43.79-1.07.79-1.91s-.26-1.48-.79-1.93c-.52-.44-1.28-.67-2.26-.67h-3.92v5.15ZM354.56,63.49c.55-.46.82-1.11.82-1.98s-.29-1.54-.86-2.03c-.57-.49-1.36-.74-2.36-.74h-4.34v5.42h4.41c1,0,1.78-.23,2.33-.68Z" fill="#fff" stroke-width="0"/><path d="M370.78,44.43v14.7c0,1.47.36,2.6,1.08,3.4s1.79,1.19,3.19,1.19,2.47-.4,3.22-1.19c.75-.79,1.12-1.93,1.12-3.4v-14.7h5.98v14.67c0,2.19-.47,4.05-1.4,5.57-.93,1.52-2.19,2.66-3.76,3.43-1.58.77-3.33,1.16-5.27,1.16s-3.67-.38-5.2-1.14c-1.53-.76-2.74-1.9-3.62-3.43s-1.33-3.39-1.33-5.58v-14.67h5.98Z" fill="#fff" stroke-width="0"/><path d="M402.11,69l-5.11-9.28h-1.43v9.28h-5.99v-24.57h10.04c1.94,0,3.59.34,4.95,1.02,1.36.68,2.38,1.6,3.06,2.78.68,1.18,1.01,2.49,1.01,3.94,0,1.63-.46,3.09-1.38,4.38s-2.28,2.19-4.08,2.73l5.67,9.73h-6.75ZM395.56,55.49h3.71c1.1,0,1.92-.27,2.47-.81.55-.54.82-1.29.82-2.27s-.27-1.67-.82-2.21c-.55-.54-1.37-.8-2.47-.8h-3.71v6.09Z" fill="#fff" stroke-width="0"/><path d="M428.39,45.97c1.94,1.03,3.44,2.47,4.5,4.32,1.06,1.85,1.59,4,1.59,6.42s-.53,4.54-1.59,6.41c-1.06,1.87-2.57,3.31-4.51,4.34-1.95,1.03-4.21,1.54-6.77,1.54h-9.21v-24.57h9.21c2.59,0,4.85.51,6.79,1.54ZM426.5,61.96c1.26-1.24,1.89-2.99,1.89-5.25s-.63-4.02-1.89-5.29c-1.26-1.26-3.02-1.89-5.29-1.89h-2.83v14.28h2.83c2.26,0,4.02-.62,5.29-1.86Z" fill="#fff" stroke-width="0"/><path d="M443.83,49.22v4.97h8.01v4.62h-8.01v5.39h9.06v4.8h-15.05v-24.57h15.05v4.8h-9.06Z" fill="#fff" stroke-width="0"/><path d="M478.76,69h-5.99l-10.01-15.16v15.16h-5.99v-24.57h5.99l10.01,15.23v-15.23h5.99v24.57Z" fill="#fff" stroke-width="0"/><path d="M481.48,45.68v-3.25h5.66v14.9h-3.63v-11.66h-2.02Z" fill="#fff" stroke-width="0"/></svg>