<?xml version="1.0" encoding="UTF-8"?><svg id="a" xmlns="http://www.w3.org/2000/svg" width="915.59" height="94" viewBox="0 0 915.59 94"><path d="M145.02,54.88h10.12v5.96h-17.85v-31.72h7.73v25.75Z" fill="#fff" stroke-width="0"/><path d="M166.57,29.13v31.72h-7.73v-31.72h7.73Z" fill="#fff" stroke-width="0"/><path d="M192.82,29.13v6.19h-12.92v6.69h9.67v6.01h-9.67v12.83h-7.73v-31.72h20.65Z" fill="#fff" stroke-width="0"/><path d="M204.62,35.32v6.42h10.35v5.96h-10.35v6.96h11.7v6.19h-19.43v-31.72h19.43v6.19h-11.7Z" fill="#fff" stroke-width="0"/><path d="M238.64,29.13v31.72h-7.73v-31.72h7.73Z" fill="#fff" stroke-width="0"/><path d="M249.48,60.04c-1.84-.75-3.31-1.87-4.41-3.34-1.1-1.48-1.68-3.25-1.74-5.33h8.22c.12,1.17.53,2.07,1.22,2.69.69.62,1.6.93,2.71.93s2.05-.26,2.71-.79c.66-.53.99-1.26.99-2.19,0-.78-.26-1.43-.79-1.94-.53-.51-1.17-.93-1.94-1.26s-1.86-.71-3.28-1.13c-2.05-.63-3.72-1.27-5.02-1.9-1.3-.63-2.41-1.57-3.34-2.8-.93-1.23-1.4-2.85-1.4-4.83,0-2.95,1.07-5.26,3.21-6.94,2.14-1.67,4.93-2.51,8.36-2.51s6.31.84,8.45,2.51c2.14,1.67,3.28,4,3.43,6.98h-8.36c-.06-1.02-.44-1.83-1.13-2.42-.69-.59-1.58-.88-2.67-.88-.93,0-1.69.25-2.26.75-.57.5-.86,1.21-.86,2.15,0,1.02.48,1.82,1.45,2.39.96.57,2.47,1.19,4.52,1.85,2.05.69,3.71,1.36,4.99,1.99,1.28.63,2.39,1.55,3.32,2.76.93,1.21,1.4,2.76,1.4,4.65s-.46,3.45-1.38,4.93c-.92,1.48-2.25,2.65-4,3.52-1.75.87-3.81,1.31-6.19,1.31s-4.4-.38-6.24-1.13Z" fill="#fff" stroke-width="0"/><path d="M302.26,29.13v6.19h-12.92v6.69h9.67v6.01h-9.67v12.83h-7.73v-31.72h20.65Z" fill="#fff" stroke-width="0"/><path d="M314.05,29.13v31.72h-7.73v-31.72h7.73Z" fill="#fff" stroke-width="0"/><path d="M327.38,54.88h10.12v5.96h-17.85v-31.72h7.73v25.75Z" fill="#fff" stroke-width="0"/><path d="M348.93,54.88h10.12v5.96h-17.85v-31.72h7.73v25.75Z" fill="#fff" stroke-width="0"/><path d="M370.49,35.32v6.42h10.35v5.96h-10.35v6.96h11.7v6.19h-19.43v-31.72h19.43v6.19h-11.7Z" fill="#fff" stroke-width="0"/><path d="M407.85,31.12c2.5,1.33,4.44,3.19,5.81,5.58,1.37,2.39,2.06,5.16,2.06,8.29s-.69,5.86-2.06,8.27c-1.37,2.41-3.31,4.28-5.83,5.6-2.52,1.33-5.43,1.99-8.74,1.99h-11.88v-31.72h11.88c3.34,0,6.27.66,8.77,1.99ZM405.41,51.77c1.63-1.6,2.44-3.86,2.44-6.78s-.81-5.2-2.44-6.82c-1.63-1.63-3.9-2.44-6.82-2.44h-3.66v18.43h3.66c2.92,0,5.2-.8,6.82-2.39Z" fill="#fff" stroke-width="0"/><path d="M473.28,29.13l-8.27,31.72h-9.35l-5.06-20.87-5.24,20.87h-9.35l-8.04-31.72h8.27l4.56,23.09,5.65-23.09h8.5l5.42,23.09,4.61-23.09h8.31Z" fill="#fff" stroke-width="0"/><path d="M484.89,29.13v31.72h-7.73v-31.72h7.73Z" fill="#fff" stroke-width="0"/><path d="M513.31,29.13v6.19h-8.4v25.53h-7.73v-25.53h-8.4v-6.19h24.53Z" fill="#fff" stroke-width="0"/><path d="M544.67,29.13v31.72h-7.73v-13.06h-12.02v13.06h-7.73v-31.72h7.73v12.43h12.02v-12.43h7.73Z" fill="#fff" stroke-width="0"/><path d="M583.44,47.32c1.11,1.43,1.67,3.06,1.67,4.9,0,2.65-.93,4.75-2.78,6.3-1.85,1.55-4.44,2.33-7.75,2.33h-14.78v-31.72h14.28c3.22,0,5.75.74,7.57,2.21s2.73,3.48,2.73,6.01c0,1.87-.49,3.42-1.47,4.65-.98,1.24-2.28,2.09-3.91,2.57,1.84.39,3.31,1.3,4.43,2.73ZM567.53,41.96h5.06c1.26,0,2.24-.28,2.91-.84.68-.56,1.02-1.38,1.02-2.46s-.34-1.91-1.02-2.49c-.68-.57-1.65-.86-2.91-.86h-5.06v6.64ZM576.23,53.73c.71-.59,1.06-1.44,1.06-2.55s-.37-1.99-1.11-2.62c-.74-.63-1.76-.95-3.05-.95h-5.6v7h5.69c1.3,0,2.3-.29,3.01-.88Z" fill="#fff" stroke-width="0"/><path d="M597.17,29.13v18.98c0,1.9.47,3.36,1.4,4.38.93,1.02,2.3,1.54,4.11,1.54s3.19-.51,4.16-1.54c.96-1.02,1.45-2.48,1.45-4.38v-18.98h7.73v18.93c0,2.83-.6,5.23-1.81,7.18-1.21,1.96-2.82,3.43-4.86,4.43-2.03.99-4.3,1.49-6.8,1.49s-4.74-.49-6.71-1.47c-1.97-.98-3.53-2.45-4.68-4.43-1.15-1.97-1.72-4.38-1.72-7.21v-18.93h7.73Z" fill="#fff" stroke-width="0"/><path d="M637.61,60.85l-6.6-11.97h-1.85v11.97h-7.73v-31.72h12.97c2.5,0,4.63.44,6.39,1.31,1.76.87,3.08,2.07,3.95,3.59s1.31,3.22,1.31,5.08c0,2.11-.6,3.99-1.78,5.65-1.19,1.66-2.95,2.83-5.26,3.52l7.32,12.56h-8.72ZM629.16,43.41h4.79c1.42,0,2.48-.35,3.19-1.04.71-.69,1.06-1.67,1.06-2.94s-.35-2.15-1.06-2.85c-.71-.69-1.77-1.04-3.19-1.04h-4.79v7.86Z" fill="#fff" stroke-width="0"/><path d="M671.55,31.12c2.5,1.33,4.44,3.19,5.81,5.58s2.06,5.16,2.06,8.29-.68,5.86-2.06,8.27c-1.37,2.41-3.31,4.28-5.83,5.6-2.52,1.33-5.43,1.99-8.74,1.99h-11.88v-31.72h11.88c3.34,0,6.26.66,8.77,1.99ZM669.11,51.77c1.63-1.6,2.44-3.86,2.44-6.78s-.81-5.2-2.44-6.82c-1.63-1.63-3.9-2.44-6.82-2.44h-3.66v18.43h3.66c2.92,0,5.2-.8,6.82-2.39Z" fill="#fff" stroke-width="0"/><path d="M691.47,35.32v6.42h10.35v5.96h-10.35v6.96h11.7v6.19h-19.43v-31.72h19.43v6.19h-11.7Z" fill="#fff" stroke-width="0"/><path d="M736.57,60.85h-7.73l-12.92-19.56v19.56h-7.73v-31.72h7.73l12.92,19.66v-19.66h7.73v31.72Z" fill="#fff" stroke-width="0"/><path d="M747.41,60.04c-1.84-.75-3.31-1.87-4.41-3.34-1.1-1.48-1.68-3.25-1.74-5.33h8.22c.12,1.17.53,2.07,1.22,2.69.69.62,1.6.93,2.71.93s2.05-.26,2.71-.79c.66-.53.99-1.26.99-2.19,0-.78-.26-1.43-.79-1.94-.53-.51-1.17-.93-1.94-1.26s-1.86-.71-3.28-1.13c-2.05-.63-3.72-1.27-5.01-1.9-1.3-.63-2.41-1.57-3.34-2.8-.93-1.23-1.4-2.85-1.4-4.83,0-2.95,1.07-5.26,3.21-6.94,2.14-1.67,4.93-2.51,8.36-2.51s6.31.84,8.45,2.51c2.14,1.67,3.28,4,3.43,6.98h-8.36c-.06-1.02-.44-1.83-1.13-2.42-.69-.59-1.58-.88-2.67-.88-.93,0-1.69.25-2.26.75-.57.5-.86,1.21-.86,2.15,0,1.02.48,1.82,1.45,2.39.96.57,2.47,1.19,4.52,1.85,2.05.69,3.71,1.36,4.99,1.99s2.39,1.55,3.32,2.76c.93,1.21,1.4,2.76,1.4,4.65s-.46,3.45-1.38,4.93c-.92,1.48-2.25,2.65-4,3.52-1.75.87-3.81,1.31-6.19,1.31s-4.4-.38-6.24-1.13Z" fill="#fff" stroke-width="0"/><path d="M767.87,30.74v-4.19h7.3v19.24h-4.69v-15.05h-2.61Z" fill="#fff" stroke-width="0"/><path id="b" d="M0,0c0,4.61,204.96,8.34,457.79,8.34S915.59,4.61,915.59,0" fill="#29aae1" stroke-width="0"/><path id="c" d="M0,94c0-4.61,204.96-8.34,457.79-8.34s457.8,3.73,457.8,8.34" fill="#29aae1" stroke-width="0"/></svg>