<?xml version="1.0" encoding="UTF-8"?><svg id="a" xmlns="http://www.w3.org/2000/svg" width="692" height="106" viewBox="0 0 692 106"><path d="M28.75,61.73h8.96v5.29h-15.79v-28.13h6.84v22.84Z" fill="#fff" stroke-width="0"/><path d="M47.82,38.9v28.13h-6.84v-28.13h6.84Z" fill="#fff" stroke-width="0"/><path d="M71.05,38.9v5.49h-11.43v5.93h8.56v5.33h-8.56v11.38h-6.84v-28.13h18.27Z" fill="#fff" stroke-width="0"/><path d="M81.48,44.38v5.69h9.16v5.29h-9.16v6.17h10.35v5.49h-17.19v-28.13h17.19v5.49h-10.35Z" fill="#fff" stroke-width="0"/><path d="M105.39,45.49c1.2-2.18,2.87-3.87,5.02-5.09,2.15-1.21,4.58-1.82,7.3-1.82,3.33,0,6.18.88,8.56,2.64,2.37,1.76,3.96,4.17,4.76,7.21h-7.52c-.56-1.18-1.35-2.07-2.38-2.68-1.03-.61-2.19-.92-3.5-.92-2.11,0-3.81.74-5.12,2.2-1.31,1.47-1.96,3.43-1.96,5.89s.65,4.42,1.96,5.89c1.31,1.47,3.01,2.2,5.12,2.2,1.31,0,2.47-.31,3.5-.92,1.03-.61,1.82-1.51,2.38-2.68h7.52c-.8,3.04-2.39,5.44-4.76,7.19-2.37,1.75-5.22,2.62-8.56,2.62-2.72,0-5.15-.61-7.3-1.82-2.15-1.21-3.82-2.9-5.02-5.07s-1.8-4.63-1.8-7.41.6-5.25,1.8-7.43Z" fill="#fff" stroke-width="0"/><path d="M152.69,62.05h-10.48l-1.68,4.97h-7.16l10.16-28.13h7.92l10.16,28.13h-7.24l-1.68-4.97ZM150.93,56.76l-3.48-10.3-3.44,10.3h6.92Z" fill="#fff" stroke-width="0"/><path d="M189.79,67.02h-6.84l-11.43-17.35v17.35h-6.84v-28.13h6.84l11.43,17.43v-17.43h6.84v28.13Z" fill="#fff" stroke-width="0"/><path d="M224.14,55.02c.99,1.27,1.48,2.72,1.48,4.35,0,2.35-.82,4.21-2.46,5.59-1.64,1.38-3.93,2.06-6.86,2.06h-13.07v-28.13h12.63c2.85,0,5.08.66,6.7,1.96,1.61,1.31,2.42,3.09,2.42,5.33,0,1.66-.43,3.03-1.3,4.13-.87,1.1-2.02,1.86-3.46,2.28,1.63.35,2.93,1.16,3.92,2.42ZM210.07,50.27h4.48c1.12,0,1.98-.25,2.58-.74.6-.49.9-1.22.9-2.18s-.3-1.7-.9-2.2c-.6-.51-1.46-.76-2.58-.76h-4.48v5.89ZM217.76,60.71c.63-.52.94-1.28.94-2.26s-.33-1.76-.98-2.32c-.65-.56-1.55-.84-2.7-.84h-4.96v6.21h5.04c1.15,0,2.03-.26,2.66-.78Z" fill="#fff" stroke-width="0"/><path d="M236.42,44.38v5.69h9.16v5.29h-9.16v6.17h10.35v5.49h-17.19v-28.13h17.19v5.49h-10.35Z" fill="#fff" stroke-width="0"/><path d="M277.96,38.9v5.49h-11.43v5.93h8.56v5.33h-8.56v11.38h-6.84v-28.13h18.27Z" fill="#fff" stroke-width="0"/><path d="M288.39,38.9v28.13h-6.84v-28.13h6.84Z" fill="#fff" stroke-width="0"/><path d="M300.19,61.73h8.96v5.29h-15.79v-28.13h6.84v22.84Z" fill="#fff" stroke-width="0"/><path d="M319.26,61.73h8.96v5.29h-15.79v-28.13h6.84v22.84Z" fill="#fff" stroke-width="0"/><path d="M338.33,44.38v5.69h9.16v5.29h-9.16v6.17h10.35v5.49h-17.19v-28.13h17.19v5.49h-10.35Z" fill="#fff" stroke-width="0"/><path d="M371.39,40.66c2.21,1.18,3.93,2.82,5.14,4.95,1.21,2.12,1.82,4.57,1.82,7.35s-.61,5.19-1.82,7.33c-1.21,2.14-2.93,3.79-5.16,4.97-2.23,1.18-4.8,1.76-7.74,1.76h-10.52v-28.13h10.52c2.96,0,5.54.59,7.76,1.76ZM369.24,58.97c1.44-1.42,2.16-3.42,2.16-6.01s-.72-4.61-2.16-6.05-3.45-2.16-6.04-2.16h-3.24v16.35h3.24c2.59,0,4.6-.71,6.04-2.12Z" fill="#fff" stroke-width="0"/><path d="M429.29,38.9l-7.32,28.13h-8.28l-4.48-18.51-4.64,18.51h-8.28l-7.12-28.13h7.32l4.04,20.47,5-20.47h7.52l4.8,20.47,4.08-20.47h7.36Z" fill="#fff" stroke-width="0"/><path d="M439.56,38.9v28.13h-6.84v-28.13h6.84Z" fill="#fff" stroke-width="0"/><path d="M464.71,38.9v5.49h-7.44v22.64h-6.84v-22.64h-7.44v-5.49h21.71Z" fill="#fff" stroke-width="0"/><path d="M492.46,38.9v28.13h-6.84v-11.58h-10.64v11.58h-6.84v-28.13h6.84v11.02h10.64v-11.02h6.84Z" fill="#fff" stroke-width="0"/><path d="M526.77,55.02c.99,1.27,1.48,2.72,1.48,4.35,0,2.35-.82,4.21-2.46,5.59-1.64,1.38-3.93,2.06-6.86,2.06h-13.07v-28.13h12.63c2.85,0,5.08.66,6.7,1.96,1.61,1.31,2.42,3.09,2.42,5.33,0,1.66-.43,3.03-1.3,4.13-.87,1.1-2.02,1.86-3.46,2.28,1.63.35,2.93,1.16,3.92,2.42ZM512.69,50.27h4.48c1.12,0,1.98-.25,2.58-.74.6-.49.9-1.22.9-2.18s-.3-1.7-.9-2.2c-.6-.51-1.46-.76-2.58-.76h-4.48v5.89ZM520.39,60.71c.63-.52.94-1.28.94-2.26s-.33-1.76-.98-2.32c-.65-.56-1.55-.84-2.7-.84h-4.96v6.21h5.04c1.15,0,2.03-.26,2.66-.78Z" fill="#fff" stroke-width="0"/><path d="M538.92,38.9v16.83c0,1.68.41,2.98,1.24,3.89.83.91,2.04,1.36,3.64,1.36s2.82-.45,3.68-1.36c.85-.91,1.28-2.2,1.28-3.89v-16.83h6.84v16.79c0,2.51-.53,4.63-1.6,6.37-1.07,1.74-2.5,3.04-4.3,3.93-1.8.88-3.81,1.32-6.02,1.32s-4.19-.43-5.94-1.3c-1.75-.87-3.12-2.18-4.14-3.93-1.01-1.75-1.52-3.88-1.52-6.39v-16.79h6.84Z" fill="#fff" stroke-width="0"/><path d="M574.7,67.02l-5.84-10.62h-1.64v10.62h-6.84v-28.13h11.47c2.21,0,4.1.39,5.66,1.16,1.56.77,2.73,1.84,3.5,3.18.77,1.35,1.16,2.85,1.16,4.51,0,1.87-.53,3.54-1.58,5.01-1.05,1.47-2.61,2.51-4.66,3.13l6.48,11.14h-7.72ZM567.23,51.56h4.24c1.25,0,2.19-.31,2.82-.92.63-.61.94-1.48.94-2.6s-.31-1.91-.94-2.52c-.63-.61-1.57-.92-2.82-.92h-4.24v6.97Z" fill="#fff" stroke-width="0"/><path d="M604.73,40.66c2.21,1.18,3.93,2.82,5.14,4.95,1.21,2.12,1.82,4.57,1.82,7.35s-.61,5.19-1.82,7.33c-1.21,2.14-2.93,3.79-5.16,4.97-2.23,1.18-4.8,1.76-7.74,1.76h-10.52v-28.13h10.52c2.96,0,5.54.59,7.76,1.76ZM602.57,58.97c1.44-1.42,2.16-3.42,2.16-6.01s-.72-4.61-2.16-6.05-3.45-2.16-6.04-2.16h-3.24v16.35h3.24c2.59,0,4.6-.71,6.04-2.12Z" fill="#fff" stroke-width="0"/><path d="M622.36,44.38v5.69h9.16v5.29h-9.16v6.17h10.35v5.49h-17.19v-28.13h17.19v5.49h-10.35Z" fill="#fff" stroke-width="0"/><path d="M662.26,67.02h-6.84l-11.43-17.35v17.35h-6.84v-28.13h6.84l11.43,17.43v-17.43h6.84v28.13Z" fill="#fff" stroke-width="0"/><path d="M665.37,40.32v-3.72h6.46v17.06h-4.15v-13.34h-2.31Z" fill="#fff" stroke-width="0"/><path id="b" d="M0,0c0,4.59,154.85,8.32,345.85,8.32S691.71,4.59,691.71,0" fill="#29aae1" stroke-width="0"/><path id="c" d="M.29,106c0-4.6,154.85-8.32,345.85-8.32s345.86,3.72,345.86,8.32" fill="#29aae1" stroke-width="0"/></svg>