<?xml version="1.0" encoding="UTF-8"?><svg id="a" xmlns="http://www.w3.org/2000/svg" width="912" height="94" viewBox="0 0 912 94"><path d="M96.34,54.88h10.08v5.96h-17.78v-31.72h7.7v25.76Z" fill="#fff" stroke-width="0"/><path d="M117.81,29.13v31.72h-7.7v-31.72h7.7Z" fill="#fff" stroke-width="0"/><path d="M143.96,29.13v6.19h-12.87v6.69h9.63v6.01h-9.63v12.83h-7.7v-31.72h20.57Z" fill="#fff" stroke-width="0"/><path d="M155.7,35.32v6.42h10.31v5.97h-10.31v6.96h11.66v6.19h-19.35v-31.72h19.35v6.19h-11.66Z" fill="#fff" stroke-width="0"/><path d="M182.62,36.56c1.35-2.45,3.23-4.37,5.65-5.74s5.15-2.06,8.21-2.06c3.75,0,6.96.99,9.63,2.98,2.67,1.99,4.46,4.7,5.36,8.13h-8.46c-.63-1.33-1.52-2.33-2.68-3.03-1.16-.69-2.47-1.04-3.94-1.04-2.37,0-4.29.83-5.76,2.48-1.47,1.66-2.2,3.87-2.2,6.64s.73,4.99,2.2,6.64c1.47,1.66,3.39,2.48,5.76,2.48,1.47,0,2.78-.35,3.94-1.04,1.15-.69,2.05-1.7,2.68-3.03h8.46c-.9,3.43-2.69,6.14-5.36,8.11-2.67,1.97-5.88,2.96-9.63,2.96-3.06,0-5.8-.68-8.21-2.06s-4.3-3.28-5.65-5.72c-1.35-2.44-2.02-5.23-2.02-8.36s.67-5.93,2.02-8.38Z" fill="#fff" stroke-width="0"/><path d="M235.86,55.25h-11.79l-1.89,5.6h-8.06l11.43-31.72h8.91l11.43,31.72h-8.15l-1.89-5.6ZM233.88,49.28l-3.92-11.61-3.87,11.61h7.79Z" fill="#fff" stroke-width="0"/><path d="M277.63,60.85h-7.7l-12.87-19.57v19.57h-7.7v-31.72h7.7l12.87,19.66v-19.66h7.7v31.72Z" fill="#fff" stroke-width="0"/><path d="M316.29,47.32c1.11,1.43,1.67,3.07,1.67,4.9,0,2.65-.92,4.75-2.77,6.3s-4.42,2.33-7.72,2.33h-14.72v-31.72h14.22c3.21,0,5.72.74,7.54,2.21,1.81,1.48,2.72,3.48,2.72,6.01,0,1.87-.49,3.42-1.46,4.65-.98,1.24-2.27,2.09-3.89,2.57,1.83.39,3.3,1.3,4.41,2.73ZM300.45,41.96h5.04c1.26,0,2.23-.28,2.9-.84.67-.56,1.01-1.38,1.01-2.46s-.34-1.91-1.01-2.49c-.67-.57-1.64-.86-2.9-.86h-5.04v6.64ZM309.11,53.73c.7-.59,1.06-1.44,1.06-2.55s-.37-1.99-1.1-2.62c-.74-.63-1.75-.95-3.04-.95h-5.58v7h5.67c1.29,0,2.29-.29,2.99-.88Z" fill="#fff" stroke-width="0"/><path d="M330.11,35.32v6.42h10.31v5.97h-10.31v6.96h11.66v6.19h-19.35v-31.72h19.35v6.19h-11.66Z" fill="#fff" stroke-width="0"/><path d="M376.87,29.13v6.19h-12.87v6.69h9.63v6.01h-9.63v12.83h-7.7v-31.72h20.57Z" fill="#fff" stroke-width="0"/><path d="M388.61,29.13v31.72h-7.7v-31.72h7.7Z" fill="#fff" stroke-width="0"/><path d="M401.89,54.88h10.08v5.96h-17.78v-31.72h7.7v25.76Z" fill="#fff" stroke-width="0"/><path d="M423.36,54.88h10.08v5.96h-17.78v-31.72h7.7v25.76Z" fill="#fff" stroke-width="0"/><path d="M444.83,35.32v6.42h10.31v5.97h-10.31v6.96h11.66v6.19h-19.35v-31.72h19.35v6.19h-11.66Z" fill="#fff" stroke-width="0"/><path d="M482.05,31.12c2.49,1.33,4.42,3.19,5.78,5.58,1.36,2.39,2.05,5.16,2.05,8.29s-.68,5.86-2.05,8.27c-1.37,2.41-3.3,4.28-5.81,5.6-2.51,1.33-5.41,1.99-8.71,1.99h-11.84v-31.72h11.84c3.33,0,6.24.66,8.73,1.99ZM479.62,51.77c1.62-1.6,2.43-3.86,2.43-6.78s-.81-5.2-2.43-6.82-3.89-2.44-6.8-2.44h-3.65v18.44h3.65c2.91,0,5.18-.8,6.8-2.39Z" fill="#fff" stroke-width="0"/><path d="M547.22,29.13l-8.24,31.72h-9.32l-5.04-20.88-5.22,20.88h-9.32l-8.01-31.72h8.24l4.55,23.09,5.63-23.09h8.46l5.4,23.09,4.59-23.09h8.28Z" fill="#fff" stroke-width="0"/><path d="M558.79,29.13v31.72h-7.7v-31.72h7.7Z" fill="#fff" stroke-width="0"/><path d="M587.09,29.13v6.19h-8.37v25.53h-7.7v-25.53h-8.37v-6.19h24.44Z" fill="#fff" stroke-width="0"/><path d="M618.33,29.13v31.72h-7.7v-13.06h-11.97v13.06h-7.7v-31.72h7.7v12.43h11.97v-12.43h7.7Z" fill="#fff" stroke-width="0"/><path d="M656.94,47.32c1.11,1.43,1.67,3.07,1.67,4.9,0,2.65-.92,4.75-2.77,6.3s-4.42,2.33-7.72,2.33h-14.72v-31.72h14.22c3.21,0,5.72.74,7.54,2.21,1.81,1.48,2.72,3.48,2.72,6.01,0,1.87-.49,3.42-1.46,4.65-.98,1.24-2.27,2.09-3.89,2.57,1.83.39,3.3,1.3,4.41,2.73ZM641.1,41.96h5.04c1.26,0,2.23-.28,2.9-.84.67-.56,1.01-1.38,1.01-2.46s-.34-1.91-1.01-2.49c-.67-.57-1.64-.86-2.9-.86h-5.04v6.64ZM649.77,53.73c.7-.59,1.06-1.44,1.06-2.55s-.37-1.99-1.1-2.62c-.74-.63-1.75-.95-3.04-.95h-5.58v7h5.67c1.29,0,2.29-.29,2.99-.88Z" fill="#fff" stroke-width="0"/><path d="M670.63,29.13v18.98c0,1.9.46,3.36,1.4,4.38.93,1.02,2.3,1.54,4.1,1.54s3.18-.51,4.14-1.54c.96-1.02,1.44-2.48,1.44-4.38v-18.98h7.7v18.93c0,2.83-.6,5.23-1.8,7.18-1.2,1.96-2.81,3.43-4.84,4.43s-4.28,1.49-6.77,1.49-4.72-.49-6.68-1.47c-1.97-.98-3.52-2.45-4.66-4.43-1.14-1.97-1.71-4.38-1.71-7.21v-18.93h7.7Z" fill="#fff" stroke-width="0"/><path d="M710.91,60.85l-6.57-11.97h-1.85v11.97h-7.7v-31.72h12.92c2.49,0,4.61.44,6.37,1.31,1.76.87,3.07,2.07,3.94,3.59s1.31,3.22,1.31,5.08c0,2.11-.59,3.99-1.78,5.65-1.19,1.66-2.93,2.83-5.24,3.52l7.29,12.56h-8.69ZM702.49,43.41h4.77c1.41,0,2.47-.35,3.17-1.04.7-.69,1.06-1.67,1.06-2.94s-.35-2.15-1.06-2.85c-.71-.69-1.76-1.04-3.17-1.04h-4.77v7.86Z" fill="#fff" stroke-width="0"/><path d="M744.71,31.12c2.49,1.33,4.42,3.19,5.78,5.58,1.36,2.39,2.05,5.16,2.05,8.29s-.68,5.86-2.05,8.27c-1.37,2.41-3.3,4.28-5.81,5.6-2.51,1.33-5.41,1.99-8.71,1.99h-11.84v-31.72h11.84c3.33,0,6.24.66,8.73,1.99ZM742.28,51.77c1.62-1.6,2.43-3.86,2.43-6.78s-.81-5.2-2.43-6.82-3.89-2.44-6.8-2.44h-3.65v18.44h3.65c2.91,0,5.18-.8,6.8-2.39Z" fill="#fff" stroke-width="0"/><path d="M764.56,35.32v6.42h10.31v5.97h-10.31v6.96h11.66v6.19h-19.35v-31.72h19.35v6.19h-11.66Z" fill="#fff" stroke-width="0"/><path d="M809.47,60.85h-7.7l-12.87-19.57v19.57h-7.7v-31.72h7.7l12.87,19.66v-19.66h7.7v31.72Z" fill="#fff" stroke-width="0"/><text transform="translate(812.26 45.79)" fill="#fff" font-family="Poppins-Bold, Poppins" font-size="26.36" font-weight="700" isolation="isolate"><tspan x="0" y="0">1</tspan></text><path id="b" d="M0,0c0,4.61,204.16,8.34,456,8.34S912,4.61,912,0" fill="#29aae1" stroke-width="0"/><path id="c" d="M0,94c0-4.61,204.16-8.34,456-8.34s456,3.73,456,8.34" fill="#29aae1" stroke-width="0"/></svg>