<?xml version="1.0" encoding="UTF-8"?><svg id="a" xmlns="http://www.w3.org/2000/svg" width="500" height="109" viewBox="0 0 500 109"><path id="b" d="M2.99,0c0,3.49,111.26,6.33,248.5,6.33S500,3.49,500,0" fill="#29aae1" stroke-width="0"/><path id="c" d="M0,109c0-3.49,111.26-6.33,248.5-6.33s248.5,2.83,248.5,6.33" fill="#29aae1" stroke-width="0"/><path d="M9.76,64.38h7.82v4.62H3.79v-24.57h5.97v19.95Z" fill="#fff" stroke-width="0"/><path d="M26.42,44.43v24.57h-5.97v-24.57h5.97Z" fill="#fff" stroke-width="0"/><path d="M46.72,44.43v4.8h-9.99v5.18h7.48v4.65h-7.48v9.94h-5.97v-24.57h15.96Z" fill="#fff" stroke-width="0"/><path d="M55.83,49.22v4.97h8v4.62h-8v5.39h9.05v4.8h-15.02v-24.57h15.02v4.8h-9.05Z" fill="#fff" stroke-width="0"/><path d="M82.14,44.43v24.57h-5.97v-24.57h5.97Z" fill="#fff" stroke-width="0"/><path d="M90.52,68.37c-1.42-.58-2.56-1.45-3.41-2.59-.85-1.14-1.3-2.52-1.34-4.13h6.36c.09.91.41,1.6.94,2.08.54.48,1.23.72,2.1.72s1.58-.2,2.1-.61.77-.97.77-1.7c0-.61-.2-1.11-.61-1.5-.41-.4-.91-.72-1.5-.98-.59-.26-1.44-.55-2.53-.88-1.58-.49-2.88-.98-3.88-1.47-1-.49-1.86-1.21-2.58-2.17-.72-.96-1.08-2.21-1.08-3.75,0-2.29.83-4.08,2.48-5.37s3.81-1.94,6.46-1.94,4.88.65,6.53,1.94,2.54,3.1,2.65,5.41h-6.46c-.05-.79-.34-1.42-.87-1.87-.54-.46-1.22-.68-2.06-.68-.72,0-1.3.19-1.75.58-.44.39-.66.94-.66,1.66,0,.79.37,1.41,1.12,1.85.75.44,1.91.92,3.49,1.44,1.58.54,2.87,1.05,3.86,1.54.99.49,1.85,1.2,2.57,2.13.72.93,1.08,2.13,1.08,3.6s-.36,2.67-1.07,3.82c-.71,1.14-1.74,2.05-3.09,2.73-1.35.68-2.95,1.01-4.79,1.01s-3.4-.29-4.82-.88Z" fill="#fff" stroke-width="0"/><path d="M131.32,44.43v4.8h-9.99v5.18h7.48v4.65h-7.48v9.94h-5.97v-24.57h15.96Z" fill="#fff" stroke-width="0"/><path d="M140.43,44.43v24.57h-5.97v-24.57h5.97Z" fill="#fff" stroke-width="0"/><path d="M150.74,64.38h7.82v4.62h-13.8v-24.57h5.97v19.95Z" fill="#fff" stroke-width="0"/><path d="M167.4,64.38h7.82v4.62h-13.8v-24.57h5.97v19.95Z" fill="#fff" stroke-width="0"/><path d="M184.06,49.22v4.97h8v4.62h-8v5.39h9.05v4.8h-15.02v-24.57h15.02v4.8h-9.05Z" fill="#fff" stroke-width="0"/><path d="M212.95,45.97c1.93,1.03,3.43,2.47,4.49,4.32,1.06,1.85,1.59,4,1.59,6.42s-.53,4.54-1.59,6.41c-1.06,1.87-2.56,3.31-4.51,4.34-1.94,1.03-4.2,1.54-6.76,1.54h-9.19v-24.57h9.19c2.58,0,4.84.51,6.78,1.54ZM211.06,61.96c1.26-1.24,1.89-2.99,1.89-5.25s-.63-4.02-1.89-5.29c-1.26-1.26-3.02-1.89-5.27-1.89h-2.83v14.28h2.83c2.26,0,4.02-.62,5.27-1.86Z" fill="#fff" stroke-width="0"/><path d="M263.53,44.43l-6.39,24.57h-7.23l-3.91-16.17-4.05,16.17h-7.23l-6.22-24.57h6.39l3.53,17.89,4.37-17.89h6.57l4.19,17.89,3.56-17.89h6.43Z" fill="#fff" stroke-width="0"/><path d="M272.5,44.43v24.57h-5.97v-24.57h5.97Z" fill="#fff" stroke-width="0"/><path d="M294.47,44.43v4.8h-6.5v19.78h-5.97v-19.78h-6.5v-4.8h18.97Z" fill="#fff" stroke-width="0"/><path d="M318.72,44.43v24.57h-5.97v-10.12h-9.29v10.12h-5.97v-24.57h5.97v9.63h9.29v-9.63h5.97Z" fill="#fff" stroke-width="0"/><path d="M348.68,58.52c.86,1.11,1.29,2.37,1.29,3.8,0,2.05-.72,3.68-2.15,4.88-1.43,1.2-3.43,1.8-5.99,1.8h-11.42v-24.57h11.04c2.49,0,4.44.57,5.85,1.71,1.41,1.14,2.11,2.7,2.11,4.66,0,1.45-.38,2.65-1.14,3.61-.76.96-1.76,1.62-3.02,2,1.42.3,2.56,1.01,3.42,2.12ZM336.39,54.37h3.91c.98,0,1.73-.22,2.25-.65.52-.43.79-1.07.79-1.91s-.26-1.48-.79-1.93c-.52-.44-1.27-.67-2.25-.67h-3.91v5.15ZM343.11,63.49c.55-.46.82-1.11.82-1.98s-.28-1.54-.86-2.03c-.57-.49-1.36-.74-2.36-.74h-4.33v5.42h4.4c1,0,1.77-.23,2.32-.68Z" fill="#fff" stroke-width="0"/><path d="M359.3,44.43v14.7c0,1.47.36,2.6,1.08,3.4.72.79,1.78,1.19,3.18,1.19s2.47-.4,3.21-1.19,1.12-1.93,1.12-3.4v-14.7h5.97v14.67c0,2.19-.47,4.05-1.4,5.57-.93,1.52-2.18,2.66-3.76,3.43-1.57.77-3.32,1.16-5.26,1.16s-3.66-.38-5.19-1.14c-1.53-.76-2.73-1.9-3.61-3.43-.89-1.53-1.33-3.39-1.33-5.58v-14.67h5.97Z" fill="#fff" stroke-width="0"/><path d="M390.56,69l-5.1-9.28h-1.43v9.28h-5.97v-24.57h10.02c1.93,0,3.58.34,4.94,1.02s2.38,1.6,3.06,2.78c.67,1.18,1.01,2.49,1.01,3.94,0,1.63-.46,3.09-1.38,4.38s-2.28,2.19-4.07,2.73l5.66,9.73h-6.74ZM384.03,55.49h3.7c1.09,0,1.92-.27,2.46-.81.55-.54.82-1.29.82-2.27s-.27-1.67-.82-2.21c-.55-.54-1.37-.8-2.46-.8h-3.7v6.09Z" fill="#fff" stroke-width="0"/><path d="M416.8,45.97c1.93,1.03,3.43,2.47,4.49,4.32,1.06,1.85,1.59,4,1.59,6.42s-.53,4.54-1.59,6.41c-1.06,1.87-2.56,3.31-4.51,4.34-1.94,1.03-4.2,1.54-6.76,1.54h-9.19v-24.57h9.19c2.58,0,4.84.51,6.78,1.54ZM414.91,61.96c1.26-1.24,1.89-2.99,1.89-5.25s-.63-4.02-1.89-5.29-3.02-1.89-5.27-1.89h-2.83v14.28h2.83c2.26,0,4.02-.62,5.27-1.86Z" fill="#fff" stroke-width="0"/><path d="M432.2,49.22v4.97h8v4.62h-8v5.39h9.05v4.8h-15.02v-24.57h15.02v4.8h-9.05Z" fill="#fff" stroke-width="0"/><path d="M467.06,69h-5.97l-9.99-15.16v15.16h-5.97v-24.57h5.97l9.99,15.23v-15.23h5.97v24.57Z" fill="#fff" stroke-width="0"/><path d="M475.44,68.37c-1.42-.58-2.56-1.45-3.41-2.59s-1.3-2.52-1.34-4.13h6.36c.09.91.41,1.6.94,2.08.54.48,1.23.72,2.1.72s1.58-.2,2.1-.61c.51-.41.77-.97.77-1.7,0-.61-.2-1.11-.61-1.5-.41-.4-.91-.72-1.5-.98s-1.44-.55-2.53-.88c-1.58-.49-2.88-.98-3.88-1.47-1-.49-1.86-1.21-2.58-2.17-.72-.96-1.08-2.21-1.08-3.75,0-2.29.83-4.08,2.48-5.37,1.65-1.29,3.81-1.94,6.46-1.94s4.88.65,6.53,1.94c1.65,1.29,2.54,3.1,2.65,5.41h-6.46c-.05-.79-.34-1.42-.87-1.87-.54-.46-1.22-.68-2.06-.68-.72,0-1.3.19-1.75.58-.44.39-.66.94-.66,1.66,0,.79.37,1.41,1.12,1.85.75.44,1.91.92,3.49,1.44,1.58.54,2.87,1.05,3.86,1.54.99.49,1.85,1.2,2.57,2.13.72.93,1.08,2.13,1.08,3.6s-.36,2.67-1.07,3.82c-.71,1.14-1.74,2.05-3.09,2.73-1.35.68-2.95,1.01-4.79,1.01s-3.4-.29-4.82-.88Z" fill="#fff" stroke-width="0"/><path d="M491.26,45.68v-3.25h5.64v14.9h-3.63v-11.66h-2.02Z" fill="#fff" stroke-width="0"/></svg>