<?xml version="1.0" encoding="UTF-8"?><svg id="a" xmlns="http://www.w3.org/2000/svg" width="307" height="163" xmlns:xlink="http://www.w3.org/1999/xlink" viewBox="0 0 307 163"><defs><clipPath id="f"><rect x="3.31" width="303.69" height="7.01" fill="none" stroke-width="0"/></clipPath><clipPath id="l"><rect y="155.99" width="303.69" height="7.01" fill="none" stroke-width="0"/></clipPath></defs><g id="b" isolation="isolate"><g isolation="isolate"><path d="M65.94,48.43h7.61v4.5h-13.42v-23.93h5.81v19.43Z" fill="#fff" stroke-width="0"/><path d="M82.14,29v23.93h-5.81v-23.93h5.81Z" fill="#fff" stroke-width="0"/><path d="M101.88,29v4.67h-9.72v5.04h7.27v4.53h-7.27v9.68h-5.81v-23.93h15.53Z" fill="#fff" stroke-width="0"/><path d="M110.75,33.67v4.84h7.78v4.5h-7.78v5.25h8.8v4.67h-14.61v-23.93h14.61v4.67h-8.8Z" fill="#fff" stroke-width="0"/><path d="M131.07,34.61c1.02-1.85,2.44-3.29,4.26-4.33,1.82-1.03,3.89-1.55,6.2-1.55,2.83,0,5.25.75,7.27,2.25,2.02,1.5,3.36,3.55,4.04,6.14h-6.39c-.48-1-1.15-1.76-2.02-2.28-.87-.52-1.86-.78-2.97-.78-1.79,0-3.24.63-4.35,1.87-1.11,1.25-1.66,2.92-1.66,5.01s.55,3.76,1.66,5.01c1.11,1.25,2.56,1.87,4.35,1.87,1.11,0,2.1-.26,2.97-.78.87-.52,1.55-1.28,2.02-2.28h6.39c-.68,2.59-2.03,4.63-4.04,6.12-2.02,1.49-4.44,2.23-7.27,2.23-2.31,0-4.38-.52-6.2-1.55-1.82-1.03-3.24-2.47-4.26-4.31-1.02-1.84-1.53-3.94-1.53-6.31s.51-4.47,1.53-6.32Z" fill="#fff" stroke-width="0"/><path d="M171.26,48.7h-8.9l-1.43,4.23h-6.08l8.63-23.93h6.73l8.63,23.93h-6.15l-1.43-4.23ZM169.77,44.2l-2.96-8.76-2.92,8.76h5.88Z" fill="#fff" stroke-width="0"/><path d="M202.79,52.93h-5.81l-9.72-14.76v14.76h-5.81v-23.93h5.81l9.72,14.83v-14.83h5.81v23.93Z" fill="#fff" stroke-width="0"/><path d="M231.98,42.72c.84,1.08,1.26,2.31,1.26,3.7,0,2-.7,3.59-2.09,4.76-1.39,1.17-3.34,1.76-5.83,1.76h-11.11v-23.93h10.74c2.42,0,4.32.56,5.69,1.67,1.37,1.11,2.06,2.62,2.06,4.53,0,1.41-.37,2.58-1.1,3.51-.74.93-1.72,1.58-2.94,1.94,1.38.3,2.49.98,3.33,2.06ZM220.02,38.68h3.81c.95,0,1.68-.21,2.19-.63.51-.42.77-1.04.77-1.86s-.26-1.44-.77-1.87c-.51-.43-1.24-.65-2.19-.65h-3.81v5.01ZM226.56,47.56c.53-.44.8-1.08.8-1.93s-.28-1.5-.83-1.98-1.32-.72-2.29-.72h-4.21v5.28h4.28c.97,0,1.73-.22,2.26-.66Z" fill="#fff" stroke-width="0"/><path d="M242.41,33.67v4.84h7.78v4.5h-7.78v5.25h8.8v4.67h-14.61v-23.93h14.61v4.67h-8.8Z" fill="#fff" stroke-width="0"/></g><g isolation="isolate"><path d="M121.03,70.1v4.67h-9.72v5.04h7.27v4.53h-7.27v9.68h-5.81v-23.93h15.53Z" fill="#fff" stroke-width="0"/><path d="M129.9,70.1v23.93h-5.81v-23.93h5.81Z" fill="#fff" stroke-width="0"/><path d="M139.92,89.53h7.61v4.5h-13.42v-23.93h5.81v19.43Z" fill="#fff" stroke-width="0"/><path d="M156.13,89.53h7.61v4.5h-13.42v-23.93h5.81v19.43Z" fill="#fff" stroke-width="0"/><path d="M172.33,74.77v4.84h7.78v4.5h-7.78v5.25h8.8v4.67h-14.61v-23.93h14.61v4.67h-8.8Z" fill="#fff" stroke-width="0"/><path d="M200.43,71.6c1.88,1,3.33,2.4,4.37,4.21s1.55,3.89,1.55,6.25-.52,4.42-1.55,6.24-2.49,3.23-4.38,4.23c-1.89,1-4.08,1.5-6.57,1.5h-8.94v-23.93h8.94c2.51,0,4.71.5,6.59,1.5ZM198.59,87.18c1.22-1.2,1.84-2.91,1.84-5.11s-.61-3.92-1.84-5.15-2.93-1.84-5.13-1.84h-2.75v13.91h2.75c2.2,0,3.91-.6,5.13-1.81Z" fill="#fff" stroke-width="0"/></g><g isolation="isolate"><path d="M69.14,111.21l-6.22,23.93h-7.03l-3.81-15.75-3.94,15.75h-7.03l-6.05-23.93h6.22l3.43,17.42,4.25-17.42h6.39l4.08,17.42,3.47-17.42h6.25Z" fill="#fff" stroke-width="0"/><path d="M77.87,111.21v23.93h-5.81v-23.93h5.81Z" fill="#fff" stroke-width="0"/><path d="M99.24,111.21v4.67h-6.32v19.26h-5.81v-19.26h-6.32v-4.67h18.45Z" fill="#fff" stroke-width="0"/><path d="M122.82,111.21v23.93h-5.81v-9.85h-9.04v9.85h-5.81v-23.93h5.81v9.37h9.04v-9.37h5.81Z" fill="#fff" stroke-width="0"/><path d="M151.97,124.93c.84,1.08,1.26,2.31,1.26,3.7,0,2-.7,3.59-2.09,4.76-1.39,1.17-3.34,1.76-5.83,1.76h-11.11v-23.93h10.74c2.42,0,4.32.56,5.69,1.67,1.37,1.11,2.06,2.62,2.06,4.53,0,1.41-.37,2.58-1.1,3.51-.74.93-1.72,1.58-2.94,1.94,1.38.3,2.49.98,3.33,2.06ZM140.01,120.89h3.81c.95,0,1.68-.21,2.19-.63.51-.42.77-1.04.77-1.86s-.26-1.44-.77-1.87c-.51-.43-1.24-.65-2.19-.65h-3.81v5.01ZM146.55,129.77c.53-.44.8-1.08.8-1.93s-.28-1.5-.83-1.98-1.32-.72-2.29-.72h-4.21v5.28h4.28c.97,0,1.73-.22,2.26-.66Z" fill="#fff" stroke-width="0"/><path d="M162.3,111.21v14.32c0,1.43.35,2.53,1.05,3.31.7.77,1.73,1.16,3.09,1.16s2.4-.39,3.13-1.16,1.09-1.87,1.09-3.31v-14.32h5.81v14.28c0,2.14-.45,3.94-1.36,5.42s-2.12,2.59-3.65,3.34c-1.53.75-3.23,1.12-5.11,1.12s-3.56-.37-5.05-1.11c-1.48-.74-2.66-1.85-3.52-3.34-.86-1.49-1.29-3.3-1.29-5.44v-14.28h5.81Z" fill="#fff" stroke-width="0"/><path d="M192.71,135.13l-4.96-9.03h-1.39v9.03h-5.81v-23.93h9.75c1.88,0,3.48.33,4.81.99s2.32,1.56,2.97,2.71c.66,1.15.98,2.43.98,3.83,0,1.59-.45,3.01-1.34,4.26-.89,1.25-2.21,2.14-3.96,2.66l5.5,9.48h-6.56ZM186.36,121.98h3.6c1.06,0,1.86-.26,2.39-.78.53-.52.8-1.26.8-2.22s-.27-1.62-.8-2.15-1.33-.78-2.39-.78h-3.6v5.93Z" fill="#fff" stroke-width="0"/><path d="M218.23,112.71c1.88,1,3.33,2.4,4.37,4.21s1.55,3.89,1.55,6.25-.52,4.42-1.55,6.24-2.49,3.23-4.38,4.23c-1.89,1-4.08,1.5-6.57,1.5h-8.94v-23.93h8.94c2.51,0,4.71.5,6.59,1.5ZM216.39,128.28c1.22-1.2,1.84-2.91,1.84-5.11s-.61-3.92-1.84-5.15-2.93-1.84-5.13-1.84h-2.75v13.91h2.75c2.2,0,3.91-.6,5.13-1.81Z" fill="#fff" stroke-width="0"/><path d="M233.21,115.88v4.84h7.78v4.5h-7.78v5.25h8.8v4.67h-14.61v-23.93h14.61v4.67h-8.8Z" fill="#fff" stroke-width="0"/><path d="M267.12,135.13h-5.81l-9.72-14.76v14.76h-5.81v-23.93h5.81l9.72,14.83v-14.83h5.81v23.93Z" fill="#fff" stroke-width="0"/></g><g isolation="isolate"><path d="M269.76,112.42v-3.16h5.49v14.51h-3.53v-11.35h-1.96Z" fill="#fff" stroke-width="0"/></g></g><g id="c"><g id="d"><g id="e"><g clip-path="url(#f)"><g id="g"><g id="h"><path id="i" d="M3.31,0c0,3.87,67.98,7.01,151.84,7.01S307,3.87,307,0" fill="#29aae1" stroke-width="0"/></g></g></g></g></g><g id="j"><g id="k"><g clip-path="url(#l)"><g id="m"><g id="n"><path id="o" d="M0,163c0-3.87,67.98-7.01,151.84-7.01s151.85,3.14,151.85,7.01" fill="#29aae1" stroke-width="0"/></g></g></g></g></g></g></svg>