<?xml version="1.0" encoding="UTF-8"?><svg id="a" xmlns="http://www.w3.org/2000/svg" width="608" height="95.5" viewBox="0 0 608 95.5"><path d="M48.91,26.77v42.12h-10.26v-25.26l-9.42,25.26h-8.28l-9.48-25.32v25.32H1.21V26.77h12.12l11.82,29.16,11.7-29.16h12.06Z" fill="#29aae1" stroke-width="0"/><path d="M82.51,61.45h-15.72l-2.52,7.44h-10.74l15.24-42.12h11.88l15.24,42.12h-10.86l-2.52-7.44ZM79.87,53.53l-5.22-15.42-5.16,15.42h10.38Z" fill="#29aae1" stroke-width="0"/><path d="M136.63,26.77l-14.58,28.2v13.92h-10.26v-13.92l-14.58-28.2h11.64l8.16,17.64,8.1-17.64h11.52Z" fill="#29aae1" stroke-width="0"/><path d="M163.75,60.97h13.44v7.92h-23.7V26.77h10.26v34.2Z" fill="#29aae1" stroke-width="0"/><path d="M208.33,61.45h-15.72l-2.52,7.44h-10.74l15.24-42.12h11.88l15.24,42.12h-10.86l-2.52-7.44ZM205.69,53.53l-5.22-15.42-5.16,15.42h10.38Z" fill="#29aae1" stroke-width="0"/><path d="M233.4,67.84c-2.44-1-4.39-2.48-5.85-4.44-1.46-1.96-2.23-4.32-2.31-7.08h10.92c.16,1.56.7,2.75,1.62,3.57.92.82,2.12,1.23,3.6,1.23s2.72-.35,3.6-1.05c.88-.7,1.32-1.67,1.32-2.91,0-1.04-.35-1.9-1.05-2.58-.7-.68-1.56-1.24-2.58-1.68-1.02-.44-2.47-.94-4.35-1.5-2.72-.84-4.94-1.68-6.66-2.52s-3.2-2.08-4.44-3.72c-1.24-1.64-1.86-3.78-1.86-6.42,0-3.92,1.42-6.99,4.26-9.21,2.84-2.22,6.54-3.33,11.11-3.33s8.38,1.11,11.22,3.33c2.84,2.22,4.36,5.31,4.56,9.27h-11.1c-.08-1.36-.58-2.43-1.5-3.21-.92-.78-2.1-1.17-3.54-1.17-1.24,0-2.24.33-3,.99-.76.66-1.14,1.61-1.14,2.85,0,1.36.64,2.42,1.92,3.18,1.28.76,3.28,1.58,6,2.46,2.72.92,4.93,1.8,6.63,2.64,1.7.84,3.17,2.06,4.41,3.66,1.24,1.6,1.86,3.66,1.86,6.18s-.61,4.58-1.83,6.54c-1.22,1.96-2.99,3.52-5.31,4.68-2.32,1.16-5.06,1.74-8.22,1.74s-5.84-.5-8.28-1.5Z" fill="#29aae1" stroke-width="0"/><path d="M293.66,26.78v8.22h-11.17v33.91h-10.26v-33.91h-11.17v-8.22h32.6Z" fill="#29aae1" stroke-width="0"/><path d="M338.83,26.77v8.22h-17.16v8.88h12.84v7.98h-12.84v17.04h-10.26V26.77h27.42Z" fill="#29aae1" stroke-width="0"/><path d="M353.26,66.55c-3.3-1.84-5.92-4.41-7.86-7.71-1.94-3.3-2.91-7.01-2.91-11.13s.97-7.82,2.91-11.1c1.94-3.28,4.56-5.84,7.86-7.68,3.3-1.84,6.93-2.76,10.89-2.76s7.59.92,10.89,2.76c3.3,1.84,5.9,4.4,7.8,7.68,1.9,3.28,2.85,6.98,2.85,11.1s-.96,7.83-2.88,11.13c-1.92,3.3-4.52,5.87-7.8,7.71-3.28,1.84-6.9,2.76-10.86,2.76s-7.59-.92-10.89-2.76ZM372.22,56.59c2.02-2.24,3.03-5.2,3.03-8.88s-1.01-6.69-3.03-8.91c-2.02-2.22-4.71-3.33-8.07-3.33s-6.11,1.1-8.13,3.3c-2.02,2.2-3.03,5.18-3.03,8.94s1.01,6.69,3.03,8.91,4.73,3.33,8.13,3.33,6.05-1.12,8.07-3.36Z" fill="#29aae1" stroke-width="0"/><path d="M412.87,68.89l-8.76-15.9h-2.46v15.9h-10.26V26.77h17.22c3.32,0,6.15.58,8.49,1.74,2.34,1.16,4.09,2.75,5.25,4.77,1.16,2.02,1.74,4.27,1.74,6.75,0,2.8-.79,5.3-2.37,7.5-1.58,2.2-3.91,3.76-6.99,4.68l9.72,16.68h-11.58ZM401.65,45.73h6.36c1.88,0,3.29-.46,4.23-1.38.94-.92,1.41-2.22,1.41-3.9s-.47-2.86-1.41-3.78c-.94-.92-2.35-1.38-4.23-1.38h-6.36v10.44Z" fill="#29aae1" stroke-width="0"/><path d="M470.64,29.41c3.32,1.76,5.89,4.23,7.71,7.41,1.82,3.18,2.73,6.85,2.73,11.01s-.91,7.78-2.73,10.98c-1.82,3.2-4.4,5.68-7.74,7.44s-7.21,2.64-11.61,2.64h-15.78V26.77h15.78c4.44,0,8.32.88,11.64,2.64ZM467.4,56.83c2.16-2.12,3.24-5.12,3.24-9s-1.08-6.9-3.24-9.06c-2.16-2.16-5.18-3.24-9.06-3.24h-4.86v24.48h4.86c3.88,0,6.9-1.06,9.06-3.18Z" fill="#29aae1" stroke-width="0"/><path d="M513.06,61.45h-15.72l-2.52,7.44h-10.74l15.24-42.12h11.88l15.24,42.12h-10.86l-2.52-7.44ZM510.42,53.53l-5.22-15.42-5.16,15.42h10.38Z" fill="#29aae1" stroke-width="0"/><path d="M567.18,26.77l-14.58,28.2v13.92h-10.26v-13.92l-14.58-28.2h11.64l8.16,17.64,8.1-17.64h11.52Z" fill="#29aae1" stroke-width="0"/><path d="M578.28,67.81c-2.44-1-4.39-2.48-5.85-4.44-1.46-1.96-2.23-4.32-2.31-7.08h10.92c.16,1.56.7,2.75,1.62,3.57.92.82,2.12,1.23,3.6,1.23s2.72-.35,3.6-1.05c.88-.7,1.32-1.67,1.32-2.91,0-1.04-.35-1.9-1.05-2.58-.7-.68-1.56-1.24-2.58-1.68-1.02-.44-2.47-.94-4.35-1.5-2.72-.84-4.94-1.68-6.66-2.52s-3.2-2.08-4.44-3.72c-1.24-1.64-1.86-3.78-1.86-6.42,0-3.92,1.42-6.99,4.26-9.21,2.84-2.22,6.54-3.33,11.1-3.33s8.38,1.11,11.22,3.33c2.84,2.22,4.36,5.31,4.56,9.27h-11.1c-.08-1.36-.58-2.43-1.5-3.21-.92-.78-2.1-1.17-3.54-1.17-1.24,0-2.24.33-3,.99-.76.66-1.14,1.61-1.14,2.85,0,1.36.64,2.42,1.92,3.18,1.28.76,3.28,1.58,6,2.46,2.72.92,4.93,1.8,6.63,2.64,1.7.84,3.17,2.06,4.41,3.66,1.24,1.6,1.86,3.66,1.86,6.18s-.61,4.58-1.83,6.54c-1.22,1.96-2.99,3.52-5.31,4.68-2.32,1.16-5.06,1.74-8.22,1.74s-5.84-.5-8.28-1.5Z" fill="#29aae1" stroke-width="0"/><path id="b" d="M0,95.5c0-3.72,136.11-6.73,304-6.73s304,3.01,304,6.73" fill="#e9b73f" stroke-width="0"/><path id="c" d="M0,0c0,3.72,136.11,6.73,304,6.73S608,3.72,608,0" fill="#e9b73f" stroke-width="0"/></svg>