<?xml version="1.0" encoding="UTF-8"?><svg id="a" xmlns="http://www.w3.org/2000/svg" width="42" height="24" viewBox="0 0 42 24"><path d="M40.51,3H1.49c-.82,0-1.49-.67-1.49-1.5S.67,0,1.49,0h39.02c.82,0,1.49.67,1.49,1.5s-.67,1.5-1.49,1.5Z" fill="#28aae1" stroke-width="0"/><path d="M40.51,13.5H1.49c-.82,0-1.49-.67-1.49-1.5s.67-1.5,1.49-1.5h39.02c.82,0,1.49.67,1.49,1.5s-.67,1.5-1.49,1.5Z" fill="#28aae1" stroke-width="0"/><path d="M40.51,24H1.49c-.82,0-1.49-.67-1.49-1.5s.67-1.5,1.49-1.5h39.02c.82,0,1.49.67,1.49,1.5s-.67,1.5-1.49,1.5Z" fill="#28aae1" stroke-width="0"/></svg>