<?xml version="1.0" encoding="UTF-8"?><svg id="a" xmlns="http://www.w3.org/2000/svg" width="502" height="327" viewBox="0 0 502 327"><path id="b" d="M0,0c0,5.13,112.38,9.29,251,9.29S502,5.13,502,0" fill="#29aae1" stroke-width="0"/><path id="c" d="M0,327c0-5.13,112.38-9.29,251-9.29s251,4.16,251,9.29" fill="#29aae1" stroke-width="0"/><path d="M134.58,50.55v28.09h-6.84v-11.57h-10.64v11.57h-6.84v-28.09h6.84v11.01h10.64v-11.01h6.84Z" fill="#fff" stroke-width="0"/><path d="M156.98,73.69h-10.48l-1.68,4.96h-7.16l10.16-28.09h7.92l10.16,28.09h-7.24l-1.68-4.96ZM155.22,68.4l-3.48-10.29-3.44,10.29h6.92Z" fill="#fff" stroke-width="0"/><path d="M175.82,56.04v5.68h9.16v5.28h-9.16v6.16h10.36v5.48h-17.2v-28.09h17.2v5.48h-10.36Z" fill="#fff" stroke-width="0"/><path d="M205.94,50.55v28.09h-6.84v-28.09h6.84Z" fill="#fff" stroke-width="0"/><path d="M215.54,77.93c-1.63-.67-2.93-1.65-3.9-2.96-.97-1.31-1.49-2.88-1.54-4.72h7.28c.11,1.04.47,1.83,1.08,2.38.61.55,1.41.82,2.4.82s1.81-.23,2.4-.7c.59-.47.88-1.11.88-1.94,0-.69-.23-1.27-.7-1.72-.47-.45-1.04-.83-1.72-1.12-.68-.29-1.65-.63-2.9-1-1.81-.56-3.29-1.12-4.44-1.68-1.15-.56-2.13-1.39-2.96-2.48-.83-1.09-1.24-2.52-1.24-4.28,0-2.61.95-4.66,2.84-6.14,1.89-1.48,4.36-2.22,7.4-2.22s5.59.74,7.48,2.22c1.89,1.48,2.91,3.54,3.04,6.18h-7.4c-.05-.91-.39-1.62-1-2.14-.61-.52-1.4-.78-2.36-.78-.83,0-1.49.22-2,.66-.51.44-.76,1.07-.76,1.9,0,.91.43,1.62,1.28,2.12.85.51,2.19,1.05,4,1.64,1.81.61,3.29,1.2,4.42,1.76,1.13.56,2.11,1.37,2.94,2.44.83,1.07,1.24,2.44,1.24,4.12s-.41,3.06-1.22,4.36c-.81,1.31-1.99,2.35-3.54,3.12-1.55.77-3.37,1.16-5.48,1.16s-3.89-.33-5.52-1Z" fill="#fff" stroke-width="0"/><path d="M261.46,73.69h-10.48l-1.68,4.96h-7.16l10.16-28.09h7.92l10.16,28.09h-7.24l-1.68-4.96ZM259.7,68.4l-3.48-10.29-3.44,10.29h6.92Z" fill="#fff" stroke-width="0"/><path d="M296.26,78.65l-5.84-10.61h-1.64v10.61h-6.84v-28.09h11.48c2.21,0,4.1.39,5.66,1.16,1.56.77,2.73,1.83,3.5,3.18.77,1.35,1.16,2.85,1.16,4.5,0,1.87-.53,3.54-1.58,5-1.05,1.47-2.61,2.51-4.66,3.12l6.48,11.13h-7.72ZM288.78,63.2h4.24c1.25,0,2.19-.31,2.82-.92.63-.61.94-1.48.94-2.6s-.31-1.91-.94-2.52c-.63-.61-1.57-.92-2.82-.92h-4.24v6.96Z" fill="#fff" stroke-width="0"/><path d="M325.5,73.69h-10.48l-1.68,4.96h-7.16l10.16-28.09h7.92l10.16,28.09h-7.24l-1.68-4.96ZM323.74,68.4l-3.48-10.29-3.44,10.29h6.92Z" fill="#fff" stroke-width="0"/><path d="M351.82,78.65l-5.84-10.61h-1.64v10.61h-6.84v-28.09h11.48c2.21,0,4.1.39,5.66,1.16,1.56.77,2.73,1.83,3.5,3.18.77,1.35,1.16,2.85,1.16,4.5,0,1.87-.53,3.54-1.58,5-1.05,1.47-2.61,2.51-4.66,3.12l6.48,11.13h-7.72ZM344.34,63.2h4.24c1.25,0,2.19-.31,2.82-.92.63-.61.94-1.48.94-2.6s-.31-1.91-.94-2.52c-.63-.61-1.57-.92-2.82-.92h-4.24v6.96Z" fill="#fff" stroke-width="0"/><path d="M370.42,56.04v5.68h9.16v5.28h-9.16v6.16h10.36v5.48h-17.2v-28.09h17.2v5.48h-10.36Z" fill="#fff" stroke-width="0"/><path d="M392.58,72.32l-4.44,11.49h-4.36l2.32-11.49h6.48Z" fill="#fff" stroke-width="0"/><path d="M93.2,100.58v16.81c0,1.68.41,2.98,1.24,3.88.83.91,2.04,1.36,3.64,1.36s2.83-.45,3.68-1.36c.85-.91,1.28-2.2,1.28-3.88v-16.81h6.84v16.77c0,2.51-.53,4.63-1.6,6.36-1.07,1.74-2.5,3.04-4.3,3.92-1.8.88-3.81,1.32-6.02,1.32s-4.19-.43-5.94-1.3c-1.75-.87-3.13-2.17-4.14-3.92-1.01-1.75-1.52-3.88-1.52-6.38v-16.77h6.84Z" fill="#fff" stroke-width="0"/><path d="M139.8,128.68h-6.84l-11.44-17.33v17.33h-6.84v-28.09h6.84l11.44,17.41v-17.41h6.84v28.09Z" fill="#fff" stroke-width="0"/><path d="M165.04,114.09c-.75,1.35-1.89,2.44-3.44,3.26-1.55.83-3.47,1.24-5.76,1.24h-4.24v10.09h-6.84v-28.09h11.08c2.24,0,4.13.39,5.68,1.16,1.55.77,2.71,1.84,3.48,3.2.77,1.36,1.16,2.92,1.16,4.68,0,1.63-.37,3.12-1.12,4.46ZM158.24,112.23c.64-.61.96-1.48.96-2.6s-.32-1.99-.96-2.6c-.64-.61-1.61-.92-2.92-.92h-3.72v7.04h3.72c1.31,0,2.28-.31,2.92-.92Z" fill="#fff" stroke-width="0"/><path d="M184.04,128.68l-5.84-10.61h-1.64v10.61h-6.84v-28.09h11.48c2.21,0,4.1.39,5.66,1.16,1.56.77,2.73,1.83,3.5,3.18.77,1.35,1.16,2.85,1.16,4.5,0,1.87-.53,3.54-1.58,5-1.05,1.47-2.61,2.51-4.66,3.12l6.48,11.13h-7.72ZM176.56,113.23h4.24c1.25,0,2.19-.31,2.82-.92.63-.61.94-1.48.94-2.6s-.31-1.91-.94-2.52c-.63-.61-1.57-.92-2.82-.92h-4.24v6.96Z" fill="#fff" stroke-width="0"/><path d="M202.64,106.06v5.68h9.16v5.28h-9.16v6.16h10.36v5.48h-17.2v-28.09h17.2v5.48h-10.36Z" fill="#fff" stroke-width="0"/><path d="M235.72,102.34c2.21,1.17,3.93,2.82,5.14,4.94,1.21,2.12,1.82,4.57,1.82,7.34s-.61,5.19-1.82,7.32c-1.21,2.13-2.93,3.79-5.16,4.96-2.23,1.17-4.81,1.76-7.74,1.76h-10.52v-28.09h10.52c2.96,0,5.55.59,7.76,1.76ZM233.56,120.63c1.44-1.41,2.16-3.42,2.16-6s-.72-4.6-2.16-6.04c-1.44-1.44-3.45-2.16-6.04-2.16h-3.24v16.33h3.24c2.59,0,4.6-.71,6.04-2.12Z" fill="#fff" stroke-width="0"/><path d="M253.36,100.58v28.09h-6.84v-28.09h6.84Z" fill="#fff" stroke-width="0"/><path d="M258.96,107.16c1.2-2.17,2.87-3.87,5.02-5.08s4.58-1.82,7.3-1.82c3.33,0,6.19.88,8.56,2.64,2.37,1.76,3.96,4.16,4.76,7.2h-7.52c-.56-1.17-1.35-2.07-2.38-2.68-1.03-.61-2.19-.92-3.5-.92-2.11,0-3.81.73-5.12,2.2-1.31,1.47-1.96,3.43-1.96,5.88s.65,4.42,1.96,5.88c1.31,1.47,3.01,2.2,5.12,2.2,1.31,0,2.47-.31,3.5-.92,1.03-.61,1.82-1.51,2.38-2.68h7.52c-.8,3.04-2.39,5.44-4.76,7.18-2.37,1.75-5.23,2.62-8.56,2.62-2.72,0-5.15-.61-7.3-1.82-2.15-1.21-3.82-2.9-5.02-5.06s-1.8-4.63-1.8-7.4.6-5.25,1.8-7.42Z" fill="#fff" stroke-width="0"/><path d="M309,100.58v5.48h-7.44v22.61h-6.84v-22.61h-7.44v-5.48h21.72Z" fill="#fff" stroke-width="0"/><path d="M329.92,123.71h-10.48l-1.68,4.96h-7.16l10.16-28.09h7.92l10.16,28.09h-7.24l-1.68-4.96ZM328.16,118.43l-3.48-10.29-3.44,10.29h6.92Z" fill="#fff" stroke-width="0"/><path d="M362.84,116.69c.99,1.27,1.48,2.71,1.48,4.34,0,2.35-.82,4.21-2.46,5.58-1.64,1.38-3.93,2.06-6.86,2.06h-13.08v-28.09h12.64c2.85,0,5.09.65,6.7,1.96,1.61,1.31,2.42,3.08,2.42,5.32,0,1.65-.43,3.03-1.3,4.12-.87,1.09-2.02,1.85-3.46,2.28,1.63.35,2.93,1.15,3.92,2.42ZM348.76,111.95h4.48c1.12,0,1.98-.25,2.58-.74.6-.49.9-1.22.9-2.18s-.3-1.69-.9-2.2c-.6-.51-1.46-.76-2.58-.76h-4.48v5.88ZM356.46,122.37c.63-.52.94-1.27.94-2.26s-.33-1.76-.98-2.32c-.65-.56-1.55-.84-2.7-.84h-4.96v6.2h5.04c1.15,0,2.03-.26,2.66-.78Z" fill="#fff" stroke-width="0"/><path d="M375.12,123.39h8.96v5.28h-15.8v-28.09h6.84v22.81Z" fill="#fff" stroke-width="0"/><path d="M394.2,106.06v5.68h9.16v5.28h-9.16v6.16h10.36v5.48h-17.2v-28.09h17.2v5.48h-10.36Z" fill="#fff" stroke-width="0"/><path d="M416.36,122.35l-4.44,11.49h-4.36l2.32-11.49h6.48Z" fill="#fff" stroke-width="0"/><path d="M91.56,173.74h-10.48l-1.68,4.96h-7.16l10.16-28.09h7.92l10.16,28.09h-7.24l-1.68-4.96ZM89.8,168.46l-3.48-10.29-3.44,10.29h6.92Z" fill="#fff" stroke-width="0"/><path d="M128.68,178.7h-6.84l-11.44-17.33v17.33h-6.84v-28.09h6.84l11.44,17.41v-17.41h6.84v28.09Z" fill="#fff" stroke-width="0"/><path d="M151.92,152.37c2.21,1.17,3.93,2.82,5.14,4.94,1.21,2.12,1.82,4.57,1.82,7.34s-.61,5.19-1.82,7.32c-1.21,2.13-2.93,3.79-5.16,4.96-2.23,1.17-4.81,1.76-7.74,1.76h-10.52v-28.09h10.52c2.96,0,5.55.59,7.76,1.76ZM149.76,170.66c1.44-1.41,2.16-3.42,2.16-6s-.72-4.6-2.16-6.04c-1.44-1.44-3.45-2.16-6.04-2.16h-3.24v16.33h3.24c2.59,0,4.6-.71,6.04-2.12Z" fill="#fff" stroke-width="0"/><path d="M191.48,164.11c-.75,1.35-1.89,2.44-3.44,3.26-1.55.83-3.47,1.24-5.76,1.24h-4.24v10.09h-6.84v-28.09h11.08c2.24,0,4.13.39,5.68,1.16,1.55.77,2.71,1.84,3.48,3.2.77,1.36,1.16,2.92,1.16,4.68,0,1.63-.37,3.12-1.12,4.46ZM184.68,162.25c.64-.61.96-1.48.96-2.6s-.32-1.99-.96-2.6c-.64-.61-1.61-.92-2.92-.92h-3.72v7.04h3.72c1.31,0,2.28-.31,2.92-.92Z" fill="#fff" stroke-width="0"/><path d="M202.18,177.14c-2.2-1.23-3.95-2.94-5.24-5.14s-1.94-4.68-1.94-7.42.65-5.22,1.94-7.4,3.04-3.9,5.24-5.12c2.2-1.23,4.62-1.84,7.26-1.84s5.06.61,7.26,1.84c2.2,1.23,3.93,2.94,5.2,5.12,1.27,2.19,1.9,4.66,1.9,7.4s-.64,5.22-1.92,7.42c-1.28,2.2-3.01,3.92-5.2,5.14-2.19,1.23-4.6,1.84-7.24,1.84s-5.06-.61-7.26-1.84ZM214.82,170.5c1.35-1.49,2.02-3.47,2.02-5.92s-.67-4.46-2.02-5.94c-1.35-1.48-3.14-2.22-5.38-2.22s-4.07.73-5.42,2.2c-1.35,1.47-2.02,3.46-2.02,5.96s.67,4.46,2.02,5.94c1.35,1.48,3.15,2.22,5.42,2.22s4.03-.75,5.38-2.24Z" fill="#fff" stroke-width="0"/><path d="M247.8,150.61v5.48h-7.44v22.61h-6.84v-22.61h-7.44v-5.48h21.72Z" fill="#fff" stroke-width="0"/><path d="M258.08,156.09v5.68h9.16v5.28h-9.16v6.16h10.36v5.48h-17.2v-28.09h17.2v5.48h-10.36Z" fill="#fff" stroke-width="0"/><path d="M298,178.7h-6.84l-11.44-17.33v17.33h-6.84v-28.09h6.84l11.44,17.41v-17.41h6.84v28.09Z" fill="#fff" stroke-width="0"/><path d="M323.16,150.61v5.48h-7.44v22.61h-6.84v-22.61h-7.44v-5.48h21.72Z" fill="#fff" stroke-width="0"/><path d="M333.44,150.61v28.09h-6.84v-28.09h6.84Z" fill="#fff" stroke-width="0"/><path d="M355.88,173.74h-10.48l-1.68,4.96h-7.16l10.16-28.09h7.92l10.16,28.09h-7.24l-1.68-4.96ZM354.12,168.46l-3.48-10.29-3.44,10.29h6.92Z" fill="#fff" stroke-width="0"/><path d="M374.72,173.42h8.96v5.28h-15.8v-28.09h6.84v22.81Z" fill="#fff" stroke-width="0"/><path d="M393.8,173.42h8.96v5.28h-15.8v-28.09h6.84v22.81Z" fill="#fff" stroke-width="0"/><path d="M430.12,150.61l-9.72,18.81v9.29h-6.84v-9.29l-9.72-18.81h7.76l5.44,11.77,5.4-11.77h7.68Z" fill="#fff" stroke-width="0"/><path d="M72.62,223.45h8.96v5.28h-15.8v-28.09h6.84v22.81Z" fill="#fff" stroke-width="0"/><path d="M91.7,200.63v28.09h-6.84v-28.09h6.84Z" fill="#fff" stroke-width="0"/><path d="M114.94,200.63v5.48h-11.44v5.92h8.56v5.32h-8.56v11.37h-6.84v-28.09h18.28Z" fill="#fff" stroke-width="0"/><path d="M125.38,206.12v5.68h9.16v5.28h-9.16v6.16h10.36v5.48h-17.2v-28.09h17.2v5.48h-10.36Z" fill="#fff" stroke-width="0"/><path d="M157.38,211.84v5.68h-17.6v-5.68h17.6Z" fill="#fff" stroke-width="0"/><path d="M183.58,200.63v5.48h-7.44v22.61h-6.84v-22.61h-7.44v-5.48h21.72Z" fill="#fff" stroke-width="0"/><path d="M211.34,200.63v28.09h-6.84v-11.57h-10.64v11.57h-6.84v-28.09h6.84v11.01h10.64v-11.01h6.84Z" fill="#fff" stroke-width="0"/><path d="M230.58,228.73l-5.84-10.61h-1.64v10.61h-6.84v-28.09h11.48c2.21,0,4.1.39,5.66,1.16,1.56.77,2.73,1.83,3.5,3.18.77,1.35,1.16,2.85,1.16,4.5,0,1.87-.53,3.54-1.58,5-1.05,1.47-2.61,2.51-4.66,3.12l6.48,11.13h-7.72ZM223.1,213.28h4.24c1.25,0,2.19-.31,2.82-.92.63-.61.94-1.48.94-2.6s-.31-1.91-.94-2.52c-.63-.61-1.57-.92-2.82-.92h-4.24v6.96Z" fill="#fff" stroke-width="0"/><path d="M249.18,206.12v5.68h9.16v5.28h-9.16v6.16h10.36v5.48h-17.2v-28.09h17.2v5.48h-10.36Z" fill="#fff" stroke-width="0"/><path d="M281.46,223.77h-10.48l-1.68,4.96h-7.16l10.16-28.09h7.92l10.16,28.09h-7.24l-1.68-4.96ZM279.7,218.48l-3.48-10.29-3.44,10.29h6.92Z" fill="#fff" stroke-width="0"/><path d="M313.66,200.63v5.48h-7.44v22.61h-6.84v-22.61h-7.44v-5.48h21.72Z" fill="#fff" stroke-width="0"/><path d="M323.94,206.12v5.68h9.16v5.28h-9.16v6.16h10.36v5.48h-17.2v-28.09h17.2v5.48h-10.36Z" fill="#fff" stroke-width="0"/><path d="M363.85,228.73h-6.84l-11.44-17.33v17.33h-6.84v-28.09h6.84l11.44,17.41v-17.41h6.84v28.09Z" fill="#fff" stroke-width="0"/><path d="M375.66,200.63v28.09h-6.84v-28.09h6.84Z" fill="#fff" stroke-width="0"/><path d="M405.73,228.73h-6.84l-11.44-17.33v17.33h-6.84v-28.09h6.84l11.44,17.41v-17.41h6.84v28.09Z" fill="#fff" stroke-width="0"/><path d="M429.33,209.52c-.51-.93-1.23-1.65-2.18-2.14-.95-.49-2.06-.74-3.34-.74-2.21,0-3.99.73-5.32,2.18-1.33,1.45-2,3.4-2,5.82,0,2.59.7,4.61,2.1,6.06,1.4,1.46,3.33,2.18,5.78,2.18,1.68,0,3.1-.43,4.26-1.28,1.16-.85,2.01-2.08,2.54-3.68h-8.68v-5.04h14.88v6.36c-.51,1.71-1.37,3.3-2.58,4.76-1.21,1.47-2.75,2.66-4.62,3.56-1.87.91-3.97,1.36-6.32,1.36-2.77,0-5.25-.61-7.42-1.82-2.17-1.21-3.87-2.9-5.08-5.06s-1.82-4.63-1.82-7.4.61-5.25,1.82-7.42c1.21-2.17,2.9-3.87,5.06-5.08s4.63-1.82,7.4-1.82c3.36,0,6.19.81,8.5,2.44,2.31,1.63,3.83,3.88,4.58,6.76h-7.56Z" fill="#fff" stroke-width="0"/><path d="M124.29,257.24c1.2-2.17,2.87-3.87,5.02-5.08,2.15-1.21,4.58-1.82,7.3-1.82,3.33,0,6.19.88,8.56,2.64,2.37,1.76,3.96,4.16,4.76,7.2h-7.52c-.56-1.17-1.35-2.07-2.38-2.68-1.03-.61-2.19-.92-3.5-.92-2.11,0-3.81.73-5.12,2.2-1.31,1.47-1.96,3.43-1.96,5.88s.65,4.42,1.96,5.88c1.31,1.47,3.01,2.2,5.12,2.2,1.31,0,2.47-.31,3.5-.92,1.03-.61,1.82-1.51,2.38-2.68h7.52c-.8,3.04-2.39,5.44-4.76,7.18-2.37,1.75-5.23,2.62-8.56,2.62-2.72,0-5.15-.61-7.3-1.82-2.15-1.21-3.82-2.9-5.02-5.06-1.2-2.16-1.8-4.63-1.8-7.4s.6-5.25,1.8-7.42Z" fill="#fff" stroke-width="0"/><path d="M160.15,277.2c-2.2-1.23-3.95-2.94-5.24-5.14s-1.94-4.68-1.94-7.42.65-5.22,1.94-7.4,3.04-3.9,5.24-5.12c2.2-1.23,4.62-1.84,7.26-1.84s5.06.61,7.26,1.84c2.2,1.23,3.93,2.94,5.2,5.12,1.27,2.19,1.9,4.66,1.9,7.4s-.64,5.22-1.92,7.42c-1.28,2.2-3.01,3.92-5.2,5.14-2.19,1.23-4.6,1.84-7.24,1.84s-5.06-.61-7.26-1.84ZM172.79,270.55c1.35-1.49,2.02-3.47,2.02-5.92s-.67-4.46-2.02-5.94c-1.35-1.48-3.14-2.22-5.38-2.22s-4.07.73-5.42,2.2c-1.35,1.47-2.02,3.46-2.02,5.96s.67,4.46,2.02,5.94c1.35,1.48,3.15,2.22,5.42,2.22s4.03-.75,5.38-2.24Z" fill="#fff" stroke-width="0"/><path d="M210.69,278.76h-6.84l-11.44-17.33v17.33h-6.84v-28.09h6.84l11.44,17.41v-17.41h6.84v28.09Z" fill="#fff" stroke-width="0"/><path d="M233.93,252.42c2.21,1.17,3.93,2.82,5.14,4.94,1.21,2.12,1.82,4.57,1.82,7.34s-.61,5.19-1.82,7.32c-1.21,2.13-2.93,3.79-5.16,4.96-2.23,1.17-4.81,1.76-7.74,1.76h-10.52v-28.09h10.52c2.96,0,5.55.59,7.76,1.76ZM231.77,270.71c1.44-1.41,2.16-3.42,2.16-6s-.72-4.6-2.16-6.04c-1.44-1.44-3.45-2.16-6.04-2.16h-3.24v16.33h3.24c2.59,0,4.6-.71,6.04-2.12Z" fill="#fff" stroke-width="0"/><path d="M251.57,250.66v28.09h-6.84v-28.09h6.84Z" fill="#fff" stroke-width="0"/><path d="M276.73,250.66v5.48h-7.44v22.61h-6.84v-22.61h-7.44v-5.48h21.72Z" fill="#fff" stroke-width="0"/><path d="M287.01,250.66v28.09h-6.84v-28.09h6.84Z" fill="#fff" stroke-width="0"/><path d="M297.99,277.2c-2.2-1.23-3.95-2.94-5.24-5.14-1.29-2.2-1.94-4.68-1.94-7.42s.65-5.22,1.94-7.4c1.29-2.19,3.04-3.9,5.24-5.12,2.2-1.23,4.62-1.84,7.26-1.84s5.06.61,7.26,1.84c2.2,1.23,3.93,2.94,5.2,5.12s1.9,4.66,1.9,7.4-.64,5.22-1.92,7.42-3.01,3.92-5.2,5.14-4.6,1.84-7.24,1.84-5.06-.61-7.26-1.84ZM310.63,270.55c1.35-1.49,2.02-3.47,2.02-5.92s-.67-4.46-2.02-5.94c-1.35-1.48-3.14-2.22-5.38-2.22s-4.07.73-5.42,2.2c-1.35,1.47-2.02,3.46-2.02,5.96s.67,4.46,2.02,5.94c1.35,1.48,3.15,2.22,5.42,2.22s4.03-.75,5.38-2.24Z" fill="#fff" stroke-width="0"/><path d="M348.53,278.76h-6.84l-11.44-17.33v17.33h-6.84v-28.09h6.84l11.44,17.41v-17.41h6.84v28.09Z" fill="#fff" stroke-width="0"/><path d="M351.64,252.09v-3.71h6.46v17.04h-4.15v-13.33h-2.31Z" fill="#fff" stroke-width="0"/><path d="M365.52,261.73l-2.59,6.7h-2.54l1.35-6.7h3.78Z" fill="#fff" stroke-width="0"/><path d="M373.97,262.27c.82,0,1.41-.37,1.75-1.1.34-.73.51-1.92.51-3.57-.34.48-.81.86-1.4,1.12-.59.27-1.25.4-1.98.4-1,0-1.88-.21-2.66-.62-.78-.41-1.39-1.03-1.83-1.84s-.67-1.81-.67-2.98.24-2.16.71-3.01c.47-.86,1.15-1.52,2.03-1.98.88-.47,1.92-.7,3.11-.7,2.3,0,3.91.72,4.83,2.15s1.38,3.54,1.38,6.33c0,2.02-.18,3.69-.55,5.01-.37,1.32-.98,2.32-1.84,3s-2.04,1.03-3.54,1.03c-1.18,0-2.19-.23-3.02-.7-.83-.47-1.47-1.08-1.91-1.84s-.7-1.6-.76-2.52h3.69c.23,1.23.95,1.84,2.15,1.84ZM375.32,255.37c.39-.4.58-.94.58-1.62,0-.75-.2-1.32-.61-1.73s-.95-.61-1.63-.61-1.23.21-1.62.62-.59.98-.59,1.69c0,.67.2,1.21.59,1.62.4.41.97.62,1.71.62.65,0,1.17-.2,1.56-.6Z" fill="#fff" stroke-width="0"/></svg>