<?xml version="1.0" encoding="UTF-8"?><svg id="a" xmlns="http://www.w3.org/2000/svg" width="502" height="193" viewBox="0 0 502 193"><path id="b" d="M0,193c0-5.11,112.38-9.25,251-9.25s251,4.14,251,9.25" fill="#e9b73f" stroke-width="0"/><path id="c" d="M502,0c0,5.11-112.38,9.25-251,9.25S0,5.11,0,0" fill="#e9b73f" stroke-width="0"/><path d="M153.68,41.27v41.98h-10.26v-25.18l-9.42,25.18h-8.28l-9.48-25.24v25.24h-10.26v-41.98h12.12l11.82,29.07,11.7-29.07h12.06Z" fill="#29aae1" stroke-width="0"/><path d="M187.28,75.84h-15.72l-2.52,7.42h-10.74l15.24-41.98h11.88l15.24,41.98h-10.86l-2.52-7.42ZM184.64,67.94l-5.22-15.37-5.16,15.37h10.38Z" fill="#29aae1" stroke-width="0"/><path d="M241.4,41.27l-14.58,28.11v13.87h-10.26v-13.87l-14.58-28.11h11.64l8.16,17.58,8.1-17.58h11.52Z" fill="#29aae1" stroke-width="0"/><path d="M268.52,75.36h13.44v7.89h-23.7v-41.98h10.26v34.09Z" fill="#29aae1" stroke-width="0"/><path d="M313.1,75.84h-15.72l-2.52,7.42h-10.74l15.24-41.98h11.88l15.24,41.98h-10.86l-2.52-7.42ZM310.46,67.94l-5.22-15.37-5.16,15.37h10.38Z" fill="#29aae1" stroke-width="0"/><path d="M338.06,82.18c-2.44-1-4.39-2.47-5.85-4.43-1.46-1.95-2.23-4.31-2.31-7.06h10.92c.16,1.55.7,2.74,1.62,3.56.92.82,2.12,1.23,3.6,1.23s2.72-.35,3.6-1.05,1.32-1.66,1.32-2.9c0-1.04-.35-1.89-1.05-2.57-.7-.68-1.56-1.24-2.58-1.67-1.02-.44-2.47-.94-4.35-1.5-2.72-.84-4.94-1.68-6.66-2.51-1.72-.84-3.2-2.07-4.44-3.71-1.24-1.63-1.86-3.77-1.86-6.4,0-3.91,1.42-6.97,4.26-9.18,2.84-2.21,6.54-3.32,11.1-3.32s8.38,1.11,11.22,3.32c2.84,2.21,4.36,5.29,4.56,9.24h-11.1c-.08-1.35-.58-2.42-1.5-3.2-.92-.78-2.1-1.17-3.54-1.17-1.24,0-2.24.33-3,.99-.76.66-1.14,1.61-1.14,2.84,0,1.36.64,2.41,1.92,3.17,1.28.76,3.28,1.58,6,2.45,2.72.92,4.93,1.79,6.63,2.63s3.17,2.05,4.41,3.65c1.24,1.59,1.86,3.65,1.86,6.16s-.61,4.57-1.83,6.52c-1.22,1.95-2.99,3.51-5.31,4.66-2.32,1.16-5.06,1.73-8.22,1.73s-5.84-.5-8.28-1.5Z" fill="#29aae1" stroke-width="0"/><path d="M398.3,41.27v8.19h-11.16v33.79h-10.26v-33.79h-11.16v-8.19h32.58Z" fill="#29aae1" stroke-width="0"/><path d="M133.73,111.04v8.19h-17.16v8.85h12.84v7.95h-12.84v16.98h-10.26v-41.98h27.42Z" fill="#29aae1" stroke-width="0"/><path d="M148.16,150.69c-3.3-1.83-5.92-4.4-7.86-7.68-1.94-3.29-2.91-6.99-2.91-11.09s.97-7.79,2.91-11.06c1.94-3.27,4.56-5.82,7.86-7.65s6.93-2.75,10.89-2.75,7.59.92,10.89,2.75c3.3,1.83,5.9,4.39,7.8,7.65,1.9,3.27,2.85,6.96,2.85,11.06s-.96,7.8-2.88,11.09c-1.92,3.29-4.52,5.85-7.8,7.68-3.28,1.83-6.9,2.75-10.86,2.75s-7.59-.92-10.89-2.75ZM167.12,140.77c2.02-2.23,3.03-5.18,3.03-8.85s-1.01-6.67-3.03-8.88c-2.02-2.21-4.71-3.32-8.07-3.32s-6.11,1.1-8.13,3.29c-2.02,2.19-3.03,5.16-3.03,8.91s1.01,6.67,3.03,8.88c2.02,2.21,4.73,3.32,8.13,3.32s6.05-1.12,8.07-3.35Z" fill="#29aae1" stroke-width="0"/><path d="M207.77,153.03l-8.76-15.85h-2.46v15.85h-10.26v-41.98h17.22c3.32,0,6.15.58,8.49,1.73,2.34,1.16,4.09,2.74,5.25,4.75,1.16,2.01,1.74,4.26,1.74,6.73,0,2.79-.79,5.28-2.37,7.48-1.58,2.19-3.91,3.75-6.99,4.67l9.72,16.63h-11.58ZM196.55,129.94h6.36c1.88,0,3.29-.46,4.23-1.38.94-.92,1.41-2.21,1.41-3.89s-.47-2.85-1.41-3.77c-.94-.92-2.35-1.38-4.23-1.38h-6.36v10.41Z" fill="#29aae1" stroke-width="0"/><path d="M265.55,113.67c3.32,1.76,5.89,4.22,7.71,7.39,1.82,3.17,2.73,6.83,2.73,10.98s-.91,7.76-2.73,10.94c-1.82,3.19-4.4,5.66-7.74,7.42-3.34,1.76-7.21,2.63-11.61,2.63h-15.78v-41.98h15.78c4.44,0,8.32.88,11.64,2.63ZM262.31,141.01c2.16-2.11,3.24-5.1,3.24-8.97s-1.08-6.88-3.24-9.03-5.18-3.23-9.06-3.23h-4.86v24.4h4.86c3.88,0,6.9-1.06,9.06-3.17Z" fill="#29aae1" stroke-width="0"/><path d="M307.97,145.61h-15.72l-2.52,7.42h-10.74l15.24-41.98h11.88l15.24,41.98h-10.86l-2.52-7.42ZM305.33,137.72l-5.22-15.37-5.16,15.37h10.38Z" fill="#29aae1" stroke-width="0"/><path d="M362.09,111.04l-14.58,28.11v13.87h-10.26v-13.87l-14.58-28.11h11.64l8.16,17.58,8.1-17.58h11.52Z" fill="#29aae1" stroke-width="0"/><path d="M373.19,151.95c-2.44-1-4.39-2.47-5.85-4.43-1.46-1.95-2.23-4.31-2.31-7.06h10.92c.16,1.55.7,2.74,1.62,3.56.92.82,2.12,1.23,3.6,1.23s2.72-.35,3.6-1.05c.88-.7,1.32-1.66,1.32-2.9,0-1.04-.35-1.89-1.05-2.57-.7-.68-1.56-1.24-2.58-1.67-1.02-.44-2.47-.94-4.35-1.5-2.72-.84-4.94-1.68-6.66-2.51s-3.2-2.07-4.44-3.71c-1.24-1.63-1.86-3.77-1.86-6.4,0-3.91,1.42-6.97,4.26-9.18,2.84-2.21,6.54-3.32,11.1-3.32s8.38,1.11,11.22,3.32c2.84,2.21,4.36,5.29,4.56,9.24h-11.1c-.08-1.35-.58-2.42-1.5-3.2-.92-.78-2.1-1.17-3.54-1.17-1.24,0-2.24.33-3,.99s-1.14,1.61-1.14,2.84c0,1.36.64,2.41,1.92,3.17,1.28.76,3.28,1.58,6,2.45,2.72.92,4.93,1.79,6.63,2.63,1.7.84,3.17,2.05,4.41,3.65,1.24,1.59,1.86,3.65,1.86,6.16s-.61,4.57-1.83,6.52c-1.22,1.95-2.99,3.51-5.31,4.66-2.32,1.16-5.06,1.73-8.22,1.73s-5.84-.5-8.28-1.5Z" fill="#29aae1" stroke-width="0"/></svg>