<?xml version="1.0" encoding="UTF-8"?><svg id="a" xmlns="http://www.w3.org/2000/svg" width="434" height="153" viewBox="0 0 434 153"><path d="M27.84,38.58v24.48h-5.99v-14.68l-5.5,14.68h-4.83l-5.53-14.71v14.71H0v-24.48h7.07l6.9,16.95,6.83-16.95h7.04Z" fill="#fff" stroke-width="0"/><path d="M47.45,58.73h-9.18l-1.47,4.32h-6.27l8.9-24.48h6.93l8.9,24.48h-6.34l-1.47-4.32ZM45.91,54.13l-3.05-8.96-3.01,8.96h6.06Z" fill="#fff" stroke-width="0"/><path d="M79.04,38.58l-8.51,16.39v8.09h-5.99v-8.09l-8.51-16.39h6.79l4.76,10.25,4.73-10.25h6.72Z" fill="#fff" stroke-width="0"/><path d="M104.88,38.58v4.78h-10.02v5.16h7.49v4.64h-7.49v9.9h-5.99v-24.48h16Z" fill="#fff" stroke-width="0"/><path d="M113.31,61.69c-1.93-1.07-3.46-2.56-4.59-4.48-1.13-1.92-1.7-4.07-1.7-6.47s.57-4.54,1.7-6.45c1.13-1.91,2.66-3.39,4.59-4.46s4.04-1.6,6.36-1.6,4.43.54,6.36,1.6c1.93,1.07,3.44,2.56,4.55,4.46,1.11,1.91,1.66,4.06,1.66,6.45s-.56,4.55-1.68,6.47c-1.12,1.92-2.64,3.41-4.55,4.48-1.91,1.07-4.03,1.6-6.34,1.6s-4.43-.53-6.36-1.6ZM124.37,55.9c1.18-1.3,1.77-3.02,1.77-5.16s-.59-3.89-1.77-5.18c-1.18-1.29-2.75-1.93-4.71-1.93s-3.57.64-4.75,1.92c-1.18,1.28-1.77,3.01-1.77,5.19s.59,3.89,1.77,5.18,2.76,1.93,4.75,1.93,3.53-.65,4.71-1.95Z" fill="#fff" stroke-width="0"/><path d="M148.1,63.05l-5.11-9.24h-1.44v9.24h-5.99v-24.48h10.05c1.94,0,3.59.34,4.96,1.01,1.37.67,2.39,1.6,3.06,2.77.68,1.17,1.02,2.48,1.02,3.92,0,1.63-.46,3.08-1.38,4.36s-2.28,2.18-4.08,2.72l5.67,9.69h-6.76ZM141.55,49.59h3.71c1.1,0,1.92-.27,2.47-.8.55-.53.82-1.29.82-2.27s-.27-1.66-.82-2.2c-.55-.53-1.37-.8-2.47-.8h-3.71v6.07Z" fill="#fff" stroke-width="0"/><path d="M158.96,44.31c1.05-1.89,2.52-3.37,4.4-4.43,1.88-1.06,4.01-1.59,6.39-1.59,2.92,0,5.42.77,7.49,2.3,2.08,1.53,3.47,3.63,4.17,6.28h-6.58c-.49-1.02-1.19-1.8-2.08-2.34-.9-.53-1.92-.8-3.06-.8-1.84,0-3.34.64-4.48,1.92-1.14,1.28-1.72,2.99-1.72,5.12s.57,3.85,1.72,5.13c1.14,1.28,2.64,1.92,4.48,1.92,1.14,0,2.17-.27,3.06-.8.9-.54,1.59-1.31,2.08-2.34h6.58c-.7,2.65-2.09,4.74-4.17,6.26-2.08,1.52-4.58,2.28-7.49,2.28-2.38,0-4.51-.53-6.39-1.59-1.88-1.06-3.34-2.53-4.4-4.41-1.05-1.88-1.58-4.03-1.58-6.45s.53-4.57,1.58-6.47Z" fill="#fff" stroke-width="0"/><path d="M191.07,38.58v24.48h-5.99v-24.48h5.99Z" fill="#fff" stroke-width="0"/><path d="M217.4,63.05h-5.99l-10.02-15.1v15.1h-5.99v-24.48h5.99l10.02,15.17v-15.17h5.99v24.48Z" fill="#fff" stroke-width="0"/><path d="M238.07,46.32c-.44-.81-1.08-1.43-1.91-1.87-.83-.43-1.8-.64-2.92-.64-1.94,0-3.49.63-4.66,1.9-1.17,1.27-1.75,2.96-1.75,5.07,0,2.26.61,4.02,1.84,5.28,1.23,1.27,2.91,1.9,5.06,1.9,1.47,0,2.71-.37,3.73-1.12,1.02-.74,1.76-1.81,2.22-3.21h-7.6v-4.39h13.03v5.54c-.44,1.49-1.2,2.87-2.26,4.15-1.06,1.28-2.41,2.31-4.04,3.1s-3.48,1.18-5.53,1.18c-2.43,0-4.59-.53-6.5-1.59-1.9-1.06-3.39-2.53-4.45-4.41-1.06-1.88-1.59-4.03-1.59-6.45s.53-4.57,1.59-6.47c1.06-1.89,2.54-3.37,4.43-4.43,1.89-1.06,4.05-1.59,6.48-1.59,2.94,0,5.42.71,7.44,2.13,2.02,1.42,3.36,3.38,4.01,5.89h-6.62Z" fill="#fff" stroke-width="0"/><path d="M273.61,50.34c-.65,1.17-1.66,2.12-3.01,2.84-1.35.72-3.03,1.08-5.04,1.08h-3.71v8.79h-5.99v-24.48h9.7c1.96,0,3.62.34,4.97,1.01,1.35.67,2.37,1.6,3.05,2.79.68,1.18,1.02,2.54,1.02,4.08,0,1.42-.33,2.71-.98,3.89ZM267.66,48.72c.56-.54.84-1.29.84-2.27s-.28-1.73-.84-2.27c-.56-.54-1.41-.8-2.56-.8h-3.26v6.14h3.26c1.14,0,2-.27,2.56-.8Z" fill="#fff" stroke-width="0"/><path d="M283.7,43.35v4.95h8.02v4.6h-8.02v5.37h9.07v4.78h-15.06v-24.48h15.06v4.78h-9.07Z" fill="#fff" stroke-width="0"/><path d="M301.92,61.69c-1.93-1.07-3.46-2.56-4.59-4.48-1.13-1.92-1.7-4.07-1.7-6.47s.57-4.54,1.7-6.45c1.13-1.91,2.66-3.39,4.59-4.46s4.04-1.6,6.36-1.6,4.43.54,6.36,1.6c1.93,1.07,3.44,2.56,4.55,4.46,1.11,1.91,1.66,4.06,1.66,6.45s-.56,4.55-1.68,6.47c-1.12,1.92-2.64,3.41-4.55,4.48-1.91,1.07-4.03,1.6-6.34,1.6s-4.43-.53-6.36-1.6ZM312.99,55.9c1.18-1.3,1.77-3.02,1.77-5.16s-.59-3.89-1.77-5.18c-1.18-1.29-2.75-1.93-4.71-1.93s-3.57.64-4.75,1.92c-1.18,1.28-1.77,3.01-1.77,5.19s.59,3.89,1.77,5.18,2.76,1.93,4.75,1.93,3.53-.65,4.71-1.95Z" fill="#fff" stroke-width="0"/><path d="M341.93,50.34c-.65,1.17-1.66,2.12-3.01,2.84-1.35.72-3.03,1.08-5.04,1.08h-3.71v8.79h-5.99v-24.48h9.7c1.96,0,3.62.34,4.97,1.01,1.35.67,2.37,1.6,3.05,2.79.68,1.18,1.02,2.54,1.02,4.08,0,1.42-.33,2.71-.98,3.89ZM335.98,48.72c.56-.54.84-1.29.84-2.27s-.28-1.73-.84-2.27c-.56-.54-1.41-.8-2.56-.8h-3.26v6.14h3.26c1.14,0,2-.27,2.56-.8Z" fill="#fff" stroke-width="0"/><path d="M352.02,58.45h7.84v4.6h-13.83v-24.48h5.99v19.87Z" fill="#fff" stroke-width="0"/><path d="M368.72,43.35v4.95h8.02v4.6h-8.02v5.37h9.07v4.78h-15.06v-24.48h15.06v4.78h-9.07Z" fill="#fff" stroke-width="0"/><path d="M406.79,38.58v4.78h-6.51v19.7h-5.99v-19.7h-6.51v-4.78h19.02Z" fill="#fff" stroke-width="0"/><path d="M415.07,61.69c-1.93-1.07-3.46-2.56-4.59-4.48-1.13-1.92-1.7-4.07-1.7-6.47s.57-4.54,1.7-6.45c1.13-1.91,2.66-3.39,4.59-4.46s4.04-1.6,6.36-1.6,4.43.54,6.36,1.6c1.93,1.07,3.44,2.56,4.55,4.46,1.11,1.91,1.66,4.06,1.66,6.45s-.56,4.55-1.68,6.47c-1.12,1.92-2.64,3.41-4.55,4.48-1.91,1.07-4.03,1.6-6.34,1.6s-4.43-.53-6.36-1.6ZM426.14,55.9c1.18-1.3,1.77-3.02,1.77-5.16s-.59-3.89-1.77-5.18c-1.18-1.29-2.75-1.93-4.71-1.93s-3.57.64-4.75,1.92c-1.18,1.28-1.77,3.01-1.77,5.19s.59,3.89,1.77,5.18,2.76,1.93,4.75,1.93,3.53-.65,4.71-1.95Z" fill="#fff" stroke-width="0"/><path d="M56.06,88.38v24.48h-5.99v-14.68l-5.5,14.68h-4.83l-5.53-14.71v14.71h-5.99v-24.48h7.07l6.9,16.95,6.83-16.95h7.04Z" fill="#fff" stroke-width="0"/><path d="M75.67,108.54h-9.18l-1.47,4.32h-6.27l8.9-24.48h6.93l8.9,24.48h-6.34l-1.47-4.32ZM74.13,103.93l-3.05-8.96-3.01,8.96h6.06Z" fill="#fff" stroke-width="0"/><path d="M100.43,112.86l-8.27-10.81v10.81h-5.99v-24.48h5.99v10.74l8.2-10.74h7.04l-9.53,11.99,9.88,12.48h-7.32Z" fill="#fff" stroke-width="0"/><path d="M116.57,93.16v4.95h8.02v4.6h-8.02v5.37h9.07v4.78h-15.06v-24.48h15.06v4.78h-9.07Z" fill="#fff" stroke-width="0"/><path d="M154.64,88.38v4.78h-6.51v19.7h-5.99v-19.7h-6.51v-4.78h19.02Z" fill="#fff" stroke-width="0"/><path d="M170.19,112.86l-5.11-9.24h-1.44v9.24h-5.99v-24.48h10.05c1.94,0,3.59.34,4.96,1.01,1.37.67,2.39,1.6,3.06,2.77.68,1.17,1.02,2.48,1.02,3.92,0,1.63-.46,3.08-1.38,4.36s-2.28,2.18-4.08,2.72l5.67,9.69h-6.76ZM163.64,99.4h3.71c1.1,0,1.92-.27,2.47-.8.55-.53.82-1.29.82-2.27s-.27-1.66-.82-2.2c-.55-.53-1.37-.8-2.47-.8h-3.71v6.07Z" fill="#fff" stroke-width="0"/><path d="M195.79,108.54h-9.18l-1.47,4.32h-6.27l8.9-24.48h6.93l8.9,24.48h-6.34l-1.47-4.32ZM194.25,103.93l-3.05-8.96-3.01,8.96h6.06Z" fill="#fff" stroke-width="0"/><path d="M222.3,89.92c1.94,1.02,3.44,2.46,4.5,4.31,1.06,1.85,1.59,3.98,1.59,6.4s-.53,4.52-1.59,6.38c-1.06,1.86-2.57,3.3-4.52,4.32-1.95,1.02-4.21,1.53-6.78,1.53h-9.21v-24.48h9.21c2.59,0,4.86.51,6.79,1.53ZM220.41,105.85c1.26-1.23,1.89-2.97,1.89-5.23s-.63-4.01-1.89-5.26c-1.26-1.25-3.02-1.88-5.29-1.88h-2.84v14.23h2.84c2.26,0,4.03-.62,5.29-1.85Z" fill="#fff" stroke-width="0"/><path d="M237.74,93.16v4.95h8.02v4.6h-8.02v5.37h9.07v4.78h-15.06v-24.48h15.06v4.78h-9.07Z" fill="#fff" stroke-width="0"/><path d="M265.76,98.15v4.95h-15.41v-4.95h15.41Z" fill="#fff" stroke-width="0"/><path d="M276.28,111.5c-1.93-1.07-3.46-2.56-4.59-4.48-1.13-1.92-1.7-4.07-1.7-6.47s.57-4.54,1.7-6.45c1.13-1.91,2.66-3.39,4.59-4.46s4.04-1.6,6.36-1.6,4.43.54,6.36,1.6c1.93,1.07,3.44,2.56,4.55,4.46,1.11,1.91,1.66,4.06,1.66,6.45s-.56,4.55-1.68,6.47c-1.12,1.92-2.64,3.41-4.55,4.48-1.91,1.07-4.03,1.6-6.34,1.6s-4.43-.53-6.36-1.6ZM287.35,105.71c1.18-1.3,1.77-3.02,1.77-5.16s-.59-3.89-1.77-5.18c-1.18-1.29-2.75-1.93-4.71-1.93s-3.57.64-4.75,1.92c-1.18,1.28-1.77,3.01-1.77,5.19s.59,3.89,1.77,5.18,2.76,1.93,4.75,1.93,3.53-.65,4.71-1.95Z" fill="#fff" stroke-width="0"/><path d="M314.54,88.38v4.78h-10.02v5.16h7.49v4.64h-7.49v9.9h-5.99v-24.48h16Z" fill="#fff" stroke-width="0"/><path d="M333.7,88.38v4.78h-10.02v5.16h7.49v4.64h-7.49v9.9h-5.99v-24.48h16Z" fill="#fff" stroke-width="0"/><path d="M340.91,112.23c-1.42-.58-2.56-1.44-3.41-2.58-.85-1.14-1.3-2.51-1.35-4.11h6.37c.09.91.41,1.6.95,2.07.54.48,1.24.72,2.1.72s1.59-.2,2.1-.61.77-.97.77-1.69c0-.6-.2-1.1-.61-1.5-.41-.39-.91-.72-1.51-.98-.6-.26-1.44-.55-2.54-.87-1.59-.49-2.88-.98-3.89-1.47-1-.49-1.87-1.21-2.59-2.16-.72-.95-1.09-2.2-1.09-3.73,0-2.28.83-4.06,2.49-5.35s3.82-1.93,6.48-1.93,4.89.64,6.55,1.93,2.54,3.09,2.66,5.39h-6.48c-.05-.79-.34-1.41-.88-1.86-.54-.45-1.23-.68-2.07-.68-.72,0-1.31.19-1.75.57-.44.38-.67.94-.67,1.66,0,.79.37,1.41,1.12,1.85.75.44,1.91.92,3.5,1.43,1.59.54,2.88,1.05,3.87,1.53.99.49,1.85,1.2,2.57,2.13.72.93,1.09,2.13,1.09,3.59s-.36,2.66-1.07,3.8c-.71,1.14-1.75,2.05-3.1,2.72-1.35.67-2.95,1.01-4.8,1.01s-3.41-.29-4.83-.87Z" fill="#fff" stroke-width="0"/><path d="M371.57,88.98c1.51,1.3,2.26,3.14,2.26,5.51,0,2.18-.72,3.89-2.15,5.11-1.44,1.22-3.33,1.84-5.69,1.86l-.18,2.61h-5.25l-.17-6.48h2.1c1.8,0,3.17-.22,4.11-.66.95-.44,1.42-1.24,1.42-2.41,0-.81-.22-1.45-.67-1.92-.44-.47-1.06-.7-1.86-.7-.84,0-1.49.24-1.96.72-.47.48-.7,1.12-.7,1.93h-5.64c-.05-1.42.25-2.7.89-3.83.64-1.14,1.6-2.04,2.87-2.7,1.27-.66,2.81-.99,4.61-.99,2.5,0,4.5.65,6.01,1.95ZM360.68,112.22c-.67-.62-1-1.38-1-2.28s.33-1.71,1-2.34,1.52-.94,2.57-.94,1.87.31,2.54.94c.67.63,1,1.41,1,2.34s-.33,1.67-1,2.28c-.66.62-1.51.92-2.54.92s-1.91-.31-2.57-.92Z" fill="#fff" stroke-width="0"/><path d="M375.6,89.63v-3.23h5.66v14.85h-3.64v-11.61h-2.02Z" fill="#fff" stroke-width="0"/><path d="M392.78,92.66v2.89h-8.99v-2.89h8.99Z" fill="#fff" stroke-width="0"/><path d="M397.05,87.23c.9-.79,2.12-1.18,3.66-1.18,1.02,0,1.9.18,2.62.53s1.28.83,1.65,1.44.56,1.29.56,2.05c0,.89-.22,1.62-.67,2.19-.45.56-.97.95-1.57,1.15v.08c.78.26,1.39.68,1.84,1.28s.67,1.36.67,2.3c0,.84-.19,1.58-.58,2.23-.39.64-.95,1.15-1.7,1.52-.74.37-1.62.55-2.65.55-1.63,0-2.94-.4-3.91-1.2-.97-.8-1.49-2.01-1.54-3.62h3.39c.01.6.18,1.07.51,1.41.33.35.8.52,1.43.52.53,0,.94-.15,1.24-.46.29-.3.44-.71.44-1.21,0-.65-.21-1.12-.62-1.41-.42-.29-1.08-.44-1.99-.44h-.65v-2.83h.65c.69,0,1.26-.12,1.69-.36.43-.24.64-.66.64-1.27,0-.49-.14-.87-.41-1.14-.27-.27-.65-.41-1.12-.41-.52,0-.9.16-1.15.47-.25.31-.4.7-.44,1.16h-3.41c.05-1.45.53-2.57,1.43-3.36Z" fill="#fff" stroke-width="0"/><path id="b" d="M29.6,0c0,3.85,84.65,6.96,189.06,6.96S407.72,3.85,407.72,0" fill="#29aae1" stroke-width="0"/><path id="c" d="M26.28,153c0-3.85,84.65-6.96,189.06-6.96s189.06,3.12,189.06,6.96" fill="#29aae1" stroke-width="0"/></svg>