<?xml version="1.0" encoding="UTF-8"?><svg id="a" xmlns="http://www.w3.org/2000/svg" width="502" height="185" viewBox="0 0 502 185"><path d="M162.95,60.92c-1.12,2.02-2.84,3.64-5.16,4.88-2.32,1.24-5.2,1.86-8.64,1.86h-6.36v15.08h-10.26v-42.02h16.62c3.36,0,6.2.58,8.52,1.74,2.32,1.16,4.06,2.75,5.22,4.79,1.16,2.04,1.74,4.37,1.74,7,0,2.43-.56,4.66-1.68,6.67ZM152.75,58.14c.96-.92,1.44-2.21,1.44-3.89s-.48-2.97-1.44-3.89c-.96-.92-2.42-1.38-4.38-1.38h-5.58v10.53h5.58c1.96,0,3.42-.46,4.38-1.38Z" fill="#a5221a" stroke-width="0"/><path d="M180.23,74.84h13.44v7.9h-23.7v-42.02h10.26v34.12Z" fill="#a5221a" stroke-width="0"/><path d="M224.81,75.32h-15.72l-2.52,7.42h-10.74l15.24-42.02h11.88l15.24,42.02h-10.86l-2.52-7.42ZM222.17,67.42l-5.22-15.38-5.16,15.38h10.38Z" fill="#a5221a" stroke-width="0"/><path d="M278.93,40.72l-14.58,28.13v13.89h-10.26v-13.89l-14.58-28.13h11.64l8.16,17.6,8.1-17.6h11.52Z" fill="#a5221a" stroke-width="0"/><path d="M290.03,81.66c-2.44-1-4.39-2.47-5.85-4.43-1.46-1.96-2.23-4.31-2.31-7.06h10.92c.16,1.56.7,2.74,1.62,3.56.92.82,2.12,1.23,3.6,1.23s2.72-.35,3.6-1.05,1.32-1.67,1.32-2.9c0-1.04-.35-1.89-1.05-2.57-.7-.68-1.56-1.24-2.58-1.68-1.02-.44-2.47-.94-4.35-1.5-2.72-.84-4.94-1.68-6.66-2.51-1.72-.84-3.2-2.07-4.44-3.71-1.24-1.64-1.86-3.77-1.86-6.4,0-3.91,1.42-6.97,4.26-9.19,2.84-2.22,6.54-3.32,11.1-3.32s8.38,1.11,11.22,3.32c2.84,2.21,4.36,5.3,4.56,9.25h-11.1c-.08-1.36-.58-2.42-1.5-3.2-.92-.78-2.1-1.17-3.54-1.17-1.24,0-2.24.33-3,.99-.76.66-1.14,1.61-1.14,2.84,0,1.36.64,2.42,1.92,3.17,1.28.76,3.28,1.58,6,2.46,2.72.92,4.93,1.8,6.63,2.63s3.17,2.06,4.41,3.65c1.24,1.6,1.86,3.65,1.86,6.16s-.61,4.57-1.83,6.52c-1.22,1.96-2.99,3.51-5.31,4.67-2.32,1.16-5.06,1.74-8.22,1.74s-5.84-.5-8.28-1.5Z" fill="#a5221a" stroke-width="0"/><path d="M358.91,75.32h-15.72l-2.52,7.42h-10.74l15.24-42.02h11.88l15.24,42.02h-10.86l-2.52-7.42ZM356.27,67.42l-5.22-15.38-5.16,15.38h10.38Z" fill="#a5221a" stroke-width="0"/><path d="M38.51,110.42c1.8-3.25,4.31-5.79,7.53-7.6,3.22-1.81,6.87-2.72,10.95-2.72,5,0,9.28,1.32,12.84,3.95,3.56,2.63,5.94,6.22,7.14,10.77h-11.28c-.84-1.76-2.03-3.09-3.57-4.01-1.54-.92-3.29-1.38-5.25-1.38-3.16,0-5.72,1.1-7.68,3.29-1.96,2.2-2.94,5.13-2.94,8.8s.98,6.61,2.94,8.8c1.96,2.19,4.52,3.29,7.68,3.29,1.96,0,3.71-.46,5.25-1.38,1.54-.92,2.73-2.25,3.57-4.01h11.28c-1.2,4.55-3.58,8.13-7.14,10.74-3.56,2.61-7.84,3.92-12.84,3.92-4.08,0-7.73-.91-10.95-2.72-3.22-1.82-5.73-4.34-7.53-7.57-1.8-3.23-2.7-6.92-2.7-11.07s.9-7.85,2.7-11.1Z" fill="#a5221a" stroke-width="0"/><path d="M104.75,142.6l-8.76-15.86h-2.46v15.86h-10.26v-42.02h17.22c3.32,0,6.15.58,8.49,1.74,2.34,1.16,4.09,2.74,5.25,4.76,1.16,2.02,1.74,4.26,1.74,6.73,0,2.79-.79,5.29-2.37,7.48-1.58,2.19-3.91,3.75-6.99,4.67l9.72,16.64h-11.58ZM93.53,119.49h6.36c1.88,0,3.29-.46,4.23-1.38.94-.92,1.41-2.21,1.41-3.89s-.47-2.85-1.41-3.77c-.94-.92-2.35-1.38-4.23-1.38h-6.36v10.41Z" fill="#a5221a" stroke-width="0"/><path d="M132.65,100.58v42.02h-10.26v-42.02h10.26Z" fill="#a5221a" stroke-width="0"/><path d="M170.39,100.58v8.2h-11.16v33.82h-10.26v-33.82h-11.16v-8.2h32.58Z" fill="#a5221a" stroke-width="0"/><path d="M185.81,100.58v42.02h-10.26v-42.02h10.26Z" fill="#a5221a" stroke-width="0"/><path d="M194.21,110.42c1.8-3.25,4.31-5.79,7.53-7.6,3.22-1.81,6.87-2.72,10.95-2.72,5,0,9.28,1.32,12.84,3.95,3.56,2.63,5.94,6.22,7.14,10.77h-11.28c-.84-1.76-2.03-3.09-3.57-4.01-1.54-.92-3.29-1.38-5.25-1.38-3.16,0-5.72,1.1-7.68,3.29-1.96,2.2-2.94,5.13-2.94,8.8s.98,6.61,2.94,8.8c1.96,2.19,4.52,3.29,7.68,3.29,1.96,0,3.71-.46,5.25-1.38,1.54-.92,2.73-2.25,3.57-4.01h11.28c-1.2,4.55-3.58,8.13-7.14,10.74-3.56,2.61-7.84,3.92-12.84,3.92-4.08,0-7.73-.91-10.95-2.72-3.22-1.82-5.73-4.34-7.53-7.57-1.8-3.23-2.7-6.92-2.7-11.07s.9-7.85,2.7-11.1Z" fill="#a5221a" stroke-width="0"/><path d="M265.19,135.17h-15.72l-2.52,7.42h-10.74l15.24-42.02h11.88l15.24,42.02h-10.86l-2.52-7.42ZM262.55,127.27l-5.22-15.38-5.16,15.38h10.38Z" fill="#a5221a" stroke-width="0"/><path d="M293.45,134.7h13.44v7.9h-23.7v-42.02h10.26v34.12Z" fill="#a5221a" stroke-width="0"/><path d="M346.01,142.6l-8.76-15.86h-2.46v15.86h-10.26v-42.02h17.22c3.32,0,6.15.58,8.49,1.74s4.09,2.74,5.25,4.76c1.16,2.02,1.74,4.26,1.74,6.73,0,2.79-.79,5.29-2.37,7.48-1.58,2.19-3.91,3.75-6.99,4.67l9.72,16.64h-11.58ZM334.79,119.49h6.36c1.88,0,3.29-.46,4.23-1.38.94-.92,1.41-2.21,1.41-3.89s-.47-2.85-1.41-3.77-2.35-1.38-4.23-1.38h-6.36v10.41Z" fill="#a5221a" stroke-width="0"/><path d="M372.68,140.26c-3.3-1.84-5.92-4.4-7.86-7.69-1.94-3.29-2.91-6.99-2.91-11.1s.97-7.8,2.91-11.07c1.94-3.27,4.56-5.83,7.86-7.66s6.93-2.75,10.89-2.75,7.59.92,10.89,2.75,5.9,4.39,7.8,7.66c1.9,3.27,2.85,6.96,2.85,11.07s-.96,7.81-2.88,11.1c-1.92,3.29-4.52,5.86-7.8,7.69-3.28,1.84-6.9,2.75-10.86,2.75s-7.59-.92-10.89-2.75ZM391.64,130.33c2.02-2.23,3.03-5.19,3.03-8.86s-1.01-6.67-3.03-8.89c-2.02-2.21-4.71-3.32-8.07-3.32s-6.11,1.1-8.13,3.29c-2.02,2.19-3.03,5.17-3.03,8.92s1.01,6.67,3.03,8.89c2.02,2.21,4.73,3.32,8.13,3.32s6.05-1.12,8.07-3.35Z" fill="#a5221a" stroke-width="0"/><path d="M421.07,134.7h13.44v7.9h-23.7v-42.02h10.26v34.12Z" fill="#a5221a" stroke-width="0"/><path d="M449.69,108.78v8.5h13.74v7.9h-13.74v9.22h15.54v8.2h-25.8v-42.02h25.8v8.2h-15.54Z" fill="#a5221a" stroke-width="0"/><path id="b" d="M0,185c0-5.44,112.38-9.85,251-9.85s251,4.41,251,9.85" fill="#29aae1" stroke-width="0"/><path id="c" d="M0,0c0,5.44,112.38,9.85,251,9.85S502,5.44,502,0" fill="#29aae1" stroke-width="0"/></svg>