<?xml version="1.0" encoding="UTF-8"?><svg id="a" xmlns="http://www.w3.org/2000/svg" width="500" height="150" viewBox="0 0 500 150"><path id="b" d="M0,0c0,5.12,111.93,9.27,250,9.27S500,5.12,500,0" fill="#29aae1" stroke-width="0"/><path id="c" d="M0,150c0-5.12,111.93-9.27,250-9.27s250,4.15,250,9.27" fill="#29aae1" stroke-width="0"/><path d="M93.2,39.19c1.94,1.03,3.44,2.48,4.5,4.34,1.06,1.86,1.59,4.01,1.59,6.44s-.53,4.55-1.59,6.43c-1.06,1.87-2.57,3.32-4.52,4.35-1.95,1.03-4.21,1.55-6.78,1.55h-9.21v-24.65h9.21c2.59,0,4.86.52,6.8,1.55ZM91.31,55.24c1.26-1.24,1.89-3,1.89-5.27s-.63-4.04-1.89-5.3c-1.26-1.26-3.02-1.9-5.29-1.9h-2.84v14.33h2.84c2.26,0,4.03-.62,5.29-1.86Z" fill="#fff" stroke-width="0"/><path d="M108.65,37.64v24.65h-5.99v-24.65h5.99Z" fill="#fff" stroke-width="0"/><path d="M117.06,61.66c-1.42-.58-2.56-1.45-3.42-2.6-.85-1.15-1.3-2.53-1.35-4.14h6.37c.09.91.41,1.61.95,2.09.54.48,1.24.72,2.1.72s1.59-.2,2.1-.61.77-.98.77-1.7c0-.61-.2-1.11-.61-1.51-.41-.4-.91-.73-1.51-.98-.6-.26-1.44-.55-2.54-.88-1.59-.49-2.88-.98-3.89-1.48-1-.49-1.87-1.22-2.59-2.18-.72-.96-1.09-2.21-1.09-3.76,0-2.29.83-4.09,2.49-5.39s3.82-1.95,6.48-1.95,4.89.65,6.55,1.95,2.54,3.11,2.66,5.43h-6.48c-.05-.8-.34-1.42-.88-1.88-.54-.46-1.23-.68-2.07-.68-.72,0-1.31.19-1.75.58-.44.39-.67.94-.67,1.67,0,.8.37,1.42,1.12,1.86.75.44,1.91.92,3.5,1.44,1.59.54,2.88,1.05,3.87,1.55.99.49,1.85,1.21,2.57,2.14.72.94,1.09,2.14,1.09,3.62s-.36,2.68-1.07,3.83c-.71,1.15-1.75,2.06-3.1,2.74-1.35.68-2.95,1.02-4.8,1.02s-3.41-.29-4.83-.88Z" fill="#fff" stroke-width="0"/><path d="M135.1,43.42c1.05-1.91,2.52-3.39,4.4-4.46,1.88-1.07,4.01-1.6,6.39-1.6,2.92,0,5.42.77,7.5,2.32,2.08,1.55,3.47,3.65,4.17,6.32h-6.59c-.49-1.03-1.19-1.81-2.08-2.35-.9-.54-1.92-.81-3.06-.81-1.84,0-3.34.64-4.48,1.93-1.14,1.29-1.72,3.01-1.72,5.16s.57,3.88,1.72,5.16c1.14,1.29,2.64,1.93,4.48,1.93,1.14,0,2.17-.27,3.06-.81.9-.54,1.59-1.32,2.08-2.35h6.59c-.7,2.67-2.09,4.77-4.17,6.3-2.08,1.53-4.58,2.3-7.5,2.3-2.38,0-4.51-.53-6.39-1.6-1.88-1.06-3.35-2.55-4.4-4.44-1.05-1.9-1.58-4.06-1.58-6.5s.53-4.61,1.58-6.51Z" fill="#fff" stroke-width="0"/><path d="M166.5,60.93c-1.93-1.08-3.46-2.58-4.59-4.51-1.13-1.93-1.7-4.1-1.7-6.51s.57-4.58,1.7-6.5c1.13-1.92,2.66-3.42,4.59-4.49s4.05-1.62,6.36-1.62,4.43.54,6.36,1.62c1.93,1.08,3.44,2.57,4.55,4.49,1.11,1.92,1.66,4.09,1.66,6.5s-.56,4.58-1.68,6.51c-1.12,1.93-2.64,3.44-4.55,4.51-1.92,1.08-4.03,1.62-6.34,1.62s-4.43-.54-6.36-1.62ZM177.57,55.1c1.18-1.31,1.77-3.04,1.77-5.2s-.59-3.92-1.77-5.21c-1.18-1.3-2.75-1.95-4.71-1.95s-3.57.64-4.75,1.93c-1.18,1.29-1.77,3.03-1.77,5.23s.59,3.92,1.77,5.22,2.76,1.95,4.75,1.95,3.53-.66,4.71-1.97Z" fill="#fff" stroke-width="0"/><path d="M211.84,37.64l-8.72,24.65h-7.5l-8.72-24.65h6.37l6.09,18.61,6.13-18.61h6.34Z" fill="#fff" stroke-width="0"/><path d="M220.32,42.45v4.99h8.02v4.64h-8.02v5.41h9.07v4.81h-15.06v-24.65h15.06v4.81h-9.07Z" fill="#fff" stroke-width="0"/><path d="M245.81,62.3l-5.11-9.31h-1.44v9.31h-5.99v-24.65h10.05c1.94,0,3.59.34,4.96,1.02,1.37.68,2.39,1.61,3.06,2.79.68,1.18,1.02,2.5,1.02,3.95,0,1.64-.46,3.1-1.38,4.39s-2.28,2.2-4.08,2.74l5.67,9.76h-6.76ZM239.26,48.74h3.71c1.1,0,1.92-.27,2.47-.81.55-.54.82-1.3.82-2.28s-.27-1.67-.82-2.21c-.55-.54-1.37-.81-2.47-.81h-3.71v6.11Z" fill="#fff" stroke-width="0"/><path d="M278.84,57.94h-9.18l-1.47,4.35h-6.27l8.9-24.65h6.93l8.9,24.65h-6.34l-1.47-4.35ZM277.3,53.31l-3.05-9.03-3.01,9.03h6.06Z" fill="#fff" stroke-width="0"/><path d="M330.61,37.64l-6.41,24.65h-7.25l-3.92-16.22-4.06,16.22h-7.25l-6.23-24.65h6.41l3.54,17.95,4.38-17.95h6.59l4.2,17.95,3.57-17.95h6.44Z" fill="#fff" stroke-width="0"/><path d="M338.9,60.93c-1.93-1.08-3.46-2.58-4.59-4.51-1.13-1.93-1.7-4.1-1.7-6.51s.57-4.58,1.7-6.5c1.13-1.92,2.66-3.42,4.59-4.49s4.05-1.62,6.36-1.62,4.43.54,6.36,1.62c1.93,1.08,3.44,2.57,4.55,4.49,1.11,1.92,1.66,4.09,1.66,6.5s-.56,4.58-1.68,6.51c-1.12,1.93-2.64,3.44-4.55,4.51-1.92,1.08-4.03,1.62-6.34,1.62s-4.43-.54-6.36-1.62ZM349.97,55.1c1.18-1.31,1.77-3.04,1.77-5.2s-.59-3.92-1.77-5.21c-1.18-1.3-2.75-1.95-4.71-1.95s-3.57.64-4.75,1.93c-1.18,1.29-1.77,3.03-1.77,5.23s.59,3.92,1.77,5.22,2.76,1.95,4.75,1.95,3.53-.66,4.71-1.97Z" fill="#fff" stroke-width="0"/><path d="M373.7,62.3l-5.11-9.31h-1.44v9.31h-5.99v-24.65h10.05c1.94,0,3.59.34,4.96,1.02,1.37.68,2.39,1.61,3.06,2.79.68,1.18,1.02,2.5,1.02,3.95,0,1.64-.46,3.1-1.38,4.39s-2.28,2.2-4.08,2.74l5.67,9.76h-6.76ZM367.15,48.74h3.71c1.1,0,1.92-.27,2.47-.81.55-.54.82-1.3.82-2.28s-.27-1.67-.82-2.21c-.55-.54-1.37-.81-2.47-.81h-3.71v6.11Z" fill="#fff" stroke-width="0"/><path d="M389.98,57.66h7.85v4.64h-13.84v-24.65h5.99v20.02Z" fill="#fff" stroke-width="0"/><path d="M416.71,39.19c1.94,1.03,3.44,2.48,4.5,4.34,1.06,1.86,1.59,4.01,1.59,6.44s-.53,4.55-1.59,6.43c-1.06,1.87-2.57,3.32-4.52,4.35-1.95,1.03-4.21,1.55-6.78,1.55h-9.21v-24.65h9.21c2.59,0,4.86.52,6.8,1.55ZM414.82,55.24c1.26-1.24,1.89-3,1.89-5.27s-.63-4.04-1.89-5.3c-1.26-1.26-3.02-1.9-5.29-1.9h-2.84v14.33h2.84c2.26,0,4.03-.62,5.29-1.86Z" fill="#fff" stroke-width="0"/><path d="M127.11,111.09c-1.93-1.08-3.46-2.58-4.59-4.51-1.13-1.93-1.7-4.1-1.7-6.51s.57-4.58,1.7-6.5c1.13-1.92,2.66-3.42,4.59-4.49s4.05-1.62,6.36-1.62,4.43.54,6.36,1.62c1.93,1.08,3.44,2.57,4.55,4.49,1.11,1.92,1.66,4.09,1.66,6.5s-.56,4.58-1.68,6.51c-1.12,1.93-2.64,3.44-4.55,4.51-1.92,1.08-4.03,1.62-6.34,1.62s-4.43-.54-6.36-1.62ZM138.18,105.26c1.18-1.31,1.77-3.04,1.77-5.2s-.59-3.92-1.77-5.21c-1.18-1.3-2.75-1.95-4.71-1.95s-3.57.64-4.75,1.93c-1.18,1.29-1.77,3.03-1.77,5.23s.59,3.92,1.77,5.22,2.76,1.95,4.75,1.95,3.53-.66,4.71-1.97Z" fill="#fff" stroke-width="0"/><path d="M165.38,87.81v4.81h-10.02v5.2h7.5v4.67h-7.5v9.97h-5.99v-24.65h16.01Z" fill="#fff" stroke-width="0"/><path d="M188.5,112.46l-5.11-9.31h-1.44v9.31h-5.99v-24.65h10.05c1.94,0,3.59.34,4.96,1.02,1.37.68,2.39,1.61,3.06,2.79.68,1.18,1.02,2.5,1.02,3.95,0,1.64-.46,3.1-1.38,4.39s-2.28,2.2-4.08,2.74l5.67,9.76h-6.76ZM181.94,98.91h3.71c1.1,0,1.92-.27,2.47-.81.55-.54.82-1.3.82-2.28s-.27-1.67-.82-2.21c-.55-.54-1.37-.81-2.47-.81h-3.71v6.11Z" fill="#fff" stroke-width="0"/><path d="M204.78,92.62v4.99h8.02v4.64h-8.02v5.41h9.07v4.81h-15.06v-24.65h15.06v4.81h-9.07Z" fill="#fff" stroke-width="0"/><path d="M221.8,111.83c-1.42-.58-2.56-1.45-3.42-2.6-.85-1.15-1.3-2.53-1.35-4.14h6.37c.09.91.41,1.61.95,2.09.54.48,1.24.72,2.1.72s1.59-.2,2.1-.61.77-.98.77-1.7c0-.61-.2-1.11-.61-1.51-.41-.4-.91-.73-1.51-.98-.6-.26-1.44-.55-2.54-.88-1.59-.49-2.88-.98-3.89-1.48-1-.49-1.87-1.22-2.59-2.18-.72-.96-1.09-2.21-1.09-3.76,0-2.29.83-4.09,2.49-5.39s3.82-1.95,6.48-1.95,4.89.65,6.55,1.95,2.54,3.11,2.66,5.43h-6.48c-.05-.8-.34-1.42-.88-1.88-.54-.46-1.23-.68-2.07-.68-.72,0-1.31.19-1.75.58-.44.39-.67.94-.67,1.67,0,.8.37,1.42,1.12,1.86.75.44,1.91.92,3.5,1.44,1.59.54,2.88,1.05,3.87,1.55.99.49,1.85,1.21,2.57,2.14.72.94,1.09,2.14,1.09,3.62s-.36,2.68-1.07,3.83c-.71,1.15-1.75,2.06-3.1,2.74-1.35.68-2.95,1.02-4.8,1.02s-3.41-.29-4.83-.88Z" fill="#fff" stroke-width="0"/><path d="M244.55,111.09c-1.93-1.08-3.46-2.58-4.59-4.51-1.13-1.93-1.7-4.1-1.7-6.51s.57-4.58,1.7-6.5c1.13-1.92,2.66-3.42,4.59-4.49s4.05-1.62,6.36-1.62,4.43.54,6.36,1.62c1.93,1.08,3.44,2.57,4.55,4.49,1.11,1.92,1.66,4.09,1.66,6.5s-.56,4.58-1.68,6.51c-1.12,1.93-2.64,3.44-4.55,4.51-1.92,1.08-4.03,1.62-6.34,1.62s-4.43-.54-6.36-1.62ZM255.62,105.26c1.18-1.31,1.77-3.04,1.77-5.2s-.59-3.92-1.77-5.21c-1.18-1.3-2.75-1.95-4.71-1.95s-3.57.64-4.75,1.93c-1.18,1.29-1.77,3.03-1.77,5.23s.59,3.92,1.77,5.22,2.76,1.95,4.75,1.95,3.53-.66,4.71-1.97Z" fill="#fff" stroke-width="0"/><path d="M272.7,87.81v14.75c0,1.47.36,2.61,1.09,3.41s1.79,1.19,3.19,1.19,2.48-.4,3.22-1.19c.75-.8,1.12-1.93,1.12-3.41v-14.75h5.99v14.71c0,2.2-.47,4.06-1.4,5.58-.93,1.52-2.19,2.67-3.77,3.44-1.58.77-3.33,1.16-5.27,1.16s-3.67-.38-5.2-1.14c-1.53-.76-2.74-1.91-3.63-3.44-.89-1.53-1.33-3.4-1.33-5.6v-14.71h5.99Z" fill="#fff" stroke-width="0"/><path d="M304.05,112.46l-5.11-9.31h-1.44v9.31h-5.99v-24.65h10.05c1.94,0,3.59.34,4.96,1.02,1.37.68,2.39,1.61,3.06,2.79.68,1.18,1.02,2.5,1.02,3.95,0,1.64-.46,3.1-1.38,4.39s-2.28,2.2-4.08,2.74l5.67,9.76h-6.76ZM297.5,98.91h3.71c1.1,0,1.92-.27,2.47-.81.55-.54.82-1.3.82-2.28s-.27-1.67-.82-2.21c-.55-.54-1.37-.81-2.47-.81h-3.71v6.11Z" fill="#fff" stroke-width="0"/><path d="M314.9,93.59c1.05-1.91,2.52-3.39,4.4-4.46,1.88-1.07,4.01-1.6,6.39-1.6,2.92,0,5.42.77,7.5,2.32,2.08,1.55,3.47,3.65,4.17,6.32h-6.59c-.49-1.03-1.19-1.81-2.08-2.35-.9-.54-1.92-.81-3.06-.81-1.84,0-3.34.64-4.48,1.93-1.14,1.29-1.72,3.01-1.72,5.16s.57,3.88,1.72,5.16c1.14,1.29,2.64,1.93,4.48,1.93,1.14,0,2.17-.27,3.06-.81.9-.54,1.59-1.32,2.08-2.35h6.59c-.7,2.67-2.09,4.77-4.17,6.3-2.08,1.53-4.58,2.3-7.5,2.3-2.38,0-4.51-.53-6.39-1.6-1.88-1.06-3.35-2.55-4.4-4.44-1.05-1.9-1.58-4.06-1.58-6.5s.53-4.61,1.58-6.51Z" fill="#fff" stroke-width="0"/><path d="M347.02,92.62v4.99h8.02v4.64h-8.02v5.41h9.07v4.81h-15.06v-24.65h15.06v4.81h-9.07Z" fill="#fff" stroke-width="0"/><path d="M364.05,111.83c-1.42-.58-2.56-1.45-3.42-2.6-.85-1.15-1.3-2.53-1.35-4.14h6.37c.09.91.41,1.61.95,2.09.54.48,1.24.72,2.1.72s1.59-.2,2.1-.61.77-.98.77-1.7c0-.61-.2-1.11-.61-1.51-.41-.4-.91-.73-1.51-.98-.6-.26-1.44-.55-2.54-.88-1.59-.49-2.88-.98-3.89-1.48-1-.49-1.87-1.22-2.59-2.18-.72-.96-1.09-2.21-1.09-3.76,0-2.29.83-4.09,2.49-5.39s3.82-1.95,6.48-1.95,4.89.65,6.55,1.95,2.54,3.11,2.66,5.43h-6.48c-.05-.8-.34-1.42-.88-1.88-.54-.46-1.23-.68-2.07-.68-.72,0-1.31.19-1.75.58-.44.39-.67.94-.67,1.67,0,.8.37,1.42,1.12,1.86.75.44,1.91.92,3.5,1.44,1.59.54,2.88,1.05,3.87,1.55.99.49,1.85,1.21,2.57,2.14.72.94,1.09,2.14,1.09,3.62s-.36,2.68-1.07,3.83c-.71,1.15-1.75,2.06-3.1,2.74-1.35.68-2.95,1.02-4.8,1.02s-3.41-.29-4.83-.88Z" fill="#fff" stroke-width="0"/></svg>