<?xml version="1.0" encoding="UTF-8"?><svg id="a" xmlns="http://www.w3.org/2000/svg" width="140" height="36" viewBox="0 0 140 36"><path d="M14.64,16.32l-.59,2.73h2.53v3.21h-3.22l-.7,3.19h-3.37l.7-3.19h-3.5l-.7,3.19h-3.37l.7-3.19H0v-3.21h3.81l.59-2.73H1.35v-3.21h3.73l.67-3.08h3.37l-.67,3.08h3.5l.67-3.08h3.37l-.67,3.08h2.61v3.21h-3.29ZM11.27,16.32h-3.5l-.59,2.73h3.5l.59-2.73Z" fill="#fff" stroke-width="0"/><path d="M19.9,16.47c.46-.9,1.08-1.6,1.86-2.08.79-.49,1.66-.73,2.63-.73.77,0,1.48.16,2.12.48.64.32,1.14.75,1.51,1.29v-5.39h3.6v15.41h-3.6v-1.67c-.34.55-.82,1-1.44,1.33-.63.33-1.35.5-2.18.5-.97,0-1.85-.25-2.63-.74s-1.41-1.19-1.86-2.1c-.46-.91-.68-1.96-.68-3.16s.23-2.24.68-3.14ZM27.27,17.53c-.5-.51-1.11-.77-1.82-.77s-1.32.25-1.82.76-.75,1.2-.75,2.09.25,1.59.75,2.11c.5.52,1.11.78,1.82.78s1.32-.26,1.82-.77c.5-.51.75-1.21.75-2.1s-.25-1.59-.75-2.1Z" fill="#fff" stroke-width="0"/><path d="M45.26,20.49h-8.15c.06.72.29,1.27.71,1.66.42.38.92.57,1.53.57.9,0,1.52-.37,1.88-1.12h3.83c-.2.76-.55,1.45-1.06,2.06-.51.61-1.16,1.09-1.93,1.44-.77.35-1.64.52-2.59.52-1.15,0-2.18-.24-3.07-.73-.9-.49-1.6-1.18-2.11-2.08-.51-.9-.76-1.96-.76-3.17s.25-2.26.75-3.17c.5-.9,1.2-1.6,2.1-2.08.9-.49,1.93-.73,3.1-.73s2.15.24,3.04.71c.88.47,1.58,1.15,2.08,2.02.5.87.75,1.9.75,3.06,0,.33-.02.68-.06,1.04ZM41.63,18.51c0-.61-.21-1.1-.63-1.46s-.95-.54-1.58-.54-1.11.17-1.53.52c-.41.35-.67.84-.77,1.48h4.51Z" fill="#fff" stroke-width="0"/><path d="M53.11,16.78h-1.94v8.66h-3.6v-8.66h-1.31v-2.96h1.31v-.33c0-1.43.41-2.52,1.24-3.26.83-.74,2.04-1.11,3.64-1.11.27,0,.46,0,.59.02v3.02c-.69-.04-1.17.06-1.45.29-.28.24-.42.66-.42,1.27v.1h1.94v2.96Z" fill="#fff" stroke-width="0"/><path d="M58.4,10.03v15.41h-3.6v-15.41h3.6Z" fill="#fff" stroke-width="0"/><path d="M60.98,16.47c.46-.9,1.08-1.6,1.86-2.08.79-.49,1.66-.73,2.63-.73.83,0,1.56.17,2.18.5.62.33,1.11.77,1.44,1.31v-1.65h3.6v11.62h-3.6v-1.65c-.35.54-.84.98-1.46,1.31s-1.35.5-2.18.5c-.96,0-1.83-.25-2.61-.74s-1.41-1.19-1.86-2.1-.68-1.96-.68-3.16.23-2.24.68-3.14ZM68.36,17.53c-.5-.51-1.11-.77-1.82-.77s-1.32.25-1.82.76-.75,1.2-.75,2.09.25,1.59.75,2.11c.5.52,1.11.78,1.82.78s1.32-.26,1.82-.77c.5-.51.75-1.21.75-2.1s-.25-1.59-.75-2.1Z" fill="#fff" stroke-width="0"/><path d="M81.87,22.43v3.02h-1.83c-1.31,0-2.33-.32-3.05-.95-.73-.63-1.1-1.66-1.1-3.09v-4.62h-1.43v-2.96h1.43v-2.83h3.6v2.83h2.36v2.96h-2.36v4.67c0,.35.08.6.25.75.17.15.45.23.84.23h1.29Z" fill="#fff" stroke-width="0"/><path d="M94.89,20.49h-8.15c.06.72.29,1.27.71,1.66.41.38.92.57,1.53.57.9,0,1.52-.37,1.88-1.12h3.83c-.2.76-.55,1.45-1.06,2.06-.51.61-1.16,1.09-1.93,1.44-.77.35-1.64.52-2.59.52-1.15,0-2.18-.24-3.08-.73-.9-.49-1.6-1.18-2.11-2.08s-.76-1.96-.76-3.17.25-2.26.75-3.17c.5-.9,1.2-1.6,2.1-2.08.9-.49,1.93-.73,3.1-.73s2.15.24,3.03.71,1.58,1.15,2.08,2.02.75,1.9.75,3.06c0,.33-.02.68-.06,1.04ZM91.27,18.51c0-.61-.21-1.1-.63-1.46s-.95-.54-1.58-.54-1.11.17-1.53.52c-.41.35-.67.84-.77,1.48h4.51Z" fill="#fff" stroke-width="0"/><path d="M111.98,10.83v14.62h-3.6v-6.02h-5.6v6.02h-3.6v-14.62h3.6v5.73h5.6v-5.73h3.6Z" fill="#29aae1" stroke-width="0"/><path d="M123.78,22.87h-5.52l-.88,2.58h-3.77l5.35-14.62h4.17l5.35,14.62h-3.81l-.88-2.58ZM122.85,20.12l-1.83-5.35-1.81,5.35h3.65Z" fill="#29aae1" stroke-width="0"/><path d="M133.7,13.68v2.96h4.82v2.75h-4.82v3.21h5.46v2.85h-9.06v-14.62h9.06v2.85h-5.46Z" fill="#29aae1" stroke-width="0"/><path id="b" d="M1.01,0c0,2,31.11,3.63,69.49,3.63s69.49-1.62,69.49-3.63" fill="#e9b73f" stroke-width="0"/><path id="c" d="M1.01,36c0-2,31.11-3.63,69.49-3.63s69.49,1.63,69.49,3.63" fill="#e9b73f" stroke-width="0"/></svg>