<?xml version="1.0" encoding="UTF-8"?><svg id="a" xmlns="http://www.w3.org/2000/svg" width="76" height="93" viewBox="0 0 76 93"><g id="b"><path d="M38,93c-1.34,0-2.67-.21-3.97-.62l-27.86-8.83c-.83-.26-1.4-1.03-1.4-1.91v-4.87C2.07,76.38,0,74.07,0,71.28v-6.87c0-2.79,2.07-5.1,4.77-5.49v-8.28c0-.63.3-1.23.81-1.61.51-.38,1.17-.49,1.78-.3l8.32,2.57c-.17-1.01.46-2,1.47-2.26l2.95-.78c3.9-1.02,8.02-2.1,9.36-2.46.81-.22,1.67.1,2.16.79,1.28,1.84,3.8,2.98,6.6,2.98h.05c2.69-.01,5.05-1.12,6.3-2.96.48-.71,1.37-1.03,2.19-.8,1.11.31,4.21,1.16,7.43,2.05l4.34,1.2c1.03.29,1.65,1.33,1.42,2.36l8.7-2.69c.61-.19,1.27-.08,1.78.3.51.38.81.97.81,1.61v8.28c2.7.39,4.77,2.7,4.77,5.49v6.87c0,2.79-2.08,5.1-4.77,5.49v4.87c0,.87-.56,1.64-1.4,1.91l-27.86,8.83c-1.3.41-2.63.62-3.97.62ZM40,63.88v24.9c.26-.06.51-.13.76-.21l26.47-8.39v-3.98c-1.01-.42-1.95-1.03-2.74-1.83-1.59-1.58-2.47-3.69-2.47-5.93v-1.2c0-3.49,2.16-6.49,5.21-7.75v-6.14l-19.76,6.11c-2.46.76-4.69,2-6.63,3.68l-.84.73ZM8.77,80.18l26.47,8.39c.25.08.51.15.76.21v-24.85l-.77-.68c-1.97-1.75-4.25-3.03-6.78-3.8l-19.68-6.09v6.14c3.06,1.26,5.22,4.26,5.22,7.75v1.2c0,2.24-.88,4.35-2.47,5.93-.8.8-1.73,1.41-2.75,1.83v3.98ZM5.56,72.83h0c.25,0,.51-.02.75-.06.05-.01.1-.02.16-.03.84-.17,1.6-.58,2.22-1.2.83-.83,1.29-1.93,1.29-3.09v-1.2c0-2.11-1.52-3.88-3.53-4.29-.04,0-.09-.02-.13-.02-.25-.04-.5-.07-.76-.07-.86,0-1.56.69-1.56,1.55v6.87c0,.85.7,1.54,1.56,1.55ZM69.67,72.76c.25.04.51.07.77.07.86,0,1.57-.7,1.57-1.55v-6.87c0-.85-.7-1.55-1.57-1.55-.26,0-.52.02-.77.07-.04,0-.08.02-.12.02-2.01.41-3.53,2.18-3.53,4.29v1.2c0,1.17.46,2.27,1.29,3.09.62.62,1.39,1.03,2.23,1.2.04,0,.09.01.13.02ZM19.62,52.52l10.01,3.09c3.07.95,5.85,2.51,8.25,4.63l.1.09.25-.21c2.36-2.05,5.07-3.55,8.07-4.48l9.92-3.07-3.1-.86c-2.37-.65-4.67-1.29-6.17-1.71-2.08,2.23-5.21,3.54-8.66,3.55-3.58.04-6.89-1.32-9.04-3.57-1.89.5-5.07,1.33-8.13,2.14l-1.49.39ZM38.32,45.5c-6.17,0-12.01-3.6-14.59-9.48l-.96-.5c-3.47-1.81-3.77-5.61-3.87-6.86-.23-2.91-.54-8.19-.16-10.83C20.29,7.5,28.52,0,38.31,0h0c9.79,0,18.01,7.5,19.55,17.83.43,2.85.03,8.53-.16,10.84-.1,1.24-.39,5.04-3.87,6.85l-.96.5c-1.71,3.89-4.93,6.95-8.95,8.46-1.84.69-3.74,1.02-5.6,1.02ZM22.76,26.52c.04.59.08,1.21.13,1.84.2,2.5.98,3.23,1.73,3.62l1.61.84c.44.23.77.6.95,1.06,2.32,6.09,9.2,9.17,15.34,6.86,3.19-1.2,5.71-3.7,6.91-6.86.17-.46.51-.84.95-1.06l1.61-.84c.75-.39,1.53-1.12,1.73-3.62.12-1.42.22-2.99.28-4.49-.16.12-.33.21-.53.28-2.52.89-5.25,1.2-7.9.92-4.76-.72-8.92-3.17-11.76-6.85-1.38,1-2.96,1.75-4.51,2.48-.68.32-1.36.64-2.03.99-.95.5-1.45,1.58-1.45,3.15,0,1.1-.9,2-2,2-.39,0-.75-.11-1.05-.3ZM34.18,13.16c.06,0,.11,0,.17,0,.65.06,1.24.43,1.56.99,2.16,3.75,5.87,6.27,10.17,6.92,1.98.21,4.1-.03,6.06-.72.68-.24,1.39-.09,1.91.32-.01-.91-.06-1.69-.14-2.27,0,0,0,0,0,0-1.24-8.32-7.75-14.38-15.5-14.42-.06,0-.12,0-.18,0-7.76.04-14.28,6.1-15.52,14.42-.09.62-.14,1.56-.14,2.74.61-1.33,1.58-2.37,2.86-3.04.72-.37,1.45-.72,2.18-1.06,2.03-.96,3.95-1.86,5.04-3.18.38-.46.95-.72,1.54-.72Z" fill="#3cb7e6" stroke-width="0"/></g></svg>