<?xml version="1.0" encoding="UTF-8"?><svg id="a" xmlns="http://www.w3.org/2000/svg" width="784" height="166" viewBox="0 0 784 166"><path d="M24.31,44.06v28.08h-6.84v-11.56H6.84v11.56H0v-28.08h6.84v11h10.64v-11h6.84Z" fill="#414143" stroke-width="0"/><path d="M46.7,67.18h-10.48l-1.68,4.96h-7.16l10.16-28.08h7.92l10.16,28.08h-7.24l-1.68-4.96ZM44.94,61.9l-3.48-10.28-3.44,10.28h6.92Z" fill="#414143" stroke-width="0"/><path d="M65.53,49.54v5.68h9.16v5.28h-9.16v6.16h10.36v5.48h-17.19v-28.08h17.19v5.48h-10.36Z" fill="#414143" stroke-width="0"/><path d="M95.64,44.06v28.08h-6.84v-28.08h6.84Z" fill="#414143" stroke-width="0"/><path d="M105.24,71.42c-1.63-.67-2.93-1.65-3.9-2.96-.97-1.31-1.49-2.88-1.54-4.72h7.28c.11,1.04.47,1.83,1.08,2.38.61.55,1.41.82,2.4.82s1.81-.23,2.4-.7c.59-.47.88-1.11.88-1.94,0-.69-.23-1.27-.7-1.72-.47-.45-1.04-.83-1.72-1.12-.68-.29-1.65-.63-2.9-1-1.81-.56-3.29-1.12-4.44-1.68-1.15-.56-2.13-1.39-2.96-2.48-.83-1.09-1.24-2.52-1.24-4.28,0-2.61.95-4.66,2.84-6.14,1.89-1.48,4.36-2.22,7.4-2.22s5.58.74,7.48,2.22c1.89,1.48,2.91,3.54,3.04,6.18h-7.4c-.05-.91-.39-1.62-1-2.14-.61-.52-1.4-.78-2.36-.78-.83,0-1.49.22-2,.66-.51.44-.76,1.07-.76,1.9,0,.91.43,1.61,1.28,2.12.85.51,2.19,1.05,4,1.64,1.81.61,3.29,1.2,4.42,1.76,1.13.56,2.11,1.37,2.94,2.44.83,1.07,1.24,2.44,1.24,4.12s-.41,3.05-1.22,4.36c-.81,1.31-1.99,2.35-3.54,3.12-1.55.77-3.37,1.16-5.48,1.16s-3.89-.33-5.52-1Z" fill="#414143" stroke-width="0"/><path d="M151.14,67.18h-10.48l-1.68,4.96h-7.16l10.16-28.08h7.92l10.16,28.08h-7.24l-1.68-4.96ZM149.38,61.9l-3.48-10.28-3.44,10.28h6.92Z" fill="#414143" stroke-width="0"/><path d="M185.92,72.14l-5.84-10.6h-1.64v10.6h-6.84v-28.08h11.48c2.21,0,4.1.39,5.66,1.16s2.72,1.83,3.5,3.18c.77,1.35,1.16,2.85,1.16,4.5,0,1.87-.53,3.53-1.58,5-1.05,1.47-2.61,2.51-4.66,3.12l6.48,11.12h-7.72ZM178.45,56.7h4.24c1.25,0,2.19-.31,2.82-.92.63-.61.94-1.48.94-2.6s-.31-1.91-.94-2.52c-.63-.61-1.57-.92-2.82-.92h-4.24v6.96Z" fill="#414143" stroke-width="0"/><path d="M215.15,67.18h-10.48l-1.68,4.96h-7.16l10.16-28.08h7.92l10.16,28.08h-7.24l-1.68-4.96ZM213.39,61.9l-3.48-10.28-3.44,10.28h6.92Z" fill="#414143" stroke-width="0"/><path d="M241.46,72.14l-5.84-10.6h-1.64v10.6h-6.84v-28.08h11.48c2.21,0,4.1.39,5.66,1.16s2.72,1.83,3.5,3.18c.77,1.35,1.16,2.85,1.16,4.5,0,1.87-.53,3.53-1.58,5-1.05,1.47-2.61,2.51-4.66,3.12l6.48,11.12h-7.72ZM233.98,56.7h4.24c1.25,0,2.19-.31,2.82-.92.63-.61.94-1.48.94-2.6s-.31-1.91-.94-2.52c-.63-.61-1.57-.92-2.82-.92h-4.24v6.96Z" fill="#414143" stroke-width="0"/><path d="M260.05,49.54v5.68h9.16v5.28h-9.16v6.16h10.36v5.48h-17.19v-28.08h17.19v5.48h-10.36Z" fill="#414143" stroke-width="0"/><path d="M282.2,65.82l-4.44,11.48h-4.36l2.32-11.48h6.48Z" fill="#414143" stroke-width="0"/><path d="M301.52,44.06v16.8c0,1.68.41,2.97,1.24,3.88.83.91,2.04,1.36,3.64,1.36s2.83-.45,3.68-1.36c.85-.91,1.28-2.2,1.28-3.88v-16.8h6.84v16.76c0,2.51-.53,4.63-1.6,6.36-1.07,1.73-2.5,3.04-4.3,3.92s-3.81,1.32-6.02,1.32-4.19-.43-5.94-1.3c-1.75-.87-3.13-2.17-4.14-3.92-1.01-1.75-1.52-3.87-1.52-6.38v-16.76h6.84Z" fill="#414143" stroke-width="0"/><path d="M348.1,72.14h-6.84l-11.44-17.32v17.32h-6.84v-28.08h6.84l11.44,17.4v-17.4h6.84v28.08Z" fill="#414143" stroke-width="0"/><path d="M373.33,57.56c-.75,1.35-1.89,2.43-3.44,3.26-1.55.83-3.47,1.24-5.76,1.24h-4.24v10.08h-6.84v-28.08h11.08c2.24,0,4.13.39,5.68,1.16,1.55.77,2.7,1.84,3.48,3.2.77,1.36,1.16,2.92,1.16,4.68,0,1.63-.37,3.11-1.12,4.46ZM366.53,55.7c.64-.61.96-1.48.96-2.6s-.32-1.99-.96-2.6-1.61-.92-2.92-.92h-3.72v7.04h3.72c1.31,0,2.28-.31,2.92-.92Z" fill="#414143" stroke-width="0"/><path d="M392.32,72.14l-5.84-10.6h-1.64v10.6h-6.84v-28.08h11.48c2.21,0,4.1.39,5.66,1.16s2.72,1.83,3.5,3.18c.77,1.35,1.16,2.85,1.16,4.5,0,1.87-.53,3.53-1.58,5-1.05,1.47-2.61,2.51-4.66,3.12l6.48,11.12h-7.72ZM384.84,56.7h4.24c1.25,0,2.19-.31,2.82-.92.63-.61.94-1.48.94-2.6s-.31-1.91-.94-2.52c-.63-.61-1.57-.92-2.82-.92h-4.24v6.96Z" fill="#414143" stroke-width="0"/><path d="M410.91,49.54v5.68h9.16v5.28h-9.16v6.16h10.36v5.48h-17.19v-28.08h17.19v5.48h-10.36Z" fill="#414143" stroke-width="0"/><path d="M443.98,45.82c2.21,1.17,3.92,2.82,5.14,4.94,1.21,2.12,1.82,4.57,1.82,7.34s-.61,5.19-1.82,7.32c-1.21,2.13-2.93,3.79-5.16,4.96-2.23,1.17-4.81,1.76-7.74,1.76h-10.52v-28.08h10.52c2.96,0,5.54.59,7.76,1.76ZM441.82,64.1c1.44-1.41,2.16-3.41,2.16-6s-.72-4.6-2.16-6.04c-1.44-1.44-3.45-2.16-6.04-2.16h-3.24v16.32h3.24c2.59,0,4.6-.71,6.04-2.12Z" fill="#414143" stroke-width="0"/><path d="M461.61,44.06v28.08h-6.84v-28.08h6.84Z" fill="#414143" stroke-width="0"/><path d="M467.21,50.64c1.2-2.17,2.87-3.87,5.02-5.08,2.15-1.21,4.58-1.82,7.3-1.82,3.33,0,6.18.88,8.56,2.64,2.37,1.76,3.96,4.16,4.76,7.2h-7.52c-.56-1.17-1.35-2.07-2.38-2.68-1.03-.61-2.19-.92-3.5-.92-2.11,0-3.81.73-5.12,2.2-1.31,1.47-1.96,3.43-1.96,5.88s.65,4.41,1.96,5.88c1.31,1.47,3.01,2.2,5.12,2.2,1.31,0,2.47-.31,3.5-.92,1.03-.61,1.82-1.51,2.38-2.68h7.52c-.8,3.04-2.39,5.43-4.76,7.18-2.37,1.75-5.22,2.62-8.56,2.62-2.72,0-5.15-.61-7.3-1.82-2.15-1.21-3.82-2.9-5.02-5.06-1.2-2.16-1.8-4.63-1.8-7.4s.6-5.25,1.8-7.42Z" fill="#414143" stroke-width="0"/><path d="M517.23,44.06v5.48h-7.44v22.6h-6.84v-22.6h-7.44v-5.48h21.71Z" fill="#414143" stroke-width="0"/><path d="M538.14,67.18h-10.48l-1.68,4.96h-7.16l10.16-28.08h7.92l10.16,28.08h-7.24l-1.68-4.96ZM536.38,61.9l-3.48-10.28-3.44,10.28h6.92Z" fill="#414143" stroke-width="0"/><path d="M571.05,60.16c.99,1.27,1.48,2.71,1.48,4.34,0,2.35-.82,4.21-2.46,5.58-1.64,1.37-3.93,2.06-6.86,2.06h-13.07v-28.08h12.64c2.85,0,5.08.65,6.7,1.96,1.61,1.31,2.42,3.08,2.42,5.32,0,1.65-.43,3.03-1.3,4.12-.87,1.09-2.02,1.85-3.46,2.28,1.63.35,2.93,1.15,3.92,2.42ZM556.97,55.42h4.48c1.12,0,1.98-.25,2.58-.74.6-.49.9-1.22.9-2.18s-.3-1.69-.9-2.2-1.46-.76-2.58-.76h-4.48v5.88ZM564.67,65.84c.63-.52.94-1.27.94-2.26s-.33-1.76-.98-2.32c-.65-.56-1.55-.84-2.7-.84h-4.96v6.2h5.04c1.15,0,2.03-.26,2.66-.78Z" fill="#414143" stroke-width="0"/><path d="M583.32,66.86h8.96v5.28h-15.79v-28.08h6.84v22.8Z" fill="#414143" stroke-width="0"/><path d="M602.39,49.54v5.68h9.16v5.28h-9.16v6.16h10.36v5.48h-17.19v-28.08h17.19v5.48h-10.36Z" fill="#414143" stroke-width="0"/><path d="M643.94,45.82c2.21,1.17,3.92,2.82,5.14,4.94,1.21,2.12,1.82,4.57,1.82,7.34s-.61,5.19-1.82,7.32c-1.21,2.13-2.93,3.79-5.16,4.96-2.23,1.17-4.81,1.76-7.74,1.76h-10.52v-28.08h10.52c2.96,0,5.54.59,7.76,1.76ZM641.78,64.1c1.44-1.41,2.16-3.41,2.16-6s-.72-4.6-2.16-6.04c-1.44-1.44-3.45-2.16-6.04-2.16h-3.24v16.32h3.24c2.59,0,4.6-.71,6.04-2.12Z" fill="#414143" stroke-width="0"/><path d="M661.57,44.06v28.08h-6.84v-28.08h6.84Z" fill="#414143" stroke-width="0"/><path d="M671.17,71.42c-1.63-.67-2.93-1.65-3.9-2.96-.97-1.31-1.49-2.88-1.54-4.72h7.28c.11,1.04.47,1.83,1.08,2.38.61.55,1.41.82,2.4.82s1.81-.23,2.4-.7c.59-.47.88-1.11.88-1.94,0-.69-.23-1.27-.7-1.72-.47-.45-1.04-.83-1.72-1.12-.68-.29-1.65-.63-2.9-1-1.81-.56-3.29-1.12-4.44-1.68-1.15-.56-2.13-1.39-2.96-2.48-.83-1.09-1.24-2.52-1.24-4.28,0-2.61.95-4.66,2.84-6.14,1.89-1.48,4.36-2.22,7.4-2.22s5.58.74,7.48,2.22c1.89,1.48,2.91,3.54,3.04,6.18h-7.4c-.05-.91-.39-1.62-1-2.14-.61-.52-1.4-.78-2.36-.78-.83,0-1.49.22-2,.66-.51.44-.76,1.07-.76,1.9,0,.91.43,1.61,1.28,2.12.85.51,2.19,1.05,4,1.64,1.81.61,3.29,1.2,4.42,1.76,1.13.56,2.11,1.37,2.94,2.44.83,1.07,1.24,2.44,1.24,4.12s-.41,3.05-1.22,4.36c-.81,1.31-1.99,2.35-3.54,3.12-1.55.77-3.37,1.16-5.48,1.16s-3.89-.33-5.52-1Z" fill="#414143" stroke-width="0"/><path d="M697.95,49.54v5.68h9.16v5.28h-9.16v6.16h10.36v5.48h-17.19v-28.08h17.19v5.48h-10.36Z" fill="#414143" stroke-width="0"/><path d="M730.22,67.18h-10.48l-1.68,4.96h-7.16l10.16-28.08h7.92l10.16,28.08h-7.24l-1.68-4.96ZM728.46,61.9l-3.48-10.28-3.44,10.28h6.92Z" fill="#414143" stroke-width="0"/><path d="M746.85,71.42c-1.63-.67-2.93-1.65-3.9-2.96-.97-1.31-1.49-2.88-1.54-4.72h7.28c.11,1.04.47,1.83,1.08,2.38.61.55,1.41.82,2.4.82s1.81-.23,2.4-.7c.59-.47.88-1.11.88-1.94,0-.69-.23-1.27-.7-1.72-.47-.45-1.04-.83-1.72-1.12-.68-.29-1.65-.63-2.9-1-1.81-.56-3.29-1.12-4.44-1.68-1.15-.56-2.13-1.39-2.96-2.48-.83-1.09-1.24-2.52-1.24-4.28,0-2.61.95-4.66,2.84-6.14,1.89-1.48,4.36-2.22,7.4-2.22s5.58.74,7.48,2.22c1.89,1.48,2.91,3.54,3.04,6.18h-7.4c-.05-.91-.39-1.62-1-2.14-.61-.52-1.4-.78-2.36-.78-.83,0-1.49.22-2,.66-.51.44-.76,1.07-.76,1.9,0,.91.43,1.61,1.28,2.12.85.51,2.19,1.05,4,1.64,1.81.61,3.29,1.2,4.42,1.76,1.13.56,2.11,1.37,2.94,2.44.83,1.07,1.24,2.44,1.24,4.12s-.41,3.05-1.22,4.36c-.81,1.31-1.99,2.35-3.54,3.12-1.55.77-3.37,1.16-5.48,1.16s-3.89-.33-5.52-1Z" fill="#414143" stroke-width="0"/><path d="M773.64,49.54v5.68h9.16v5.28h-9.16v6.16h10.36v5.48h-17.19v-28.08h17.19v5.48h-10.36Z" fill="#414143" stroke-width="0"/><path d="M99.46,94.06v5.48h-7.44v22.6h-6.84v-22.6h-7.44v-5.48h21.71Z" fill="#414143" stroke-width="0"/><path d="M127.21,94.06v28.08h-6.84v-11.56h-10.64v11.56h-6.84v-28.08h6.84v11h10.64v-11h6.84Z" fill="#414143" stroke-width="0"/><path d="M149.6,117.18h-10.48l-1.68,4.96h-7.16l10.16-28.08h7.92l10.16,28.08h-7.24l-1.68-4.96ZM147.84,111.9l-3.48-10.28-3.44,10.28h6.92Z" fill="#414143" stroke-width="0"/><path d="M181.79,94.06v5.48h-7.44v22.6h-6.84v-22.6h-7.44v-5.48h21.71Z" fill="#414143" stroke-width="0"/><path d="M194.34,100.64c1.2-2.17,2.87-3.87,5.02-5.08,2.15-1.21,4.58-1.82,7.3-1.82,3.33,0,6.18.88,8.56,2.64,2.37,1.76,3.96,4.16,4.76,7.2h-7.52c-.56-1.17-1.35-2.07-2.38-2.68-1.03-.61-2.19-.92-3.5-.92-2.11,0-3.81.73-5.12,2.2-1.31,1.47-1.96,3.43-1.96,5.88s.65,4.41,1.96,5.88c1.31,1.47,3.01,2.2,5.12,2.2,1.31,0,2.47-.31,3.5-.92,1.03-.61,1.82-1.51,2.38-2.68h7.52c-.8,3.04-2.39,5.43-4.76,7.18-2.37,1.75-5.22,2.62-8.56,2.62-2.72,0-5.15-.61-7.3-1.82-2.15-1.21-3.82-2.9-5.02-5.06-1.2-2.16-1.8-4.63-1.8-7.4s.6-5.25,1.8-7.42Z" fill="#414143" stroke-width="0"/><path d="M241.64,117.18h-10.48l-1.68,4.96h-7.16l10.16-28.08h7.92l10.16,28.08h-7.24l-1.68-4.96ZM239.88,111.9l-3.48-10.28-3.44,10.28h6.92Z" fill="#414143" stroke-width="0"/><path d="M278.75,122.14h-6.84l-11.44-17.32v17.32h-6.84v-28.08h6.84l11.44,17.4v-17.4h6.84v28.08Z" fill="#414143" stroke-width="0"/><path d="M313.09,110.16c.99,1.27,1.48,2.71,1.48,4.34,0,2.35-.82,4.21-2.46,5.58-1.64,1.37-3.93,2.06-6.86,2.06h-13.07v-28.08h12.64c2.85,0,5.08.65,6.7,1.96,1.61,1.31,2.42,3.08,2.42,5.32,0,1.65-.43,3.03-1.3,4.12-.87,1.09-2.02,1.85-3.46,2.28,1.63.35,2.93,1.15,3.92,2.42ZM299.02,105.42h4.48c1.12,0,1.98-.25,2.58-.74.6-.49.9-1.22.9-2.18s-.3-1.69-.9-2.2-1.46-.76-2.58-.76h-4.48v5.88ZM306.72,115.84c.63-.52.94-1.27.94-2.26s-.33-1.76-.98-2.32c-.65-.56-1.55-.84-2.7-.84h-4.96v6.2h5.04c1.15,0,2.03-.26,2.66-.78Z" fill="#414143" stroke-width="0"/><path d="M325.37,99.54v5.68h9.16v5.28h-9.16v6.16h10.36v5.48h-17.19v-28.08h17.19v5.48h-10.36Z" fill="#414143" stroke-width="0"/><path d="M355.48,116.86h8.96v5.28h-15.79v-28.08h6.84v22.8Z" fill="#414143" stroke-width="0"/><path d="M374.55,94.06v28.08h-6.84v-28.08h6.84Z" fill="#414143" stroke-width="0"/><path d="M397.78,94.06v5.48h-11.44v5.92h8.56v5.32h-8.56v11.36h-6.84v-28.08h18.27Z" fill="#414143" stroke-width="0"/><path d="M408.21,99.54v5.68h9.16v5.28h-9.16v6.16h10.36v5.48h-17.19v-28.08h17.19v5.48h-10.36Z" fill="#414143" stroke-width="0"/><path d="M451.68,94.06v5.48h-7.44v22.6h-6.84v-22.6h-7.44v-5.48h21.71Z" fill="#414143" stroke-width="0"/><path d="M479.42,94.06v28.08h-6.84v-11.56h-10.64v11.56h-6.84v-28.08h6.84v11h10.64v-11h6.84Z" fill="#414143" stroke-width="0"/><path d="M498.66,122.14l-5.84-10.6h-1.64v10.6h-6.84v-28.08h11.48c2.21,0,4.1.39,5.66,1.16s2.72,1.83,3.5,3.18c.77,1.35,1.16,2.85,1.16,4.5,0,1.87-.53,3.53-1.58,5-1.05,1.47-2.61,2.51-4.66,3.12l6.48,11.12h-7.72ZM491.18,106.7h4.24c1.25,0,2.19-.31,2.82-.92.63-.61.94-1.48.94-2.6s-.31-1.91-.94-2.52c-.63-.61-1.57-.92-2.82-.92h-4.24v6.96Z" fill="#414143" stroke-width="0"/><path d="M517.25,99.54v5.68h9.16v5.28h-9.16v6.16h10.36v5.48h-17.19v-28.08h17.19v5.48h-10.36Z" fill="#414143" stroke-width="0"/><path d="M549.52,117.18h-10.48l-1.68,4.96h-7.16l10.16-28.08h7.92l10.16,28.08h-7.24l-1.68-4.96ZM547.76,111.9l-3.48-10.28-3.44,10.28h6.92Z" fill="#414143" stroke-width="0"/><path d="M581.7,94.06v5.48h-7.44v22.6h-6.84v-22.6h-7.44v-5.48h21.71Z" fill="#414143" stroke-width="0"/><path d="M591.98,99.54v5.68h9.16v5.28h-9.16v6.16h10.36v5.48h-17.19v-28.08h17.19v5.48h-10.36Z" fill="#414143" stroke-width="0"/><path d="M631.88,122.14h-6.84l-11.44-17.32v17.32h-6.84v-28.08h6.84l11.44,17.4v-17.4h6.84v28.08Z" fill="#414143" stroke-width="0"/><path d="M643.68,94.06v28.08h-6.84v-28.08h6.84Z" fill="#414143" stroke-width="0"/><path d="M673.75,122.14h-6.84l-11.44-17.32v17.32h-6.84v-28.08h6.84l11.44,17.4v-17.4h6.84v28.08Z" fill="#414143" stroke-width="0"/><path d="M697.34,102.94c-.51-.93-1.23-1.65-2.18-2.14-.95-.49-2.06-.74-3.34-.74-2.21,0-3.99.73-5.32,2.18-1.33,1.45-2,3.39-2,5.82,0,2.59.7,4.61,2.1,6.06s3.32,2.18,5.78,2.18c1.68,0,3.1-.43,4.26-1.28,1.16-.85,2.01-2.08,2.54-3.68h-8.68v-5.04h14.87v6.36c-.51,1.71-1.37,3.29-2.58,4.76-1.21,1.47-2.75,2.65-4.62,3.56-1.87.91-3.97,1.36-6.32,1.36-2.77,0-5.25-.61-7.42-1.82-2.17-1.21-3.87-2.9-5.08-5.06-1.21-2.16-1.82-4.63-1.82-7.4s.61-5.25,1.82-7.42c1.21-2.17,2.9-3.87,5.06-5.08,2.16-1.21,4.62-1.82,7.4-1.82,3.36,0,6.19.81,8.5,2.44,2.31,1.63,3.83,3.88,4.58,6.76h-7.56Z" fill="#414143" stroke-width="0"/><path id="b" d="M80.41,0c0,4.59,139.5,8.31,311.59,8.31S703.59,4.59,703.59,0" fill="#29aae1" stroke-width="0"/><path id="c" d="M80.41,166c0-4.59,139.5-8.31,311.59-8.31s311.59,3.72,311.59,8.31" fill="#29aae1" stroke-width="0"/></svg>