<?xml version="1.0" encoding="UTF-8"?><svg id="a" xmlns="http://www.w3.org/2000/svg" width="502" height="278" viewBox="0 0 502 278"><path id="b" d="M0,0c0,5.13,112.38,9.29,251,9.29S502,5.13,502,0" fill="#29aae1" stroke-width="0"/><path id="c" d="M0,278c0-5.13,112.38-9.29,251-9.29s251,4.16,251,9.29" fill="#29aae1" stroke-width="0"/><path d="M134.38,50v28.1h-6.84v-11.57h-10.64v11.57h-6.84v-28.1h6.84v11.01h10.64v-11.01h6.84Z" fill="#414143" stroke-width="0"/><path d="M156.78,73.14h-10.48l-1.68,4.96h-7.16l10.16-28.1h7.92l10.16,28.1h-7.24l-1.68-4.96ZM155.02,67.86l-3.48-10.29-3.44,10.29h6.92Z" fill="#414143" stroke-width="0"/><path d="M175.62,55.49v5.68h9.16v5.28h-9.16v6.16h10.36v5.48h-17.2v-28.1h17.2v5.48h-10.36Z" fill="#414143" stroke-width="0"/><path d="M205.74,50v28.1h-6.84v-28.1h6.84Z" fill="#414143" stroke-width="0"/><path d="M215.34,77.38c-1.63-.67-2.93-1.65-3.9-2.96s-1.49-2.88-1.54-4.72h7.28c.11,1.04.47,1.84,1.08,2.38.61.55,1.41.82,2.4.82s1.81-.23,2.4-.7c.59-.47.88-1.11.88-1.94,0-.69-.23-1.27-.7-1.72s-1.04-.83-1.72-1.12-1.65-.63-2.9-1c-1.81-.56-3.29-1.12-4.44-1.68-1.15-.56-2.13-1.39-2.96-2.48-.83-1.09-1.24-2.52-1.24-4.28,0-2.61.95-4.66,2.84-6.14,1.89-1.48,4.36-2.22,7.4-2.22s5.59.74,7.48,2.22c1.89,1.48,2.91,3.54,3.04,6.18h-7.4c-.05-.91-.39-1.62-1-2.14-.61-.52-1.4-.78-2.36-.78-.83,0-1.49.22-2,.66-.51.44-.76,1.07-.76,1.9,0,.91.43,1.62,1.28,2.12.85.51,2.19,1.05,4,1.64,1.81.61,3.29,1.2,4.42,1.76,1.13.56,2.11,1.37,2.94,2.44.83,1.07,1.24,2.44,1.24,4.12s-.41,3.06-1.22,4.36c-.81,1.31-1.99,2.35-3.54,3.12-1.55.77-3.37,1.16-5.48,1.16s-3.89-.33-5.52-1Z" fill="#414143" stroke-width="0"/><path d="M261.26,73.14h-10.48l-1.68,4.96h-7.16l10.16-28.1h7.92l10.16,28.1h-7.24l-1.68-4.96ZM259.5,67.86l-3.48-10.29-3.44,10.29h6.92Z" fill="#414143" stroke-width="0"/><path d="M296.06,78.1l-5.84-10.61h-1.64v10.61h-6.84v-28.1h11.48c2.21,0,4.1.39,5.66,1.16,1.56.77,2.73,1.84,3.5,3.18.77,1.35,1.16,2.85,1.16,4.5,0,1.87-.53,3.54-1.58,5-1.05,1.47-2.61,2.51-4.66,3.12l6.48,11.13h-7.72ZM288.58,62.65h4.24c1.25,0,2.19-.31,2.82-.92.63-.61.94-1.48.94-2.6s-.31-1.91-.94-2.52c-.63-.61-1.57-.92-2.82-.92h-4.24v6.96Z" fill="#414143" stroke-width="0"/><path d="M325.3,73.14h-10.48l-1.68,4.96h-7.16l10.16-28.1h7.92l10.16,28.1h-7.24l-1.68-4.96ZM323.54,67.86l-3.48-10.29-3.44,10.29h6.92Z" fill="#414143" stroke-width="0"/><path d="M351.62,78.1l-5.84-10.61h-1.64v10.61h-6.84v-28.1h11.48c2.21,0,4.1.39,5.66,1.16,1.56.77,2.73,1.84,3.5,3.18.77,1.35,1.16,2.85,1.16,4.5,0,1.87-.53,3.54-1.58,5-1.05,1.47-2.61,2.51-4.66,3.12l6.48,11.13h-7.72ZM344.14,62.65h4.24c1.25,0,2.19-.31,2.82-.92.63-.61.94-1.48.94-2.6s-.31-1.91-.94-2.52c-.63-.61-1.57-.92-2.82-.92h-4.24v6.96Z" fill="#414143" stroke-width="0"/><path d="M370.22,55.49v5.68h9.16v5.28h-9.16v6.16h10.36v5.48h-17.2v-28.1h17.2v5.48h-10.36Z" fill="#414143" stroke-width="0"/><path d="M392.38,71.78l-4.44,11.49h-4.36l2.32-11.49h6.48Z" fill="#414143" stroke-width="0"/><path d="M13.08,100.04v16.81c0,1.68.41,2.98,1.24,3.88.83.91,2.04,1.36,3.64,1.36s2.83-.45,3.68-1.36c.85-.91,1.28-2.2,1.28-3.88v-16.81h6.84v16.77c0,2.51-.53,4.63-1.6,6.36-1.07,1.73-2.5,3.04-4.3,3.92s-3.81,1.32-6.02,1.32-4.19-.43-5.94-1.3c-1.75-.87-3.13-2.18-4.14-3.92-1.01-1.75-1.52-3.88-1.52-6.38v-16.77h6.84Z" fill="#414143" stroke-width="0"/><path d="M59.68,128.13h-6.84l-11.44-17.33v17.33h-6.84v-28.1h6.84l11.44,17.41v-17.41h6.84v28.1Z" fill="#414143" stroke-width="0"/><path d="M84.92,113.54c-.75,1.35-1.89,2.44-3.44,3.26-1.55.83-3.47,1.24-5.76,1.24h-4.24v10.09h-6.84v-28.1h11.08c2.24,0,4.13.39,5.68,1.16,1.55.77,2.71,1.84,3.48,3.2.77,1.36,1.16,2.92,1.16,4.68,0,1.63-.37,3.12-1.12,4.46ZM78.12,111.68c.64-.61.96-1.48.96-2.6s-.32-1.99-.96-2.6-1.61-.92-2.92-.92h-3.72v7.04h3.72c1.31,0,2.28-.31,2.92-.92Z" fill="#414143" stroke-width="0"/><path d="M103.92,128.13l-5.84-10.61h-1.64v10.61h-6.84v-28.1h11.48c2.21,0,4.1.39,5.66,1.16s2.73,1.84,3.5,3.18c.77,1.35,1.16,2.85,1.16,4.5,0,1.87-.53,3.54-1.58,5-1.05,1.47-2.61,2.51-4.66,3.12l6.48,11.13h-7.72ZM96.44,112.68h4.24c1.25,0,2.19-.31,2.82-.92.63-.61.94-1.48.94-2.6s-.31-1.91-.94-2.52c-.63-.61-1.57-.92-2.82-.92h-4.24v6.96Z" fill="#414143" stroke-width="0"/><path d="M122.52,105.52v5.68h9.16v5.28h-9.16v6.16h10.36v5.48h-17.2v-28.1h17.2v5.48h-10.36Z" fill="#414143" stroke-width="0"/><path d="M155.6,101.8c2.21,1.17,3.93,2.82,5.14,4.94,1.21,2.12,1.82,4.57,1.82,7.34s-.61,5.19-1.82,7.32c-1.21,2.14-2.93,3.79-5.16,4.96-2.23,1.17-4.81,1.76-7.74,1.76h-10.52v-28.1h10.52c2.96,0,5.55.59,7.76,1.76ZM153.44,120.09c1.44-1.41,2.16-3.42,2.16-6s-.72-4.6-2.16-6.04c-1.44-1.44-3.45-2.16-6.04-2.16h-3.24v16.33h3.24c2.59,0,4.6-.71,6.04-2.12Z" fill="#414143" stroke-width="0"/><path d="M173.24,100.04v28.1h-6.84v-28.1h6.84Z" fill="#414143" stroke-width="0"/><path d="M178.84,106.62c1.2-2.17,2.87-3.87,5.02-5.08,2.15-1.21,4.58-1.82,7.3-1.82,3.33,0,6.19.88,8.56,2.64,2.37,1.76,3.96,4.16,4.76,7.2h-7.52c-.56-1.17-1.35-2.07-2.38-2.68-1.03-.61-2.19-.92-3.5-.92-2.11,0-3.81.73-5.12,2.2-1.31,1.47-1.96,3.43-1.96,5.88s.65,4.42,1.96,5.88c1.31,1.47,3.01,2.2,5.12,2.2,1.31,0,2.47-.31,3.5-.92,1.03-.61,1.82-1.51,2.38-2.68h7.52c-.8,3.04-2.39,5.44-4.76,7.18-2.37,1.75-5.23,2.62-8.56,2.62-2.72,0-5.15-.61-7.3-1.82-2.15-1.21-3.82-2.9-5.02-5.06-1.2-2.16-1.8-4.63-1.8-7.41s.6-5.25,1.8-7.42Z" fill="#414143" stroke-width="0"/><path d="M228.88,100.04v5.48h-7.44v22.61h-6.84v-22.61h-7.44v-5.48h21.72Z" fill="#414143" stroke-width="0"/><path d="M249.8,123.17h-10.48l-1.68,4.96h-7.16l10.16-28.1h7.92l10.16,28.1h-7.24l-1.68-4.96ZM248.04,117.89l-3.48-10.29-3.44,10.29h6.92Z" fill="#414143" stroke-width="0"/><path d="M282.72,116.15c.99,1.27,1.48,2.72,1.48,4.34,0,2.35-.82,4.21-2.46,5.58-1.64,1.37-3.93,2.06-6.86,2.06h-13.08v-28.1h12.64c2.85,0,5.09.65,6.7,1.96,1.61,1.31,2.42,3.08,2.42,5.32,0,1.65-.43,3.03-1.3,4.12-.87,1.09-2.02,1.85-3.46,2.28,1.63.35,2.93,1.16,3.92,2.42ZM268.64,111.4h4.48c1.12,0,1.98-.25,2.58-.74.6-.49.9-1.22.9-2.18s-.3-1.69-.9-2.2-1.46-.76-2.58-.76h-4.48v5.88ZM276.34,121.83c.63-.52.94-1.27.94-2.26s-.33-1.76-.98-2.32c-.65-.56-1.55-.84-2.7-.84h-4.96v6.2h5.04c1.15,0,2.03-.26,2.66-.78Z" fill="#414143" stroke-width="0"/><path d="M295,122.85h8.96v5.28h-15.8v-28.1h6.84v22.81Z" fill="#414143" stroke-width="0"/><path d="M314.08,105.52v5.68h9.16v5.28h-9.16v6.16h10.36v5.48h-17.2v-28.1h17.2v5.48h-10.36Z" fill="#414143" stroke-width="0"/><path d="M355.64,101.8c2.21,1.17,3.93,2.82,5.14,4.94,1.21,2.12,1.82,4.57,1.82,7.34s-.61,5.19-1.82,7.32c-1.21,2.14-2.93,3.79-5.16,4.96-2.23,1.17-4.81,1.76-7.74,1.76h-10.52v-28.1h10.52c2.96,0,5.55.59,7.76,1.76ZM353.48,120.09c1.44-1.41,2.16-3.42,2.16-6s-.72-4.6-2.16-6.04c-1.44-1.44-3.45-2.16-6.04-2.16h-3.24v16.33h3.24c2.59,0,4.6-.71,6.04-2.12Z" fill="#414143" stroke-width="0"/><path d="M373.28,100.04v28.1h-6.84v-28.1h6.84Z" fill="#414143" stroke-width="0"/><path d="M382.88,127.41c-1.63-.67-2.93-1.65-3.9-2.96-.97-1.31-1.49-2.88-1.54-4.72h7.28c.11,1.04.47,1.84,1.08,2.38.61.55,1.41.82,2.4.82s1.81-.23,2.4-.7c.59-.47.88-1.11.88-1.94,0-.69-.23-1.27-.7-1.72-.47-.45-1.04-.83-1.72-1.12-.68-.29-1.65-.63-2.9-1-1.81-.56-3.29-1.12-4.44-1.68-1.15-.56-2.13-1.39-2.96-2.48-.83-1.09-1.24-2.52-1.24-4.28,0-2.61.95-4.66,2.84-6.14,1.89-1.48,4.36-2.22,7.4-2.22s5.59.74,7.48,2.22c1.89,1.48,2.91,3.54,3.04,6.18h-7.4c-.05-.91-.39-1.62-1-2.14-.61-.52-1.4-.78-2.36-.78-.83,0-1.49.22-2,.66-.51.44-.76,1.07-.76,1.9,0,.91.43,1.62,1.28,2.12.85.51,2.19,1.05,4,1.64,1.81.61,3.29,1.2,4.42,1.76,1.13.56,2.11,1.37,2.94,2.44.83,1.07,1.24,2.44,1.24,4.12s-.41,3.06-1.22,4.36c-.81,1.31-1.99,2.35-3.54,3.12-1.55.77-3.37,1.16-5.48,1.16s-3.89-.33-5.52-1Z" fill="#414143" stroke-width="0"/><path d="M409.68,105.52v5.68h9.16v5.28h-9.16v6.16h10.36v5.48h-17.2v-28.1h17.2v5.48h-10.36Z" fill="#414143" stroke-width="0"/><path d="M441.96,123.17h-10.48l-1.68,4.96h-7.16l10.16-28.1h7.92l10.16,28.1h-7.24l-1.68-4.96ZM440.2,117.89l-3.48-10.29-3.44,10.29h6.92Z" fill="#414143" stroke-width="0"/><path d="M458.6,127.41c-1.63-.67-2.93-1.65-3.9-2.96-.97-1.31-1.49-2.88-1.54-4.72h7.28c.11,1.04.47,1.84,1.08,2.38.61.55,1.41.82,2.4.82s1.81-.23,2.4-.7c.59-.47.88-1.11.88-1.94,0-.69-.23-1.27-.7-1.72-.47-.45-1.04-.83-1.72-1.12-.68-.29-1.65-.63-2.9-1-1.81-.56-3.29-1.12-4.44-1.68-1.15-.56-2.13-1.39-2.96-2.48-.83-1.09-1.24-2.52-1.24-4.28,0-2.61.95-4.66,2.84-6.14,1.89-1.48,4.36-2.22,7.4-2.22s5.59.74,7.48,2.22c1.89,1.48,2.91,3.54,3.04,6.18h-7.4c-.05-.91-.39-1.62-1-2.14-.61-.52-1.4-.78-2.36-.78-.83,0-1.49.22-2,.66-.51.44-.76,1.07-.76,1.9,0,.91.43,1.62,1.28,2.12.85.51,2.19,1.05,4,1.64,1.81.61,3.29,1.2,4.42,1.76,1.13.56,2.11,1.37,2.94,2.44.83,1.07,1.24,2.44,1.24,4.12s-.41,3.06-1.22,4.36c-.81,1.31-1.99,2.35-3.54,3.12-1.55.77-3.37,1.16-5.48,1.16s-3.89-.33-5.52-1Z" fill="#414143" stroke-width="0"/><path d="M485.4,105.52v5.68h9.16v5.28h-9.16v6.16h10.36v5.48h-17.2v-28.1h17.2v5.48h-10.36Z" fill="#414143" stroke-width="0"/><path d="M101.54,150.07v5.48h-7.44v22.61h-6.84v-22.61h-7.44v-5.48h21.72Z" fill="#414143" stroke-width="0"/><path d="M129.3,150.07v28.1h-6.84v-11.57h-10.64v11.57h-6.84v-28.1h6.84v11.01h10.64v-11.01h6.84Z" fill="#414143" stroke-width="0"/><path d="M151.7,173.2h-10.48l-1.68,4.96h-7.16l10.16-28.1h7.92l10.16,28.1h-7.24l-1.68-4.96ZM149.94,167.92l-3.48-10.29-3.44,10.29h6.92Z" fill="#414143" stroke-width="0"/><path d="M183.9,150.07v5.48h-7.44v22.61h-6.84v-22.61h-7.44v-5.48h21.72Z" fill="#414143" stroke-width="0"/><path d="M196.46,156.65c1.2-2.17,2.87-3.87,5.02-5.08,2.15-1.21,4.58-1.82,7.3-1.82,3.33,0,6.19.88,8.56,2.64,2.37,1.76,3.96,4.16,4.76,7.2h-7.52c-.56-1.17-1.35-2.07-2.38-2.68-1.03-.61-2.19-.92-3.5-.92-2.11,0-3.81.73-5.12,2.2-1.31,1.47-1.96,3.43-1.96,5.88s.65,4.42,1.96,5.88c1.31,1.47,3.01,2.2,5.12,2.2,1.31,0,2.47-.31,3.5-.92,1.03-.61,1.82-1.51,2.38-2.68h7.52c-.8,3.04-2.39,5.44-4.76,7.18-2.37,1.75-5.23,2.62-8.56,2.62-2.72,0-5.15-.61-7.3-1.82-2.15-1.21-3.82-2.9-5.02-5.06-1.2-2.16-1.8-4.63-1.8-7.41s.6-5.25,1.8-7.42Z" fill="#414143" stroke-width="0"/><path d="M243.78,173.2h-10.48l-1.68,4.96h-7.16l10.16-28.1h7.92l10.16,28.1h-7.24l-1.68-4.96ZM242.02,167.92l-3.48-10.29-3.44,10.29h6.92Z" fill="#414143" stroke-width="0"/><path d="M280.9,178.17h-6.84l-11.44-17.33v17.33h-6.84v-28.1h6.84l11.44,17.41v-17.41h6.84v28.1Z" fill="#414143" stroke-width="0"/><path d="M315.26,166.18c.99,1.27,1.48,2.72,1.48,4.34,0,2.35-.82,4.21-2.46,5.58-1.64,1.37-3.93,2.06-6.86,2.06h-13.08v-28.1h12.64c2.85,0,5.09.65,6.7,1.96,1.61,1.31,2.42,3.08,2.42,5.32,0,1.65-.43,3.03-1.3,4.12-.87,1.09-2.02,1.85-3.46,2.28,1.63.35,2.93,1.16,3.92,2.42ZM301.18,161.44h4.48c1.12,0,1.98-.25,2.58-.74.6-.49.9-1.22.9-2.18s-.3-1.69-.9-2.2-1.46-.76-2.58-.76h-4.48v5.88ZM308.88,171.86c.63-.52.94-1.27.94-2.26s-.33-1.76-.98-2.32c-.65-.56-1.55-.84-2.7-.84h-4.96v6.2h5.04c1.15,0,2.03-.26,2.66-.78Z" fill="#414143" stroke-width="0"/><path d="M327.54,155.55v5.68h9.16v5.28h-9.16v6.16h10.36v5.48h-17.2v-28.1h17.2v5.48h-10.36Z" fill="#414143" stroke-width="0"/><path d="M357.66,172.88h8.96v5.28h-15.8v-28.1h6.84v22.81Z" fill="#414143" stroke-width="0"/><path d="M376.74,150.07v28.1h-6.84v-28.1h6.84Z" fill="#414143" stroke-width="0"/><path d="M399.98,150.07v5.48h-11.44v5.92h8.56v5.32h-8.56v11.37h-6.84v-28.1h18.28Z" fill="#414143" stroke-width="0"/><path d="M410.42,155.55v5.68h9.16v5.28h-9.16v6.16h10.36v5.48h-17.2v-28.1h17.2v5.48h-10.36Z" fill="#414143" stroke-width="0"/><path d="M134.58,200.1v5.48h-7.44v22.61h-6.84v-22.61h-7.44v-5.48h21.72Z" fill="#414143" stroke-width="0"/><path d="M162.34,200.1v28.1h-6.84v-11.57h-10.64v11.57h-6.84v-28.1h6.84v11.01h10.64v-11.01h6.84Z" fill="#414143" stroke-width="0"/><path d="M181.58,228.2l-5.84-10.61h-1.64v10.61h-6.84v-28.1h11.48c2.21,0,4.1.39,5.66,1.16s2.73,1.84,3.5,3.18c.77,1.35,1.16,2.85,1.16,4.5,0,1.87-.53,3.54-1.58,5-1.05,1.47-2.61,2.51-4.66,3.12l6.48,11.13h-7.72ZM174.1,212.75h4.24c1.25,0,2.19-.31,2.82-.92.63-.61.94-1.48.94-2.6s-.31-1.91-.94-2.52c-.63-.61-1.57-.92-2.82-.92h-4.24v6.96Z" fill="#414143" stroke-width="0"/><path d="M200.18,205.58v5.68h9.16v5.28h-9.16v6.16h10.36v5.48h-17.2v-28.1h17.2v5.48h-10.36Z" fill="#414143" stroke-width="0"/><path d="M232.46,223.23h-10.48l-1.68,4.96h-7.16l10.16-28.1h7.92l10.16,28.1h-7.24l-1.68-4.96ZM230.7,217.95l-3.48-10.29-3.44,10.29h6.92Z" fill="#414143" stroke-width="0"/><path d="M264.66,200.1v5.48h-7.44v22.61h-6.84v-22.61h-7.44v-5.48h21.72Z" fill="#414143" stroke-width="0"/><path d="M274.94,205.58v5.68h9.16v5.28h-9.16v6.16h10.36v5.48h-17.2v-28.1h17.2v5.48h-10.36Z" fill="#414143" stroke-width="0"/><path d="M314.86,228.2h-6.84l-11.44-17.33v17.33h-6.84v-28.1h6.84l11.44,17.41v-17.41h6.84v28.1Z" fill="#414143" stroke-width="0"/><path d="M326.66,200.1v28.1h-6.84v-28.1h6.84Z" fill="#414143" stroke-width="0"/><path d="M356.74,228.2h-6.84l-11.44-17.33v17.33h-6.84v-28.1h6.84l11.44,17.41v-17.41h6.84v28.1Z" fill="#414143" stroke-width="0"/><path d="M380.34,208.98c-.51-.93-1.23-1.65-2.18-2.14-.95-.49-2.06-.74-3.34-.74-2.21,0-3.99.73-5.32,2.18-1.33,1.46-2,3.4-2,5.82,0,2.59.7,4.61,2.1,6.06s3.33,2.18,5.78,2.18c1.68,0,3.1-.43,4.26-1.28,1.16-.85,2.01-2.08,2.54-3.68h-8.68v-5.04h14.88v6.36c-.51,1.71-1.37,3.3-2.58,4.76-1.21,1.47-2.75,2.65-4.62,3.56-1.87.91-3.97,1.36-6.32,1.36-2.77,0-5.25-.61-7.42-1.82-2.17-1.21-3.87-2.9-5.08-5.06-1.21-2.16-1.82-4.63-1.82-7.41s.61-5.25,1.82-7.42c1.21-2.17,2.9-3.87,5.06-5.08,2.16-1.21,4.63-1.82,7.4-1.82,3.36,0,6.19.81,8.5,2.44,2.31,1.63,3.83,3.88,4.58,6.76h-7.56Z" fill="#414143" stroke-width="0"/></svg>