<?xml version="1.0" encoding="UTF-8"?><svg id="a" xmlns="http://www.w3.org/2000/svg" width="912" height="185" viewBox="0 0 912 185"><path d="M119.72,50.88v28.11h-6.84v-11.57h-10.64v11.57h-6.84v-28.11h6.84v11.01h10.64v-11.01h6.84Z" fill="#fff" stroke-width="0"/><path d="M142.13,74.02h-10.48l-1.68,4.96h-7.16l10.16-28.11h7.92l10.16,28.11h-7.24l-1.68-4.96ZM140.37,68.74l-3.48-10.29-3.44,10.29h6.92Z" fill="#fff" stroke-width="0"/><path d="M160.97,56.37v5.69h9.16v5.28h-9.16v6.17h10.36v5.49h-17.2v-28.11h17.2v5.49h-10.36Z" fill="#fff" stroke-width="0"/><path d="M191.09,50.88v28.11h-6.84v-28.11h6.84Z" fill="#fff" stroke-width="0"/><path d="M200.69,78.27c-1.63-.67-2.93-1.65-3.9-2.96-.97-1.31-1.49-2.88-1.54-4.73h7.28c.11,1.04.47,1.84,1.08,2.38.61.55,1.41.82,2.4.82s1.81-.23,2.4-.7c.59-.47.88-1.11.88-1.94,0-.69-.23-1.27-.7-1.72-.47-.45-1.04-.83-1.72-1.12-.68-.29-1.65-.63-2.9-1-1.81-.56-3.29-1.12-4.44-1.68-1.15-.56-2.13-1.39-2.96-2.48-.83-1.09-1.24-2.52-1.24-4.28,0-2.62.95-4.66,2.84-6.15,1.89-1.48,4.36-2.22,7.4-2.22s5.59.74,7.48,2.22c1.89,1.48,2.91,3.54,3.04,6.19h-7.4c-.05-.91-.39-1.62-1-2.14-.61-.52-1.4-.78-2.36-.78-.83,0-1.49.22-2,.66-.51.44-.76,1.07-.76,1.9,0,.91.43,1.62,1.28,2.12.85.51,2.19,1.05,4,1.64,1.81.61,3.29,1.2,4.42,1.76,1.13.56,2.11,1.37,2.94,2.44.83,1.07,1.24,2.44,1.24,4.12s-.41,3.06-1.22,4.36c-.81,1.31-1.99,2.35-3.54,3.12-1.55.77-3.37,1.16-5.48,1.16s-3.89-.33-5.52-1Z" fill="#fff" stroke-width="0"/><path d="M246.62,74.02h-10.48l-1.68,4.96h-7.16l10.16-28.11h7.92l10.16,28.11h-7.24l-1.68-4.96ZM244.86,68.74l-3.48-10.29-3.44,10.29h6.92Z" fill="#fff" stroke-width="0"/><path d="M281.43,78.99l-5.84-10.61h-1.64v10.61h-6.84v-28.11h11.48c2.21,0,4.1.39,5.66,1.16s2.73,1.84,3.5,3.18c.77,1.35,1.16,2.85,1.16,4.5,0,1.87-.53,3.54-1.58,5-1.05,1.47-2.61,2.51-4.66,3.12l6.48,11.13h-7.72ZM273.95,63.53h4.24c1.25,0,2.19-.31,2.82-.92.63-.61.94-1.48.94-2.6s-.31-1.91-.94-2.52c-.63-.61-1.57-.92-2.82-.92h-4.24v6.97Z" fill="#fff" stroke-width="0"/><path d="M310.67,74.02h-10.48l-1.68,4.96h-7.16l10.16-28.11h7.92l10.16,28.11h-7.24l-1.68-4.96ZM308.91,68.74l-3.48-10.29-3.44,10.29h6.92Z" fill="#fff" stroke-width="0"/><path d="M337,78.99l-5.84-10.61h-1.64v10.61h-6.84v-28.11h11.48c2.21,0,4.1.39,5.66,1.16s2.73,1.84,3.5,3.18c.77,1.35,1.16,2.85,1.16,4.5,0,1.87-.53,3.54-1.58,5-1.05,1.47-2.61,2.51-4.66,3.12l6.48,11.13h-7.72ZM329.51,63.53h4.24c1.25,0,2.19-.31,2.82-.92.63-.61.94-1.48.94-2.6s-.31-1.91-.94-2.52c-.63-.61-1.57-.92-2.82-.92h-4.24v6.97Z" fill="#fff" stroke-width="0"/><path d="M355.6,56.37v5.69h9.16v5.28h-9.16v6.17h10.36v5.49h-17.2v-28.11h17.2v5.49h-10.36Z" fill="#fff" stroke-width="0"/><path d="M377.76,72.66l-4.44,11.49h-4.36l2.32-11.49h6.48Z" fill="#fff" stroke-width="0"/><path d="M397.08,50.88v16.82c0,1.68.41,2.98,1.24,3.88.83.91,2.04,1.36,3.64,1.36s2.83-.45,3.68-1.36c.85-.91,1.28-2.2,1.28-3.88v-16.82h6.84v16.78c0,2.51-.53,4.63-1.6,6.37-1.07,1.74-2.5,3.04-4.3,3.92s-3.81,1.32-6.02,1.32-4.19-.43-5.94-1.3c-1.75-.87-3.13-2.18-4.14-3.92-1.01-1.75-1.52-3.88-1.52-6.39v-16.78h6.84Z" fill="#fff" stroke-width="0"/><path d="M443.69,78.99h-6.84l-11.44-17.34v17.34h-6.84v-28.11h6.84l11.44,17.42v-17.42h6.84v28.11Z" fill="#fff" stroke-width="0"/><path d="M468.94,64.39c-.75,1.35-1.89,2.44-3.44,3.26s-3.47,1.24-5.76,1.24h-4.24v10.09h-6.84v-28.11h11.08c2.24,0,4.13.39,5.68,1.16,1.55.77,2.71,1.84,3.48,3.2.77,1.36,1.16,2.92,1.16,4.68,0,1.63-.37,3.12-1.12,4.46ZM462.14,62.53c.64-.61.96-1.48.96-2.6s-.32-1.99-.96-2.6c-.64-.61-1.61-.92-2.92-.92h-3.72v7.05h3.72c1.31,0,2.28-.31,2.92-.92Z" fill="#fff" stroke-width="0"/><path d="M487.94,78.99l-5.84-10.61h-1.64v10.61h-6.84v-28.11h11.48c2.21,0,4.1.39,5.66,1.16,1.56.77,2.73,1.84,3.5,3.18.77,1.35,1.16,2.85,1.16,4.5,0,1.87-.53,3.54-1.58,5-1.05,1.47-2.61,2.51-4.66,3.12l6.48,11.13h-7.72ZM480.46,63.53h4.24c1.25,0,2.19-.31,2.82-.92.63-.61.94-1.48.94-2.6s-.31-1.91-.94-2.52c-.63-.61-1.57-.92-2.82-.92h-4.24v6.97Z" fill="#fff" stroke-width="0"/><path d="M506.54,56.37v5.69h9.16v5.28h-9.16v6.17h10.36v5.49h-17.2v-28.11h17.2v5.49h-10.36Z" fill="#fff" stroke-width="0"/><path d="M539.63,52.64c2.21,1.17,3.93,2.82,5.14,4.94,1.21,2.12,1.82,4.57,1.82,7.35s-.61,5.19-1.82,7.33c-1.21,2.14-2.93,3.79-5.16,4.96s-4.81,1.76-7.74,1.76h-10.52v-28.11h10.52c2.96,0,5.55.59,7.76,1.76ZM537.47,70.94c1.44-1.41,2.16-3.42,2.16-6.01s-.72-4.6-2.16-6.05c-1.44-1.44-3.45-2.16-6.04-2.16h-3.24v16.34h3.24c2.59,0,4.6-.71,6.04-2.12Z" fill="#fff" stroke-width="0"/><path d="M557.27,50.88v28.11h-6.84v-28.11h6.84Z" fill="#fff" stroke-width="0"/><path d="M562.87,57.47c1.2-2.18,2.87-3.87,5.02-5.08,2.15-1.21,4.58-1.82,7.3-1.82,3.33,0,6.19.88,8.56,2.64,2.37,1.76,3.96,4.16,4.76,7.21h-7.52c-.56-1.17-1.35-2.07-2.38-2.68-1.03-.61-2.19-.92-3.5-.92-2.11,0-3.81.73-5.12,2.2-1.31,1.47-1.96,3.43-1.96,5.89s.65,4.42,1.96,5.89c1.31,1.47,3.01,2.2,5.12,2.2,1.31,0,2.47-.31,3.5-.92s1.82-1.51,2.38-2.68h7.52c-.8,3.04-2.39,5.44-4.76,7.19-2.37,1.75-5.23,2.62-8.56,2.62-2.72,0-5.15-.61-7.3-1.82-2.15-1.21-3.82-2.9-5.02-5.06-1.2-2.16-1.8-4.63-1.8-7.41s.6-5.25,1.8-7.43Z" fill="#fff" stroke-width="0"/><path d="M612.92,50.88v5.49h-7.44v22.62h-6.84v-22.62h-7.44v-5.49h21.72Z" fill="#fff" stroke-width="0"/><path d="M633.84,74.02h-10.48l-1.68,4.96h-7.16l10.16-28.11h7.92l10.16,28.11h-7.24l-1.68-4.96ZM632.08,68.74l-3.48-10.29-3.44,10.29h6.92Z" fill="#fff" stroke-width="0"/><path d="M666.77,67c.99,1.27,1.48,2.72,1.48,4.34,0,2.35-.82,4.21-2.46,5.59-1.64,1.37-3.93,2.06-6.86,2.06h-13.08v-28.11h12.64c2.85,0,5.09.65,6.7,1.96,1.61,1.31,2.42,3.08,2.42,5.33,0,1.65-.43,3.03-1.3,4.12-.87,1.09-2.02,1.86-3.46,2.28,1.63.35,2.93,1.15,3.92,2.42ZM652.69,62.25h4.48c1.12,0,1.98-.25,2.58-.74.6-.49.9-1.22.9-2.18s-.3-1.69-.9-2.2c-.6-.51-1.46-.76-2.58-.76h-4.48v5.89ZM660.39,72.68c.63-.52.94-1.27.94-2.26s-.33-1.76-.98-2.32c-.65-.56-1.55-.84-2.7-.84h-4.96v6.21h5.04c1.15,0,2.03-.26,2.66-.78Z" fill="#fff" stroke-width="0"/><path d="M679.05,73.7h8.96v5.29h-15.8v-28.11h6.84v22.82Z" fill="#fff" stroke-width="0"/><path d="M698.13,56.37v5.69h9.16v5.28h-9.16v6.17h10.36v5.49h-17.2v-28.11h17.2v5.49h-10.36Z" fill="#fff" stroke-width="0"/><path d="M720.3,72.66l-4.44,11.49h-4.36l2.32-11.49h6.48Z" fill="#fff" stroke-width="0"/><path d="M750.38,74.02h-10.48l-1.68,4.96h-7.16l10.16-28.11h7.92l10.16,28.11h-7.24l-1.68-4.96ZM748.62,68.74l-3.48-10.29-3.44,10.29h6.92Z" fill="#fff" stroke-width="0"/><path d="M787.51,78.99h-6.84l-11.44-17.34v17.34h-6.84v-28.11h6.84l11.44,17.42v-17.42h6.84v28.11Z" fill="#fff" stroke-width="0"/><path d="M810.75,52.64c2.21,1.17,3.93,2.82,5.14,4.94,1.21,2.12,1.82,4.57,1.82,7.35s-.61,5.19-1.82,7.33c-1.21,2.14-2.94,3.79-5.16,4.96-2.23,1.17-4.81,1.76-7.74,1.76h-10.52v-28.11h10.52c2.96,0,5.55.59,7.76,1.76ZM808.59,70.94c1.44-1.41,2.16-3.42,2.16-6.01s-.72-4.6-2.16-6.05c-1.44-1.44-3.45-2.16-6.04-2.16h-3.24v16.34h3.24c2.59,0,4.6-.71,6.04-2.12Z" fill="#fff" stroke-width="0"/><path d="M21.84,114.44c-.75,1.35-1.89,2.44-3.44,3.26-1.55.83-3.47,1.24-5.76,1.24h-4.24v10.09H1.55v-28.11h11.08c2.24,0,4.13.39,5.68,1.16,1.55.77,2.71,1.84,3.48,3.2.77,1.36,1.16,2.92,1.16,4.69,0,1.63-.37,3.12-1.12,4.46ZM15.04,112.58c.64-.61.96-1.48.96-2.6s-.32-1.99-.96-2.6c-.64-.61-1.61-.92-2.92-.92h-3.72v7.05h3.72c1.31,0,2.28-.31,2.92-.92Z" fill="#fff" stroke-width="0"/><path d="M32.54,127.47c-2.2-1.23-3.95-2.94-5.24-5.15s-1.94-4.68-1.94-7.43.65-5.22,1.94-7.41c1.29-2.19,3.04-3.9,5.24-5.12,2.2-1.23,4.62-1.84,7.26-1.84s5.06.61,7.26,1.84c2.2,1.23,3.93,2.94,5.2,5.12,1.27,2.19,1.9,4.66,1.9,7.41s-.64,5.22-1.92,7.43c-1.28,2.2-3.01,3.92-5.2,5.15-2.19,1.23-4.6,1.84-7.24,1.84s-5.06-.61-7.26-1.84ZM45.18,120.83c1.35-1.49,2.02-3.47,2.02-5.93s-.67-4.46-2.02-5.95c-1.35-1.48-3.14-2.22-5.38-2.22s-4.07.73-5.42,2.2c-1.35,1.47-2.02,3.46-2.02,5.97s.67,4.46,2.02,5.95c1.35,1.48,3.15,2.22,5.42,2.22s4.03-.75,5.38-2.24Z" fill="#fff" stroke-width="0"/><path d="M78.17,100.93v5.48h-7.44v22.62h-6.84v-22.62h-7.44v-5.48h21.72Z" fill="#fff" stroke-width="0"/><path d="M88.45,106.41v5.69h9.16v5.28h-9.16v6.17h10.36v5.49h-17.2v-28.11h17.2v5.48h-10.36Z" fill="#fff" stroke-width="0"/><path d="M128.37,129.03h-6.84l-11.44-17.34v17.34h-6.84v-28.11h6.84l11.44,17.42v-17.42h6.84v28.11Z" fill="#fff" stroke-width="0"/><path d="M153.54,100.93v5.48h-7.44v22.62h-6.84v-22.62h-7.44v-5.48h21.72Z" fill="#fff" stroke-width="0"/><path d="M163.82,100.93v28.11h-6.84v-28.11h6.84Z" fill="#fff" stroke-width="0"/><path d="M186.26,124.07h-10.48l-1.68,4.96h-7.16l10.16-28.11h7.92l10.16,28.11h-7.24l-1.68-4.96ZM184.5,118.78l-3.48-10.29-3.44,10.29h6.92Z" fill="#fff" stroke-width="0"/><path d="M205.11,123.75h8.96v5.29h-15.8v-28.11h6.84v22.82Z" fill="#fff" stroke-width="0"/><path d="M224.19,123.75h8.96v5.29h-15.8v-28.11h6.84v22.82Z" fill="#fff" stroke-width="0"/><path d="M260.51,100.93l-9.72,18.82v9.29h-6.84v-9.29l-9.72-18.82h7.76l5.44,11.77,5.4-11.77h7.68Z" fill="#fff" stroke-width="0"/><path d="M278.6,123.75h8.96v5.29h-15.8v-28.11h6.84v22.82Z" fill="#fff" stroke-width="0"/><path d="M297.68,100.93v28.11h-6.84v-28.11h6.84Z" fill="#fff" stroke-width="0"/><path d="M320.92,100.93v5.48h-11.44v5.93h8.56v5.33h-8.56v11.37h-6.84v-28.11h18.28Z" fill="#fff" stroke-width="0"/><path d="M331.36,106.41v5.69h9.16v5.28h-9.16v6.17h10.36v5.49h-17.2v-28.11h17.2v5.48h-10.36Z" fill="#fff" stroke-width="0"/><path d="M363.37,112.14v5.69h-17.6v-5.69h17.6Z" fill="#fff" stroke-width="0"/><path d="M389.57,100.93v5.48h-7.44v22.62h-6.84v-22.62h-7.44v-5.48h21.72Z" fill="#fff" stroke-width="0"/><path d="M417.34,100.93v28.11h-6.84v-11.57h-10.64v11.57h-6.84v-28.11h6.84v11.01h10.64v-11.01h6.84Z" fill="#fff" stroke-width="0"/><path d="M436.58,129.03l-5.84-10.61h-1.64v10.61h-6.84v-28.11h11.48c2.21,0,4.1.39,5.66,1.16s2.73,1.83,3.5,3.18c.77,1.35,1.16,2.85,1.16,4.5,0,1.87-.53,3.54-1.58,5-1.05,1.47-2.61,2.51-4.66,3.12l6.48,11.13h-7.72ZM429.1,113.58h4.24c1.25,0,2.19-.31,2.82-.92.63-.61.94-1.48.94-2.6s-.31-1.91-.94-2.52c-.63-.61-1.57-.92-2.82-.92h-4.24v6.97Z" fill="#fff" stroke-width="0"/><path d="M455.18,106.41v5.69h9.16v5.28h-9.16v6.17h10.36v5.49h-17.2v-28.11h17.2v5.48h-10.36Z" fill="#fff" stroke-width="0"/><path d="M487.47,124.07h-10.48l-1.68,4.96h-7.16l10.16-28.11h7.92l10.16,28.11h-7.24l-1.68-4.96ZM485.71,118.78l-3.48-10.29-3.44,10.29h6.92Z" fill="#fff" stroke-width="0"/><path d="M519.67,100.93v5.48h-7.44v22.62h-6.84v-22.62h-7.44v-5.48h21.72Z" fill="#fff" stroke-width="0"/><path d="M529.96,106.41v5.69h9.16v5.28h-9.16v6.17h10.36v5.49h-17.2v-28.11h17.2v5.48h-10.36Z" fill="#fff" stroke-width="0"/><path d="M569.88,129.03h-6.84l-11.44-17.34v17.34h-6.84v-28.11h6.84l11.44,17.42v-17.42h6.84v28.11Z" fill="#fff" stroke-width="0"/><path d="M581.68,100.93v28.11h-6.84v-28.11h6.84Z" fill="#fff" stroke-width="0"/><path d="M611.77,129.03h-6.84l-11.44-17.34v17.34h-6.84v-28.11h6.84l11.44,17.42v-17.42h6.84v28.11Z" fill="#fff" stroke-width="0"/><path d="M635.37,109.82c-.51-.93-1.23-1.65-2.18-2.14-.95-.49-2.06-.74-3.34-.74-2.21,0-3.99.73-5.32,2.18-1.33,1.46-2,3.4-2,5.83,0,2.59.7,4.61,2.1,6.07,1.4,1.45,3.33,2.18,5.78,2.18,1.68,0,3.1-.43,4.26-1.28,1.16-.85,2.01-2.08,2.54-3.68h-8.68v-5.04h14.88v6.37c-.51,1.71-1.37,3.3-2.58,4.77-1.21,1.47-2.75,2.66-4.62,3.56-1.87.91-3.97,1.36-6.32,1.36-2.77,0-5.25-.61-7.42-1.82-2.17-1.21-3.87-2.9-5.08-5.06s-1.82-4.63-1.82-7.41.61-5.25,1.82-7.43,2.9-3.87,5.06-5.08c2.16-1.21,4.63-1.82,7.4-1.82,3.36,0,6.19.81,8.5,2.44s3.83,3.88,4.58,6.77h-7.56Z" fill="#fff" stroke-width="0"/><path d="M656.34,107.51c1.2-2.18,2.87-3.87,5.02-5.08,2.15-1.21,4.58-1.82,7.3-1.82,3.33,0,6.19.88,8.56,2.64,2.37,1.76,3.96,4.16,4.76,7.21h-7.52c-.56-1.17-1.35-2.07-2.38-2.68-1.03-.61-2.19-.92-3.5-.92-2.11,0-3.82.73-5.12,2.2-1.31,1.47-1.96,3.43-1.96,5.89s.65,4.42,1.96,5.89c1.31,1.47,3.01,2.2,5.12,2.2,1.31,0,2.47-.31,3.5-.92,1.03-.61,1.82-1.51,2.38-2.68h7.52c-.8,3.04-2.39,5.44-4.76,7.19-2.37,1.75-5.23,2.62-8.56,2.62-2.72,0-5.16-.61-7.3-1.82-2.15-1.21-3.82-2.9-5.02-5.06s-1.8-4.63-1.8-7.41.6-5.25,1.8-7.43Z" fill="#fff" stroke-width="0"/><path d="M692.2,127.47c-2.2-1.23-3.95-2.94-5.24-5.15-1.29-2.2-1.94-4.68-1.94-7.43s.65-5.22,1.94-7.41c1.29-2.19,3.04-3.9,5.24-5.12,2.2-1.23,4.62-1.84,7.26-1.84s5.06.61,7.26,1.84c2.2,1.23,3.93,2.94,5.2,5.12,1.27,2.19,1.9,4.66,1.9,7.41s-.64,5.22-1.92,7.43-3.01,3.92-5.2,5.15-4.6,1.84-7.24,1.84-5.06-.61-7.26-1.84ZM704.84,120.83c1.35-1.49,2.02-3.47,2.02-5.93s-.67-4.46-2.02-5.95c-1.35-1.48-3.14-2.22-5.38-2.22s-4.07.73-5.42,2.2-2.02,3.46-2.02,5.97.67,4.46,2.02,5.95c1.35,1.48,3.15,2.22,5.42,2.22s4.03-.75,5.38-2.24Z" fill="#fff" stroke-width="0"/><path d="M742.75,129.03h-6.84l-11.44-17.34v17.34h-6.84v-28.11h6.84l11.44,17.42v-17.42h6.84v28.11Z" fill="#fff" stroke-width="0"/><path d="M765.99,102.69c2.21,1.17,3.93,2.82,5.14,4.95,1.21,2.12,1.82,4.57,1.82,7.35s-.61,5.19-1.82,7.33c-1.21,2.14-2.94,3.79-5.16,4.96-2.23,1.17-4.81,1.76-7.74,1.76h-10.52v-28.11h10.52c2.96,0,5.55.59,7.76,1.76ZM763.83,120.99c1.44-1.41,2.16-3.42,2.16-6.01s-.72-4.6-2.16-6.05c-1.44-1.44-3.45-2.16-6.04-2.16h-3.24v16.34h3.24c2.59,0,4.6-.71,6.04-2.12Z" fill="#fff" stroke-width="0"/><path d="M783.64,100.93v28.11h-6.84v-28.11h6.84Z" fill="#fff" stroke-width="0"/><path d="M808.8,100.93v5.48h-7.44v22.62h-6.84v-22.62h-7.44v-5.48h21.72Z" fill="#fff" stroke-width="0"/><path d="M819.08,100.93v28.11h-6.84v-28.11h6.84Z" fill="#fff" stroke-width="0"/><path d="M830.06,127.47c-2.2-1.23-3.95-2.94-5.24-5.15-1.29-2.2-1.94-4.68-1.94-7.43s.65-5.22,1.94-7.41c1.29-2.19,3.04-3.9,5.24-5.12,2.2-1.23,4.62-1.84,7.26-1.84s5.06.61,7.26,1.84c2.2,1.23,3.93,2.94,5.2,5.12,1.27,2.19,1.9,4.66,1.9,7.41s-.64,5.22-1.92,7.43-3.01,3.92-5.2,5.15-4.6,1.84-7.24,1.84-5.06-.61-7.26-1.84ZM842.71,120.83c1.35-1.49,2.02-3.47,2.02-5.93s-.67-4.46-2.02-5.95c-1.35-1.48-3.14-2.22-5.38-2.22s-4.07.73-5.42,2.2-2.02,3.46-2.02,5.97.67,4.46,2.02,5.95c1.35,1.48,3.15,2.22,5.42,2.22s4.03-.75,5.38-2.24Z" fill="#fff" stroke-width="0"/><path d="M880.61,129.03h-6.84l-11.44-17.34v17.34h-6.84v-28.11h6.84l11.44,17.42v-17.42h6.84v28.11Z" fill="#fff" stroke-width="0"/><path d="M883.72,102.35v-3.71h6.46v17.05h-4.15v-13.34h-2.31Z" fill="#fff" stroke-width="0"/><path d="M897.61,112l-2.59,6.7h-2.54l1.35-6.7h3.78Z" fill="#fff" stroke-width="0"/><path d="M906.05,112.54c.82,0,1.41-.37,1.75-1.1.34-.73.51-1.92.51-3.57-.34.48-.81.86-1.4,1.12s-1.25.4-1.98.4c-1,0-1.88-.21-2.66-.62-.78-.41-1.39-1.03-1.83-1.84-.44-.82-.67-1.81-.67-2.98s.24-2.16.71-3.01,1.15-1.52,2.03-1.99,1.92-.7,3.12-.7c2.3,0,3.91.72,4.83,2.15.92,1.43,1.38,3.54,1.38,6.33,0,2.02-.18,3.69-.55,5.01-.37,1.32-.98,2.32-1.84,3-.86.69-2.04,1.03-3.53,1.03-1.18,0-2.19-.23-3.02-.7-.83-.47-1.47-1.08-1.91-1.85-.44-.76-.7-1.6-.76-2.52h3.69c.23,1.23.95,1.85,2.15,1.85ZM907.41,105.64c.39-.4.58-.94.58-1.62,0-.75-.2-1.32-.61-1.73s-.95-.61-1.63-.61-1.22.21-1.62.62-.59.98-.59,1.69c0,.67.2,1.21.59,1.62s.97.62,1.72.62c.65,0,1.17-.2,1.56-.6Z" fill="#fff" stroke-width="0"/><path id="b" d="M0,0c0,4.59,204.16,8.31,456,8.31S912,4.59,912,0" fill="#29aae1" stroke-width="0"/><path id="c" d="M0,185c0-4.59,204.16-8.32,456-8.32s456,3.72,456,8.32" fill="#29aae1" stroke-width="0"/></svg>