<?xml version="1.0" encoding="UTF-8"?><svg id="a" xmlns="http://www.w3.org/2000/svg" width="625" height="205" viewBox="0 0 625 205"><path d="M24.33,38.87v28.1h-6.84v-11.57H6.84v11.57H0v-28.1h6.84v11.01h10.64v-11.01h6.84Z" fill="#fff" stroke-width="0"/><path d="M46.73,62.01h-10.48l-1.68,4.96h-7.16l10.16-28.1h7.92l10.16,28.1h-7.24l-1.68-4.96ZM44.97,56.72l-3.48-10.29-3.44,10.29h6.92Z" fill="#fff" stroke-width="0"/><path d="M65.58,44.35v5.68h9.16v5.28h-9.16v6.16h10.36v5.49h-17.21v-28.1h17.21v5.49h-10.36Z" fill="#fff" stroke-width="0"/><path d="M95.71,38.87v28.1h-6.84v-28.1h6.84Z" fill="#fff" stroke-width="0"/><path d="M105.31,66.25c-1.63-.67-2.93-1.65-3.9-2.96-.97-1.31-1.49-2.88-1.54-4.72h7.28c.11,1.04.47,1.84,1.08,2.38.61.55,1.41.82,2.4.82s1.81-.23,2.4-.7c.59-.47.88-1.11.88-1.94,0-.69-.23-1.27-.7-1.72-.47-.45-1.04-.83-1.72-1.12-.68-.29-1.65-.63-2.9-1-1.81-.56-3.29-1.12-4.44-1.68-1.15-.56-2.13-1.39-2.96-2.48-.83-1.09-1.24-2.52-1.24-4.28,0-2.62.95-4.66,2.84-6.14,1.89-1.48,4.36-2.22,7.4-2.22s5.59.74,7.48,2.22c1.89,1.48,2.91,3.54,3.04,6.18h-7.4c-.05-.91-.39-1.62-1-2.14-.61-.52-1.4-.78-2.36-.78-.83,0-1.49.22-2,.66-.51.44-.76,1.07-.76,1.9,0,.91.43,1.62,1.28,2.12.85.51,2.19,1.05,4,1.64,1.81.61,3.29,1.2,4.42,1.76,1.13.56,2.11,1.38,2.94,2.44.83,1.07,1.24,2.44,1.24,4.12s-.41,3.06-1.22,4.36c-.81,1.31-1.99,2.35-3.54,3.12-1.55.77-3.38,1.16-5.48,1.16s-3.9-.33-5.52-1Z" fill="#fff" stroke-width="0"/><path d="M151.25,62.01h-10.48l-1.68,4.96h-7.16l10.16-28.1h7.92l10.16,28.1h-7.24l-1.68-4.96ZM149.49,56.72l-3.48-10.29-3.44,10.29h6.92Z" fill="#fff" stroke-width="0"/><path d="M186.06,66.97l-5.84-10.61h-1.64v10.61h-6.84v-28.1h11.48c2.21,0,4.1.39,5.66,1.16s2.73,1.84,3.5,3.18c.77,1.35,1.16,2.85,1.16,4.5,0,1.87-.53,3.54-1.58,5-1.05,1.47-2.61,2.51-4.66,3.12l6.48,11.13h-7.72ZM178.58,51.52h4.24c1.25,0,2.19-.31,2.82-.92.63-.61.94-1.48.94-2.6s-.31-1.91-.94-2.52c-.63-.61-1.57-.92-2.82-.92h-4.24v6.97Z" fill="#fff" stroke-width="0"/><path d="M215.31,62.01h-10.48l-1.68,4.96h-7.16l10.16-28.1h7.92l10.16,28.1h-7.24l-1.68-4.96ZM213.55,56.72l-3.48-10.29-3.44,10.29h6.92Z" fill="#fff" stroke-width="0"/><path d="M241.64,66.97l-5.84-10.61h-1.64v10.61h-6.84v-28.1h11.48c2.21,0,4.1.39,5.66,1.16s2.73,1.84,3.5,3.18c.77,1.35,1.16,2.85,1.16,4.5,0,1.87-.53,3.54-1.58,5-1.05,1.47-2.61,2.51-4.66,3.12l6.48,11.13h-7.72ZM234.15,51.52h4.24c1.25,0,2.19-.31,2.82-.92.63-.61.94-1.48.94-2.6s-.31-1.91-.94-2.52c-.63-.61-1.57-.92-2.82-.92h-4.24v6.97Z" fill="#fff" stroke-width="0"/><path d="M260.24,44.35v5.68h9.16v5.28h-9.16v6.16h10.36v5.49h-17.21v-28.1h17.21v5.49h-10.36Z" fill="#fff" stroke-width="0"/><path d="M282.41,60.64l-4.44,11.49h-4.36l2.32-11.49h6.48Z" fill="#fff" stroke-width="0"/><path d="M301.74,38.87v16.81c0,1.68.41,2.98,1.24,3.88.83.91,2.04,1.36,3.64,1.36s2.83-.45,3.68-1.36c.85-.91,1.28-2.2,1.28-3.88v-16.81h6.84v16.77c0,2.51-.53,4.63-1.6,6.37-1.07,1.73-2.5,3.04-4.3,3.92s-3.81,1.32-6.02,1.32-4.2-.43-5.94-1.3c-1.75-.87-3.13-2.18-4.14-3.92-1.01-1.75-1.52-3.88-1.52-6.39v-16.77h6.84Z" fill="#fff" stroke-width="0"/><path d="M348.35,66.97h-6.84l-11.44-17.33v17.33h-6.84v-28.1h6.84l11.44,17.42v-17.42h6.84v28.1Z" fill="#fff" stroke-width="0"/><path d="M373.6,52.38c-.75,1.35-1.89,2.44-3.44,3.26-1.55.83-3.47,1.24-5.76,1.24h-4.24v10.09h-6.84v-28.1h11.08c2.24,0,4.13.39,5.68,1.16,1.55.77,2.71,1.84,3.48,3.2.77,1.36,1.16,2.92,1.16,4.68,0,1.63-.37,3.12-1.12,4.46ZM366.8,50.52c.64-.61.96-1.48.96-2.6s-.32-1.99-.96-2.6-1.61-.92-2.92-.92h-3.72v7.05h3.72c1.31,0,2.28-.31,2.92-.92Z" fill="#fff" stroke-width="0"/><path d="M392.61,66.97l-5.84-10.61h-1.64v10.61h-6.84v-28.1h11.48c2.21,0,4.1.39,5.66,1.16s2.73,1.84,3.5,3.18c.77,1.35,1.16,2.85,1.16,4.5,0,1.87-.53,3.54-1.58,5-1.05,1.47-2.61,2.51-4.66,3.12l6.48,11.13h-7.72ZM385.12,51.52h4.24c1.25,0,2.19-.31,2.82-.92.63-.61.94-1.48.94-2.6s-.31-1.91-.94-2.52c-.63-.61-1.57-.92-2.82-.92h-4.24v6.97Z" fill="#fff" stroke-width="0"/><path d="M411.21,44.35v5.68h9.16v5.28h-9.16v6.16h10.36v5.49h-17.21v-28.1h17.21v5.49h-10.36Z" fill="#fff" stroke-width="0"/><path d="M444.3,40.63c2.21,1.17,3.93,2.82,5.14,4.94,1.21,2.12,1.82,4.57,1.82,7.35s-.61,5.19-1.82,7.33c-1.21,2.14-2.93,3.79-5.16,4.96-2.23,1.17-4.81,1.76-7.74,1.76h-10.52v-28.1h10.52c2.96,0,5.55.59,7.76,1.76ZM442.14,58.92c1.44-1.41,2.16-3.42,2.16-6.01s-.72-4.6-2.16-6.05c-1.44-1.44-3.45-2.16-6.04-2.16h-3.24v16.33h3.24c2.59,0,4.6-.71,6.04-2.12Z" fill="#fff" stroke-width="0"/><path d="M461.95,38.87v28.1h-6.84v-28.1h6.84Z" fill="#fff" stroke-width="0"/><path d="M467.55,45.45c1.2-2.17,2.87-3.87,5.02-5.08,2.15-1.21,4.58-1.82,7.3-1.82,3.33,0,6.19.88,8.56,2.64,2.37,1.76,3.96,4.16,4.76,7.21h-7.52c-.56-1.17-1.35-2.07-2.38-2.68-1.03-.61-2.19-.92-3.5-.92-2.11,0-3.81.73-5.12,2.2-1.31,1.47-1.96,3.43-1.96,5.88s.65,4.42,1.96,5.88c1.31,1.47,3.01,2.2,5.12,2.2,1.31,0,2.47-.31,3.5-.92,1.03-.61,1.82-1.51,2.38-2.68h7.52c-.8,3.04-2.39,5.44-4.76,7.19-2.37,1.75-5.23,2.62-8.56,2.62-2.72,0-5.16-.61-7.3-1.82-2.15-1.21-3.82-2.9-5.02-5.06-1.2-2.16-1.8-4.63-1.8-7.41s.6-5.25,1.8-7.43Z" fill="#fff" stroke-width="0"/><path d="M517.61,38.87v5.49h-7.44v22.62h-6.84v-22.62h-7.44v-5.49h21.73Z" fill="#fff" stroke-width="0"/><path d="M538.53,62.01h-10.48l-1.68,4.96h-7.16l10.16-28.1h7.92l10.16,28.1h-7.24l-1.68-4.96ZM536.77,56.72l-3.48-10.29-3.44,10.29h6.92Z" fill="#fff" stroke-width="0"/><path d="M571.46,54.98c.99,1.27,1.48,2.72,1.48,4.34,0,2.35-.82,4.21-2.46,5.58-1.64,1.37-3.93,2.06-6.86,2.06h-13.08v-28.1h12.64c2.85,0,5.09.65,6.7,1.96,1.61,1.31,2.42,3.08,2.42,5.32,0,1.65-.43,3.03-1.3,4.12-.87,1.09-2.02,1.86-3.46,2.28,1.63.35,2.93,1.16,3.92,2.42ZM557.38,50.24h4.48c1.12,0,1.98-.25,2.58-.74.6-.49.9-1.22.9-2.18s-.3-1.69-.9-2.2-1.46-.76-2.58-.76h-4.48v5.88ZM565.08,60.66c.63-.52.94-1.27.94-2.26s-.33-1.76-.98-2.32c-.65-.56-1.55-.84-2.7-.84h-4.96v6.21h5.04c1.15,0,2.03-.26,2.66-.78Z" fill="#fff" stroke-width="0"/><path d="M583.75,61.68h8.96v5.28h-15.81v-28.1h6.84v22.82Z" fill="#fff" stroke-width="0"/><path d="M602.83,44.35v5.68h9.16v5.28h-9.16v6.16h10.36v5.49h-17.21v-28.1h17.21v5.49h-10.36Z" fill="#fff" stroke-width="0"/><path d="M625,60.64l-4.44,11.49h-4.36l2.32-11.49h6.48Z" fill="#fff" stroke-width="0"/><path d="M99.53,112.05h-10.48l-1.68,4.96h-7.16l10.16-28.1h7.92l10.16,28.1h-7.24l-1.68-4.96ZM97.77,106.76l-3.48-10.29-3.44,10.29h6.92Z" fill="#fff" stroke-width="0"/><path d="M136.67,117.01h-6.84l-11.44-17.33v17.33h-6.84v-28.1h6.84l11.44,17.42v-17.42h6.84v28.1Z" fill="#fff" stroke-width="0"/><path d="M159.91,90.67c2.21,1.17,3.93,2.82,5.14,4.94,1.21,2.12,1.82,4.57,1.82,7.35s-.61,5.19-1.82,7.33c-1.21,2.14-2.93,3.79-5.16,4.96-2.23,1.17-4.81,1.76-7.74,1.76h-10.52v-28.1h10.52c2.96,0,5.55.59,7.76,1.76ZM157.75,108.96c1.44-1.41,2.16-3.42,2.16-6.01s-.72-4.6-2.16-6.05c-1.44-1.44-3.45-2.16-6.04-2.16h-3.24v16.33h3.24c2.59,0,4.6-.71,6.04-2.12Z" fill="#fff" stroke-width="0"/><path d="M199.49,102.42c-.75,1.35-1.89,2.44-3.44,3.26-1.55.83-3.47,1.24-5.76,1.24h-4.24v10.09h-6.84v-28.1h11.08c2.24,0,4.13.39,5.68,1.16,1.55.77,2.71,1.84,3.48,3.2.77,1.36,1.16,2.92,1.16,4.68,0,1.63-.37,3.12-1.12,4.46ZM192.68,100.56c.64-.61.96-1.48.96-2.6s-.32-1.99-.96-2.6-1.61-.92-2.92-.92h-3.72v7.05h3.72c1.31,0,2.28-.31,2.92-.92Z" fill="#fff" stroke-width="0"/><path d="M210.19,115.45c-2.2-1.23-3.95-2.94-5.24-5.14s-1.94-4.68-1.94-7.43.65-5.22,1.94-7.41,3.04-3.9,5.24-5.12,4.62-1.84,7.26-1.84,5.06.61,7.26,1.84,3.93,2.94,5.2,5.12c1.27,2.19,1.9,4.66,1.9,7.41s-.64,5.22-1.92,7.43c-1.28,2.2-3.02,3.92-5.2,5.14-2.19,1.23-4.6,1.84-7.24,1.84s-5.06-.61-7.26-1.84ZM222.83,108.8c1.35-1.49,2.02-3.47,2.02-5.92s-.67-4.46-2.02-5.94c-1.35-1.48-3.14-2.22-5.38-2.22s-4.08.73-5.42,2.2c-1.35,1.47-2.02,3.46-2.02,5.96s.67,4.46,2.02,5.95c1.35,1.48,3.15,2.22,5.42,2.22s4.03-.75,5.38-2.24Z" fill="#fff" stroke-width="0"/><path d="M255.82,88.91v5.49h-7.44v22.62h-6.84v-22.62h-7.44v-5.49h21.73Z" fill="#fff" stroke-width="0"/><path d="M266.11,94.39v5.68h9.16v5.28h-9.16v6.16h10.36v5.49h-17.21v-28.1h17.21v5.49h-10.36Z" fill="#fff" stroke-width="0"/><path d="M306.04,117.01h-6.84l-11.44-17.33v17.33h-6.84v-28.1h6.84l11.44,17.42v-17.42h6.84v28.1Z" fill="#fff" stroke-width="0"/><path d="M331.21,88.91v5.49h-7.44v22.62h-6.84v-22.62h-7.44v-5.49h21.73Z" fill="#fff" stroke-width="0"/><path d="M341.49,88.91v28.1h-6.84v-28.1h6.84Z" fill="#fff" stroke-width="0"/><path d="M363.94,112.05h-10.48l-1.68,4.96h-7.16l10.16-28.1h7.92l10.16,28.1h-7.24l-1.68-4.96ZM362.18,106.76l-3.48-10.29-3.44,10.29h6.92Z" fill="#fff" stroke-width="0"/><path d="M382.78,111.73h8.96v5.28h-15.81v-28.1h6.84v22.82Z" fill="#fff" stroke-width="0"/><path d="M401.87,111.73h8.96v5.28h-15.81v-28.1h6.84v22.82Z" fill="#fff" stroke-width="0"/><path d="M438.2,88.91l-9.72,18.82v9.29h-6.84v-9.29l-9.72-18.82h7.76l5.44,11.77,5.4-11.77h7.68Z" fill="#fff" stroke-width="0"/><path d="M456.29,111.73h8.96v5.28h-15.81v-28.1h6.84v22.82Z" fill="#fff" stroke-width="0"/><path d="M475.37,88.91v28.1h-6.84v-28.1h6.84Z" fill="#fff" stroke-width="0"/><path d="M498.62,88.91v5.49h-11.44v5.92h8.56v5.32h-8.56v11.37h-6.84v-28.1h18.29Z" fill="#fff" stroke-width="0"/><path d="M509.06,94.39v5.68h9.16v5.28h-9.16v6.16h10.36v5.49h-17.21v-28.1h17.21v5.49h-10.36Z" fill="#fff" stroke-width="0"/><path d="M541.08,100.12v5.68h-17.61v-5.68h17.61Z" fill="#fff" stroke-width="0"/><path d="M61.71,138.95v5.49h-7.44v22.62h-6.84v-22.62h-7.44v-5.49h21.73Z" fill="#fff" stroke-width="0"/><path d="M89.48,138.95v28.1h-6.84v-11.57h-10.64v11.57h-6.84v-28.1h6.84v11.01h10.64v-11.01h6.84Z" fill="#fff" stroke-width="0"/><path d="M108.73,167.05l-5.84-10.61h-1.64v10.61h-6.84v-28.1h11.48c2.21,0,4.1.39,5.66,1.16,1.56.77,2.73,1.84,3.5,3.18.77,1.35,1.16,2.85,1.16,4.5,0,1.87-.53,3.54-1.58,5-1.05,1.47-2.61,2.51-4.66,3.12l6.48,11.13h-7.72ZM101.24,151.6h4.24c1.25,0,2.19-.31,2.82-.92.63-.61.94-1.48.94-2.6s-.31-1.91-.94-2.52c-.63-.61-1.57-.92-2.82-.92h-4.24v6.97Z" fill="#fff" stroke-width="0"/><path d="M127.33,144.43v5.68h9.16v5.28h-9.16v6.16h10.36v5.49h-17.21v-28.1h17.21v5.49h-10.36Z" fill="#fff" stroke-width="0"/><path d="M159.62,162.09h-10.48l-1.68,4.96h-7.16l10.16-28.1h7.92l10.16,28.1h-7.24l-1.68-4.96ZM157.86,156.8l-3.48-10.29-3.44,10.29h6.92Z" fill="#fff" stroke-width="0"/><path d="M191.83,138.95v5.49h-7.44v22.62h-6.84v-22.62h-7.44v-5.49h21.73Z" fill="#fff" stroke-width="0"/><path d="M202.12,144.43v5.68h9.16v5.28h-9.16v6.16h10.36v5.49h-17.21v-28.1h17.21v5.49h-10.36Z" fill="#fff" stroke-width="0"/><path d="M242.05,167.05h-6.84l-11.44-17.33v17.33h-6.84v-28.1h6.84l11.44,17.42v-17.42h6.84v28.1Z" fill="#fff" stroke-width="0"/><path d="M253.85,138.95v28.1h-6.84v-28.1h6.84Z" fill="#fff" stroke-width="0"/><path d="M283.94,167.05h-6.84l-11.44-17.33v17.33h-6.84v-28.1h6.84l11.44,17.42v-17.42h6.84v28.1Z" fill="#fff" stroke-width="0"/><path d="M307.55,147.84c-.51-.93-1.23-1.65-2.18-2.14-.95-.49-2.06-.74-3.34-.74-2.21,0-3.99.73-5.32,2.18-1.33,1.46-2,3.4-2,5.83,0,2.59.7,4.61,2.1,6.07,1.4,1.45,3.33,2.18,5.78,2.18,1.68,0,3.1-.43,4.26-1.28,1.16-.85,2.01-2.08,2.54-3.68h-8.68v-5.04h14.88v6.36c-.51,1.71-1.37,3.3-2.58,4.76-1.21,1.47-2.75,2.66-4.62,3.56-1.87.91-3.97,1.36-6.32,1.36-2.78,0-5.25-.61-7.42-1.82-2.17-1.21-3.87-2.9-5.08-5.06-1.21-2.16-1.82-4.63-1.82-7.41s.61-5.25,1.82-7.43c1.21-2.17,2.9-3.87,5.06-5.08,2.16-1.21,4.63-1.82,7.4-1.82,3.36,0,6.19.82,8.5,2.44,2.31,1.63,3.83,3.88,4.58,6.77h-7.56Z" fill="#fff" stroke-width="0"/><path d="M328.52,145.54c1.2-2.17,2.87-3.87,5.02-5.08,2.15-1.21,4.58-1.82,7.3-1.82,3.33,0,6.19.88,8.56,2.64,2.37,1.76,3.96,4.16,4.76,7.21h-7.52c-.56-1.17-1.35-2.07-2.38-2.68-1.03-.61-2.19-.92-3.5-.92-2.11,0-3.81.73-5.12,2.2-1.31,1.47-1.96,3.43-1.96,5.88s.65,4.42,1.96,5.88c1.31,1.47,3.01,2.2,5.12,2.2,1.31,0,2.47-.31,3.5-.92s1.82-1.51,2.38-2.68h7.52c-.8,3.04-2.39,5.44-4.76,7.19-2.37,1.75-5.23,2.62-8.56,2.62-2.72,0-5.16-.61-7.3-1.82-2.15-1.21-3.82-2.9-5.02-5.06-1.2-2.16-1.8-4.63-1.8-7.41s.6-5.25,1.8-7.43Z" fill="#fff" stroke-width="0"/><path d="M364.39,165.49c-2.2-1.23-3.95-2.94-5.24-5.14-1.29-2.2-1.94-4.68-1.94-7.43s.65-5.22,1.94-7.41c1.29-2.19,3.04-3.9,5.24-5.12s4.62-1.84,7.26-1.84,5.06.61,7.26,1.84,3.93,2.94,5.2,5.12,1.9,4.66,1.9,7.41-.64,5.22-1.92,7.43c-1.28,2.2-3.02,3.92-5.2,5.14-2.19,1.23-4.6,1.84-7.24,1.84s-5.06-.61-7.26-1.84ZM377.03,158.85c1.35-1.49,2.02-3.47,2.02-5.92s-.67-4.46-2.02-5.94c-1.35-1.48-3.14-2.22-5.38-2.22s-4.08.73-5.42,2.2c-1.35,1.47-2.02,3.46-2.02,5.96s.67,4.46,2.02,5.95c1.35,1.48,3.15,2.22,5.42,2.22s4.03-.75,5.38-2.24Z" fill="#fff" stroke-width="0"/><path d="M414.95,167.05h-6.84l-11.44-17.33v17.33h-6.84v-28.1h6.84l11.44,17.42v-17.42h6.84v28.1Z" fill="#fff" stroke-width="0"/><path d="M438.19,140.71c2.21,1.17,3.93,2.82,5.14,4.94,1.21,2.12,1.82,4.57,1.82,7.35s-.61,5.19-1.82,7.33c-1.21,2.14-2.93,3.79-5.16,4.96s-4.81,1.76-7.74,1.76h-10.52v-28.1h10.52c2.96,0,5.55.59,7.76,1.76ZM436.03,159.01c1.44-1.41,2.16-3.42,2.16-6.01s-.72-4.6-2.16-6.05c-1.44-1.44-3.46-2.16-6.04-2.16h-3.24v16.33h3.24c2.59,0,4.6-.71,6.04-2.12Z" fill="#fff" stroke-width="0"/><path d="M455.84,138.95v28.1h-6.84v-28.1h6.84Z" fill="#fff" stroke-width="0"/><path d="M481.01,138.95v5.49h-7.44v22.62h-6.84v-22.62h-7.44v-5.49h21.73Z" fill="#fff" stroke-width="0"/><path d="M491.29,138.95v28.1h-6.84v-28.1h6.84Z" fill="#fff" stroke-width="0"/><path d="M502.27,165.49c-2.2-1.23-3.95-2.94-5.24-5.14-1.29-2.2-1.94-4.68-1.94-7.43s.65-5.22,1.94-7.41c1.29-2.19,3.04-3.9,5.24-5.12s4.62-1.84,7.26-1.84,5.06.61,7.26,1.84,3.93,2.94,5.2,5.12,1.9,4.66,1.9,7.41-.64,5.22-1.92,7.43c-1.28,2.2-3.02,3.92-5.2,5.14-2.19,1.23-4.6,1.84-7.24,1.84s-5.06-.61-7.26-1.84ZM514.92,158.85c1.35-1.49,2.02-3.47,2.02-5.92s-.67-4.46-2.02-5.94c-1.35-1.48-3.14-2.22-5.38-2.22s-4.08.73-5.42,2.2c-1.35,1.47-2.02,3.46-2.02,5.96s.67,4.46,2.02,5.95c1.35,1.48,3.15,2.22,5.42,2.22s4.03-.75,5.38-2.24Z" fill="#fff" stroke-width="0"/><path d="M552.83,167.05h-6.84l-11.44-17.33v17.33h-6.84v-28.1h6.84l11.44,17.42v-17.42h6.84v28.1Z" fill="#fff" stroke-width="0"/><path d="M555.94,140.38v-3.71h6.47v17.05h-4.15v-13.33h-2.31Z" fill="#fff" stroke-width="0"/><path d="M569.83,150.02l-2.59,6.7h-2.54l1.35-6.7h3.78Z" fill="#fff" stroke-width="0"/><path d="M578.28,150.56c.82,0,1.41-.37,1.75-1.1s.51-1.92.51-3.57c-.34.48-.81.86-1.4,1.12-.59.26-1.25.4-1.98.4-1,0-1.88-.21-2.66-.62-.78-.41-1.39-1.03-1.83-1.84-.44-.82-.67-1.81-.67-2.98s.24-2.16.71-3.01,1.15-1.52,2.03-1.99c.88-.47,1.92-.7,3.12-.7,2.3,0,3.91.72,4.83,2.15.92,1.43,1.38,3.54,1.38,6.33,0,2.02-.18,3.69-.55,5.01-.37,1.32-.98,2.32-1.84,3-.86.69-2.04,1.03-3.54,1.03-1.18,0-2.19-.23-3.02-.7-.83-.47-1.47-1.08-1.91-1.85-.44-.76-.7-1.6-.76-2.52h3.69c.23,1.23.95,1.85,2.15,1.85ZM579.63,143.66c.39-.4.58-.94.58-1.62,0-.75-.2-1.32-.61-1.73s-.95-.61-1.63-.61-1.23.21-1.62.62c-.4.41-.59.98-.59,1.69,0,.67.2,1.21.59,1.62.4.41.97.62,1.72.62.65,0,1.17-.2,1.56-.6Z" fill="#fff" stroke-width="0"/><path id="b" d="M.9,0c0,4.59,139.51,8.31,311.6,8.31S624.1,4.59,624.1,0" fill="#29aae1" stroke-width="0"/><path id="c" d="M.9,205c0-4.59,139.51-8.31,311.6-8.31s311.61,3.72,311.61,8.31" fill="#29aae1" stroke-width="0"/></svg>