<?xml version="1.0" encoding="UTF-8"?><svg id="a" xmlns="http://www.w3.org/2000/svg" width="76" height="78.5" viewBox="0 0 76 78.5"><path d="M16.49,78.5c-1.18,0-2.13-.96-2.13-2.14v-13.91c-4.48-3.42-14.36-12.7-14.36-27.91C.06,19.29,10.31,5.72,24.93,1.53c1.13-.32,2.32.34,2.64,1.48.16.56.09,1.13-.19,1.63-.28.5-.73.86-1.28,1.01-12.8,3.67-21.77,15.55-21.82,28.89,0,14.36,10.17,22.73,13.29,24.95.18.11.36.27.52.45.35.4.54.9.54,1.42v14.99c0,1.18-.96,2.14-2.14,2.14Z" fill="#29aae1" stroke-width="0"/><path d="M49.19,78.5c-1.18,0-2.14-.96-2.14-2.14v-7.09c.07-1.18,1.1-2.1,2.26-2.01l1.47.08c5.41.31,9.98.03,11.4-.3.53-1.32,1.57-6,1.93-12.43l.07-1.32c.06-1.13,1-2.02,2.13-2.02h5.34c-.02-.16-.05-.31-.08-.47-.2-1.04-1.39-4.87-7.04-18.85l-.29-.72c-.08-.2-.13-.42-.15-.64-.75-10.27-9.06-22.8-23.01-26.01l-4.46,10.62h8.04c.46,0,.9.15,1.27.42.46.34.76.84.84,1.41s-.06,1.13-.4,1.59l-23.29,31.37c-.56.75-1.53,1.05-2.41.74-.54-.19-.97-.58-1.22-1.09s-.28-1.1-.09-1.64l5.93-17.05h-7.24c-.69,0-1.34-.34-1.74-.9-.4-.57-.5-1.29-.27-1.95l5.78-16.6c.19-.54.57-.97,1.09-1.22.51-.25,1.09-.28,1.63-.09.54.19.97.58,1.22,1.09.25.51.28,1.1.09,1.64l-4.79,13.76h7.24c.24,0,.47.04.7.12.54.19.97.57,1.22,1.09.25.51.28,1.1.1,1.64l-2.34,6.71,12.43-16.75h-7c-.29,0-.57-.06-.83-.17-.52-.22-.93-.64-1.14-1.17-.21-.53-.21-1.11.02-1.64l6.38-15.2c.39-.92,1.35-1.45,2.33-1.28,14.84,2.56,26.94,15.42,28.17,29.91l.16.4c4.42,10.91,6.86,17.52,7.28,19.63.42,2.15.28,3.57-.45,4.47-.84.85-1.99,1.24-3.13,1.1h-3.85c-.24,3.6-1.1,13.17-3.46,14.94-2.02,1.52-10.3,1.31-13.55,1.17v4.71c0,1.18-.96,2.14-2.13,2.14Z" fill="#29aae1" stroke-width="0"/></svg>