<?xml version="1.0" encoding="UTF-8"?><svg id="a" xmlns="http://www.w3.org/2000/svg" width="95.5" height="95.5" viewBox="0 0 95.5 95.5"><path id="b" d="M47.75,48.8c1.34,0,2.42-1.09,2.42-2.43v-9.4c0-1.34-1.08-2.43-2.42-2.43s-2.42,1.09-2.42,2.43v9.4c0,1.34,1.09,2.42,2.42,2.43Z" fill="#29aae1" stroke-width="0"/><path id="c" d="M47.75,50.72c-1.56,0-2.82,1.27-2.82,2.83s1.27,2.83,2.83,2.83c1.56,0,2.82-1.27,2.82-2.83,0-1.56-1.27-2.83-2.83-2.83Z" fill="#29aae1" stroke-width="0"/><path d="M23.43,95.5c-.3,0-.61-.04-.91-.12-.9-.24-1.65-.82-2.12-1.63-.47-.81-.59-1.75-.35-2.65l5.81-21.45-21.46,5.86c-1.26.34-2.59-.04-3.48-.99-1.31-1.41-1.23-3.62.18-4.93l15.47-14.38-10.98-4.21c-.92-.35-1.66-1.09-2.01-2.02-.33-.87-.31-1.82.08-2.67.38-.85,1.07-1.5,1.94-1.84l10.96-4.19L1.13,25.95c-.96-.89-1.34-2.23-.99-3.49.25-.9.83-1.65,1.64-2.11.81-.46,1.75-.58,2.65-.33l21.44,5.83-5.82-21.43c-.35-1.26.03-2.61,1.01-3.5,1.42-1.3,3.63-1.2,4.93.22l14.31,15.42,4.2-11c.35-.93,1.09-1.66,2.01-2.02.87-.33,1.82-.31,2.67.08.85.38,1.5,1.07,1.83,1.94l4.19,10.99,14.31-15.43c.88-.95,2.2-1.33,3.46-1,1.86.5,2.97,2.42,2.47,4.28l-5.82,21.45,21.4-5.81c1.25-.34,2.58.04,3.47.99,1.31,1.41,1.23,3.63-.18,4.94l-15.4,14.32,10.99,4.21c.93.35,1.66,1.09,2.01,2.02.33.87.31,1.82-.08,2.67-.38.85-1.07,1.5-1.94,1.84l-10.98,4.2,15.46,14.36c.95.89,1.33,2.22.99,3.47-.5,1.86-2.42,2.96-4.28,2.46l-21.47-5.86,5.8,21.42c.34,1.26-.04,2.59-1,3.47-1.41,1.31-3.62,1.23-4.93-.18l-14.31-15.42-4.2,10.99c-.35.93-1.09,1.66-2.02,2.02-.87.33-1.82.31-2.67-.07-.85-.38-1.5-1.07-1.83-1.94l-4.19-10.98-14.3,15.43c-.67.72-1.6,1.12-2.55,1.12ZM31.56,63.95l-7.1,26.19,17.27-18.63,6.01,15.75,6.02-15.75,17.27,18.62-7.09-26.17,26.21,7.15-18.65-17.33,15.74-6.02-15.75-6.03,18.6-17.29-26.14,7.1,7.11-26.19-17.28,18.63-6.01-15.75-6.02,15.76L24.45,5.36l7.11,26.19-26.2-7.12,18.64,17.3-15.72,6.01,15.74,6.03-18.66,17.35,26.21-7.16ZM91.66,72.51s0,0,0,0h0ZM3.38,23.88s0,0,0,0h0ZM23.05,3.85s0,0,0,0h0ZM23.9,3.36h0s0,0,0,0ZM61.27,61.87h-27c-3.44,0-6.24-2.8-6.24-6.25,0-1.13.3-2.23.88-3.2l13.49-22.59c.86-1.43,2.22-2.45,3.83-2.85,1.62-.41,3.3-.16,4.73.7.88.53,1.63,1.28,2.16,2.16l13.49,22.59c1.16,1.92,1.19,4.33.06,6.29-1.1,1.95-3.16,3.16-5.4,3.16ZM47.76,30.79c-.18,0-.37.02-.55.07-.58.15-1.07.51-1.38,1.03l-13.49,22.59c-.21.35-.32.75-.32,1.15,0,1.24,1.01,2.25,2.24,2.25h26.98c.84-.01,1.55-.43,1.95-1.13v-.03c.41-.69.41-1.55,0-2.24l-13.5-22.6c-.19-.32-.46-.59-.77-.78-.35-.21-.75-.32-1.15-.32Z" fill="#29aae1" stroke-width="0"/></svg>