<?xml version="1.0" encoding="UTF-8"?><svg id="a" xmlns="http://www.w3.org/2000/svg" width="502" height="182" viewBox="0 0 502 182"><path d="M92.96,60.11c-1.12,2.02-2.84,3.65-5.16,4.89-2.32,1.24-5.2,1.86-8.64,1.86h-6.36v15.13h-10.26v-42.15h16.62c3.36,0,6.2.58,8.52,1.74,2.32,1.16,4.06,2.76,5.22,4.8,1.16,2.04,1.74,4.38,1.74,7.03,0,2.44-.56,4.67-1.68,6.69ZM82.76,57.32c.96-.92,1.44-2.22,1.44-3.9s-.48-2.98-1.44-3.9c-.96-.92-2.42-1.38-4.38-1.38h-5.58v10.57h5.58c1.96,0,3.42-.46,4.38-1.38Z" fill="#a5221a" stroke-width="0"/><path d="M110.24,74.07h13.44v7.93h-23.7v-42.15h10.26v34.22Z" fill="#a5221a" stroke-width="0"/><path d="M154.82,74.55h-15.72l-2.52,7.45h-10.74l15.24-42.15h11.88l15.24,42.15h-10.86l-2.52-7.45ZM152.18,66.62l-5.22-15.43-5.16,15.43h10.38Z" fill="#a5221a" stroke-width="0"/><path d="M208.94,39.84l-14.58,28.22v13.93h-10.26v-13.93l-14.58-28.22h11.64l8.16,17.65,8.1-17.65h11.52Z" fill="#a5221a" stroke-width="0"/><path d="M220.04,80.91c-2.44-1-4.39-2.48-5.85-4.44-1.46-1.96-2.23-4.32-2.31-7.08h10.92c.16,1.56.7,2.75,1.62,3.57.92.82,2.12,1.23,3.6,1.23s2.72-.35,3.6-1.05c.88-.7,1.32-1.67,1.32-2.91,0-1.04-.35-1.9-1.05-2.58-.7-.68-1.56-1.24-2.58-1.68s-2.47-.94-4.35-1.5c-2.72-.84-4.94-1.68-6.66-2.52-1.72-.84-3.2-2.08-4.44-3.72-1.24-1.64-1.86-3.78-1.86-6.42,0-3.92,1.42-6.99,4.26-9.22,2.84-2.22,6.54-3.33,11.1-3.33s8.38,1.11,11.22,3.33c2.84,2.22,4.36,5.31,4.56,9.28h-11.1c-.08-1.36-.58-2.43-1.5-3.21-.92-.78-2.1-1.17-3.54-1.17-1.24,0-2.24.33-3,.99-.76.66-1.14,1.61-1.14,2.85,0,1.36.64,2.42,1.92,3.18,1.28.76,3.28,1.58,6,2.46,2.72.92,4.93,1.8,6.63,2.64,1.7.84,3.17,2.06,4.41,3.66,1.24,1.6,1.86,3.66,1.86,6.18s-.61,4.58-1.83,6.54c-1.22,1.96-2.99,3.52-5.31,4.68-2.32,1.16-5.06,1.74-8.22,1.74s-5.84-.5-8.28-1.5Z" fill="#a5221a" stroke-width="0"/><path d="M288.92,74.55h-15.72l-2.52,7.45h-10.74l15.24-42.15h11.88l15.24,42.15h-10.86l-2.52-7.45ZM286.28,66.62l-5.22-15.43-5.16,15.43h10.38Z" fill="#a5221a" stroke-width="0"/><path d="M344.06,81.99l-14.16-18.61v18.61h-10.26v-42.15h10.26v18.49l14.04-18.49h12.06l-16.32,20.65,16.92,21.49h-12.54Z" fill="#a5221a" stroke-width="0"/><path d="M371.72,48.07v8.53h13.74v7.93h-13.74v9.25h15.54v8.23h-25.8v-42.15h25.8v8.23h-15.54Z" fill="#a5221a" stroke-width="0"/><path d="M430.04,39.84l-14.58,28.22v13.93h-10.26v-13.93l-14.58-28.22h11.64l8.16,17.65,8.1-17.65h11.52Z" fill="#a5221a" stroke-width="0"/><path d="M196.16,142.03l-8.76-15.91h-2.46v15.91h-10.26v-42.15h17.22c3.32,0,6.15.58,8.49,1.74,2.34,1.16,4.09,2.75,5.25,4.77,1.16,2.02,1.74,4.27,1.74,6.75,0,2.8-.79,5.3-2.37,7.51-1.58,2.2-3.91,3.76-6.99,4.68l9.72,16.69h-11.58ZM184.94,118.86h6.36c1.88,0,3.29-.46,4.23-1.38.94-.92,1.41-2.22,1.41-3.9s-.47-2.86-1.41-3.78c-.94-.92-2.35-1.38-4.23-1.38h-6.36v10.45Z" fill="#a5221a" stroke-width="0"/><path d="M222.83,139.69c-3.3-1.84-5.92-4.41-7.86-7.72-1.94-3.3-2.91-7.01-2.91-11.14s.97-7.83,2.91-11.11c1.94-3.28,4.56-5.84,7.86-7.68s6.93-2.76,10.89-2.76,7.59.92,10.89,2.76c3.3,1.84,5.9,4.4,7.8,7.68,1.9,3.28,2.85,6.99,2.85,11.11s-.96,7.84-2.88,11.14c-1.92,3.3-4.52,5.87-7.8,7.72-3.28,1.84-6.9,2.76-10.86,2.76s-7.59-.92-10.89-2.76ZM241.79,129.73c2.02-2.24,3.03-5.2,3.03-8.89s-1.01-6.69-3.03-8.92c-2.02-2.22-4.71-3.33-8.07-3.33s-6.11,1.1-8.13,3.3c-2.02,2.2-3.03,5.18-3.03,8.95s1.01,6.69,3.03,8.92c2.02,2.22,4.73,3.33,8.13,3.33s6.05-1.12,8.07-3.36Z" fill="#a5221a" stroke-width="0"/><path d="M271.22,134.11h13.44v7.93h-23.7v-42.15h10.26v34.22Z" fill="#a5221a" stroke-width="0"/><path d="M299.84,108.11v8.53h13.74v7.93h-13.74v9.25h15.54v8.23h-25.8v-42.15h25.8v8.23h-15.54Z" fill="#a5221a" stroke-width="0"/><path id="b" d="M0,182c0-5.46,112.38-9.88,251-9.88s251,4.42,251,9.88" fill="#29aae1" stroke-width="0"/><path id="c" d="M0,0c0,5.46,112.38,9.88,251,9.88S502,5.46,502,0" fill="#29aae1" stroke-width="0"/></svg>