<?xml version="1.0" encoding="UTF-8"?><svg id="a" xmlns="http://www.w3.org/2000/svg" width="1068" height="95" viewBox="0 0 1068 95"><path d="M302.42,46.8c-1.12,2.01-2.84,3.63-5.16,4.87-2.32,1.23-5.2,1.85-8.63,1.85h-6.36v15.05h-10.25V26.65h16.61c3.36,0,6.2.58,8.51,1.73,2.32,1.15,4.06,2.75,5.22,4.78,1.16,2.03,1.74,4.36,1.74,6.99,0,2.43-.56,4.65-1.68,6.66ZM292.23,44.02c.96-.92,1.44-2.21,1.44-3.88s-.48-2.97-1.44-3.88c-.96-.92-2.42-1.37-4.38-1.37h-5.58v10.51h5.58c1.96,0,3.42-.46,4.38-1.37Z" fill="#a5221a" stroke-width="0"/><path d="M319.69,60.68h13.43v7.88h-23.69V26.65h10.25v34.03Z" fill="#a5221a" stroke-width="0"/><path d="M364.25,61.16h-15.71l-2.52,7.4h-10.73l15.23-41.92h11.87l15.23,41.92h-10.85l-2.52-7.4ZM361.61,53.28l-5.22-15.35-5.16,15.35h10.37Z" fill="#a5221a" stroke-width="0"/><path d="M418.33,26.65l-14.57,28.06v13.85h-10.25v-13.85l-14.57-28.06h11.63l8.15,17.55,8.1-17.55h11.51Z" fill="#a5221a" stroke-width="0"/><path d="M429.43,67.49c-2.44-.99-4.39-2.47-5.85-4.42-1.46-1.95-2.23-4.3-2.31-7.05h10.91c.16,1.55.7,2.74,1.62,3.55.92.82,2.12,1.22,3.6,1.22s2.72-.35,3.6-1.04c.88-.7,1.32-1.66,1.32-2.9,0-1.03-.35-1.89-1.05-2.57-.7-.68-1.56-1.23-2.58-1.67-1.02-.44-2.47-.94-4.35-1.49-2.72-.84-4.94-1.67-6.66-2.51-1.72-.84-3.2-2.07-4.44-3.7-1.24-1.63-1.86-3.76-1.86-6.39,0-3.9,1.42-6.96,4.26-9.17,2.84-2.21,6.54-3.31,11.09-3.31s8.37,1.1,11.21,3.31c2.84,2.21,4.36,5.28,4.56,9.23h-11.09c-.08-1.35-.58-2.42-1.5-3.19-.92-.78-2.1-1.16-3.54-1.16-1.24,0-2.24.33-3,.99-.76.66-1.14,1.6-1.14,2.84,0,1.35.64,2.41,1.92,3.16,1.28.76,3.28,1.57,6,2.45,2.72.92,4.93,1.79,6.63,2.63,1.7.84,3.17,2.05,4.41,3.64,1.24,1.59,1.86,3.64,1.86,6.15s-.61,4.56-1.83,6.51c-1.22,1.95-2.99,3.5-5.31,4.66-2.32,1.15-5.06,1.73-8.22,1.73s-5.84-.5-8.27-1.49Z" fill="#a5221a" stroke-width="0"/><path d="M498.26,61.16h-15.71l-2.52,7.4h-10.73l15.23-41.92h11.87l15.23,41.92h-10.85l-2.52-7.4ZM495.62,53.28l-5.22-15.35-5.16,15.35h10.37Z" fill="#a5221a" stroke-width="0"/><path d="M553.37,68.56l-14.15-18.51v18.51h-10.25V26.65h10.25v18.39l14.03-18.39h12.05l-16.31,20.54,16.91,21.38h-12.53Z" fill="#a5221a" stroke-width="0"/><path d="M581.01,34.83v8.48h13.73v7.88h-13.73v9.19h15.53v8.18h-25.78V26.65h25.78v8.18h-15.53Z" fill="#a5221a" stroke-width="0"/><path d="M639.29,26.65l-14.57,28.06v13.85h-10.25v-13.85l-14.57-28.06h11.63l8.16,17.55,8.09-17.55h11.51Z" fill="#a5221a" stroke-width="0"/><path d="M677.61,68.56l-8.75-15.82h-2.46v15.82h-10.25V26.65h17.21c3.32,0,6.15.58,8.48,1.73,2.34,1.15,4.09,2.74,5.25,4.75,1.16,2.01,1.74,4.25,1.74,6.72,0,2.79-.79,5.27-2.37,7.46-1.58,2.19-3.91,3.74-6.99,4.66l9.71,16.6h-11.57ZM666.4,45.51h6.36c1.88,0,3.29-.46,4.23-1.37.94-.92,1.41-2.21,1.41-3.88s-.47-2.85-1.41-3.76c-.94-.91-2.35-1.37-4.23-1.37h-6.36v10.39Z" fill="#a5221a" stroke-width="0"/><path d="M704.26,66.23c-3.3-1.83-5.92-4.39-7.86-7.67-1.94-3.28-2.91-6.98-2.91-11.08s.97-7.78,2.91-11.05c1.94-3.26,4.56-5.81,7.86-7.64,3.3-1.83,6.93-2.75,10.88-2.75s7.58.92,10.88,2.75c3.3,1.83,5.9,4.38,7.8,7.64,1.9,3.26,2.85,6.95,2.85,11.05s-.96,7.79-2.88,11.08-4.52,5.84-7.8,7.67c-3.28,1.83-6.9,2.75-10.85,2.75s-7.59-.91-10.88-2.75ZM723.21,56.32c2.02-2.23,3.03-5.18,3.03-8.84s-1.01-6.66-3.03-8.87c-2.02-2.21-4.71-3.31-8.06-3.31s-6.11,1.1-8.12,3.28c-2.02,2.19-3.03,5.16-3.03,8.9s1.01,6.66,3.03,8.87c2.02,2.21,4.73,3.31,8.12,3.31s6.05-1.11,8.06-3.34Z" fill="#a5221a" stroke-width="0"/><path d="M752.62,60.68h13.43v7.88h-23.69V26.65h10.25v34.03Z" fill="#a5221a" stroke-width="0"/><path d="M781.23,34.83v8.48h13.73v7.88h-13.73v9.19h15.53v8.18h-25.78V26.65h25.78v8.18h-15.53Z" fill="#a5221a" stroke-width="0"/><path id="b" d="M0,95c0-3.7,239.08-6.7,534-6.7s534,3,534,6.7" fill="#29aae1" stroke-width="0"/><path id="c" d="M0,0c0,3.7,239.08,6.7,534,6.7S1068,3.7,1068,0" fill="#29aae1" stroke-width="0"/></svg>