<?xml version="1.0" encoding="UTF-8"?><svg id="a" xmlns="http://www.w3.org/2000/svg" width="912" height="130" viewBox="0 0 912 130"><path d="M311.62,64.67c-.75,1.35-1.89,2.44-3.44,3.27-1.55.83-3.47,1.24-5.76,1.24h-4.24v10.12h-6.84v-28.18h11.08c2.24,0,4.13.39,5.68,1.16,1.55.78,2.71,1.85,3.48,3.21.77,1.36,1.16,2.93,1.16,4.7,0,1.63-.37,3.13-1.12,4.48ZM304.82,62.81c.64-.61.96-1.48.96-2.61s-.32-1.99-.96-2.61-1.61-.92-2.92-.92h-3.72v7.07h3.72c1.31,0,2.28-.31,2.92-.92Z" fill="#fff" stroke-width="0"/><path d="M330.62,79.31l-5.84-10.64h-1.64v10.64h-6.84v-28.18h11.48c2.21,0,4.1.39,5.66,1.16s2.73,1.84,3.5,3.19c.77,1.35,1.16,2.86,1.16,4.52,0,1.87-.53,3.55-1.58,5.02-1.05,1.47-2.61,2.52-4.66,3.13l6.48,11.16h-7.72ZM323.14,63.81h4.24c1.25,0,2.19-.31,2.82-.92.63-.61.94-1.48.94-2.61s-.31-1.91-.94-2.53c-.63-.61-1.57-.92-2.82-.92h-4.24v6.99Z" fill="#fff" stroke-width="0"/><path d="M349.22,51.12v28.18h-6.84v-28.18h6.84Z" fill="#fff" stroke-width="0"/><path d="M380.54,51.12l-9.96,28.18h-8.56l-9.96-28.18h7.28l6.96,21.28,7-21.28h7.24Z" fill="#fff" stroke-width="0"/><path d="M400.86,74.33h-10.48l-1.68,4.98h-7.16l10.16-28.18h7.92l10.16,28.18h-7.24l-1.68-4.98ZM399.1,69.03l-3.48-10.32-3.44,10.32h6.92Z" fill="#fff" stroke-width="0"/><path d="M413.5,57.73c1.2-2.18,2.87-3.88,5.02-5.1,2.15-1.22,4.58-1.83,7.3-1.83,3.33,0,6.19.88,8.56,2.65,2.37,1.77,3.96,4.18,4.76,7.23h-7.52c-.56-1.18-1.35-2.07-2.38-2.69-1.03-.62-2.19-.92-3.5-.92-2.11,0-3.81.74-5.12,2.21-1.31,1.47-1.96,3.44-1.96,5.9s.65,4.43,1.96,5.9c1.31,1.47,3.01,2.21,5.12,2.21,1.31,0,2.47-.31,3.5-.92,1.03-.62,1.82-1.51,2.38-2.69h7.52c-.8,3.05-2.39,5.45-4.76,7.21-2.37,1.75-5.23,2.63-8.56,2.63-2.72,0-5.15-.61-7.3-1.83-2.15-1.22-3.82-2.91-5.02-5.08-1.2-2.17-1.8-4.64-1.8-7.43s.6-5.27,1.8-7.45Z" fill="#fff" stroke-width="0"/><path d="M467.42,51.12l-9.72,18.87v9.31h-6.84v-9.31l-9.72-18.87h7.76l5.44,11.8,5.4-11.8h7.68Z" fill="#fff" stroke-width="0"/><path d="M498.94,64.67c-.75,1.35-1.89,2.44-3.44,3.27-1.55.83-3.47,1.24-5.76,1.24h-4.24v10.12h-6.84v-28.18h11.08c2.24,0,4.13.39,5.68,1.16,1.55.78,2.71,1.85,3.48,3.21.77,1.36,1.16,2.93,1.16,4.7,0,1.63-.37,3.13-1.12,4.48ZM492.14,62.81c.64-.61.96-1.48.96-2.61s-.32-1.99-.96-2.61-1.61-.92-2.92-.92h-3.72v7.07h3.72c1.31,0,2.28-.31,2.92-.92Z" fill="#fff" stroke-width="0"/><path d="M509.64,77.74c-2.2-1.23-3.95-2.95-5.24-5.16s-1.94-4.69-1.94-7.45.65-5.23,1.94-7.43,3.04-3.91,5.24-5.14,4.62-1.85,7.26-1.85,5.06.62,7.26,1.85,3.93,2.94,5.2,5.14c1.27,2.19,1.9,4.67,1.9,7.43s-.64,5.24-1.92,7.45c-1.28,2.21-3.01,3.93-5.2,5.16-2.19,1.23-4.6,1.85-7.24,1.85s-5.06-.62-7.26-1.85ZM522.28,71.08c1.35-1.5,2.02-3.48,2.02-5.94s-.67-4.48-2.02-5.96c-1.35-1.49-3.14-2.23-5.38-2.23s-4.07.74-5.42,2.21c-1.35,1.47-2.02,3.47-2.02,5.98s.67,4.48,2.02,5.96c1.35,1.48,3.15,2.23,5.42,2.23s4.03-.75,5.38-2.25Z" fill="#fff" stroke-width="0"/><path d="M541.9,74.01h8.96v5.3h-15.8v-28.18h6.84v22.88Z" fill="#fff" stroke-width="0"/><path d="M560.98,51.12v28.18h-6.84v-28.18h6.84Z" fill="#fff" stroke-width="0"/><path d="M566.58,57.73c1.2-2.18,2.87-3.88,5.02-5.1,2.15-1.22,4.58-1.83,7.3-1.83,3.33,0,6.19.88,8.56,2.65,2.37,1.77,3.96,4.18,4.76,7.23h-7.52c-.56-1.18-1.35-2.07-2.38-2.69-1.03-.62-2.19-.92-3.5-.92-2.11,0-3.81.74-5.12,2.21-1.31,1.47-1.96,3.44-1.96,5.9s.65,4.43,1.96,5.9c1.31,1.47,3.01,2.21,5.12,2.21,1.31,0,2.47-.31,3.5-.92,1.03-.62,1.82-1.51,2.38-2.69h7.52c-.8,3.05-2.39,5.45-4.76,7.21-2.37,1.75-5.23,2.63-8.56,2.63-2.72,0-5.15-.61-7.3-1.83-2.15-1.22-3.82-2.91-5.02-5.08-1.2-2.17-1.8-4.64-1.8-7.43s.6-5.27,1.8-7.45Z" fill="#fff" stroke-width="0"/><path d="M620.5,51.12l-9.72,18.87v9.31h-6.84v-9.31l-9.72-18.87h7.76l5.44,11.8,5.4-11.8h7.68Z" fill="#fff" stroke-width="0"/><path id="b" d="M0,0c0,4.43,204.16,8.03,456,8.03S912,4.43,912,0" fill="#29aae1" stroke-width="0"/><path id="c" d="M0,130c0-4.44,204.16-8.03,456-8.03s456,3.59,456,8.03" fill="#29aae1" stroke-width="0"/></svg>