<?xml version="1.0" encoding="UTF-8"?><svg id="a" xmlns="http://www.w3.org/2000/svg" width="912" height="130" viewBox="0 0 912 130"><path d="M311.68,64.52c-.75,1.35-1.89,2.44-3.44,3.26-1.55.83-3.47,1.24-5.76,1.24h-4.24v10.09h-6.84v-28.12h11.08c2.24,0,4.13.39,5.68,1.16,1.55.77,2.71,1.84,3.48,3.2.77,1.36,1.16,2.92,1.16,4.69,0,1.63-.37,3.12-1.12,4.47ZM304.88,62.66c.64-.61.96-1.48.96-2.6s-.32-1.99-.96-2.6-1.61-.92-2.92-.92h-3.72v7.05h3.72c1.31,0,2.28-.31,2.92-.92Z" fill="#fff" stroke-width="0"/><path d="M330.68,79.12l-5.84-10.61h-1.64v10.61h-6.84v-28.12h11.48c2.21,0,4.1.39,5.66,1.16s2.73,1.84,3.5,3.18c.77,1.35,1.16,2.85,1.16,4.51,0,1.87-.53,3.54-1.58,5.01-1.05,1.47-2.61,2.51-4.66,3.12l6.48,11.13h-7.72ZM323.2,63.66h4.24c1.25,0,2.19-.31,2.82-.92.63-.61.94-1.48.94-2.6s-.31-1.91-.94-2.52c-.63-.61-1.57-.92-2.82-.92h-4.24v6.97Z" fill="#fff" stroke-width="0"/><path d="M349.28,51v28.12h-6.84v-28.12h6.84Z" fill="#fff" stroke-width="0"/><path d="M380.61,51l-9.96,28.12h-8.56l-9.96-28.12h7.28l6.96,21.23,7-21.23h7.24Z" fill="#fff" stroke-width="0"/><path d="M400.93,74.15h-10.48l-1.68,4.97h-7.16l10.16-28.12h7.92l10.16,28.12h-7.24l-1.68-4.97ZM399.17,68.86l-3.48-10.29-3.44,10.29h6.92Z" fill="#fff" stroke-width="0"/><path d="M413.57,57.59c1.2-2.18,2.87-3.87,5.02-5.09,2.15-1.21,4.58-1.82,7.3-1.82,3.33,0,6.19.88,8.56,2.64,2.37,1.76,3.96,4.17,4.76,7.21h-7.52c-.56-1.18-1.35-2.07-2.38-2.68-1.03-.61-2.19-.92-3.5-.92-2.11,0-3.81.74-5.12,2.2-1.31,1.47-1.96,3.43-1.96,5.89s.65,4.42,1.96,5.89c1.31,1.47,3.01,2.2,5.12,2.2,1.31,0,2.47-.31,3.5-.92,1.03-.61,1.82-1.51,2.38-2.68h7.52c-.8,3.04-2.39,5.44-4.76,7.19-2.37,1.75-5.23,2.62-8.56,2.62-2.72,0-5.15-.61-7.3-1.82-2.15-1.21-3.82-2.9-5.02-5.07-1.2-2.16-1.8-4.63-1.8-7.41s.6-5.25,1.8-7.43Z" fill="#fff" stroke-width="0"/><path d="M467.5,51l-9.72,18.82v9.29h-6.84v-9.29l-9.72-18.82h7.76l5.44,11.78,5.4-11.78h7.68Z" fill="#fff" stroke-width="0"/><path d="M499.03,64.52c-.75,1.35-1.89,2.44-3.44,3.26-1.55.83-3.47,1.24-5.76,1.24h-4.24v10.09h-6.84v-28.12h11.08c2.24,0,4.13.39,5.68,1.16,1.55.77,2.71,1.84,3.48,3.2.77,1.36,1.16,2.92,1.16,4.69,0,1.63-.37,3.12-1.12,4.47ZM492.23,62.66c.64-.61.96-1.48.96-2.6s-.32-1.99-.96-2.6-1.61-.92-2.92-.92h-3.72v7.05h3.72c1.31,0,2.28-.31,2.92-.92Z" fill="#fff" stroke-width="0"/><path d="M509.73,77.56c-2.2-1.23-3.95-2.94-5.24-5.15s-1.94-4.68-1.94-7.43.65-5.22,1.94-7.41,3.04-3.9,5.24-5.13,4.62-1.84,7.26-1.84,5.06.62,7.26,1.84,3.93,2.94,5.2,5.13c1.27,2.19,1.9,4.66,1.9,7.41s-.64,5.23-1.92,7.43c-1.28,2.2-3.01,3.92-5.2,5.15-2.19,1.23-4.6,1.84-7.24,1.84s-5.06-.61-7.26-1.84ZM522.37,70.91c1.35-1.5,2.02-3.47,2.02-5.93s-.67-4.47-2.02-5.95c-1.35-1.48-3.14-2.22-5.38-2.22s-4.07.74-5.42,2.2c-1.35,1.47-2.02,3.46-2.02,5.97s.67,4.47,2.02,5.95c1.35,1.48,3.15,2.22,5.42,2.22s4.03-.75,5.38-2.24Z" fill="#fff" stroke-width="0"/><path d="M541.99,73.83h8.96v5.29h-15.8v-28.12h6.84v22.83Z" fill="#fff" stroke-width="0"/><path d="M561.08,51v28.12h-6.84v-28.12h6.84Z" fill="#fff" stroke-width="0"/><path d="M566.68,57.59c1.2-2.18,2.87-3.87,5.02-5.09,2.15-1.21,4.58-1.82,7.3-1.82,3.33,0,6.19.88,8.56,2.64,2.37,1.76,3.96,4.17,4.76,7.21h-7.52c-.56-1.18-1.35-2.07-2.38-2.68-1.03-.61-2.19-.92-3.5-.92-2.11,0-3.81.74-5.12,2.2-1.31,1.47-1.96,3.43-1.96,5.89s.65,4.42,1.96,5.89c1.31,1.47,3.01,2.2,5.12,2.2,1.31,0,2.47-.31,3.5-.92,1.03-.61,1.82-1.51,2.38-2.68h7.52c-.8,3.04-2.39,5.44-4.76,7.19-2.37,1.75-5.23,2.62-8.56,2.62-2.72,0-5.15-.61-7.3-1.82-2.15-1.21-3.82-2.9-5.02-5.07-1.2-2.16-1.8-4.63-1.8-7.41s.6-5.25,1.8-7.43Z" fill="#fff" stroke-width="0"/><path d="M620.61,51l-9.72,18.82v9.29h-6.84v-9.29l-9.72-18.82h7.76l5.44,11.78,5.4-11.78h7.68Z" fill="#fff" stroke-width="0"/><path id="b" d="M0,0c0,4.59,204.16,8.32,456,8.32S912,4.59,912,0" fill="#29aae1" stroke-width="0"/><path id="c" d="M0,130c0-4.6,204.16-8.32,456-8.32s456,3.72,456,8.32" fill="#29aae1" stroke-width="0"/></svg>