<?xml version="1.0" encoding="UTF-8"?><svg id="a" preserveAspectRatio="none" xmlns="http://www.w3.org/2000/svg" width="500" height="708" viewBox="0 0 500 708"><path id="b" d="M499.41,708h0c-8.19-.74-18.79-1.99-31.07-3.45h-.02c-14.64-1.73-32.86-3.89-53.47-5.93-25.41-2.52-49.5-4.4-73.64-5.76-29.93-1.68-60.21-2.53-90.01-2.53h-1.89c-24.89.03-50.22.62-75.31,1.75-21.39.96-43.17,2.35-64.74,4.12-39.3,3.22-70.89,7.12-91.8,9.7-6.83.84-12.72,1.57-17.46,2.1v-431h500l-.59,431h0Z" fill="#fff" stroke-width="0"/><path id="c" d="M500,309H0V0c6.93.61,18.05,2.15,27.76,3.16,44,4.57,117.64,12.21,218.17,12.21h2.7c50.35-.07,101.58-2.02,152.26-5.79,41.8-3.12,73.5-6.73,92.44-8.89,2.04-.23,4.8-.47,6.67-.68v309Z" fill="#a5221a" stroke-width="0"/></svg>