<?xml version="1.0" encoding="UTF-8"?><svg id="a" xmlns="http://www.w3.org/2000/svg" width="608" height="174" viewBox="0 0 608 174"><path d="M80.69,45.95c1.8-3.25,4.31-5.78,7.53-7.6,3.22-1.81,6.87-2.72,10.96-2.72,5,0,9.28,1.32,12.85,3.95,3.56,2.63,5.94,6.22,7.14,10.77h-11.29c-.84-1.76-2.03-3.09-3.57-4.01-1.54-.92-3.29-1.38-5.25-1.38-3.16,0-5.72,1.1-7.68,3.29-1.96,2.2-2.94,5.13-2.94,8.8s.98,6.6,2.94,8.8c1.96,2.19,4.52,3.29,7.68,3.29,1.96,0,3.71-.46,5.25-1.38,1.54-.92,2.73-2.25,3.57-4.01h11.29c-1.2,4.55-3.58,8.13-7.14,10.74-3.56,2.61-7.84,3.92-12.85,3.92-4.08,0-7.73-.91-10.96-2.72-3.22-1.82-5.73-4.34-7.53-7.57-1.8-3.23-2.7-6.92-2.7-11.07s.9-7.85,2.7-11.1Z" fill="#a5221a" stroke-width="0"/><path d="M151.7,70.69h-15.73l-2.52,7.42h-10.75l15.25-42.01h11.89l15.25,42.01h-10.86l-2.52-7.42ZM149.06,62.79l-5.22-15.38-5.16,15.38h10.38Z" fill="#a5221a" stroke-width="0"/><path d="M207.41,78.11h-10.26l-17.17-25.91v25.91h-10.26v-42.01h10.26l17.17,26.03v-26.03h10.26v42.01Z" fill="#a5221a" stroke-width="0"/><path d="M217.19,36.1h10.5l-6.72,16.04h-6.9l3.12-16.04Z" fill="#a5221a" stroke-width="0"/><path d="M264.01,36.1v8.2h-11.17v33.81h-10.26v-33.81h-11.17v-8.2h32.6Z" fill="#a5221a" stroke-width="0"/><path d="M313.29,60.19c1.48,1.9,2.22,4.06,2.22,6.49,0,3.51-1.23,6.29-3.69,8.35-2.46,2.06-5.89,3.08-10.29,3.08h-19.63v-42.01h18.97c4.28,0,7.63.98,10.05,2.93,2.42,1.95,3.63,4.61,3.63,7.96,0,2.47-.65,4.53-1.95,6.16-1.3,1.64-3.03,2.77-5.19,3.41,2.44.52,4.4,1.73,5.88,3.62ZM292.16,53.1h6.72c1.68,0,2.97-.37,3.87-1.11.9-.74,1.35-1.82,1.35-3.26s-.45-2.53-1.35-3.29c-.9-.76-2.19-1.14-3.87-1.14h-6.72v8.8ZM303.72,68.69c.94-.78,1.41-1.9,1.41-3.38s-.49-2.63-1.47-3.47c-.98-.84-2.33-1.26-4.05-1.26h-7.44v9.28h7.56c1.72,0,3.05-.39,3.99-1.17Z" fill="#a5221a" stroke-width="0"/><path d="M331.72,44.3v8.5h13.75v7.9h-13.75v9.22h15.55v8.2h-25.81v-42.01h25.81v8.2h-15.55Z" fill="#a5221a" stroke-width="0"/><path d="M396.97,36.1v8.2h-11.17v33.81h-10.26v-33.81h-11.17v-8.2h32.6Z" fill="#a5221a" stroke-width="0"/><path d="M438.63,36.1v42.01h-10.26v-17.29h-15.97v17.29h-10.26v-42.01h10.26v16.46h15.97v-16.46h10.26Z" fill="#a5221a" stroke-width="0"/><path d="M456.28,44.3v8.5h13.75v7.9h-13.75v9.22h15.55v8.2h-25.81v-42.01h25.81v8.2h-15.55Z" fill="#a5221a" stroke-width="0"/><path d="M488.75,36.1v42.01h-10.26v-42.01h10.26Z" fill="#a5221a" stroke-width="0"/><path d="M517.68,78.11l-8.76-15.86h-2.46v15.86h-10.26v-42.01h17.23c3.32,0,6.15.58,8.49,1.74,2.34,1.16,4.09,2.74,5.25,4.76,1.16,2.02,1.74,4.26,1.74,6.73,0,2.79-.79,5.29-2.37,7.48-1.58,2.19-3.91,3.75-6.99,4.67l9.72,16.64h-11.58ZM506.46,55.01h6.36c1.88,0,3.29-.46,4.23-1.38.94-.92,1.41-2.21,1.41-3.89s-.47-2.85-1.41-3.77c-.94-.92-2.35-1.38-4.23-1.38h-6.36v10.41Z" fill="#a5221a" stroke-width="0"/><path d="M154.73,120.03c1.48,1.9,2.22,4.06,2.22,6.49,0,3.51-1.23,6.29-3.69,8.35-2.46,2.06-5.89,3.08-10.29,3.08h-19.63v-42.01h18.97c4.28,0,7.63.98,10.05,2.93,2.42,1.96,3.63,4.61,3.63,7.96,0,2.47-.65,4.53-1.95,6.16-1.3,1.64-3.03,2.77-5.19,3.41,2.44.52,4.4,1.73,5.88,3.62ZM133.6,112.94h6.72c1.68,0,2.97-.37,3.87-1.11.9-.74,1.35-1.83,1.35-3.26s-.45-2.53-1.35-3.29c-.9-.76-2.19-1.14-3.87-1.14h-6.72v8.8ZM145.16,128.53c.94-.78,1.41-1.91,1.41-3.38s-.49-2.63-1.47-3.47c-.98-.84-2.33-1.26-4.05-1.26h-7.44v9.28h7.56c1.72,0,3.05-.39,3.99-1.17Z" fill="#a5221a" stroke-width="0"/><path d="M173.16,104.14v8.5h13.75v7.9h-13.75v9.22h15.55v8.2h-25.81v-42.01h25.81v8.2h-15.55Z" fill="#a5221a" stroke-width="0"/><path d="M202.33,136.88c-2.44-1-4.39-2.47-5.85-4.43-1.46-1.95-2.23-4.31-2.31-7.06h10.92c.16,1.56.7,2.74,1.62,3.56.92.82,2.12,1.23,3.6,1.23s2.72-.35,3.6-1.05c.88-.7,1.32-1.67,1.32-2.9,0-1.04-.35-1.89-1.05-2.57-.7-.68-1.56-1.23-2.58-1.68-1.02-.44-2.47-.94-4.35-1.5-2.72-.84-4.94-1.68-6.66-2.51-1.72-.84-3.2-2.07-4.44-3.71-1.24-1.63-1.86-3.77-1.86-6.4,0-3.91,1.42-6.97,4.26-9.18,2.84-2.21,6.54-3.32,11.11-3.32s8.38,1.11,11.23,3.32c2.84,2.21,4.36,5.29,4.56,9.24h-11.1c-.08-1.36-.58-2.42-1.5-3.2-.92-.78-2.1-1.17-3.54-1.17-1.24,0-2.24.33-3,.99-.76.66-1.14,1.61-1.14,2.84,0,1.36.64,2.42,1.92,3.17,1.28.76,3.28,1.58,6,2.45,2.72.92,4.93,1.8,6.63,2.63,1.7.84,3.17,2.06,4.41,3.65,1.24,1.6,1.86,3.65,1.86,6.16s-.61,4.57-1.83,6.52c-1.22,1.96-2.99,3.51-5.31,4.67-2.32,1.16-5.06,1.74-8.22,1.74s-5.84-.5-8.28-1.5Z" fill="#a5221a" stroke-width="0"/><path d="M262.6,95.95v8.2h-11.17v33.81h-10.26v-33.81h-11.17v-8.2h32.6Z" fill="#a5221a" stroke-width="0"/><path d="M287.45,136.88c-2.44-1-4.39-2.47-5.85-4.43-1.46-1.95-2.23-4.31-2.31-7.06h10.92c.16,1.56.7,2.74,1.62,3.56.92.82,2.12,1.23,3.6,1.23s2.72-.35,3.6-1.05c.88-.7,1.32-1.67,1.32-2.9,0-1.04-.35-1.89-1.05-2.57-.7-.68-1.56-1.23-2.58-1.68-1.02-.44-2.47-.94-4.35-1.5-2.72-.84-4.94-1.68-6.66-2.51-1.72-.84-3.2-2.07-4.44-3.71-1.24-1.63-1.86-3.77-1.86-6.4,0-3.91,1.42-6.97,4.26-9.18,2.84-2.21,6.54-3.32,11.11-3.32s8.38,1.11,11.23,3.32c2.84,2.21,4.36,5.29,4.56,9.24h-11.1c-.08-1.36-.58-2.42-1.5-3.2-.92-.78-2.1-1.17-3.54-1.17-1.24,0-2.24.33-3,.99-.76.66-1.14,1.61-1.14,2.84,0,1.36.64,2.42,1.92,3.17,1.28.76,3.28,1.58,6,2.45,2.72.92,4.93,1.8,6.63,2.63,1.7.84,3.17,2.06,4.41,3.65,1.24,1.6,1.86,3.65,1.86,6.16s-.61,4.57-1.83,6.52c-1.22,1.96-2.99,3.51-5.31,4.67-2.32,1.16-5.06,1.74-8.22,1.74s-5.84-.5-8.28-1.5Z" fill="#a5221a" stroke-width="0"/><path d="M327.67,104.14v8.5h13.75v7.9h-13.75v9.22h15.55v8.2h-25.81v-42.01h25.81v8.2h-15.55Z" fill="#a5221a" stroke-width="0"/><path d="M360.14,130.05h13.45v7.9h-23.71v-42.01h10.26v34.11Z" fill="#a5221a" stroke-width="0"/><path d="M418.07,95.95l-14.95,42.01h-12.85l-14.95-42.01h10.92l10.44,31.71,10.5-31.71h10.86Z" fill="#a5221a" stroke-width="0"/><path d="M432.59,104.14v8.5h13.75v7.9h-13.75v9.22h15.55v8.2h-25.81v-42.01h25.81v8.2h-15.55Z" fill="#a5221a" stroke-width="0"/><path d="M461.77,136.88c-2.44-1-4.39-2.47-5.85-4.43-1.46-1.95-2.23-4.31-2.31-7.06h10.92c.16,1.56.7,2.74,1.62,3.56.92.82,2.12,1.23,3.6,1.23s2.72-.35,3.6-1.05c.88-.7,1.32-1.67,1.32-2.9,0-1.04-.35-1.89-1.05-2.57-.7-.68-1.56-1.23-2.58-1.68-1.02-.44-2.47-.94-4.35-1.5-2.72-.84-4.94-1.68-6.66-2.51-1.72-.84-3.2-2.07-4.44-3.71-1.24-1.63-1.86-3.77-1.86-6.4,0-3.91,1.42-6.97,4.26-9.18,2.84-2.21,6.54-3.32,11.11-3.32s8.38,1.11,11.23,3.32c2.84,2.21,4.36,5.29,4.56,9.24h-11.1c-.08-1.36-.58-2.42-1.5-3.2-.92-.78-2.1-1.17-3.54-1.17-1.24,0-2.24.33-3,.99-.76.66-1.14,1.61-1.14,2.84,0,1.36.64,2.42,1.92,3.17,1.28.76,3.28,1.58,6,2.45,2.72.92,4.93,1.8,6.63,2.63,1.7.84,3.17,2.06,4.41,3.65,1.24,1.6,1.86,3.65,1.86,6.16s-.61,4.57-1.83,6.52c-1.22,1.96-2.99,3.51-5.31,4.67-2.32,1.16-5.06,1.74-8.22,1.74s-5.84-.5-8.28-1.5Z" fill="#a5221a" stroke-width="0"/><path id="b" d="M0,174c0-3.71,136.11-6.71,304-6.71s304,3.01,304,6.71" fill="#e9b73f" stroke-width="0"/><path id="c" d="M0,0c0,3.71,136.11,6.71,304,6.71S608,3.71,608,0" fill="#e9b73f" stroke-width="0"/></svg>