<?xml version="1.0" encoding="UTF-8"?><svg id="a" xmlns="http://www.w3.org/2000/svg" width="912" height="130" viewBox="0 0 912 130"><path id="b" d="M0,0c0,4.43,204.16,8.03,456,8.03S912,4.43,912,0" fill="#29aae1" stroke-width="0"/><path d="M340.4,51.12v5.5h-7.44v22.68h-6.84v-22.68h-7.44v-5.5h21.72Z" fill="#fff" stroke-width="0"/><path d="M350.68,56.62v5.7h9.16v5.3h-9.16v6.18h10.36v5.5h-17.2v-28.18h17.2v5.5h-10.36Z" fill="#fff" stroke-width="0"/><path d="M379.8,79.31l-5.84-10.64h-1.64v10.64h-6.84v-28.18h11.48c2.21,0,4.1.39,5.66,1.16s2.73,1.84,3.5,3.19c.77,1.35,1.16,2.86,1.16,4.52,0,1.87-.53,3.55-1.58,5.02-1.05,1.47-2.61,2.52-4.66,3.13l6.48,11.16h-7.72ZM372.32,63.81h4.24c1.25,0,2.19-.31,2.82-.92.63-.61.94-1.48.94-2.61s-.31-1.91-.94-2.53c-.63-.61-1.57-.92-2.82-.92h-4.24v6.99Z" fill="#fff" stroke-width="0"/><path d="M423.36,51.12v28.18h-6.84v-16.9l-6.28,16.9h-5.52l-6.32-16.94v16.94h-6.84v-28.18h8.08l7.88,19.51,7.8-19.51h8.04Z" fill="#fff" stroke-width="0"/><path d="M432.92,78.59c-1.63-.67-2.93-1.66-3.9-2.97-.97-1.31-1.49-2.89-1.54-4.74h7.28c.11,1.04.47,1.84,1.08,2.39.61.55,1.41.82,2.4.82s1.81-.23,2.4-.7c.59-.47.88-1.12.88-1.95,0-.7-.23-1.27-.7-1.73-.47-.45-1.04-.83-1.72-1.12-.68-.29-1.65-.63-2.9-1-1.81-.56-3.29-1.12-4.44-1.69-1.15-.56-2.13-1.39-2.96-2.49-.83-1.1-1.24-2.53-1.24-4.3,0-2.62.95-4.68,2.84-6.16,1.89-1.49,4.36-2.23,7.4-2.23s5.59.74,7.48,2.23c1.89,1.48,2.91,3.55,3.04,6.2h-7.4c-.05-.91-.39-1.63-1-2.15-.61-.52-1.4-.78-2.36-.78-.83,0-1.49.22-2,.66-.51.44-.76,1.08-.76,1.91,0,.91.43,1.62,1.28,2.13.85.51,2.19,1.06,4,1.65,1.81.62,3.29,1.2,4.42,1.77,1.13.56,2.11,1.38,2.94,2.45.83,1.07,1.24,2.45,1.24,4.14s-.41,3.07-1.22,4.38c-.81,1.31-1.99,2.36-3.54,3.13-1.55.78-3.37,1.16-5.48,1.16s-3.89-.33-5.52-1Z" fill="#fff" stroke-width="0"/><path d="M467.38,77.74c-2.2-1.23-3.95-2.95-5.24-5.16s-1.94-4.69-1.94-7.45.65-5.23,1.94-7.43,3.04-3.91,5.24-5.14,4.62-1.85,7.26-1.85,5.06.62,7.26,1.85,3.93,2.94,5.2,5.14c1.27,2.19,1.9,4.67,1.9,7.43s-.64,5.24-1.92,7.45c-1.28,2.21-3.01,3.93-5.2,5.16-2.19,1.23-4.6,1.85-7.24,1.85s-5.06-.62-7.26-1.85ZM480.02,71.08c1.35-1.5,2.02-3.48,2.02-5.94s-.67-4.48-2.02-5.96c-1.35-1.49-3.14-2.23-5.38-2.23s-4.07.74-5.42,2.21c-1.35,1.47-2.02,3.47-2.02,5.98s.67,4.48,2.02,5.96c1.35,1.48,3.15,2.23,5.42,2.23s4.03-.75,5.38-2.25Z" fill="#fff" stroke-width="0"/><path d="M511.08,51.12v5.5h-11.44v5.94h8.56v5.34h-8.56v11.4h-6.84v-28.18h18.28Z" fill="#fff" stroke-width="0"/><path d="M529.88,51.12v16.86c0,1.69.41,2.98,1.24,3.89.83.91,2.04,1.37,3.64,1.37s2.83-.45,3.68-1.37c.85-.91,1.28-2.21,1.28-3.89v-16.86h6.84v16.82c0,2.52-.53,4.64-1.6,6.38-1.07,1.74-2.5,3.05-4.3,3.93s-3.81,1.33-6.02,1.33-4.19-.44-5.94-1.3c-1.75-.87-3.13-2.18-4.14-3.94-1.01-1.75-1.52-3.89-1.52-6.4v-16.82h6.84Z" fill="#fff" stroke-width="0"/><path d="M556,78.59c-1.63-.67-2.93-1.66-3.9-2.97-.97-1.31-1.49-2.89-1.54-4.74h7.28c.11,1.04.47,1.84,1.08,2.39.61.55,1.41.82,2.4.82s1.81-.23,2.4-.7c.59-.47.88-1.12.88-1.95,0-.7-.23-1.27-.7-1.73-.47-.45-1.04-.83-1.72-1.12-.68-.29-1.65-.63-2.9-1-1.81-.56-3.29-1.12-4.44-1.69-1.15-.56-2.13-1.39-2.96-2.49-.83-1.1-1.24-2.53-1.24-4.3,0-2.62.95-4.68,2.84-6.16,1.89-1.49,4.36-2.23,7.4-2.23s5.59.74,7.48,2.23c1.89,1.48,2.91,3.55,3.04,6.2h-7.4c-.05-.91-.39-1.63-1-2.15-.61-.52-1.4-.78-2.36-.78-.83,0-1.49.22-2,.66-.51.44-.76,1.08-.76,1.91,0,.91.43,1.62,1.28,2.13.85.51,2.19,1.06,4,1.65,1.81.62,3.29,1.2,4.42,1.77,1.13.56,2.11,1.38,2.94,2.45.83,1.07,1.24,2.45,1.24,4.14s-.41,3.07-1.22,4.38c-.81,1.31-1.99,2.36-3.54,3.13-1.55.78-3.37,1.16-5.48,1.16s-3.89-.33-5.52-1Z" fill="#fff" stroke-width="0"/><path d="M582.8,56.62v5.7h9.16v5.3h-9.16v6.18h10.36v5.5h-17.2v-28.18h17.2v5.5h-10.36Z" fill="#fff" stroke-width="0"/><path id="c" d="M0,130c0-4.44,204.16-8.03,456-8.03s456,3.59,456,8.03" fill="#29aae1" stroke-width="0"/></svg>