<?xml version="1.0" encoding="UTF-8"?><svg id="a" xmlns="http://www.w3.org/2000/svg" width="912" height="130" viewBox="0 0 912 130"><path d="M340.46,51v5.49h-7.44v22.63h-6.84v-22.63h-7.44v-5.49h21.72Z" fill="#fff" stroke-width="0"/><path d="M350.74,56.49v5.69h9.16v5.29h-9.16v6.17h10.36v5.49h-17.2v-28.12h17.2v5.49h-10.36Z" fill="#fff" stroke-width="0"/><path d="M379.87,79.12l-5.84-10.61h-1.64v10.61h-6.84v-28.12h11.48c2.21,0,4.1.39,5.66,1.16s2.73,1.84,3.5,3.18c.77,1.35,1.16,2.85,1.16,4.51,0,1.87-.53,3.54-1.58,5.01-1.05,1.47-2.61,2.51-4.66,3.12l6.48,11.13h-7.72ZM372.39,63.66h4.24c1.25,0,2.19-.31,2.82-.92.63-.61.94-1.48.94-2.6s-.31-1.91-.94-2.52c-.63-.61-1.57-.92-2.82-.92h-4.24v6.97Z" fill="#fff" stroke-width="0"/><path d="M423.43,51v28.12h-6.84v-16.86l-6.28,16.86h-5.52l-6.32-16.9v16.9h-6.84v-28.12h8.08l7.88,19.47,7.8-19.47h8.04Z" fill="#fff" stroke-width="0"/><path d="M433,78.4c-1.63-.67-2.93-1.66-3.9-2.96-.97-1.31-1.49-2.88-1.54-4.73h7.28c.11,1.04.47,1.84,1.08,2.38.61.55,1.41.82,2.4.82s1.81-.23,2.4-.7c.59-.47.88-1.11.88-1.94,0-.69-.23-1.27-.7-1.72-.47-.45-1.04-.83-1.72-1.12-.68-.29-1.65-.63-2.9-1-1.81-.56-3.29-1.12-4.44-1.68-1.15-.56-2.13-1.39-2.96-2.48-.83-1.1-1.24-2.52-1.24-4.29,0-2.62.95-4.67,2.84-6.15,1.89-1.48,4.36-2.22,7.4-2.22s5.59.74,7.48,2.22c1.89,1.48,2.91,3.54,3.04,6.19h-7.4c-.05-.91-.39-1.62-1-2.14-.61-.52-1.4-.78-2.36-.78-.83,0-1.49.22-2,.66-.51.44-.76,1.07-.76,1.9,0,.91.43,1.62,1.28,2.12.85.51,2.19,1.06,4,1.64,1.81.61,3.29,1.2,4.42,1.76,1.13.56,2.11,1.38,2.94,2.44.83,1.07,1.24,2.44,1.24,4.13s-.41,3.06-1.22,4.37c-.81,1.31-1.99,2.35-3.54,3.12-1.55.77-3.37,1.16-5.48,1.16s-3.89-.33-5.52-1Z" fill="#fff" stroke-width="0"/><path d="M467.46,77.56c-2.2-1.23-3.95-2.94-5.24-5.15s-1.94-4.68-1.94-7.43.65-5.22,1.94-7.41,3.04-3.9,5.24-5.13,4.62-1.84,7.26-1.84,5.06.62,7.26,1.84,3.93,2.94,5.2,5.13c1.27,2.19,1.9,4.66,1.9,7.41s-.64,5.23-1.92,7.43c-1.28,2.2-3.01,3.92-5.2,5.15-2.19,1.23-4.6,1.84-7.24,1.84s-5.06-.61-7.26-1.84ZM480.1,70.91c1.35-1.5,2.02-3.47,2.02-5.93s-.67-4.47-2.02-5.95c-1.35-1.48-3.14-2.22-5.38-2.22s-4.07.74-5.42,2.2c-1.35,1.47-2.02,3.46-2.02,5.97s.67,4.47,2.02,5.95c1.35,1.48,3.15,2.22,5.42,2.22s4.03-.75,5.38-2.24Z" fill="#fff" stroke-width="0"/><path d="M511.17,51v5.49h-11.44v5.93h8.56v5.33h-8.56v11.38h-6.84v-28.12h18.28Z" fill="#fff" stroke-width="0"/><path d="M529.97,51v16.82c0,1.68.41,2.98,1.24,3.89.83.91,2.04,1.36,3.64,1.36s2.83-.45,3.68-1.36c.85-.91,1.28-2.2,1.28-3.89v-16.82h6.84v16.78c0,2.51-.53,4.63-1.6,6.37-1.07,1.74-2.5,3.04-4.3,3.93s-3.81,1.32-6.02,1.32-4.19-.43-5.94-1.3c-1.75-.87-3.13-2.18-4.14-3.93-1.01-1.75-1.52-3.88-1.52-6.39v-16.78h6.84Z" fill="#fff" stroke-width="0"/><path d="M556.1,78.4c-1.63-.67-2.93-1.66-3.9-2.96-.97-1.31-1.49-2.88-1.54-4.73h7.28c.11,1.04.47,1.84,1.08,2.38.61.55,1.41.82,2.4.82s1.81-.23,2.4-.7c.59-.47.88-1.11.88-1.94,0-.69-.23-1.27-.7-1.72-.47-.45-1.04-.83-1.72-1.12-.68-.29-1.65-.63-2.9-1-1.81-.56-3.29-1.12-4.44-1.68-1.15-.56-2.13-1.39-2.96-2.48-.83-1.1-1.24-2.52-1.24-4.29,0-2.62.95-4.67,2.84-6.15,1.89-1.48,4.36-2.22,7.4-2.22s5.59.74,7.48,2.22c1.89,1.48,2.91,3.54,3.04,6.19h-7.4c-.05-.91-.39-1.62-1-2.14-.61-.52-1.4-.78-2.36-.78-.83,0-1.49.22-2,.66-.51.44-.76,1.07-.76,1.9,0,.91.43,1.62,1.28,2.12.85.51,2.19,1.06,4,1.64,1.81.61,3.29,1.2,4.42,1.76,1.13.56,2.11,1.38,2.94,2.44.83,1.07,1.24,2.44,1.24,4.13s-.41,3.06-1.22,4.37c-.81,1.31-1.99,2.35-3.54,3.12-1.55.77-3.37,1.16-5.48,1.16s-3.89-.33-5.52-1Z" fill="#fff" stroke-width="0"/><path d="M582.9,56.49v5.69h9.16v5.29h-9.16v6.17h10.36v5.49h-17.2v-28.12h17.2v5.49h-10.36Z" fill="#fff" stroke-width="0"/><path id="b" d="M0,0c0,4.59,204.16,8.32,456,8.32S912,4.59,912,0" fill="#29aae1" stroke-width="0"/><path id="c" d="M0,130c0-4.6,204.16-8.32,456-8.32s456,3.72,456,8.32" fill="#29aae1" stroke-width="0"/></svg>