<?xml version="1.0" encoding="UTF-8"?><svg id="a" xmlns="http://www.w3.org/2000/svg" width="940" height="107.07" viewBox="0 0 940 107.07"><path d="M20.51,40.35v6.15H7.67v6.64h9.6v5.97H7.67v12.75H0v-31.51h20.51Z" fill="#fff" stroke-width="0"/><path d="M31.3,70.11c-2.47-1.38-4.43-3.3-5.88-5.77-1.45-2.47-2.18-5.24-2.18-8.33s.73-5.85,2.18-8.3c1.45-2.45,3.41-4.37,5.88-5.74s5.18-2.06,8.15-2.06,5.68.69,8.15,2.06,4.41,3.29,5.83,5.74c1.42,2.45,2.13,5.22,2.13,8.3s-.72,5.86-2.15,8.33c-1.44,2.47-3.38,4.39-5.83,5.77-2.45,1.38-5.16,2.06-8.12,2.06s-5.68-.69-8.15-2.06ZM45.49,62.66c1.51-1.68,2.27-3.89,2.27-6.64s-.76-5-2.27-6.66c-1.51-1.66-3.52-2.49-6.04-2.49s-4.57.82-6.08,2.47c-1.51,1.65-2.27,3.88-2.27,6.69s.76,5,2.27,6.66c1.51,1.66,3.54,2.49,6.08,2.49s4.53-.84,6.04-2.51Z" fill="#fff" stroke-width="0"/><path d="M75.89,71.86l-6.55-11.89h-1.84v11.89h-7.67v-31.51h12.88c2.48,0,4.6.43,6.35,1.3,1.75.87,3.06,2.06,3.93,3.57s1.3,3.19,1.3,5.05c0,2.09-.59,3.96-1.77,5.61-1.18,1.65-2.92,2.81-5.23,3.5l7.27,12.48h-8.66ZM67.5,54.53h4.76c1.41,0,2.46-.34,3.16-1.03.7-.69,1.05-1.66,1.05-2.92s-.35-2.14-1.05-2.83c-.7-.69-1.76-1.03-3.16-1.03h-4.76v7.81Z" fill="#fff" stroke-width="0"/><path d="M89.81,47.73c1.35-2.44,3.22-4.34,5.63-5.7,2.41-1.36,5.14-2.04,8.19-2.04,3.74,0,6.94.99,9.6,2.96,2.66,1.98,4.44,4.67,5.34,8.08h-8.44c-.63-1.32-1.52-2.32-2.67-3.01s-2.46-1.03-3.93-1.03c-2.36,0-4.28.82-5.74,2.47-1.47,1.65-2.2,3.85-2.2,6.6s.73,4.95,2.2,6.6c1.47,1.65,3.38,2.47,5.74,2.47,1.47,0,2.78-.34,3.93-1.03,1.15-.69,2.04-1.69,2.67-3.01h8.44c-.9,3.41-2.68,6.1-5.34,8.06-2.66,1.96-5.86,2.94-9.6,2.94-3.05,0-5.78-.68-8.19-2.04-2.41-1.36-4.29-3.25-5.63-5.68-1.35-2.42-2.02-5.19-2.02-8.3s.67-5.89,2.02-8.33Z" fill="#fff" stroke-width="0"/><path d="M130.96,40.35v31.51h-7.67v-31.51h7.67Z" fill="#fff" stroke-width="0"/><path d="M164.71,71.86h-7.67l-12.84-19.43v19.43h-7.67v-31.51h7.67l12.84,19.52v-19.52h7.67v31.51Z" fill="#fff" stroke-width="0"/><path d="M191.19,50.32c-.57-1.05-1.38-1.85-2.45-2.4-1.06-.55-2.31-.83-3.75-.83-2.48,0-4.47.82-5.97,2.45-1.5,1.63-2.24,3.81-2.24,6.53,0,2.9.79,5.17,2.36,6.8,1.57,1.63,3.73,2.45,6.49,2.45,1.88,0,3.48-.48,4.78-1.44,1.3-.96,2.25-2.33,2.85-4.13h-9.74v-5.65h16.7v7.14c-.57,1.91-1.53,3.7-2.9,5.34-1.36,1.65-3.09,2.98-5.18,3.99-2.09,1.02-4.46,1.53-7.09,1.53-3.11,0-5.89-.68-8.33-2.04-2.44-1.36-4.34-3.25-5.7-5.68-1.36-2.42-2.04-5.19-2.04-8.3s.68-5.89,2.04-8.33c1.36-2.44,3.25-4.34,5.68-5.7,2.42-1.36,5.19-2.04,8.3-2.04,3.77,0,6.95.91,9.54,2.74,2.59,1.83,4.3,4.35,5.14,7.59h-8.48Z" fill="#fff" stroke-width="0"/><path d="M236.75,55.5c-.84,1.51-2.12,2.73-3.86,3.66-1.74.93-3.89,1.39-6.46,1.39h-4.76v11.31h-7.67v-31.51h12.43c2.51,0,4.64.43,6.37,1.3,1.74.87,3.04,2.06,3.9,3.59.87,1.53,1.3,3.28,1.3,5.25,0,1.83-.42,3.49-1.26,5ZM229.12,53.41c.72-.69,1.08-1.66,1.08-2.92s-.36-2.23-1.08-2.92c-.72-.69-1.81-1.03-3.28-1.03h-4.17v7.9h4.17c1.47,0,2.56-.34,3.28-1.03Z" fill="#fff" stroke-width="0"/><path d="M249.67,46.5v6.37h10.28v5.92h-10.28v6.91h11.62v6.15h-19.3v-31.51h19.3v6.15h-11.62Z" fill="#fff" stroke-width="0"/><path d="M273.03,70.11c-2.47-1.38-4.43-3.3-5.88-5.77-1.45-2.47-2.18-5.24-2.18-8.33s.73-5.85,2.18-8.3c1.45-2.45,3.41-4.37,5.88-5.74s5.18-2.06,8.15-2.06,5.68.69,8.15,2.06,4.41,3.29,5.83,5.74c1.42,2.45,2.13,5.22,2.13,8.3s-.72,5.86-2.15,8.33c-1.44,2.47-3.38,4.39-5.83,5.77-2.45,1.38-5.16,2.06-8.12,2.06s-5.68-.69-8.15-2.06ZM287.22,62.66c1.51-1.68,2.27-3.89,2.27-6.64s-.76-5-2.27-6.66c-1.51-1.66-3.52-2.49-6.04-2.49s-4.57.82-6.08,2.47c-1.51,1.65-2.27,3.88-2.27,6.69s.76,5,2.27,6.66c1.51,1.66,3.54,2.49,6.08,2.49s4.53-.84,6.04-2.51Z" fill="#fff" stroke-width="0"/><path d="M324.31,55.5c-.84,1.51-2.12,2.73-3.86,3.66-1.74.93-3.89,1.39-6.46,1.39h-4.76v11.31h-7.67v-31.51h12.43c2.51,0,4.64.43,6.37,1.3,1.74.87,3.04,2.06,3.9,3.59.87,1.53,1.3,3.28,1.3,5.25,0,1.83-.42,3.49-1.26,5ZM316.68,53.41c.72-.69,1.08-1.66,1.08-2.92s-.36-2.23-1.08-2.92c-.72-.69-1.81-1.03-3.28-1.03h-4.17v7.9h4.17c1.47,0,2.56-.34,3.28-1.03Z" fill="#fff" stroke-width="0"/><path d="M337.23,65.93h10.05v5.92h-17.73v-31.51h7.67v25.58Z" fill="#fff" stroke-width="0"/><path d="M358.64,46.5v6.37h10.28v5.92h-10.28v6.91h11.62v6.15h-19.3v-31.51h19.3v6.15h-11.62Z" fill="#fff" stroke-width="0"/><path d="M407.43,40.35v6.15h-8.35v25.36h-7.67v-25.36h-8.35v-6.15h24.37Z" fill="#fff" stroke-width="0"/><path d="M418.04,70.11c-2.47-1.38-4.43-3.3-5.88-5.77-1.45-2.47-2.18-5.24-2.18-8.33s.73-5.85,2.18-8.3c1.45-2.45,3.41-4.37,5.88-5.74s5.18-2.06,8.15-2.06,5.68.69,8.15,2.06,4.41,3.29,5.83,5.74c1.42,2.45,2.13,5.22,2.13,8.3s-.72,5.86-2.15,8.33c-1.44,2.47-3.38,4.39-5.83,5.77-2.45,1.38-5.16,2.06-8.12,2.06s-5.68-.69-8.15-2.06ZM432.22,62.66c1.51-1.68,2.27-3.89,2.27-6.64s-.76-5-2.27-6.66c-1.51-1.66-3.52-2.49-6.04-2.49s-4.57.82-6.08,2.47c-1.51,1.65-2.27,3.88-2.27,6.69s.76,5,2.27,6.66c1.51,1.66,3.54,2.49,6.08,2.49s4.53-.84,6.04-2.51Z" fill="#fff" stroke-width="0"/><path d="M491.76,40.35v31.51h-7.68v-18.9l-7.05,18.9h-6.19l-7.09-18.94v18.94h-7.67v-31.51h9.07l8.84,21.81,8.75-21.81h9.02Z" fill="#fff" stroke-width="0"/><path d="M516.89,66.29h-11.76l-1.88,5.57h-8.03l11.4-31.51h8.89l11.4,31.51h-8.12l-1.89-5.57ZM514.92,60.37l-3.9-11.53-3.86,11.53h7.76Z" fill="#fff" stroke-width="0"/><path d="M548.62,71.86l-10.59-13.91v13.91h-7.68v-31.51h7.68v13.82l10.5-13.82h9.02l-12.21,15.44,12.66,16.07h-9.38Z" fill="#fff" stroke-width="0"/><path d="M569.31,46.5v6.37h10.28v5.92h-10.28v6.91h11.62v6.15h-19.3v-31.51h19.3v6.15h-11.62Z" fill="#fff" stroke-width="0"/><path d="M618.1,40.35v6.15h-8.35v25.36h-7.67v-25.36h-8.35v-6.15h24.37Z" fill="#fff" stroke-width="0"/><path d="M638.02,71.86l-6.55-11.89h-1.84v11.89h-7.67v-31.51h12.88c2.48,0,4.6.43,6.35,1.3,1.75.87,3.06,2.06,3.93,3.57s1.3,3.19,1.3,5.05c0,2.09-.59,3.96-1.77,5.61-1.18,1.65-2.92,2.81-5.23,3.5l7.27,12.48h-8.66ZM629.63,54.53h4.76c1.41,0,2.46-.34,3.16-1.03.7-.69,1.05-1.66,1.05-2.92s-.35-2.14-1.05-2.83c-.7-.69-1.76-1.03-3.16-1.03h-4.76v7.81Z" fill="#fff" stroke-width="0"/><path d="M670.83,66.29h-11.76l-1.88,5.57h-8.03l11.4-31.51h8.89l11.4,31.51h-8.12l-1.89-5.57ZM668.86,60.37l-3.9-11.53-3.86,11.53h7.76Z" fill="#fff" stroke-width="0"/><path d="M704.81,42.33c2.48,1.32,4.41,3.16,5.77,5.54,1.36,2.38,2.04,5.12,2.04,8.24s-.68,5.82-2.04,8.21c-1.36,2.39-3.29,4.25-5.79,5.56-2.5,1.32-5.39,1.98-8.69,1.98h-11.8v-31.51h11.8c3.32,0,6.22.66,8.71,1.97ZM702.38,62.84c1.62-1.59,2.42-3.83,2.42-6.73s-.81-5.16-2.42-6.78c-1.61-1.62-3.87-2.42-6.78-2.42h-3.63v18.31h3.63c2.9,0,5.16-.79,6.78-2.38Z" fill="#fff" stroke-width="0"/><path d="M724.6,46.5v6.37h10.28v5.92h-10.28v6.91h11.62v6.15h-19.3v-31.51h19.3v6.15h-11.62Z" fill="#fff" stroke-width="0"/><path d="M760.5,52.92v6.37h-19.75v-6.37h19.75Z" fill="#fff" stroke-width="0"/><path d="M773.99,70.11c-2.47-1.38-4.43-3.3-5.88-5.77-1.45-2.47-2.18-5.24-2.18-8.33s.72-5.85,2.18-8.3c1.45-2.45,3.41-4.37,5.88-5.74,2.47-1.38,5.18-2.06,8.15-2.06s5.68.69,8.15,2.06c2.47,1.38,4.41,3.29,5.84,5.74,1.42,2.45,2.13,5.22,2.13,8.3s-.72,5.86-2.15,8.33c-1.44,2.47-3.38,4.39-5.84,5.77s-5.16,2.06-8.12,2.06-5.68-.69-8.15-2.06ZM788.17,62.66c1.51-1.68,2.27-3.89,2.27-6.64s-.76-5-2.27-6.66c-1.51-1.66-3.52-2.49-6.04-2.49s-4.57.82-6.08,2.47c-1.51,1.65-2.27,3.88-2.27,6.69s.75,5,2.27,6.66c1.51,1.66,3.54,2.49,6.08,2.49s4.53-.84,6.04-2.51Z" fill="#fff" stroke-width="0"/><path d="M823.02,40.35v6.15h-12.84v6.64h9.6v5.97h-9.6v12.75h-7.68v-31.51h20.51Z" fill="#fff" stroke-width="0"/><path d="M847.57,40.35v6.15h-12.84v6.64h9.61v5.97h-9.61v12.75h-7.67v-31.51h20.51Z" fill="#fff" stroke-width="0"/><path d="M856.82,71.05c-1.83-.75-3.28-1.86-4.38-3.32-1.09-1.47-1.67-3.23-1.73-5.3h8.17c.12,1.17.52,2.06,1.21,2.67.69.61,1.59.92,2.69.92s2.03-.26,2.69-.79c.66-.52.99-1.25.99-2.18,0-.78-.26-1.42-.79-1.93-.52-.51-1.17-.93-1.93-1.26-.76-.33-1.85-.7-3.25-1.12-2.03-.63-3.7-1.26-4.98-1.89s-2.39-1.56-3.32-2.78c-.93-1.23-1.39-2.83-1.39-4.8,0-2.93,1.06-5.23,3.19-6.89,2.12-1.66,4.89-2.49,8.3-2.49s6.27.83,8.39,2.49c2.12,1.66,3.26,3.97,3.41,6.93h-8.3c-.06-1.02-.43-1.82-1.12-2.4s-1.57-.88-2.65-.88c-.93,0-1.68.25-2.24.74-.57.49-.85,1.2-.85,2.13,0,1.02.48,1.81,1.44,2.38.96.57,2.45,1.18,4.49,1.84,2.03.69,3.69,1.35,4.96,1.97,1.27.63,2.37,1.54,3.3,2.74.93,1.2,1.39,2.74,1.39,4.62s-.46,3.43-1.37,4.89c-.91,1.47-2.24,2.63-3.97,3.5-1.74.87-3.78,1.3-6.15,1.3s-4.37-.37-6.19-1.12Z" fill="#fff" stroke-width="0"/><path d="M896.11,41.11c1.93,1.68,2.89,4.04,2.89,7.09,0,2.81-.92,5-2.76,6.58-1.84,1.57-4.27,2.37-7.29,2.4l-.22,3.37h-6.73l-.22-8.35h2.69c2.3,0,4.06-.28,5.27-.85,1.21-.57,1.82-1.6,1.82-3.1,0-1.05-.28-1.87-.85-2.47-.57-.6-1.36-.9-2.38-.9-1.08,0-1.91.31-2.51.92-.6.61-.9,1.44-.9,2.49h-7.23c-.06-1.82.32-3.47,1.15-4.94.82-1.47,2.05-2.62,3.68-3.48,1.63-.85,3.6-1.28,5.9-1.28,3.2,0,5.77.84,7.7,2.51ZM882.15,71.03c-.85-.79-1.28-1.77-1.28-2.94s.43-2.2,1.28-3.01c.85-.81,1.95-1.21,3.3-1.21s2.4.4,3.25,1.21c.85.81,1.28,1.81,1.28,3.01s-.43,2.15-1.28,2.94c-.85.79-1.94,1.19-3.25,1.19s-2.45-.4-3.3-1.19Z" fill="#fff" stroke-width="0"/><path d="M901.28,41.95v-4.16h7.25v19.11h-4.66v-14.95h-2.59Z" fill="#fff" stroke-width="0"/><path d="M923.3,45.85v3.72h-11.52v-3.72h11.52Z" fill="#fff" stroke-width="0"/><path d="M928.77,38.86c1.15-1.01,2.71-1.52,4.69-1.52,1.31,0,2.43.23,3.36.68.93.45,1.64,1.07,2.12,1.86.48.79.72,1.67.72,2.64,0,1.15-.29,2.09-.86,2.81-.58.72-1.25,1.22-2.02,1.48v.11c1,.33,1.78.88,2.36,1.65.57.77.86,1.75.86,2.96,0,1.08-.25,2.04-.75,2.87-.5.83-1.22,1.48-2.17,1.95-.95.47-2.08.71-3.39.71-2.1,0-3.77-.51-5.01-1.54-1.25-1.03-1.91-2.58-1.98-4.66h4.35c.02.77.24,1.37.65,1.82s1.03.67,1.83.67c.68,0,1.21-.2,1.58-.59.37-.39.56-.91.56-1.56,0-.84-.27-1.44-.8-1.82-.53-.38-1.38-.56-2.55-.56h-.84v-3.64h.84c.89,0,1.61-.15,2.16-.46.55-.3.82-.85.82-1.64,0-.63-.17-1.12-.52-1.47-.35-.35-.83-.52-1.44-.52-.66,0-1.16.2-1.48.6-.32.4-.51.9-.56,1.49h-4.37c.07-1.87.68-3.31,1.83-4.32Z" fill="#fff" stroke-width="0"/><path id="b" d="M17.05,0c0,4.57,203.39,8.28,454.28,8.28S925.61,4.57,925.61,0" fill="#29aae1" stroke-width="0"/><path id="c" d="M16.53,107.07c0-4.58,203.62-8.29,454.79-8.29s454.8,3.71,454.8,8.29" fill="#29aae1" stroke-width="0"/></svg>