<?xml version="1.0" encoding="UTF-8"?><svg id="a" xmlns="http://www.w3.org/2000/svg" width="623" height="155" viewBox="0 0 623 155"><path d="M71.07,38.58v5.47h-11.43v5.91h8.55v5.31h-8.55v11.34h-6.84v-28.02h18.27Z" fill="#fff" stroke-width="0"/><path d="M80.68,65.04c-2.2-1.22-3.94-2.93-5.24-5.13s-1.94-4.66-1.94-7.41.65-5.2,1.94-7.38,3.04-3.89,5.24-5.11,4.62-1.84,7.25-1.84,5.06.61,7.26,1.84,3.93,2.93,5.2,5.11c1.27,2.18,1.9,4.64,1.9,7.38s-.64,5.21-1.92,7.41c-1.28,2.2-3.01,3.91-5.2,5.13-2.19,1.22-4.6,1.84-7.24,1.84s-5.06-.61-7.25-1.84ZM93.31,58.42c1.35-1.49,2.02-3.46,2.02-5.91s-.67-4.45-2.02-5.93c-1.35-1.48-3.14-2.22-5.38-2.22s-4.07.73-5.42,2.2c-1.35,1.46-2.02,3.45-2.02,5.95s.67,4.45,2.02,5.93c1.35,1.48,3.15,2.22,5.42,2.22s4.03-.74,5.38-2.24Z" fill="#fff" stroke-width="0"/><path d="M120.39,66.6l-5.84-10.58h-1.64v10.58h-6.84v-28.02h11.47c2.21,0,4.1.39,5.66,1.16s2.72,1.83,3.5,3.17c.77,1.34,1.16,2.84,1.16,4.49,0,1.86-.53,3.53-1.58,4.99-1.05,1.46-2.61,2.5-4.66,3.11l6.48,11.1h-7.71ZM112.92,51.19h4.24c1.25,0,2.19-.31,2.82-.92.63-.61.94-1.48.94-2.59s-.31-1.9-.94-2.52c-.63-.61-1.57-.92-2.82-.92h-4.24v6.95Z" fill="#fff" stroke-width="0"/><path d="M132.78,45.14c1.2-2.17,2.87-3.86,5.02-5.07,2.14-1.21,4.58-1.82,7.29-1.82,3.33,0,6.18.88,8.55,2.64,2.37,1.76,3.96,4.15,4.76,7.19h-7.51c-.56-1.17-1.35-2.06-2.38-2.68-1.03-.61-2.19-.92-3.5-.92-2.11,0-3.81.73-5.12,2.2-1.31,1.46-1.96,3.42-1.96,5.87s.65,4.41,1.96,5.87c1.31,1.46,3.01,2.2,5.12,2.2,1.31,0,2.47-.31,3.5-.92,1.03-.61,1.82-1.5,2.38-2.67h7.51c-.8,3.03-2.39,5.42-4.76,7.17-2.37,1.74-5.22,2.61-8.55,2.61-2.72,0-5.15-.61-7.29-1.82-2.15-1.21-3.82-2.89-5.02-5.05-1.2-2.16-1.8-4.62-1.8-7.39s.6-5.24,1.8-7.41Z" fill="#fff" stroke-width="0"/><path d="M169.44,38.58v28.02h-6.84v-28.02h6.84Z" fill="#fff" stroke-width="0"/><path d="M199.5,66.6h-6.84l-11.43-17.29v17.29h-6.84v-28.02h6.84l11.43,17.37v-17.37h6.84v28.02Z" fill="#fff" stroke-width="0"/><path d="M223.08,47.44c-.51-.93-1.23-1.64-2.18-2.14-.95-.49-2.06-.74-3.34-.74-2.21,0-3.98.73-5.32,2.18-1.33,1.45-2,3.39-2,5.81,0,2.58.7,4.6,2.1,6.05s3.32,2.18,5.78,2.18c1.68,0,3.1-.43,4.26-1.28,1.16-.85,2-2.08,2.54-3.67h-8.67v-5.03h14.87v6.35c-.51,1.7-1.37,3.29-2.58,4.75-1.21,1.46-2.75,2.65-4.62,3.55-1.87.91-3.97,1.36-6.32,1.36-2.77,0-5.24-.61-7.41-1.82-2.17-1.21-3.86-2.89-5.08-5.05-1.21-2.16-1.82-4.62-1.82-7.39s.61-5.24,1.82-7.41c1.21-2.17,2.9-3.86,5.06-5.07,2.16-1.21,4.62-1.82,7.39-1.82,3.36,0,6.19.81,8.49,2.44,2.3,1.62,3.83,3.87,4.58,6.75h-7.55Z" fill="#fff" stroke-width="0"/><path d="M263.65,52.05c-.75,1.34-1.89,2.43-3.44,3.25-1.55.83-3.46,1.24-5.76,1.24h-4.24v10.06h-6.84v-28.02h11.07c2.24,0,4.13.39,5.68,1.16,1.54.77,2.7,1.84,3.48,3.19.77,1.36,1.16,2.91,1.16,4.67,0,1.62-.37,3.11-1.12,4.45ZM256.86,50.19c.64-.61.96-1.48.96-2.59s-.32-1.98-.96-2.59-1.61-.92-2.92-.92h-3.72v7.03h3.72c1.31,0,2.28-.31,2.92-.92Z" fill="#fff" stroke-width="0"/><path d="M275.17,44.05v5.67h9.15v5.27h-9.15v6.15h10.35v5.47h-17.19v-28.02h17.19v5.47h-10.35Z" fill="#fff" stroke-width="0"/><path d="M295.97,65.04c-2.2-1.22-3.94-2.93-5.24-5.13s-1.94-4.66-1.94-7.41.65-5.2,1.94-7.38,3.04-3.89,5.24-5.11,4.62-1.84,7.25-1.84,5.06.61,7.26,1.84,3.93,2.93,5.2,5.11c1.27,2.18,1.9,4.64,1.9,7.38s-.64,5.21-1.92,7.41c-1.28,2.2-3.01,3.91-5.2,5.13-2.19,1.22-4.6,1.84-7.24,1.84s-5.06-.61-7.25-1.84ZM308.6,58.42c1.35-1.49,2.02-3.46,2.02-5.91s-.67-4.45-2.02-5.93c-1.35-1.48-3.14-2.22-5.38-2.22s-4.07.73-5.42,2.2c-1.35,1.46-2.02,3.45-2.02,5.95s.67,4.45,2.02,5.93c1.35,1.48,3.15,2.22,5.42,2.22s4.03-.74,5.38-2.24Z" fill="#fff" stroke-width="0"/><path d="M341.64,52.05c-.75,1.34-1.89,2.43-3.44,3.25-1.55.83-3.46,1.24-5.76,1.24h-4.24v10.06h-6.84v-28.02h11.07c2.24,0,4.13.39,5.68,1.16,1.54.77,2.7,1.84,3.48,3.19.77,1.36,1.16,2.91,1.16,4.67,0,1.62-.37,3.11-1.12,4.45ZM334.84,50.19c.64-.61.96-1.48.96-2.59s-.32-1.98-.96-2.59-1.61-.92-2.92-.92h-3.72v7.03h3.72c1.31,0,2.28-.31,2.92-.92Z" fill="#fff" stroke-width="0"/><path d="M353.15,61.33h8.95v5.27h-15.79v-28.02h6.84v22.75Z" fill="#fff" stroke-width="0"/><path d="M372.22,44.05v5.67h9.15v5.27h-9.15v6.15h10.35v5.47h-17.19v-28.02h17.19v5.47h-10.35Z" fill="#fff" stroke-width="0"/><path d="M415.67,38.58v5.47h-7.43v22.55h-6.84v-22.55h-7.43v-5.47h21.71Z" fill="#fff" stroke-width="0"/><path d="M425.12,65.04c-2.2-1.22-3.94-2.93-5.24-5.13s-1.94-4.66-1.94-7.41.65-5.2,1.94-7.38,3.04-3.89,5.24-5.11,4.62-1.84,7.25-1.84,5.06.61,7.26,1.84,3.93,2.93,5.2,5.11c1.27,2.18,1.9,4.64,1.9,7.38s-.64,5.21-1.92,7.41c-1.28,2.2-3.01,3.91-5.2,5.13-2.19,1.22-4.6,1.84-7.24,1.84s-5.06-.61-7.25-1.84ZM437.75,58.42c1.35-1.49,2.02-3.46,2.02-5.91s-.67-4.45-2.02-5.93c-1.35-1.48-3.14-2.22-5.38-2.22s-4.07.73-5.42,2.2c-1.35,1.46-2.02,3.45-2.02,5.95s.67,4.45,2.02,5.93c1.35,1.48,3.15,2.22,5.42,2.22s4.03-.74,5.38-2.24Z" fill="#fff" stroke-width="0"/><path d="M490.78,38.58v28.02h-6.84v-16.81l-6.28,16.81h-5.52l-6.32-16.85v16.85h-6.84v-28.02h8.07l7.87,19.4,7.8-19.4h8.03Z" fill="#fff" stroke-width="0"/><path d="M513.16,61.65h-10.47l-1.68,4.95h-7.15l10.15-28.02h7.92l10.15,28.02h-7.23l-1.68-4.95ZM511.4,56.38l-3.48-10.26-3.44,10.26h6.92Z" fill="#fff" stroke-width="0"/><path d="M541.42,66.6l-9.43-12.38v12.38h-6.84v-28.02h6.84v12.3l9.35-12.3h8.03l-10.87,13.73,11.27,14.29h-8.35Z" fill="#fff" stroke-width="0"/><path d="M559.85,44.05v5.67h9.15v5.27h-9.15v6.15h10.35v5.47h-17.19v-28.02h17.19v5.47h-10.35Z" fill="#fff" stroke-width="0"/><path d="M178.58,88.48v5.47h-7.43v22.55h-6.84v-22.55h-7.43v-5.47h21.71Z" fill="#fff" stroke-width="0"/><path d="M196.33,116.5l-5.84-10.58h-1.64v10.58h-6.84v-28.02h11.47c2.21,0,4.1.39,5.66,1.16s2.72,1.83,3.5,3.17c.77,1.34,1.16,2.84,1.16,4.49,0,1.86-.53,3.53-1.58,4.99-1.05,1.46-2.61,2.5-4.66,3.11l6.48,11.1h-7.71ZM188.85,101.09h4.24c1.25,0,2.19-.31,2.82-.92.63-.61.94-1.48.94-2.59s-.31-1.9-.94-2.52c-.63-.61-1.57-.92-2.82-.92h-4.24v6.95Z" fill="#fff" stroke-width="0"/><path d="M225.55,111.55h-10.47l-1.68,4.95h-7.15l10.15-28.02h7.92l10.15,28.02h-7.23l-1.68-4.95ZM223.79,106.28l-3.48-10.26-3.44,10.26h6.92Z" fill="#fff" stroke-width="0"/><path d="M255.81,90.23c2.21,1.17,3.92,2.81,5.14,4.93,1.21,2.12,1.82,4.56,1.82,7.33s-.61,5.18-1.82,7.31c-1.21,2.13-2.93,3.78-5.16,4.95-2.23,1.17-4.8,1.76-7.73,1.76h-10.51v-28.02h10.51c2.96,0,5.54.59,7.75,1.76ZM253.65,108.48c1.44-1.41,2.16-3.41,2.16-5.99s-.72-4.59-2.16-6.03c-1.44-1.44-3.45-2.16-6.04-2.16h-3.24v16.29h3.24c2.58,0,4.6-.7,6.04-2.12Z" fill="#fff" stroke-width="0"/><path d="M273.44,93.95v5.67h9.15v5.27h-9.15v6.15h10.35v5.47h-17.19v-28.02h17.19v5.47h-10.35Z" fill="#fff" stroke-width="0"/><path d="M305.41,99.66v5.67h-17.59v-5.67h17.59Z" fill="#fff" stroke-width="0"/><path d="M317.43,114.95c-2.2-1.22-3.94-2.93-5.24-5.13s-1.94-4.66-1.94-7.41.65-5.2,1.94-7.38,3.04-3.89,5.24-5.11,4.62-1.84,7.25-1.84,5.06.61,7.26,1.84,3.93,2.93,5.2,5.11c1.27,2.18,1.9,4.64,1.9,7.38s-.64,5.21-1.92,7.41c-1.28,2.2-3.01,3.91-5.2,5.13-2.19,1.22-4.6,1.84-7.24,1.84s-5.06-.61-7.25-1.84ZM330.06,108.32c1.35-1.49,2.02-3.46,2.02-5.91s-.67-4.45-2.02-5.93c-1.35-1.48-3.14-2.22-5.38-2.22s-4.07.73-5.42,2.2c-1.35,1.46-2.02,3.45-2.02,5.95s.67,4.45,2.02,5.93c1.35,1.48,3.15,2.22,5.42,2.22s4.03-.74,5.38-2.24Z" fill="#fff" stroke-width="0"/><path d="M361.1,88.48v5.47h-11.43v5.91h8.55v5.31h-8.55v11.34h-6.84v-28.02h18.27Z" fill="#fff" stroke-width="0"/><path d="M382.96,88.48v5.47h-11.43v5.91h8.55v5.31h-8.55v11.34h-6.84v-28.02h18.27Z" fill="#fff" stroke-width="0"/><path d="M391.2,115.78c-1.63-.67-2.92-1.65-3.9-2.95-.97-1.3-1.49-2.87-1.54-4.71h7.27c.11,1.04.47,1.83,1.08,2.38.61.55,1.41.82,2.4.82s1.81-.23,2.4-.7c.59-.46.88-1.11.88-1.94,0-.69-.23-1.26-.7-1.72-.47-.45-1.04-.83-1.72-1.12-.68-.29-1.65-.63-2.9-1-1.81-.56-3.29-1.12-4.44-1.68-1.15-.56-2.13-1.38-2.96-2.47-.83-1.09-1.24-2.52-1.24-4.27,0-2.61.95-4.65,2.84-6.13,1.89-1.48,4.36-2.22,7.39-2.22s5.58.74,7.47,2.22c1.89,1.48,2.9,3.53,3.04,6.17h-7.39c-.05-.9-.39-1.62-1-2.14-.61-.52-1.4-.78-2.36-.78-.83,0-1.49.22-2,.66-.51.44-.76,1.07-.76,1.9,0,.91.43,1.61,1.28,2.12.85.51,2.19,1.05,4,1.64,1.81.61,3.28,1.2,4.42,1.76,1.13.56,2.11,1.37,2.94,2.43.83,1.07,1.24,2.44,1.24,4.11s-.41,3.05-1.22,4.35c-.81,1.3-1.99,2.34-3.54,3.11-1.55.77-3.37,1.16-5.48,1.16s-3.89-.33-5.52-1Z" fill="#fff" stroke-width="0"/><path d="M426.19,89.16c1.72,1.49,2.58,3.59,2.58,6.31,0,2.5-.82,4.45-2.46,5.85-1.64,1.4-3.8,2.11-6.5,2.14l-.2,2.99h-6l-.2-7.42h2.4c2.05,0,3.62-.25,4.7-.76,1.08-.5,1.62-1.42,1.62-2.75,0-.93-.25-1.66-.76-2.2-.51-.53-1.21-.8-2.12-.8-.96,0-1.71.27-2.24.82-.53.55-.8,1.28-.8,2.22h-6.44c-.05-1.62.29-3.09,1.02-4.39.73-1.3,1.82-2.34,3.28-3.09,1.45-.76,3.2-1.14,5.26-1.14,2.85,0,5.14.74,6.86,2.23ZM413.76,115.76c-.76-.7-1.14-1.58-1.14-2.61s.38-1.96,1.14-2.67c.76-.72,1.74-1.08,2.94-1.08s2.14.36,2.9,1.08c.76.72,1.14,1.61,1.14,2.67s-.38,1.91-1.14,2.61c-.76.71-1.73,1.06-2.9,1.06s-2.18-.35-2.94-1.06Z" fill="#fff" stroke-width="0"/><path d="M430.8,89.9v-3.7h6.46v17h-4.15v-13.3h-2.31Z" fill="#fff" stroke-width="0"/><path d="M450.41,93.37v3.31h-10.26v-3.31h10.26Z" fill="#fff" stroke-width="0"/><path d="M455.28,87.15c1.03-.9,2.42-1.35,4.17-1.35,1.17,0,2.16.2,3,.61s1.46.95,1.89,1.65c.43.7.64,1.48.64,2.35,0,1.03-.26,1.86-.77,2.5s-1.11,1.08-1.8,1.32v.09c.89.3,1.59.78,2.1,1.47.51.68.77,1.56.77,2.63,0,.96-.22,1.81-.66,2.55-.44.74-1.09,1.32-1.94,1.73s-1.85.63-3.02.63c-1.86,0-3.35-.46-4.46-1.37-1.11-.92-1.7-2.3-1.76-4.15h3.87c.02.68.21,1.22.58,1.62.37.4.92.59,1.63.59.61,0,1.08-.17,1.41-.52.33-.35.5-.81.5-1.38,0-.75-.24-1.28-.71-1.62-.47-.33-1.23-.5-2.27-.5h-.75v-3.24h.75c.79,0,1.43-.14,1.92-.41.49-.27.73-.76.73-1.46,0-.56-.16-.99-.47-1.3-.31-.31-.74-.47-1.28-.47-.59,0-1.03.18-1.32.54-.29.36-.45.8-.5,1.33h-3.89c.06-1.66.61-2.94,1.63-3.84Z" fill="#fff" stroke-width="0"/><path id="b" d="M0,0c0,4.58,139.46,8.29,311.5,8.29S623,4.58,623,0" fill="#29aae1" stroke-width="0"/><path id="c" d="M0,155c0-4.58,139.46-8.29,311.5-8.29s311.5,3.71,311.5,8.29" fill="#29aae1" stroke-width="0"/></svg>