<?xml version="1.0" encoding="UTF-8"?><svg id="a" xmlns="http://www.w3.org/2000/svg" width="434" height="154" viewBox="0 0 434 154"><path d="M27.84,38.83v24.64h-5.99v-14.77l-5.5,14.77h-4.83l-5.53-14.81v14.81H0v-24.64h7.07l6.9,17.06,6.83-17.06h7.04Z" fill="#fff" stroke-width="0"/><path d="M47.45,59.11h-9.18l-1.47,4.35h-6.27l8.9-24.64h6.93l8.9,24.64h-6.34l-1.47-4.35ZM45.91,54.48l-3.05-9.02-3.01,9.02h6.06Z" fill="#fff" stroke-width="0"/><path d="M79.04,38.83l-8.51,16.49v8.14h-5.99v-8.14l-8.51-16.49h6.79l4.76,10.32,4.73-10.32h6.72Z" fill="#fff" stroke-width="0"/><path d="M104.88,38.83v4.81h-10.02v5.19h7.49v4.67h-7.49v9.97h-5.99v-24.64h16Z" fill="#fff" stroke-width="0"/><path d="M113.31,62.09c-1.93-1.08-3.46-2.58-4.59-4.51-1.13-1.93-1.7-4.1-1.7-6.51s.57-4.57,1.7-6.49c1.13-1.92,2.66-3.42,4.59-4.49s4.04-1.61,6.36-1.61,4.43.54,6.36,1.61c1.93,1.08,3.44,2.57,4.55,4.49,1.11,1.92,1.66,4.08,1.66,6.49s-.56,4.58-1.68,6.51c-1.12,1.93-2.64,3.43-4.55,4.51-1.91,1.08-4.03,1.61-6.34,1.61s-4.43-.54-6.36-1.61ZM124.37,56.27c1.18-1.31,1.77-3.04,1.77-5.19s-.59-3.91-1.77-5.21c-1.18-1.3-2.75-1.95-4.71-1.95s-3.57.64-4.75,1.93c-1.18,1.29-1.77,3.03-1.77,5.23s.59,3.91,1.77,5.21,2.76,1.95,4.75,1.95,3.53-.66,4.71-1.97Z" fill="#fff" stroke-width="0"/><path d="M148.1,63.46l-5.11-9.3h-1.44v9.3h-5.99v-24.64h10.05c1.94,0,3.59.34,4.96,1.02,1.37.68,2.39,1.61,3.06,2.79.68,1.18,1.02,2.5,1.02,3.95,0,1.64-.46,3.1-1.38,4.39s-2.28,2.2-4.08,2.74l5.67,9.76h-6.76ZM141.55,49.92h3.71c1.1,0,1.92-.27,2.47-.81.55-.54.82-1.3.82-2.28s-.27-1.67-.82-2.21c-.55-.54-1.37-.81-2.47-.81h-3.71v6.11Z" fill="#fff" stroke-width="0"/><path d="M158.96,44.6c1.05-1.91,2.52-3.39,4.4-4.46,1.88-1.06,4.01-1.6,6.39-1.6,2.92,0,5.42.77,7.49,2.32,2.08,1.54,3.47,3.65,4.17,6.32h-6.58c-.49-1.03-1.19-1.81-2.08-2.35-.9-.54-1.92-.81-3.06-.81-1.84,0-3.34.64-4.48,1.93-1.14,1.29-1.72,3.01-1.72,5.16s.57,3.87,1.72,5.16c1.14,1.29,2.64,1.93,4.48,1.93,1.14,0,2.17-.27,3.06-.81.9-.54,1.59-1.32,2.08-2.35h6.58c-.7,2.67-2.09,4.77-4.17,6.3-2.08,1.53-4.58,2.3-7.49,2.3-2.38,0-4.51-.53-6.39-1.6-1.88-1.06-3.34-2.54-4.4-4.44-1.05-1.9-1.58-4.06-1.58-6.49s.53-4.6,1.58-6.51Z" fill="#fff" stroke-width="0"/><path d="M191.07,38.83v24.64h-5.99v-24.64h5.99Z" fill="#fff" stroke-width="0"/><path d="M217.4,63.46h-5.99l-10.02-15.2v15.2h-5.99v-24.64h5.99l10.02,15.27v-15.27h5.99v24.64Z" fill="#fff" stroke-width="0"/><path d="M238.07,46.62c-.44-.82-1.08-1.44-1.91-1.88-.83-.43-1.8-.65-2.92-.65-1.94,0-3.49.64-4.66,1.91-1.17,1.27-1.75,2.98-1.75,5.11,0,2.27.61,4.04,1.84,5.32,1.23,1.28,2.91,1.91,5.06,1.91,1.47,0,2.71-.37,3.73-1.12,1.02-.75,1.76-1.82,2.22-3.23h-7.6v-4.42h13.03v5.58c-.44,1.5-1.2,2.89-2.26,4.18-1.06,1.29-2.41,2.33-4.04,3.12s-3.48,1.19-5.53,1.19c-2.43,0-4.59-.53-6.5-1.6-1.9-1.06-3.39-2.54-4.45-4.44-1.06-1.9-1.59-4.06-1.59-6.49s.53-4.6,1.59-6.51c1.06-1.91,2.54-3.39,4.43-4.46,1.89-1.06,4.05-1.6,6.48-1.6,2.94,0,5.42.71,7.44,2.14,2.02,1.43,3.36,3.4,4.01,5.93h-6.62Z" fill="#fff" stroke-width="0"/><path d="M273.61,50.67c-.65,1.18-1.66,2.14-3.01,2.86-1.35.73-3.03,1.09-5.04,1.09h-3.71v8.84h-5.99v-24.64h9.7c1.96,0,3.62.34,4.97,1.02,1.35.68,2.37,1.61,3.05,2.81.68,1.19,1.02,2.56,1.02,4.11,0,1.43-.33,2.73-.98,3.91ZM267.66,49.04c.56-.54.84-1.3.84-2.28s-.28-1.74-.84-2.28c-.56-.54-1.41-.81-2.56-.81h-3.26v6.18h3.26c1.14,0,2-.27,2.56-.81Z" fill="#fff" stroke-width="0"/><path d="M283.7,43.64v4.98h8.02v4.63h-8.02v5.4h9.07v4.81h-15.06v-24.64h15.06v4.81h-9.07Z" fill="#fff" stroke-width="0"/><path d="M301.92,62.09c-1.93-1.08-3.46-2.58-4.59-4.51-1.13-1.93-1.7-4.1-1.7-6.51s.57-4.57,1.7-6.49c1.13-1.92,2.66-3.42,4.59-4.49s4.04-1.61,6.36-1.61,4.43.54,6.36,1.61c1.93,1.08,3.44,2.57,4.55,4.49,1.11,1.92,1.66,4.08,1.66,6.49s-.56,4.58-1.68,6.51c-1.12,1.93-2.64,3.43-4.55,4.51-1.91,1.08-4.03,1.61-6.34,1.61s-4.43-.54-6.36-1.61ZM312.99,56.27c1.18-1.31,1.77-3.04,1.77-5.19s-.59-3.91-1.77-5.21c-1.18-1.3-2.75-1.95-4.71-1.95s-3.57.64-4.75,1.93c-1.18,1.29-1.77,3.03-1.77,5.23s.59,3.91,1.77,5.21,2.76,1.95,4.75,1.95,3.53-.66,4.71-1.97Z" fill="#fff" stroke-width="0"/><path d="M341.93,50.67c-.65,1.18-1.66,2.14-3.01,2.86-1.35.73-3.03,1.09-5.04,1.09h-3.71v8.84h-5.99v-24.64h9.7c1.96,0,3.62.34,4.97,1.02,1.35.68,2.37,1.61,3.05,2.81.68,1.19,1.02,2.56,1.02,4.11,0,1.43-.33,2.73-.98,3.91ZM335.98,49.04c.56-.54.84-1.3.84-2.28s-.28-1.74-.84-2.28c-.56-.54-1.41-.81-2.56-.81h-3.26v6.18h3.26c1.14,0,2-.27,2.56-.81Z" fill="#fff" stroke-width="0"/><path d="M352.02,58.83h7.84v4.63h-13.83v-24.64h5.99v20Z" fill="#fff" stroke-width="0"/><path d="M368.72,43.64v4.98h8.02v4.63h-8.02v5.4h9.07v4.81h-15.06v-24.64h15.06v4.81h-9.07Z" fill="#fff" stroke-width="0"/><path d="M406.79,38.83v4.81h-6.51v19.83h-5.99v-19.83h-6.51v-4.81h19.02Z" fill="#fff" stroke-width="0"/><path d="M415.07,62.09c-1.93-1.08-3.46-2.58-4.59-4.51-1.13-1.93-1.7-4.1-1.7-6.51s.57-4.57,1.7-6.49c1.13-1.92,2.66-3.42,4.59-4.49s4.04-1.61,6.36-1.61,4.43.54,6.36,1.61c1.93,1.08,3.44,2.57,4.55,4.49,1.11,1.92,1.66,4.08,1.66,6.49s-.56,4.58-1.68,6.51c-1.12,1.93-2.64,3.43-4.55,4.51-1.91,1.08-4.03,1.61-6.34,1.61s-4.43-.54-6.36-1.61ZM426.14,56.27c1.18-1.31,1.77-3.04,1.77-5.19s-.59-3.91-1.77-5.21c-1.18-1.3-2.75-1.95-4.71-1.95s-3.57.64-4.75,1.93c-1.18,1.29-1.77,3.03-1.77,5.23s.59,3.91,1.77,5.21,2.76,1.95,4.75,1.95,3.53-.66,4.71-1.97Z" fill="#fff" stroke-width="0"/><path d="M56.06,88.96v24.64h-5.99v-14.77l-5.5,14.77h-4.83l-5.53-14.81v14.81h-5.99v-24.64h7.07l6.9,17.06,6.83-17.06h7.04Z" fill="#fff" stroke-width="0"/><path d="M75.67,109.25h-9.18l-1.47,4.35h-6.27l8.9-24.64h6.93l8.9,24.64h-6.34l-1.47-4.35ZM74.13,104.61l-3.05-9.02-3.01,9.02h6.06Z" fill="#fff" stroke-width="0"/><path d="M100.43,113.6l-8.27-10.88v10.88h-5.99v-24.64h5.99v10.81l8.2-10.81h7.04l-9.53,12.07,9.88,12.56h-7.32Z" fill="#fff" stroke-width="0"/><path d="M116.57,93.77v4.98h8.02v4.63h-8.02v5.4h9.07v4.81h-15.06v-24.64h15.06v4.81h-9.07Z" fill="#fff" stroke-width="0"/><path d="M154.64,88.96v4.81h-6.51v19.83h-5.99v-19.83h-6.51v-4.81h19.02Z" fill="#fff" stroke-width="0"/><path d="M170.19,113.6l-5.11-9.3h-1.44v9.3h-5.99v-24.64h10.05c1.94,0,3.59.34,4.96,1.02,1.37.68,2.39,1.61,3.06,2.79.68,1.18,1.02,2.5,1.02,3.95,0,1.64-.46,3.1-1.38,4.39s-2.28,2.2-4.08,2.74l5.67,9.76h-6.76ZM163.64,100.05h3.71c1.1,0,1.92-.27,2.47-.81.55-.54.82-1.3.82-2.28s-.27-1.67-.82-2.21c-.55-.54-1.37-.81-2.47-.81h-3.71v6.11Z" fill="#fff" stroke-width="0"/><path d="M195.79,109.25h-9.18l-1.47,4.35h-6.27l8.9-24.64h6.93l8.9,24.64h-6.34l-1.47-4.35ZM194.25,104.61l-3.05-9.02-3.01,9.02h6.06Z" fill="#fff" stroke-width="0"/><path d="M222.3,90.51c1.94,1.03,3.44,2.47,4.5,4.33,1.06,1.86,1.59,4.01,1.59,6.44s-.53,4.55-1.59,6.42c-1.06,1.87-2.57,3.32-4.52,4.35-1.95,1.03-4.21,1.54-6.78,1.54h-9.21v-24.64h9.21c2.59,0,4.86.52,6.79,1.54ZM220.41,106.54c1.26-1.24,1.89-2.99,1.89-5.26s-.63-4.04-1.89-5.3c-1.26-1.26-3.02-1.89-5.29-1.89h-2.84v14.32h2.84c2.26,0,4.03-.62,5.29-1.86Z" fill="#fff" stroke-width="0"/><path d="M237.74,93.77v4.98h8.02v4.63h-8.02v5.4h9.07v4.81h-15.06v-24.64h15.06v4.81h-9.07Z" fill="#fff" stroke-width="0"/><path d="M265.76,98.79v4.98h-15.41v-4.98h15.41Z" fill="#fff" stroke-width="0"/><path d="M276.28,112.23c-1.93-1.08-3.46-2.58-4.59-4.51-1.13-1.93-1.7-4.1-1.7-6.51s.57-4.57,1.7-6.49c1.13-1.92,2.66-3.42,4.59-4.49s4.04-1.61,6.36-1.61,4.43.54,6.36,1.61c1.93,1.08,3.44,2.57,4.55,4.49,1.11,1.92,1.66,4.08,1.66,6.49s-.56,4.58-1.68,6.51c-1.12,1.93-2.64,3.43-4.55,4.51-1.91,1.08-4.03,1.61-6.34,1.61s-4.43-.54-6.36-1.61ZM287.35,106.4c1.18-1.31,1.77-3.04,1.77-5.19s-.59-3.91-1.77-5.21c-1.18-1.3-2.75-1.95-4.71-1.95s-3.57.64-4.75,1.93c-1.18,1.29-1.77,3.03-1.77,5.23s.59,3.91,1.77,5.21,2.76,1.95,4.75,1.95,3.53-.66,4.71-1.97Z" fill="#fff" stroke-width="0"/><path d="M314.54,88.96v4.81h-10.02v5.19h7.49v4.67h-7.49v9.97h-5.99v-24.64h16Z" fill="#fff" stroke-width="0"/><path d="M333.7,88.96v4.81h-10.02v5.19h7.49v4.67h-7.49v9.97h-5.99v-24.64h16Z" fill="#fff" stroke-width="0"/><path d="M340.91,112.97c-1.42-.58-2.56-1.45-3.41-2.6-.85-1.15-1.3-2.53-1.35-4.14h6.37c.09.91.41,1.61.95,2.09.54.48,1.24.72,2.1.72s1.59-.2,2.1-.61.77-.98.77-1.7c0-.61-.2-1.11-.61-1.51-.41-.4-.91-.72-1.51-.98-.6-.26-1.44-.55-2.54-.88-1.59-.49-2.88-.98-3.89-1.47-1-.49-1.87-1.22-2.59-2.18-.72-.96-1.09-2.21-1.09-3.76,0-2.29.83-4.09,2.49-5.39s3.82-1.95,6.48-1.95,4.89.65,6.55,1.95,2.54,3.11,2.66,5.42h-6.48c-.05-.8-.34-1.42-.88-1.88-.54-.46-1.23-.68-2.07-.68-.72,0-1.31.19-1.75.58-.44.39-.67.94-.67,1.67,0,.8.37,1.42,1.12,1.86.75.44,1.91.92,3.5,1.44,1.59.54,2.88,1.05,3.87,1.54.99.49,1.85,1.21,2.57,2.14.72.94,1.09,2.14,1.09,3.61s-.36,2.68-1.07,3.83c-.71,1.15-1.75,2.06-3.1,2.74-1.35.68-2.95,1.02-4.8,1.02s-3.41-.29-4.83-.88Z" fill="#fff" stroke-width="0"/><path d="M371.57,89.56c1.51,1.31,2.26,3.16,2.26,5.54,0,2.2-.72,3.91-2.15,5.14-1.44,1.23-3.33,1.85-5.69,1.88l-.18,2.63h-5.25l-.17-6.53h2.1c1.8,0,3.17-.22,4.11-.67.95-.44,1.42-1.25,1.42-2.42,0-.82-.22-1.46-.67-1.93-.44-.47-1.06-.7-1.86-.7-.84,0-1.49.24-1.96.72-.47.48-.7,1.13-.7,1.95h-5.64c-.05-1.43.25-2.71.89-3.86.64-1.15,1.6-2.05,2.87-2.72,1.27-.67,2.81-1,4.61-1,2.5,0,4.5.66,6.01,1.97ZM360.68,112.95c-.67-.62-1-1.39-1-2.3s.33-1.72,1-2.35,1.52-.95,2.57-.95,1.87.32,2.54.95c.67.63,1,1.42,1,2.35s-.33,1.68-1,2.3c-.66.62-1.51.93-2.54.93s-1.91-.31-2.57-.93Z" fill="#fff" stroke-width="0"/><path d="M375.6,90.21v-3.25h5.66v14.94h-3.64v-11.69h-2.02Z" fill="#fff" stroke-width="0"/><path d="M392.78,93.26v2.91h-8.99v-2.91h8.99Z" fill="#fff" stroke-width="0"/><path d="M397.05,87.8c.9-.79,2.12-1.19,3.66-1.19,1.02,0,1.9.18,2.62.53s1.28.84,1.65,1.45.56,1.3.56,2.07c0,.9-.22,1.63-.67,2.2-.45.57-.97.95-1.57,1.16v.08c.78.26,1.39.69,1.84,1.29s.67,1.37.67,2.31c0,.85-.19,1.59-.58,2.24-.39.65-.95,1.16-1.7,1.53-.74.37-1.62.55-2.65.55-1.63,0-2.94-.4-3.91-1.21-.97-.8-1.49-2.02-1.54-3.64h3.39c.01.6.18,1.07.51,1.42.33.35.8.52,1.43.52.53,0,.94-.15,1.24-.46.29-.31.44-.71.44-1.22,0-.65-.21-1.13-.62-1.42-.42-.29-1.08-.44-1.99-.44h-.65v-2.85h.65c.69,0,1.26-.12,1.69-.36.43-.24.64-.66.64-1.28,0-.49-.14-.87-.41-1.15-.27-.27-.65-.41-1.12-.41-.52,0-.9.16-1.15.47-.25.31-.4.7-.44,1.17h-3.41c.05-1.46.53-2.59,1.43-3.38Z" fill="#fff" stroke-width="0"/><path id="b" d="M29.6,0c0,3.87,84.65,7.01,189.06,7.01S407.72,3.87,407.72,0" fill="#29aae1" stroke-width="0"/><path id="c" d="M26.28,154c0-3.87,84.65-7.01,189.06-7.01s189.06,3.14,189.06,7.01" fill="#29aae1" stroke-width="0"/></svg>