<?xml version="1.0" encoding="UTF-8"?><svg id="a" xmlns="http://www.w3.org/2000/svg" width="381" height="154" viewBox="0 0 381 154"><path d="M34.13,38.83v4.81h-10.01v5.19h7.48v4.67h-7.48v9.97h-5.98v-24.64h15.99Z" fill="#fff" stroke-width="0"/><path d="M42.55,62.09c-1.93-1.08-3.46-2.58-4.58-4.51s-1.7-4.1-1.7-6.51.57-4.57,1.7-6.49,2.66-3.42,4.58-4.49,4.04-1.61,6.35-1.61,4.42.54,6.35,1.61c1.93,1.08,3.44,2.57,4.54,4.49s1.66,4.08,1.66,6.49-.56,4.58-1.68,6.51-2.64,3.43-4.54,4.51-4.03,1.61-6.33,1.61-4.42-.54-6.35-1.61h0ZM53.59,56.27c1.18-1.31,1.77-3.04,1.77-5.19s-.59-3.91-1.77-5.21-2.75-1.95-4.7-1.95-3.57.64-4.74,1.93-1.77,3.03-1.77,5.23.59,3.91,1.77,5.21,2.76,1.95,4.74,1.95,3.53-.66,4.7-1.97Z" fill="#fff" stroke-width="0"/><path d="M77.3,63.46l-5.1-9.3h-1.44v9.3h-5.98v-24.64h10.04c1.94,0,3.59.34,4.95,1.02,1.37.68,2.39,1.61,3.06,2.79.68,1.18,1.02,2.5,1.02,3.95,0,1.64-.46,3.1-1.38,4.39s-2.28,2.2-4.08,2.74l5.66,9.76h-6.75ZM70.75,49.92h3.71c1.1,0,1.92-.27,2.47-.81s.82-1.3.82-2.28-.27-1.67-.82-2.21-1.37-.81-2.47-.81h-3.71v6.11Z" fill="#fff" stroke-width="0"/><path d="M88.14,44.6c1.05-1.91,2.52-3.39,4.39-4.46,1.88-1.06,4.01-1.6,6.38-1.6,2.92,0,5.41.77,7.48,2.32,2.08,1.54,3.47,3.65,4.17,6.32h-6.57c-.49-1.03-1.19-1.81-2.08-2.35-.9-.54-1.92-.81-3.06-.81-1.84,0-3.34.64-4.47,1.93s-1.72,3.01-1.72,5.16.57,3.87,1.72,5.16c1.14,1.29,2.64,1.93,4.47,1.93,1.14,0,2.17-.27,3.06-.81.9-.54,1.59-1.32,2.08-2.35h6.57c-.7,2.67-2.09,4.77-4.17,6.3s-4.57,2.3-7.48,2.3c-2.38,0-4.5-.53-6.38-1.6-1.88-1.06-3.34-2.54-4.39-4.44-1.05-1.9-1.58-4.06-1.58-6.49s.53-4.6,1.58-6.51Z" fill="#fff" stroke-width="0"/><path d="M120.22,38.83v24.64h-5.98v-24.64h5.98Z" fill="#fff" stroke-width="0"/><path d="M146.52,63.46h-5.98l-10.01-15.2v15.2h-5.98v-24.64h5.98l10.01,15.27v-15.27h5.98v24.64Z" fill="#fff" stroke-width="0"/><path d="M167.16,46.62c-.44-.82-1.08-1.44-1.91-1.88-.83-.43-1.8-.65-2.92-.65-1.94,0-3.49.64-4.65,1.91s-1.75,2.98-1.75,5.11c0,2.27.61,4.04,1.84,5.32s2.91,1.91,5.05,1.91c1.47,0,2.71-.37,3.73-1.12,1.02-.75,1.76-1.82,2.22-3.23h-7.59v-4.42h13.01v5.58c-.44,1.5-1.2,2.89-2.26,4.18s-2.41,2.33-4.04,3.12-3.48,1.19-5.52,1.19c-2.43,0-4.58-.53-6.49-1.6-1.9-1.06-3.39-2.54-4.44-4.44-1.06-1.9-1.59-4.06-1.59-6.49s.53-4.6,1.59-6.51c1.06-1.91,2.54-3.39,4.42-4.46,1.89-1.06,4.05-1.6,6.47-1.6,2.94,0,5.41.71,7.43,2.14s3.36,3.4,4.01,5.93h-6.61,0Z" fill="#fff" stroke-width="0"/><path d="M202.66,50.67c-.65,1.18-1.66,2.14-3.01,2.86-1.35.73-3.03,1.09-5.03,1.09h-3.71v8.84h-5.98v-24.64h9.69c1.96,0,3.62.34,4.96,1.02s2.37,1.61,3.05,2.81c.68,1.19,1.02,2.56,1.02,4.11,0,1.43-.33,2.73-.98,3.91h0ZM196.72,49.04c.56-.54.84-1.3.84-2.28s-.28-1.74-.84-2.28c-.56-.54-1.41-.81-2.56-.81h-3.26v6.18h3.26c1.14,0,2-.27,2.56-.81Z" fill="#fff" stroke-width="0"/><path d="M212.74,43.64v4.98h8.01v4.63h-8.01v5.4h9.06v4.81h-15.04v-24.64h15.04v4.81h-9.06Z" fill="#fff" stroke-width="0"/><path d="M230.94,62.09c-1.93-1.08-3.46-2.58-4.58-4.51s-1.7-4.1-1.7-6.51.57-4.57,1.7-6.49,2.66-3.42,4.58-4.49,4.04-1.61,6.35-1.61,4.42.54,6.35,1.61c1.93,1.08,3.44,2.57,4.54,4.49s1.66,4.08,1.66,6.49-.56,4.58-1.68,6.51-2.64,3.43-4.54,4.51c-1.91,1.08-4.03,1.61-6.33,1.61s-4.42-.54-6.35-1.61ZM242,56.27c1.18-1.31,1.77-3.04,1.77-5.19s-.59-3.91-1.77-5.21-2.75-1.95-4.7-1.95-3.57.64-4.74,1.93-1.77,3.03-1.77,5.23.59,3.91,1.77,5.21,2.76,1.95,4.74,1.95,3.53-.66,4.7-1.97Z" fill="#fff" stroke-width="0"/><path d="M270.9,50.67c-.65,1.18-1.66,2.14-3.01,2.86-1.35.73-3.03,1.09-5.03,1.09h-3.71v8.84h-5.98v-24.64h9.69c1.96,0,3.62.34,4.96,1.02s2.37,1.61,3.05,2.81c.68,1.19,1.02,2.56,1.02,4.11,0,1.43-.33,2.73-.98,3.91h0ZM264.96,49.04c.56-.54.84-1.3.84-2.28s-.28-1.74-.84-2.28c-.56-.54-1.41-.81-2.56-.81h-3.26v6.18h3.26c1.14,0,2-.27,2.56-.81Z" fill="#fff" stroke-width="0"/><path d="M280.98,58.83h7.83v4.63h-13.81v-24.64h5.98v20h0Z" fill="#fff" stroke-width="0"/><path d="M297.66,43.64v4.98h8.01v4.63h-8.01v5.4h9.06v4.81h-15.04v-24.64h15.04v4.81h-9.06Z" fill="#fff" stroke-width="0"/><path d="M335.69,38.83v4.81h-6.5v19.83h-5.98v-19.83h-6.5v-4.81h19,0Z" fill="#fff" stroke-width="0"/><path d="M343.96,62.09c-1.93-1.08-3.46-2.58-4.58-4.51s-1.7-4.1-1.7-6.51.57-4.57,1.7-6.49,2.66-3.42,4.58-4.49,4.04-1.61,6.35-1.61,4.42.54,6.35,1.61c1.93,1.08,3.44,2.57,4.54,4.49s1.66,4.08,1.66,6.49-.56,4.58-1.68,6.51-2.64,3.43-4.54,4.51c-1.91,1.08-4.03,1.61-6.33,1.61s-4.42-.54-6.35-1.61ZM355.02,56.27c1.18-1.31,1.77-3.04,1.77-5.19s-.59-3.91-1.77-5.21-2.75-1.95-4.7-1.95-3.57.64-4.74,1.93-1.77,3.03-1.77,5.23.59,3.91,1.77,5.21,2.76,1.95,4.74,1.95,3.53-.66,4.7-1.97Z" fill="#fff" stroke-width="0"/><path d="M29.75,88.96v24.64h-5.98v-14.77l-5.49,14.77h-4.82l-5.52-14.81v14.81H1.94v-24.64h7.06l6.89,17.06,6.82-17.06s7.03,0,7.03,0Z" fill="#fff" stroke-width="0"/><path d="M49.33,109.25h-9.17l-1.47,4.35h-6.26l8.89-24.64h6.92l8.89,24.64h-6.33l-1.47-4.35ZM47.79,104.61l-3.05-9.02-3.01,9.02h6.05Z" fill="#fff" stroke-width="0"/><path d="M74.06,113.6l-8.26-10.88v10.88h-5.98v-24.64h5.98v10.81l8.19-10.81h7.03l-9.52,12.07,9.87,12.56h-7.31Z" fill="#fff" stroke-width="0"/><path d="M90.19,93.77v4.98h8.01v4.63h-8.01v5.4h9.06v4.81h-15.04v-24.64h15.04v4.81h-9.06,0Z" fill="#fff" stroke-width="0"/><path d="M128.21,88.96v4.81h-6.5v19.83h-5.98v-19.83h-6.5v-4.81h19,0Z" fill="#fff" stroke-width="0"/><path d="M143.74,113.6l-5.1-9.3h-1.44v9.3h-5.98v-24.64h10.04c1.94,0,3.59.34,4.95,1.02,1.37.68,2.39,1.61,3.06,2.79.68,1.18,1.02,2.5,1.02,3.95,0,1.64-.46,3.1-1.38,4.39s-2.28,2.2-4.08,2.74l5.66,9.76h-6.75ZM137.2,100.05h3.71c1.1,0,1.92-.27,2.47-.81s.82-1.3.82-2.28-.27-1.67-.82-2.21-1.37-.81-2.47-.81h-3.71s0,6.11,0,6.11Z" fill="#fff" stroke-width="0"/><path d="M169.31,109.25h-9.17l-1.47,4.35h-6.26l8.89-24.64h6.92l8.89,24.64h-6.33l-1.47-4.35h0ZM167.78,104.61l-3.05-9.02-3.01,9.02h6.05Z" fill="#fff" stroke-width="0"/><path d="M195.79,90.51c1.94,1.03,3.44,2.47,4.49,4.33s1.59,4.01,1.59,6.44-.53,4.55-1.59,6.42c-1.06,1.87-2.57,3.32-4.51,4.35s-4.21,1.54-6.77,1.54h-9.2v-24.64h9.2c2.59,0,4.85.52,6.78,1.54v.02ZM193.91,106.54c1.26-1.24,1.89-2.99,1.89-5.26s-.63-4.04-1.89-5.3-3.02-1.89-5.28-1.89h-2.84v14.32h2.84c2.26,0,4.03-.62,5.28-1.86h0Z" fill="#fff" stroke-width="0"/><path d="M211.22,93.77v4.98h8.01v4.63h-8.01v5.4h9.06v4.81h-15.04v-24.64h15.04v4.81h-9.06,0Z" fill="#fff" stroke-width="0"/><path d="M239.2,98.79v4.98h-15.39v-4.98h15.39Z" fill="#fff" stroke-width="0"/><path d="M249.71,112.23c-1.93-1.08-3.46-2.58-4.58-4.51s-1.7-4.1-1.7-6.51.57-4.57,1.7-6.49,2.66-3.42,4.58-4.49,4.04-1.61,6.35-1.61,4.42.54,6.35,1.61c1.93,1.08,3.44,2.57,4.54,4.49s1.66,4.08,1.66,6.49-.56,4.58-1.68,6.51-2.64,3.43-4.54,4.51c-1.91,1.08-4.03,1.61-6.33,1.61s-4.42-.54-6.35-1.61ZM260.77,106.4c1.18-1.31,1.77-3.04,1.77-5.19s-.59-3.91-1.77-5.21c-1.18-1.3-2.75-1.95-4.7-1.95s-3.57.64-4.74,1.93-1.77,3.03-1.77,5.23.59,3.91,1.77,5.21,2.76,1.95,4.74,1.95,3.53-.66,4.7-1.97Z" fill="#fff" stroke-width="0"/><path d="M287.93,88.96v4.81h-10.01v5.19h7.48v4.67h-7.48v9.97h-5.98v-24.64h15.99Z" fill="#fff" stroke-width="0"/><path d="M307.07,88.96v4.81h-10.01v5.19h7.48v4.67h-7.48v9.97h-5.98v-24.64h15.99Z" fill="#fff" stroke-width="0"/><path d="M314.27,112.97c-1.42-.58-2.56-1.45-3.41-2.6s-1.3-2.53-1.35-4.14h6.36c.09.91.41,1.61.95,2.09.54.48,1.24.72,2.1.72s1.59-.2,2.1-.61.77-.98.77-1.7c0-.61-.2-1.11-.61-1.51-.41-.4-.91-.72-1.51-.98s-1.44-.55-2.54-.88c-1.59-.49-2.88-.98-3.89-1.47-1-.49-1.87-1.22-2.59-2.18s-1.09-2.21-1.09-3.76c0-2.29.83-4.09,2.49-5.39s3.82-1.95,6.47-1.95,4.88.65,6.54,1.95,2.54,3.11,2.66,5.42h-6.47c-.05-.8-.34-1.42-.88-1.88s-1.23-.68-2.07-.68c-.72,0-1.31.19-1.75.58s-.67.94-.67,1.67c0,.8.37,1.42,1.12,1.86s1.91.92,3.5,1.44c1.59.54,2.88,1.05,3.87,1.54s1.85,1.21,2.57,2.14c.72.94,1.09,2.14,1.09,3.61s-.36,2.68-1.07,3.83c-.71,1.15-1.75,2.06-3.1,2.74s-2.95,1.02-4.79,1.02-3.41-.29-4.82-.88h.02Z" fill="#fff" stroke-width="0"/><path d="M344.89,89.56c1.51,1.31,2.26,3.16,2.26,5.54,0,2.2-.72,3.91-2.15,5.14-1.44,1.23-3.33,1.85-5.68,1.88l-.18,2.63h-5.24l-.17-6.53h2.1c1.8,0,3.17-.22,4.11-.67.95-.44,1.42-1.25,1.42-2.42,0-.82-.22-1.46-.67-1.93-.44-.47-1.06-.7-1.86-.7-.84,0-1.49.24-1.96.72s-.7,1.13-.7,1.95h-5.63c-.05-1.43.25-2.71.89-3.86s1.6-2.05,2.87-2.72,2.81-1,4.6-1c2.5,0,4.49.66,6,1.97ZM334.01,112.95c-.67-.62-1-1.39-1-2.3s.33-1.72,1-2.35,1.52-.95,2.57-.95,1.87.32,2.54.95,1,1.42,1,2.35-.33,1.68-1,2.3c-.66.62-1.51.93-2.54.93s-1.91-.31-2.57-.93Z" fill="#fff" stroke-width="0"/><path d="M348.92,90.21v-3.25h5.65v14.94h-3.64v-11.69h-2.02Z" fill="#fff" stroke-width="0"/><path d="M366.08,93.26v2.91h-8.98v-2.91h8.98Z" fill="#fff" stroke-width="0"/><path d="M370.34,87.8c.9-.79,2.12-1.19,3.66-1.19,1.02,0,1.9.18,2.62.53s1.28.84,1.65,1.45.56,1.3.56,2.07c0,.9-.22,1.63-.67,2.2s-.97.95-1.57,1.16v.08c.78.26,1.39.69,1.84,1.29s.67,1.37.67,2.31c0,.85-.19,1.59-.58,2.24-.39.65-.95,1.16-1.7,1.53-.74.37-1.62.55-2.65.55-1.63,0-2.94-.4-3.91-1.21-.97-.8-1.49-2.02-1.54-3.64h3.39c0,.6.18,1.07.51,1.42.33.35.8.52,1.43.52.53,0,.94-.15,1.24-.46.29-.31.44-.71.44-1.22,0-.65-.21-1.13-.62-1.42-.42-.29-1.08-.44-1.99-.44h-.65v-2.85h.65c.69,0,1.26-.12,1.69-.36s.64-.66.64-1.28c0-.49-.14-.87-.41-1.15-.27-.27-.65-.41-1.12-.41-.52,0-.9.16-1.15.47s-.4.7-.44,1.17h-3.41c.05-1.46.53-2.59,1.43-3.38v.02Z" fill="#fff" stroke-width="0"/><path id="b" d="M3.32,0c0,3.87,84.55,7.01,188.84,7.01S381,3.87,381,0" fill="#29aae1" stroke-width="0"/><path id="c" d="M0,154c0-3.87,84.55-7.01,188.84-7.01s188.84,3.14,188.84,7.01" fill="#29aae1" stroke-width="0"/></svg>