<svg xmlns="http://www.w3.org/2000/svg" xmlns:xlink="http://www.w3.org/1999/xlink" width="114.068" height="113.103" viewBox="0 0 114.068 113.103">
  <defs>
    <clipPath id="clip-path">
      <rect id="Rectangle_469" data-name="Rectangle 469" width="114.068" height="113.103" fill="#fff"/>
    </clipPath>
  </defs>
  <g id="triple-icon-injection" clip-path="url(#clip-path)">
    <path id="Path_315" data-name="Path 315" d="M29.114,44.43,58.993,74.015l15.551-15.4L44.664,29.033ZM58.993,78.27a1.763,1.763,0,0,1-1.243-.512L25.358,45.686a1.768,1.768,0,0,1,0-2.511L43.421,25.289a1.771,1.771,0,0,1,2.487,0L78.3,57.363a1.768,1.768,0,0,1,0,2.511L60.236,77.758a1.763,1.763,0,0,1-1.243.512" transform="translate(-8.793 -8.773)" fill="#fff"/>
    <path id="Path_316" data-name="Path 316" d="M79.258,94.081l18.18,18a3.184,3.184,0,0,0,2.36.891,9.156,9.156,0,0,0,3.984-1.15,22.42,22.42,0,0,0,8.965-8.875c.836-1.6,1.981-4.54.267-6.239L94.808,78.684ZM99.8,116.507a6.721,6.721,0,0,1-4.847-1.914L75.5,95.338a1.77,1.77,0,0,1,0-2.513L93.565,74.941a1.767,1.767,0,0,1,2.487,0L115.5,94.2c2.429,2.406,2.568,6.192.38,10.382a25.847,25.847,0,0,1-10.492,10.391,12.441,12.441,0,0,1-5.591,1.537" transform="translate(-26.547 -26.352)" fill="#fff"/>
    <path id="Path_317" data-name="Path 317" d="M54.567,25.891a1.767,1.767,0,0,1-1.243-3.023l4.465-4.422a1.767,1.767,0,0,1,2.488,2.511L55.811,25.38a1.763,1.763,0,0,1-1.243.512" transform="translate(-18.694 -6.35)" fill="#fff"/>
    <path id="Path_318" data-name="Path 318" d="M19.69,60.426A1.767,1.767,0,0,1,18.447,57.4l4.465-4.421A1.767,1.767,0,0,1,25.4,55.492l-4.466,4.422a1.763,1.763,0,0,1-1.243.512" transform="translate(-6.346 -18.577)" fill="#fff"/>
    <path id="Path_319" data-name="Path 319" d="M122.722,128.866l4.162,4.121,7.217-7.144-4.169-4.128a26.818,26.818,0,0,1-7.21,7.151m4.162,8.376a1.763,1.763,0,0,1-1.243-.512l-7.038-6.969a1.768,1.768,0,0,1,.439-2.831,22.4,22.4,0,0,0,8.964-8.873,1.767,1.767,0,0,1,2.811-.44l7.04,6.969a1.768,1.768,0,0,1,0,2.511l-9.729,9.633a1.763,1.763,0,0,1-1.243.512" transform="translate(-41.806 -41.462)" fill="#fff"/>
    <path id="Path_320" data-name="Path 320" d="M20.193,3.535a3.587,3.587,0,0,0-2.363,1.209L4.8,17.649c-1.242,1.229-1.409,2.334-1.151,2.958a1.312,1.312,0,0,0,1.278.784,3.7,3.7,0,0,0,2.437-1.253l13.033-12.9c1.022-1.01,1.435-2.091,1.107-2.89a1.345,1.345,0,0,0-1.307-.809M4.924,24.926A4.805,4.805,0,0,1,.377,21.953c-.9-2.18-.174-4.729,1.934-6.815l13.033-12.9A6.847,6.847,0,0,1,20.193,0,4.9,4.9,0,0,1,24.77,3c.892,2.17.185,4.693-1.888,6.746L9.849,22.65a6.963,6.963,0,0,1-4.925,2.276" transform="translate(0 0)" fill="#fff"/>
    <path id="Path_321" data-name="Path 321" d="M19.227,23.913l9.291,9.2,4.717-4.67-9.293-9.2Zm9.291,13.454a1.763,1.763,0,0,1-1.243-.512l-11.8-11.688a1.768,1.768,0,0,1,0-2.511L22.7,15.5a1.768,1.768,0,0,1,2.488,0l11.8,11.688a1.768,1.768,0,0,1,0,2.511l-7.228,7.158a1.763,1.763,0,0,1-1.243.512" transform="translate(-5.292 -5.306)" fill="#fff"/>
    <path id="Path_322" data-name="Path 322" d="M160.63,161.025a1.763,1.763,0,0,1-1.243-.512l-22.36-22.139a1.768,1.768,0,0,1,2.488-2.513L161.874,158a1.767,1.767,0,0,1-1.243,3.023" transform="translate(-48.329 -47.921)" fill="#fff"/>
    <path id="Path_323" data-name="Path 323" d="M61.139,51.354A1.767,1.767,0,0,1,59.9,48.331l6.551-6.487a1.767,1.767,0,0,1,2.488,2.511l-6.552,6.487a1.763,1.763,0,0,1-1.243.512" transform="translate(-21.021 -14.634)" fill="#fff"/>
    <path id="Path_324" data-name="Path 324" d="M86.211,76.18a1.767,1.767,0,0,1-1.243-3.023l6.551-6.487a1.767,1.767,0,1,1,2.488,2.511l-6.552,6.487a1.763,1.763,0,0,1-1.243.512" transform="translate(-29.898 -23.423)" fill="#fff"/>
    <path id="Path_325" data-name="Path 325" d="M74.562,56.389a1.767,1.767,0,0,1-1.243-3.023L76.6,50.119a1.767,1.767,0,1,1,2.486,2.513l-3.278,3.246a1.763,1.763,0,0,1-1.243.512" transform="translate(-25.773 -17.564)" fill="#fff"/>
    <path id="Path_326" data-name="Path 326" d="M57.847,39.838A1.767,1.767,0,0,1,56.6,36.815l3.279-3.247a1.767,1.767,0,1,1,2.486,2.513l-3.278,3.246a1.763,1.763,0,0,1-1.243.512" transform="translate(-19.855 -11.704)" fill="#fff"/>
    <path id="Path_327" data-name="Path 327" d="M82.92,64.664a1.767,1.767,0,0,1-1.243-3.023l3.279-3.247a1.767,1.767,0,1,1,2.486,2.513l-3.278,3.246a1.763,1.763,0,0,1-1.243.512" transform="translate(-28.733 -20.494)" fill="#fff"/>
    <path id="Path_328" data-name="Path 328" d="M111.283,101a1.767,1.767,0,0,1-1.243-3.023l6.551-6.487a1.767,1.767,0,0,1,2.488,2.511l-6.552,6.487a1.763,1.763,0,0,1-1.243.512" transform="translate(-38.775 -32.213)" fill="#fff"/>
    <path id="Path_329" data-name="Path 329" d="M124.707,106.04a1.767,1.767,0,0,1-1.243-3.023l3.279-3.247a1.767,1.767,0,1,1,2.486,2.513l-3.278,3.246a1.763,1.763,0,0,1-1.243.512" transform="translate(-43.527 -35.143)" fill="#fff"/>
    <path id="Path_330" data-name="Path 330" d="M107.992,89.489a1.767,1.767,0,0,1-1.243-3.023l3.279-3.247a1.767,1.767,0,1,1,2.486,2.513l-3.278,3.246a1.763,1.763,0,0,1-1.243.512" transform="translate(-37.609 -29.283)" fill="#fff"/>
  </g>
</svg>
