<?xml version="1.0" encoding="UTF-8"?><svg id="a" xmlns="http://www.w3.org/2000/svg" width="44" height="107" viewBox="0 0 44 107"><path id="b" d="M8.84,98.34c-3.5-3.5-5.46-8.27-5.45-13.23V22.11c0-10.33,8.33-18.71,18.61-18.71,10.27,0,18.6,8.38,18.6,18.71h0v63c0,10.33-8.33,18.71-18.61,18.71-4.93,0-9.66-1.97-13.15-5.48M37.55,6.47c-8.6-8.64-22.53-8.63-31.12.02C2.32,10.64,0,16.25,0,22.11v63c.13,12.22,10.09,22.02,22.24,21.89,11.85-.13,21.47-9.68,21.76-21.59v-.29s0-63,0-63c.02-5.87-2.3-11.5-6.44-15.64" fill="#fff" stroke-width="0"/><path id="c" d="M23.2,8.18c-.32-.32-.75-.5-1.2-.5-7.93,0-14.35,6.47-14.36,14.44,0,.94.76,1.71,1.7,1.71.94,0,1.7-.76,1.7-1.71h0c0-6.09,4.91-11.02,10.96-11.02.94,0,1.7-.77,1.7-1.71,0-.45-.18-.89-.5-1.21h0Z" fill="#fff" stroke-width="0"/><path id="d" d="M35.86,83.91c-.66-.67-1.74-.67-2.4,0-.32.32-.5.75-.5,1.21,0,6.09-4.91,11.02-10.96,11.02-.94-.01-1.71.74-1.72,1.68s.73,1.72,1.67,1.73h0s.03,0,.05,0c7.93,0,14.35-6.47,14.36-14.44,0-.45-.18-.89-.5-1.2" fill="#fff" stroke-width="0"/><path id="e" d="M43.5,52.41c-.32-.32-.75-.5-1.2-.5H1.7c-.94.02-1.68.8-1.66,1.74.02.91.75,1.65,1.66,1.67h40.6c.94,0,1.7-.77,1.7-1.71,0-.45-.18-.88-.5-1.2h0Z" fill="#fff" stroke-width="0"/></svg>