<svg xmlns="http://www.w3.org/2000/svg" xmlns:xlink="http://www.w3.org/1999/xlink" width="95.198" height="114.374" viewBox="0 0 95.198 114.374">
  <defs>
    <clipPath id="clip-path">
      <rect id="Rectangle_465" data-name="Rectangle 465" width="95.198" height="114.374" fill="#fff"/>
    </clipPath>
  </defs>
  <g id="triple-icon-infunsion" clip-path="url(#clip-path)">
    <path id="Path_308" data-name="Path 308" d="M10.237,78V60.268c7.9-2.242,10.986-.879,14.248.559,3.637,1.6,7.393,3.261,16.713.3V78A10.461,10.461,0,0,1,30.748,88.452H20.686A10.461,10.461,0,0,1,10.237,78M30.748,91.12A13.133,13.133,0,0,0,43.866,78V59.271a1.333,1.333,0,0,0-1.778-1.257c-9.642,3.409-12.986,1.934-16.526.372a19.372,19.372,0,0,0-6.38-1.894A27.978,27.978,0,0,0,8.514,58a1.335,1.335,0,0,0-.945,1.276V78A13.133,13.133,0,0,0,20.686,91.12Z" transform="translate(-2.804 -20.901)" fill="#fff"/>
    <path id="Path_309" data-name="Path 309" d="M90.076,87.78H86.612V81.655h3.464ZM17.769,77.471V74.983H28.058v2.488a1.135,1.135,0,0,1-1.134,1.134H18.9a1.135,1.135,0,0,1-1.134-1.134M3.05,57.1V17.9a6.5,6.5,0,0,1,6.49-6.49H36.288a6.5,6.5,0,0,1,6.489,6.49V57.1A14.849,14.849,0,0,1,27.944,71.933H17.882A14.849,14.849,0,0,1,3.05,57.1M20.259,5.7a2.654,2.654,0,1,1,2.655,2.653A2.657,2.657,0,0,1,20.259,5.7m73.415,72.9h-3.8V63.77a17.884,17.884,0,1,0-35.768,0V96.489a14.835,14.835,0,1,1-29.67,0V81.655h2.485a4.189,4.189,0,0,0,4.184-4.184V74.705A17.891,17.891,0,0,0,45.826,57.1V17.9a9.551,9.551,0,0,0-9.538-9.54H27.959a5.7,5.7,0,1,0-10.092,0H9.54A9.552,9.552,0,0,0,0,17.9V57.1a17.893,17.893,0,0,0,14.719,17.6v2.765A4.189,4.189,0,0,0,18.9,81.655h2.485V96.489a17.884,17.884,0,1,0,35.768,0V63.77a14.835,14.835,0,1,1,29.67,0V78.605H83.014a1.525,1.525,0,0,0,0,3.05h.548v6.137A3.04,3.04,0,0,0,86.6,90.829h.219v6.05a1.525,1.525,0,0,0,3.049,0v-6.05h.219a3.04,3.04,0,0,0,3.038-3.037V81.655h.548a1.525,1.525,0,0,0,0-3.05" transform="translate(0 0)" fill="#fff"/>
    <path id="Path_310" data-name="Path 310" d="M25.455,30.845H38.1a1.525,1.525,0,0,0,0-3.05H25.455a1.525,1.525,0,0,0,0,3.05" transform="translate(-8.866 -10.298)" fill="#fff"/>
    <path id="Path_311" data-name="Path 311" d="M25.455,44.8H38.1a1.525,1.525,0,0,0,0-3.05H25.455a1.525,1.525,0,0,0,0,3.05" transform="translate(-8.866 -15.466)" fill="#fff"/>
  </g>
</svg>
