<?xml version="1.0" encoding="UTF-8"?><svg id="a" xmlns="http://www.w3.org/2000/svg" width="41.5" height="147.5" viewBox="0 0 41.5 147.5"><path id="b" d="M9.83,27.23l.21,42.03,21.87.11-.21-42.03-21.87-.11ZM7.03,72.27c-.33-.33-.51-.77-.52-1.24l-.23-45.56c0-.98.78-1.77,1.76-1.77,0,0,.01,0,.02,0l25.4.13c.97,0,1.75.79,1.76,1.76l.22,45.56c0,.98-.78,1.77-1.76,1.77,0,0-.01,0-.02,0l-25.4-.13c-.47,0-.91-.19-1.24-.52" fill="#fff" stroke-width="0"/><path id="c" d="M10.05,72.79l.13,25.57c.01.88.39,1.71,1.04,2.3,1.04.94,2.28,1.62,3.63,2,4.11,1.23,8.49,1.25,12.61.06,1.72-.54,4.61-1.81,4.6-4.22l-.13-25.61-21.87-.11ZM8.72,103.16c-1.31-1.25-2.05-2.97-2.07-4.78l-.14-27.36c0-.98.78-1.77,1.76-1.78,0,0,0,0,.01,0l25.4.13c.97,0,1.75.79,1.76,1.76l.13,27.36c.02,3.42-2.56,6.19-7.07,7.61-4.82,1.41-9.95,1.39-14.76-.07-1.88-.54-3.61-1.53-5.04-2.87" fill="#fff" stroke-width="0"/><path id="d" d="M32.2,26.83c-.69-.69-.69-1.81,0-2.5.33-.33.79-.52,1.26-.52l6.28.03c.98,0,1.76.8,1.76,1.77,0,.98-.8,1.76-1.77,1.76h0l-6.28-.03c-.47,0-.91-.19-1.24-.52" fill="#fff" stroke-width="0"/><path id="e" d="M.52,26.68c-.69-.69-.69-1.81,0-2.5.33-.34.79-.52,1.26-.52l6.28.03c.98,0,1.76.8,1.76,1.78s-.8,1.76-1.78,1.76l-6.28-.03c-.47,0-.91-.19-1.24-.52" fill="#fff" stroke-width="0"/><path id="f" d="M16.08,106.64l.03,5.85,10.15.05-.03-5.86c-3.35.63-6.8.62-10.15-.04M13.1,115.5c-.33-.33-.51-.77-.52-1.24l-.05-9.9c0-.98.78-1.77,1.76-1.78.19,0,.37.03.55.09,4.11,1.23,8.48,1.25,12.6.06.93-.29,1.92.22,2.22,1.15.05.17.08.35.08.52l.05,9.9c0,.98-.78,1.77-1.76,1.77,0,0-.01,0-.02,0l-13.68-.07c-.47,0-.91-.19-1.24-.52" fill="#fff" stroke-width="0"/><path id="g" d="M32.43,4.44c-.71-.58-1.61-.88-2.52-.82l-18.33-.09c-1.75,0-2.65.65-2.9,1.28-.2.51-.06,1.09.35,1.46.73.6,1.66.9,2.61.84l18.33.09c1.44,0,2.49-.46,2.82-1.26.21-.52.07-1.12-.35-1.5M6.53,8.77c-1.43-1.37-1.87-3.48-1.11-5.32C6.32,1.27,8.63-.02,11.6,0l18.33.09c1.85-.09,3.66.58,5.01,1.85,1.43,1.39,1.87,3.51,1.11,5.36-.9,2.16-3.19,3.45-6.1,3.43l-18.33-.09c-1.88.09-3.72-.59-5.09-1.87" fill="#fff" stroke-width="0"/><path id="h" d="M17.36,10.67l.06,13.07,6.63.03-.07-13.07-6.63-.03ZM14.42,26.74c-.33-.33-.51-.77-.52-1.24l-.08-16.6c0-.98.78-1.77,1.76-1.77,0,0,.01,0,.02,0l10.16.05c.97,0,1.75.79,1.76,1.76l.08,16.6c0,.98-.78,1.77-1.76,1.77,0,0-.01,0-.02,0l-10.17-.05c-.47,0-.91-.19-1.24-.52" fill="#fff" stroke-width="0"/><path id="i" d="M20.1,146.98c-.33-.33-.51-.77-.52-1.24l-.16-31.45c0-.98.78-1.77,1.76-1.78s1.77.78,1.78,1.76h0l.16,31.45c0,.98-.78,1.77-1.76,1.78-.47,0-.92-.18-1.26-.52" fill="#fff" stroke-width="0"/><path id="j" d="M23.06,41.98c-.69-.69-.69-1.81,0-2.5.33-.33.78-.52,1.26-.51l9.21.05c.98,0,1.76.8,1.76,1.77,0,.98-.8,1.76-1.77,1.76l-9.21-.05c-.47,0-.91-.19-1.24-.52" fill="#fff" stroke-width="0"/><path id="k" d="M23.18,64.76c-.69-.69-.69-1.81,0-2.5.33-.33.79-.52,1.26-.52l9.21.05c.98,0,1.76.8,1.76,1.77,0,.98-.8,1.76-1.77,1.76l-9.21-.05c-.47,0-.91-.19-1.24-.52" fill="#fff" stroke-width="0"/><path id="l" d="M27.7,49.59c-.69-.69-.69-1.81,0-2.5.33-.33.79-.52,1.26-.52l4.61.02c.98,0,1.76.8,1.76,1.78,0,.98-.8,1.76-1.78,1.76l-4.61-.02c-.47,0-.91-.19-1.24-.52" fill="#fff" stroke-width="0"/><path id="m" d="M27.63,34.41c-.69-.69-.69-1.81,0-2.5.33-.34.79-.52,1.26-.52l4.61.02c.98,0,1.76.8,1.76,1.78s-.8,1.76-1.78,1.76l-4.61-.02c-.47,0-.91-.19-1.24-.52" fill="#fff" stroke-width="0"/><path id="n" d="M27.74,57.19c-.69-.69-.69-1.81,0-2.5.33-.33.79-.52,1.26-.52l4.61.02c.98,0,1.76.8,1.76,1.78,0,.98-.8,1.76-1.78,1.76l-4.61-.02c-.47,0-.91-.19-1.24-.52" fill="#fff" stroke-width="0"/><path id="o" d="M23.29,87.53c-.69-.69-.69-1.81,0-2.5.33-.33.79-.52,1.26-.52l9.21.05c.98,0,1.76.8,1.76,1.77,0,.98-.8,1.76-1.77,1.76l-9.21-.05c-.47,0-.91-.19-1.24-.52" fill="#fff" stroke-width="0"/><path id="p" d="M27.93,95.16c-.69-.69-.69-1.81,0-2.5.33-.33.79-.52,1.26-.52l4.61.02c.98,0,1.76.8,1.76,1.78,0,.98-.8,1.76-1.78,1.76l-4.61-.02c-.47,0-.91-.19-1.24-.52" fill="#fff" stroke-width="0"/><path id="q" d="M27.85,79.97c-.69-.69-.69-1.81,0-2.5.33-.33.79-.52,1.26-.52l4.61.02c.98,0,1.76.8,1.76,1.78,0,.98-.8,1.76-1.78,1.76l-4.61-.02c-.47,0-.91-.19-1.24-.52" fill="#fff" stroke-width="0"/></svg>