<svg xmlns="http://www.w3.org/2000/svg" xmlns:xlink="http://www.w3.org/1999/xlink" width="89.186" height="89.186" viewBox="0 0 89.186 89.186">
  <defs>
    <clipPath id="clip-path">
      <rect id="Rectangle_470" data-name="Rectangle 470" width="89.186" height="89.186" fill="#fff"/>
    </clipPath>
  </defs>
  <g id="triple-icon-oral" clip-path="url(#clip-path)">
    <path id="Path_331" data-name="Path 331" d="M3.53,66.885a18.642,18.642,0,0,1,5.5-13.276L53.719,8.922A18.769,18.769,0,0,1,80.263,35.466L35.571,80.158A18.77,18.77,0,0,1,3.53,66.885m85.656-44.69A22.2,22.2,0,0,0,51.3,6.5L6.606,51.192a22.2,22.2,0,0,0,31.18,31.6l.208-.209,44.69-44.69a22.048,22.048,0,0,0,6.5-15.694" transform="translate(0 0)" fill="#fff"/>
    <path id="Path_332" data-name="Path 332" d="M128.083,20.071a1.71,1.71,0,0,0-.5-1.211,14.5,14.5,0,0,0-20.487,0,1.714,1.714,0,0,0,2.424,2.424,11.069,11.069,0,0,1,15.64,0,1.714,1.714,0,0,0,2.925-1.211Z" transform="translate(-50.347 -6.908)" fill="#fff"/>
    <path id="Path_333" data-name="Path 333" d="M43.373,142.326a1.714,1.714,0,0,0-2.925-1.213,11.069,11.069,0,0,1-15.64,0,1.713,1.713,0,0,0-2.459,2.386.32.32,0,0,0,.035.035,14.5,14.5,0,0,0,20.487,0,1.7,1.7,0,0,0,.5-1.209" transform="translate(-10.327 -66.407)" fill="#fff"/>
    <path id="Path_334" data-name="Path 334" d="M86.306,84.395a1.714,1.714,0,0,0-.5-1.206L56.839,54.219a1.713,1.713,0,0,0-2.421,2.423L83.388,85.607a1.714,1.714,0,0,0,2.924-1.213Z" transform="translate(-25.465 -25.372)" fill="#fff"/>
  </g>
</svg>
