<?xml version="1.0" encoding="UTF-8"?><svg id="a" xmlns="http://www.w3.org/2000/svg" width="95" height="114" viewBox="0 0 95 114"><path id="b" d="M7.42,56.91v-17.67c7.88-2.23,10.96-.88,14.22.56,3.63,1.59,7.38,3.25,16.68.3v16.82c0,5.75-4.67,10.41-10.43,10.42h-10.04c-5.76,0-10.42-4.67-10.43-10.42M27.89,69.98c7.23,0,13.08-5.86,13.09-13.08v-18.67c0-.73-.6-1.33-1.33-1.33-.15,0-.3.03-.44.08-9.62,3.4-12.96,1.93-16.49.37-2-.99-4.15-1.63-6.37-1.89-3.61-.19-7.23.32-10.65,1.5-.56.17-.94.69-.94,1.27v18.66c0,7.22,5.86,13.07,13.09,13.08h10.04Z" fill="#fff" stroke-width="0"/><path id="c" d="M89.89,87.49h-3.46v-6.11h3.46v6.11ZM17.73,77.21v-2.48h10.27v2.48c0,.62-.51,1.13-1.13,1.13h-8.01c-.62,0-1.13-.51-1.13-1.13M3.04,56.91V17.83c0-3.57,2.9-6.46,6.48-6.47h26.69c3.57,0,6.47,2.9,6.48,6.47v39.07c0,8.16-6.63,14.78-14.8,14.78h-10.04c-8.17,0-14.79-6.62-14.8-14.78M20.22,5.67c0-1.46,1.18-2.65,2.65-2.65,1.46,0,2.65,1.18,2.65,2.64,0,1.46-1.18,2.65-2.65,2.65-1.46,0-2.65-1.18-2.65-2.64M93.48,78.34h-3.79v-14.78c0-9.84-7.99-17.83-17.84-17.83s-17.85,7.98-17.85,17.82h0v32.62c0,8.17-6.63,14.79-14.8,14.79s-14.8-6.62-14.8-14.79v-14.79h2.48c2.3,0,4.17-1.87,4.18-4.17v-2.76c8.5-1.53,14.69-8.92,14.69-17.55V17.83c0-5.25-4.26-9.5-9.52-9.51h-8.31c1.46-2.78.39-6.21-2.39-7.67-2.78-1.46-6.22-.39-7.68,2.39-.87,1.65-.87,3.63,0,5.28h-8.31C4.27,8.33,0,12.59,0,17.83v39.07c0,8.63,6.19,16.01,14.69,17.54v2.76c0,2.3,1.87,4.17,4.17,4.18h2.48v14.79c0,9.84,7.98,17.83,17.84,17.83,9.86,0,17.85-7.97,17.85-17.82h0v-32.63c0-8.17,6.62-14.79,14.8-14.79,8.18,0,14.81,6.62,14.81,14.78h0v14.8h-3.8c-.84,0-1.52.68-1.52,1.52s.68,1.52,1.52,1.52h.55v6.12c0,1.67,1.36,3.03,3.03,3.03h.22v6.03c.02.84.72,1.5,1.56,1.48.81-.02,1.46-.67,1.48-1.48v-6.03h.22c1.67,0,3.03-1.36,3.03-3.03v-6.12h.55c.84,0,1.52-.68,1.52-1.52s-.68-1.52-1.52-1.52" fill="#fff" stroke-width="0"/><path id="d" d="M16.55,20.47h12.62c.84,0,1.52-.68,1.52-1.52,0-.84-.68-1.52-1.52-1.52h-12.62c-.84,0-1.52.68-1.52,1.52,0,.84.68,1.52,1.52,1.52" fill="#fff" stroke-width="0"/><path id="e" d="M16.55,29.23h12.62c.84,0,1.52-.68,1.52-1.52,0-.84-.68-1.52-1.52-1.52h-12.62c-.84,0-1.52.68-1.52,1.52,0,.84.68,1.52,1.52,1.52" fill="#fff" stroke-width="0"/></svg>