<?xml version="1.0" encoding="UTF-8"?><svg xmlns="http://www.w3.org/2000/svg" width="288.83" height="71.11" viewBox="0 0 288.83 71.11"><g id="a"><g id="b"><path id="c" d="M35.56,0C55.19,0,71.11,15.92,71.11,35.56s-15.92,35.56-35.56,35.56S0,55.19,0,35.56h0C0,15.92,15.92,0,35.56,0Z" fill="#e0b2b0" stroke-width="0"/><path id="d" d="M35.56,8.43c14.98,0,27.13,12.15,27.13,27.13s-12.15,27.13-27.13,27.13-27.13-12.15-27.13-27.13h0c0-14.98,12.15-27.13,27.13-27.13Z" fill="#be5b56" stroke-width="0"/><path id="e" d="M35.56,16.78c10.37,0,18.77,8.41,18.77,18.77s-8.41,18.77-18.77,18.77-18.77-8.41-18.77-18.77c0-10.37,8.41-18.77,18.77-18.77h0Z" fill="#dfaeab" stroke-width="0"/></g></g><g id="f"><g id="g"><path id="h" d="M144.42,0C164.05,0,179.97,15.92,179.97,35.56s-15.92,35.56-35.56,35.56-35.56-15.92-35.56-35.56h0C108.86,15.92,124.78,0,144.42,0Z" fill="#f6e6bb" stroke-width="0"/><path id="i" d="M144.42,8.43c14.98,0,27.13,12.15,27.13,27.13s-12.15,27.13-27.13,27.13-27.13-12.15-27.13-27.13h0c0-14.98,12.15-27.13,27.13-27.13Z" fill="#ecc361" stroke-width="0"/><path id="j" d="M144.42,16.78c10.37,0,18.77,8.41,18.77,18.77s-8.41,18.77-18.77,18.77-18.77-8.41-18.77-18.77c0-10.37,8.41-18.77,18.77-18.77h0Z" fill="#f6e1ad" stroke-width="0"/></g></g><g id="k"><g id="l"><path id="m" d="M253.28,0c19.64,0,35.56,15.92,35.56,35.56s-15.92,35.56-35.56,35.56-35.56-15.92-35.56-35.56h0C217.72,15.92,233.64,0,253.28,0Z" fill="#a7ddf3" stroke-width="0"/><path id="n" d="M253.28,8.43c14.98,0,27.13,12.15,27.13,27.13s-12.15,27.13-27.13,27.13-27.13-12.15-27.13-27.13h0c0-14.98,12.15-27.13,27.13-27.13Z" fill="#29a9e1" stroke-width="0"/><path id="o" d="M253.28,16.78c10.37,0,18.77,8.41,18.77,18.77s-8.41,18.77-18.77,18.77-18.77-8.41-18.77-18.77c0-10.37,8.41-18.77,18.77-18.77h0Z" fill="#91d3ef" stroke-width="0"/></g></g></svg>